<svg width="392" height="174" viewBox="0 0 392 174" fill="none" xmlns="http://www.w3.org/2000/svg">
<path d="M182.184 77.2314C183.527 75.7663 184.901 74.2401 186.305 72.6528C187.77 71.0655 189.174 69.5088 190.517 67.9826C191.86 66.3953 193.112 64.8996 194.272 63.4955C195.493 62.0914 196.53 60.8704 197.385 59.8326H213.593C210.358 63.5565 207.183 67.1279 204.07 70.5466C201.017 73.9043 197.66 77.3841 193.997 80.9859C195.828 82.6343 197.721 84.6183 199.674 86.9382C201.628 89.197 203.52 91.5474 205.352 93.9893C207.183 96.4313 208.862 98.8732 210.388 101.315C211.915 103.757 213.197 105.985 214.234 108H198.575C197.599 106.413 196.469 104.673 195.187 102.78C193.966 100.827 192.654 98.9037 191.25 97.0112C189.846 95.0577 188.35 93.1957 186.763 91.4253C185.236 89.6549 183.71 88.1592 182.184 86.9382V108H168.54V39.137L182.184 36.9393V77.2314ZM261.792 106.352C259.472 107.023 256.48 107.634 252.818 108.183C249.155 108.794 245.309 109.099 241.279 109.099C237.189 109.099 233.77 108.549 231.023 107.451C228.337 106.352 226.2 104.825 224.613 102.872C223.026 100.857 221.896 98.4764 221.225 95.7292C220.553 92.982 220.217 89.9601 220.217 86.6635V59.8326H233.862V85.0152C233.862 89.4107 234.442 92.5852 235.602 94.5388C236.762 96.4923 238.929 97.4691 242.103 97.4691C243.08 97.4691 244.118 97.4386 245.217 97.3775C246.316 97.2554 247.293 97.1333 248.147 97.0112V59.8326H261.792V106.352ZM305.46 83.55C305.46 74.759 302.224 70.3635 295.753 70.3635C294.349 70.3635 292.945 70.5466 291.541 70.9129C290.198 71.2792 289.099 71.7371 288.244 72.2865V97.1028C288.916 97.2249 289.77 97.347 290.808 97.4691C291.846 97.5301 292.975 97.5607 294.196 97.5607C297.92 97.5607 300.729 96.2786 302.621 93.7146C304.514 91.1506 305.46 87.7623 305.46 83.55ZM319.379 83.9163C319.379 87.7623 318.799 91.2421 317.639 94.3556C316.54 97.4691 314.922 100.125 312.786 102.322C310.649 104.52 308.024 106.23 304.91 107.451C301.797 108.61 298.256 109.19 294.288 109.19C292.64 109.19 290.9 109.099 289.068 108.916C287.298 108.794 285.527 108.61 283.757 108.366C282.048 108.122 280.399 107.847 278.812 107.542C277.225 107.176 275.821 106.81 274.6 106.443V39.137L288.244 36.9393V60.9314C289.77 60.2599 291.358 59.741 293.006 59.3747C294.654 59.0084 296.425 58.8253 298.317 58.8253C301.736 58.8253 304.758 59.4357 307.383 60.6567C310.008 61.8166 312.206 63.4955 313.976 65.6932C315.747 67.891 317.09 70.5466 318.005 73.6601C318.921 76.7125 319.379 80.1313 319.379 83.9163ZM327.576 84.2826C327.576 80.0092 328.217 76.2852 329.499 73.1107C330.842 69.8751 332.582 67.1889 334.719 65.0522C336.856 62.9155 339.298 61.2977 342.045 60.1988C344.853 59.1 347.722 58.5505 350.653 58.5505C357.49 58.5505 362.893 60.6567 366.861 64.8691C370.829 69.0204 372.813 75.1558 372.813 83.2753C372.813 84.0689 372.783 84.9541 372.722 85.9309C372.661 86.8466 372.6 87.6708 372.539 88.4034H341.587C341.892 91.2116 343.205 93.4399 345.525 95.0882C347.844 96.7365 350.958 97.5607 354.865 97.5607C357.368 97.5607 359.81 97.347 362.191 96.9197C364.633 96.4313 366.617 95.8513 368.143 95.1798L369.975 106.26C369.242 106.626 368.265 106.993 367.044 107.359C365.823 107.725 364.45 108.031 362.923 108.275C361.458 108.58 359.871 108.824 358.162 109.007C356.452 109.19 354.743 109.282 353.034 109.282C348.699 109.282 344.914 108.641 341.678 107.359C338.504 106.077 335.848 104.337 333.712 102.139C331.636 99.8805 330.079 97.2249 329.041 94.1725C328.065 91.12 327.576 87.8234 327.576 84.2826ZM359.627 79.0629C359.566 77.903 359.352 76.7736 358.986 75.6747C358.681 74.5758 358.162 73.599 357.429 72.7444C356.757 71.8897 355.872 71.1876 354.773 70.6382C353.736 70.0887 352.423 69.814 350.836 69.814C349.31 69.814 347.997 70.0887 346.898 70.6382C345.799 71.1266 344.884 71.7981 344.151 72.6528C343.418 73.5075 342.838 74.5148 342.411 75.6747C342.045 76.7736 341.77 77.903 341.587 79.0629H359.627Z" fill="#253391"/>
<path d="M168.217 150.051V123.302H186.282V128.358H174.239V133.608H184.931V138.549H174.239V144.995H187.17V150.051H168.217ZM211.572 150.051C210.517 147.813 209.475 145.484 208.446 143.065C207.416 140.646 206.439 138.253 205.512 135.885C204.586 133.518 203.724 131.253 202.926 129.092C202.154 126.93 201.485 125 200.919 123.302H207.558C208.073 124.846 208.626 126.518 209.218 128.32C209.835 130.095 210.453 131.871 211.071 133.646C211.714 135.422 212.332 137.12 212.923 138.742C213.515 140.363 214.069 141.765 214.583 142.949C215.072 141.765 215.613 140.363 216.204 138.742C216.822 137.12 217.44 135.422 218.057 133.646C218.701 131.871 219.318 130.095 219.91 128.32C220.528 126.518 221.094 124.846 221.608 123.302H228.016C227.424 125 226.742 126.93 225.97 129.092C225.198 131.253 224.349 133.518 223.423 135.885C222.496 138.253 221.518 140.646 220.489 143.065C219.46 145.484 218.417 147.813 217.362 150.051H211.572ZM243.058 150.051V123.302H261.122V128.358H249.079V133.608H259.771V138.549H249.079V144.995H262.01V150.051H243.058ZM295.995 150.051C294.271 146.989 292.406 143.965 290.398 140.98C288.391 137.995 286.255 135.177 283.991 132.527V150.051H278.046V123.302H282.949C283.798 124.151 284.737 125.193 285.766 126.428C286.796 127.663 287.838 128.989 288.893 130.404C289.974 131.794 291.042 133.247 292.097 134.766C293.152 136.258 294.143 137.699 295.069 139.089V123.302H301.052V150.051H295.995ZM338.643 123.302V128.435H330.576V150.051H324.554V128.435H316.487V123.302H338.643ZM361.388 145.458C362.238 145.458 362.932 145.394 363.473 145.265C364.039 145.111 364.489 144.918 364.824 144.686C365.158 144.429 365.39 144.133 365.519 143.798C365.647 143.464 365.712 143.09 365.712 142.679C365.712 141.804 365.3 141.083 364.476 140.517C363.653 139.925 362.238 139.295 360.23 138.626C359.355 138.317 358.481 137.97 357.606 137.584C356.731 137.172 355.946 136.67 355.251 136.078C354.556 135.461 353.99 134.727 353.553 133.878C353.115 133.003 352.896 131.948 352.896 130.713C352.896 129.478 353.128 128.371 353.591 127.393C354.054 126.39 354.711 125.54 355.56 124.846C356.409 124.151 357.438 123.623 358.648 123.263C359.857 122.877 361.221 122.684 362.739 122.684C364.541 122.684 366.098 122.877 367.41 123.263C368.722 123.649 369.803 124.074 370.652 124.537L368.915 129.285C368.169 128.899 367.333 128.564 366.406 128.281C365.506 127.972 364.412 127.818 363.125 127.818C361.684 127.818 360.642 128.024 359.999 128.435C359.381 128.821 359.072 129.426 359.072 130.25C359.072 130.738 359.188 131.15 359.42 131.485C359.651 131.819 359.973 132.128 360.385 132.411C360.822 132.668 361.311 132.913 361.852 133.145C362.418 133.35 363.035 133.569 363.704 133.801C365.094 134.315 366.303 134.83 367.333 135.345C368.362 135.834 369.211 136.413 369.88 137.082C370.575 137.751 371.09 138.536 371.424 139.436C371.759 140.337 371.926 141.431 371.926 142.717C371.926 145.213 371.051 147.156 369.301 148.546C367.552 149.91 364.914 150.592 361.388 150.592C360.205 150.592 359.137 150.515 358.185 150.36C357.232 150.231 356.383 150.064 355.637 149.858C354.916 149.652 354.286 149.434 353.746 149.202C353.231 148.971 352.793 148.752 352.433 148.546L354.132 143.76C354.929 144.197 355.907 144.596 357.065 144.956C358.249 145.291 359.69 145.458 361.388 145.458Z" fill="#4D7CF4"/>
<path d="M93.2434 37.0112C93.2434 37.0112 99.2668 45.9652 99.8691 51.4051C100.471 56.8449 99.8691 60.0673 99.8691 60.0673" stroke="#7DA0F7" stroke-width="1.79877"/>
<rect x="78.4526" y="22.6273" width="10.2107" height="24.2504" rx="2.39836" transform="rotate(-33.4434 78.4526 22.6273)" fill="#0A349F"/>
<path d="M17 58.2328H121.567L113.878 81.6229H24.6888L17 58.2328Z" fill="#1D59F1"/>
<rect x="17" y="47.2259" width="104.567" height="11.0071" fill="#4D7CF4"/>
<rect x="28.0071" y="139.41" width="83.9289" height="11.0071" fill="#4D7CF4"/>
<path d="M41.7659 127.027H98.1771L111.936 139.41H28.0071L41.7659 127.027Z" fill="#7DA0F7"/>
<path d="M34.4817 67.8641H104.085L97.1249 133.987H41.442L34.4817 67.8641Z" fill="#4D7CF4"/>
<path fill-rule="evenodd" clip-rule="evenodd" d="M69.8441 76.5645C69.142 76.6139 68.61 77.2154 68.6466 77.9174V78.2611C68.6795 78.6505 68.738 79.0363 68.8148 79.4184C68.9269 80.1501 68.9673 80.891 68.9354 81.6306C68.866 81.8737 68.727 82.0931 68.5369 82.2613L68.5095 82.7769C67.769 82.839 67.0341 82.9524 66.3101 83.1169C63.2642 83.8044 60.4908 85.384 58.3499 87.6601L57.9111 87.3493C57.6698 87.4225 57.4102 87.395 57.189 87.2762C56.5956 86.837 56.0463 86.341 55.549 85.7953C55.2992 85.4969 55.0325 85.213 54.7501 84.9452L54.4795 84.7295C54.2382 84.5357 53.942 84.4241 53.633 84.4095C53.259 84.3897 52.8981 84.5501 52.6622 84.841C52.2491 85.4205 52.3843 86.2231 52.9621 86.6381L53.2144 86.8392C53.5391 87.0553 53.8761 87.2525 54.2236 87.4298C54.8708 87.7899 55.4814 88.2123 56.0481 88.7095C56.1931 88.9163 56.2774 89.1595 56.2913 89.4116L56.6899 89.7772C54.538 93.0059 53.655 96.9165 54.2071 100.758L53.6952 100.904C53.5617 101.116 53.3844 101.297 53.1723 101.43C52.4581 101.621 51.727 101.742 50.9894 101.791C50.5979 101.799 50.2073 101.829 49.8193 101.882L49.4957 101.955H49.4592C49.0012 102.019 48.618 102.335 48.4685 102.772C48.3189 103.21 48.4284 103.694 48.7516 104.025C49.0779 104.354 49.5618 104.47 50.0021 104.326H50.0259L50.355 104.29C50.7261 104.18 51.0918 104.045 51.4483 103.891C52.1339 103.617 52.8451 103.407 53.5727 103.27C53.825 103.284 54.0663 103.37 54.2711 103.516L54.8196 103.425C56.0079 107.113 58.5053 110.237 61.84 112.206L61.617 112.672C61.7194 112.886 61.7578 113.124 61.7267 113.36C61.425 114.058 61.0557 114.727 60.6242 115.356C60.3876 115.668 60.169 115.994 59.9697 116.331L59.8143 116.66C59.5844 117.059 59.5975 117.553 59.8482 117.939C60.0989 118.325 60.5449 118.538 61.0027 118.49C61.4616 118.438 61.8525 118.133 62.0137 117.7L62.1655 117.389C62.3044 117.024 62.4214 116.651 62.5165 116.274C62.616 116.028 62.7015 115.777 62.7851 115.532C62.9733 114.979 63.1516 114.455 63.458 114.087C63.6026 113.951 63.7848 113.862 63.9809 113.831L64.2551 113.332C67.87 114.722 71.8699 114.732 75.4915 113.36L75.7347 113.826C75.9833 113.863 76.2064 114 76.3563 114.201C76.7 114.855 76.9779 115.541 77.19 116.248C77.2866 116.627 77.4051 117 77.5446 117.365L77.6964 117.676C77.8591 118.107 78.25 118.411 78.708 118.461C79.1661 118.512 79.6137 118.301 79.8665 117.916C80.1169 117.528 80.1282 117.033 79.8958 116.634L79.7367 116.305C79.5374 115.969 79.3189 115.645 79.0822 115.334C78.6617 114.727 78.2997 114.08 77.9852 113.402C77.926 113.151 77.9708 112.887 78.1096 112.671C78.0316 112.511 77.9638 112.347 77.9066 112.179C81.234 110.195 83.7204 107.06 84.896 103.367L85.4152 103.458C85.6017 103.288 85.8467 103.198 86.0972 103.206C86.823 103.345 87.5342 103.571 88.2216 103.827C88.5781 103.992 88.9437 104.131 89.3149 104.248C89.3633 104.261 89.4239 104.273 89.4851 104.285L89.4853 104.285C89.535 104.295 89.5851 104.305 89.6293 104.315H89.6531C90.0932 104.458 90.5757 104.34 90.9008 104.011C91.2258 103.682 91.338 103.198 91.1907 102.76C91.04 102.322 90.6551 102.006 90.1961 101.944L89.8414 101.86C89.4535 101.807 89.0628 101.777 88.6713 101.769C87.9327 101.721 87.2014 101.6 86.4884 101.409C86.269 101.286 86.0862 101.103 85.9619 100.882L85.4683 100.736C85.9946 96.8964 85.0929 92.9975 82.9343 89.7791L83.3658 89.3805C83.3475 89.13 83.4298 88.8814 83.5925 88.6894C84.1537 88.2068 84.7625 87.7808 85.4024 87.417C85.7499 87.2396 86.0868 87.0425 86.4116 86.8264L86.6785 86.6107C87.0796 86.3618 87.302 85.9045 87.2501 85.4352C87.1982 84.966 86.8812 84.5684 86.4354 84.4132C85.9899 84.2581 85.495 84.3726 85.1629 84.7075L84.8924 84.9232C84.61 85.1911 84.3433 85.475 84.0934 85.7734C83.6108 86.3255 83.0769 86.8283 82.4974 87.278C82.2635 87.3732 82.0076 87.4011 81.7587 87.3585L81.2962 87.6875C78.627 84.8903 75.0308 83.1535 71.1769 82.8061C71.1769 82.6774 71.1651 82.5034 71.1568 82.3817L71.1568 82.3816L71.1568 82.3814L71.1568 82.3812L71.1568 82.3812L71.1568 82.3811C71.1533 82.3302 71.1505 82.2885 71.1494 82.2632C70.9429 82.1205 70.7984 81.903 70.7509 81.6562C70.7255 80.9178 70.7721 80.1788 70.8898 79.4495C70.9684 79.0656 71.0233 78.6816 71.058 78.2922V77.9266C71.0946 77.2245 70.5644 76.623 69.8605 76.5737L69.8441 76.5645ZM68.3204 86.0098L67.9547 92.3962H67.9273C67.909 92.7911 67.6768 93.1276 67.3203 93.3177C66.9637 93.5079 66.5414 93.4512 66.2233 93.219L60.985 89.5074C62.6523 87.8698 64.7439 86.7306 67.0241 86.2182C67.4519 86.1268 67.8834 86.0573 68.3167 86.0098H68.3204ZM78.6639 89.5269C76.682 87.5871 74.1205 86.3511 71.3688 86.0092L71.7308 92.3883C71.7363 92.7979 71.974 93.1708 72.3451 93.3464C72.7163 93.5219 73.1551 93.4707 73.4751 93.2147L78.6639 89.5269ZM59.0836 91.9099L59.084 91.9103C57.6266 94.2836 57.0005 97.0745 57.3046 99.8431L63.4515 98.075V98.0568C63.83 97.9525 64.1261 97.6472 64.2139 97.2614C64.3017 96.8756 64.1719 96.4716 63.8738 96.212V96.1845L59.084 91.9103L59.0854 91.908L59.0836 91.9099ZM82.4027 99.8202C82.6696 97.0539 82.026 94.2767 80.5707 91.909L80.578 91.9236L75.8243 96.1782C75.5263 96.4414 75.3983 96.8418 75.4842 97.2276C75.5701 97.6134 75.8627 97.9187 76.2466 98.023V98.0467L82.4027 99.8202ZM68.8624 96.5161H70.8224L72.02 98.0373L71.5848 99.9388L69.8241 100.785L68.0598 99.9388L67.6447 98.0373L68.8624 96.5161ZM75.3874 101.705C75.3234 101.696 75.2228 101.696 75.1406 101.705L75.1333 101.732C74.7832 101.753 74.4649 101.942 74.2798 102.24C74.0947 102.538 74.0659 102.907 74.2026 103.23L76.6526 109.161C79.0075 107.656 80.8121 105.407 81.7263 102.774L75.3874 101.705ZM64.495 101.732C64.8533 101.738 65.1843 101.922 65.3799 102.222C65.5755 102.522 65.6066 102.899 65.4658 103.228V103.251L63.0305 109.135C60.6993 107.641 58.9295 105.42 57.9879 102.815L64.2719 101.749C64.3414 101.741 64.4127 101.741 64.484 101.749L64.495 101.732ZM70.7859 104.855C70.5913 104.497 70.2114 104.279 69.804 104.292L69.8205 104.326C69.442 104.336 69.0946 104.537 68.9063 104.866L65.7981 110.455C68.0123 111.208 70.3909 111.331 72.6691 110.81L73.9069 110.444L70.8096 104.855H70.7859Z" fill="white"/>
<path d="M68.6466 77.9174H68.7967L68.7963 77.9096L68.6466 77.9174ZM69.8441 76.5645L69.9169 76.4335L69.878 76.4119L69.8336 76.415L69.8441 76.5645ZM68.6466 78.2611H68.4961L68.4972 78.2737L68.6466 78.2611ZM68.8148 79.4184L68.9631 79.3957L68.9617 79.3889L68.8148 79.4184ZM68.9354 81.6306L69.0796 81.6718L69.0844 81.6547L69.0852 81.637L68.9354 81.6306ZM68.5369 82.2613L68.4376 82.149L68.3905 82.1907L68.3872 82.2534L68.5369 82.2613ZM68.5095 82.7769L68.522 82.9263L68.6522 82.9153L68.6591 82.7848L68.5095 82.7769ZM66.3101 83.1169L66.3431 83.2632L66.3433 83.2631L66.3101 83.1169ZM58.3499 87.6601L58.2633 87.7824L58.3697 87.8578L58.4591 87.7628L58.3499 87.6601ZM57.9111 87.3493L57.9978 87.227L57.9379 87.1846L57.8677 87.2059L57.9111 87.3493ZM57.189 87.2762L57.0998 87.3967L57.1085 87.4031L57.118 87.4082L57.189 87.2762ZM55.549 85.7953L55.434 85.8916L55.4382 85.8963L55.549 85.7953ZM54.7501 84.9452L54.8536 84.836L54.8435 84.828L54.7501 84.9452ZM54.4795 84.7295L54.3857 84.8463L54.3861 84.8467L54.4795 84.7295ZM53.633 84.4095L53.6251 84.5592L53.626 84.5592L53.633 84.4095ZM52.6622 84.841L52.5456 84.7464L52.5402 84.754L52.6622 84.841ZM52.9621 86.6381L53.0556 86.5208L53.0495 86.5164L52.9621 86.6381ZM53.2144 86.8392L53.1206 86.9569L53.1313 86.964L53.2144 86.8392ZM54.2236 87.4298L54.2965 87.2987L54.2917 87.2962L54.2236 87.4298ZM56.0481 88.7095L56.1709 88.6235L56.1605 88.6087L56.147 88.5969L56.0481 88.7095ZM56.2913 89.4116L56.1416 89.4199L56.145 89.4808L56.19 89.522L56.2913 89.4116ZM56.6899 89.7772L56.8146 89.8604L56.8858 89.7536L56.7912 89.6668L56.6899 89.7772ZM54.2071 100.758L54.2483 100.902L54.3741 100.866L54.3555 100.736L54.2071 100.758ZM53.6952 100.904L53.654 100.76L53.5989 100.776L53.5683 100.824L53.6952 100.904ZM53.1723 101.43L53.211 101.575L53.2329 101.569L53.2522 101.557L53.1723 101.43ZM50.9894 101.791L50.9924 101.941L50.9993 101.94L50.9894 101.791ZM49.8193 101.882L49.799 101.733L49.7863 101.736L49.8193 101.882ZM49.4957 101.955V102.105H49.5124L49.5288 102.101L49.4957 101.955ZM49.4592 101.955V101.805H49.4488L49.4386 101.807L49.4592 101.955ZM48.4685 102.772L48.6103 102.821L48.6103 102.821L48.4685 102.772ZM48.7516 104.025L48.6444 104.13L48.6452 104.13L48.7516 104.025ZM50.0021 104.326V104.176H49.9783L49.9555 104.184L50.0021 104.326ZM50.0259 104.326V104.476H50.0342L50.0425 104.475L50.0259 104.326ZM50.355 104.29L50.3716 104.439L50.3848 104.437L50.3975 104.434L50.355 104.29ZM51.4483 103.891L51.3926 103.752L51.389 103.754L51.4483 103.891ZM53.5727 103.27L53.5814 103.12L53.563 103.119L53.5449 103.122L53.5727 103.27ZM54.2711 103.516L54.184 103.638L54.2345 103.675L54.2957 103.664L54.2711 103.516ZM54.8196 103.425L54.9622 103.379L54.9226 103.256L54.7949 103.277L54.8196 103.425ZM61.84 112.206L61.9752 112.271L62.0345 112.147L61.9162 112.077L61.84 112.206ZM61.617 112.672L61.4818 112.608L61.4508 112.672L61.4818 112.737L61.617 112.672ZM61.7267 113.36L61.8643 113.419L61.8726 113.4L61.8753 113.379L61.7267 113.36ZM60.6242 115.356L60.7438 115.447L60.7478 115.441L60.6242 115.356ZM59.9697 116.331L59.8401 116.254L59.8342 116.267L59.9697 116.331ZM59.8143 116.66L59.9446 116.735L59.9499 116.724L59.8143 116.66ZM59.8482 117.939L59.9739 117.857L59.9739 117.857L59.8482 117.939ZM61.0027 118.49L61.0182 118.639L61.0194 118.639L61.0027 118.49ZM62.0137 117.7L61.879 117.634L61.8758 117.641L61.8732 117.648L62.0137 117.7ZM62.1655 117.389L62.3007 117.455L62.3056 117.442L62.1655 117.389ZM62.5165 116.274L62.3775 116.218L62.3737 116.227L62.3711 116.237L62.5165 116.274ZM62.7851 115.532L62.927 115.58L62.927 115.58L62.7851 115.532ZM63.458 114.087L63.3554 113.978L63.3487 113.984L63.3429 113.991L63.458 114.087ZM63.9809 113.831L64.0042 113.98L64.0768 113.968L64.1123 113.904L63.9809 113.831ZM64.2551 113.332L64.3089 113.192L64.1868 113.145L64.1238 113.26L64.2551 113.332ZM75.4915 113.36L75.6244 113.29L75.5629 113.172L75.4384 113.22L75.4915 113.36ZM75.7347 113.826L75.6018 113.895L75.6372 113.963L75.7129 113.974L75.7347 113.826ZM76.3563 114.201L76.489 114.131L76.4835 114.121L76.4765 114.111L76.3563 114.201ZM77.19 116.248L77.3353 116.211L77.3335 116.205L77.19 116.248ZM77.5446 117.365L77.4041 117.419L77.4099 117.431L77.5446 117.365ZM77.6964 117.676L77.8372 117.623L77.8311 117.61L77.6964 117.676ZM79.8665 117.916L79.9918 117.998L79.9924 117.997L79.8665 117.916ZM79.8958 116.634L79.7604 116.7L79.7663 116.71L79.8958 116.634ZM79.7367 116.305L79.8722 116.24L79.8656 116.229L79.7367 116.305ZM79.0822 115.334L78.9589 115.42L78.9629 115.425L79.0822 115.334ZM77.9852 113.402L77.8394 113.436L77.8429 113.451L77.8493 113.465L77.9852 113.402ZM78.1096 112.671L78.2358 112.751L78.2812 112.68L78.2442 112.605L78.1096 112.671ZM77.9066 112.179L77.8299 112.05L77.7257 112.112L77.7647 112.227L77.9066 112.179ZM84.896 103.367L84.922 103.219L84.7929 103.196L84.7532 103.321L84.896 103.367ZM85.4152 103.458L85.3892 103.606L85.4618 103.618L85.5162 103.569L85.4152 103.458ZM86.0972 103.206L86.1254 103.058L86.1136 103.056L86.1015 103.056L86.0972 103.206ZM88.2216 103.827L88.2846 103.691L88.2739 103.687L88.2216 103.827ZM89.3149 104.248L89.2698 104.391L89.2757 104.392L89.3149 104.248ZM89.4851 104.285L89.456 104.432L89.4568 104.432L89.4851 104.285ZM89.4853 104.285L89.5144 104.138L89.5136 104.138L89.4853 104.285ZM89.6293 104.315L89.5942 104.461L89.6115 104.465H89.6293V104.315ZM89.6531 104.315L89.6992 104.173L89.6767 104.166H89.6531V104.315ZM91.1907 102.76L91.3327 102.712L91.3324 102.711L91.1907 102.76ZM90.1961 101.944L90.1615 102.09L90.1687 102.092L90.1761 102.093L90.1961 101.944ZM89.8414 101.86L89.876 101.714L89.8689 101.713L89.8617 101.712L89.8414 101.86ZM88.6713 101.769L88.6617 101.918L88.6683 101.919L88.6713 101.769ZM86.4884 101.409L86.4153 101.539L86.4315 101.548L86.4494 101.553L86.4884 101.409ZM85.9619 100.882L86.0925 100.809L86.0628 100.756L86.0045 100.738L85.9619 100.882ZM85.4683 100.736L85.3197 100.715L85.3023 100.843L85.4257 100.879L85.4683 100.736ZM82.9343 89.7791L82.8326 89.669L82.7383 89.756L82.8098 89.8626L82.9343 89.7791ZM83.3658 89.3805L83.4675 89.4906L83.5205 89.4416L83.5153 89.3696L83.3658 89.3805ZM83.5925 88.6894L83.4947 88.5758L83.4858 88.5835L83.4781 88.5925L83.5925 88.6894ZM85.4024 87.417L85.3342 87.2833L85.3283 87.2867L85.4024 87.417ZM86.4116 86.8264L86.495 86.9518L86.5058 86.943L86.4116 86.8264ZM86.6785 86.6107L86.5995 86.4834L86.5916 86.4883L86.5843 86.4941L86.6785 86.6107ZM87.2501 85.4352L87.3991 85.4188L87.3991 85.4188L87.2501 85.4352ZM86.4354 84.4132L86.4847 84.2716L86.4847 84.2716L86.4354 84.4132ZM85.1629 84.7075L85.2564 84.8247L85.2632 84.8193L85.2694 84.8131L85.1629 84.7075ZM84.8924 84.9232L84.7986 84.8056L84.7892 84.8145L84.8924 84.9232ZM84.0934 85.7734L84.2063 85.8721L84.2083 85.8696L84.0934 85.7734ZM82.4974 87.278L82.5539 87.4169L82.573 87.4091L82.5893 87.3964L82.4974 87.278ZM81.7587 87.3585L81.7841 87.2107L81.7226 87.2002L81.6718 87.2363L81.7587 87.3585ZM81.2962 87.6875L81.1878 87.791L81.2773 87.8849L81.3831 87.8097L81.2962 87.6875ZM71.1769 82.8061H71.027V82.9431L71.1634 82.9554L71.1769 82.8061ZM71.1568 82.3817L71.0072 82.3912L71.0073 82.3918L71.1568 82.3817ZM71.1568 82.3816L71.3064 82.3721L71.3064 82.3711L71.1568 82.3816ZM71.1568 82.3814L71.3064 82.3708L71.3062 82.3685L71.1568 82.3814ZM71.1568 82.3812L71.0074 82.393L71.0075 82.3941L71.1568 82.3812ZM71.1568 82.3812L71.3064 82.3694L71.3057 82.3637L71.1568 82.3812ZM71.1568 82.3811L71.0071 82.3913L71.0079 82.3986L71.1568 82.3811ZM71.1494 82.2632L71.2992 82.2568L71.296 82.1822L71.2346 82.1398L71.1494 82.2632ZM70.7509 81.6562L70.6011 81.6613L70.6015 81.673L70.6037 81.6845L70.7509 81.6562ZM70.8898 79.4495L70.7429 79.4194L70.7419 79.4256L70.8898 79.4495ZM71.058 78.2922L71.2079 78.3056V78.2922H71.058ZM71.058 77.9266L70.9081 77.9187V77.9266H71.058ZM69.8605 76.5737L69.7877 76.7047L69.8168 76.7209L69.85 76.7232L69.8605 76.5737ZM67.9547 92.3962V92.5461H68.0963L68.1044 92.4048L67.9547 92.3962ZM68.3204 86.0098L68.47 86.0184L68.4791 85.8599H68.3204V86.0098ZM67.9273 92.3962V92.2463H67.7842L67.7775 92.3893L67.9273 92.3962ZM67.3203 93.3177L67.2497 93.1854L67.2497 93.1854L67.3203 93.3177ZM66.2233 93.219L66.3116 93.0979L66.3099 93.0967L66.2233 93.219ZM60.985 89.5074L60.88 89.4005L60.7521 89.5261L60.8984 89.6297L60.985 89.5074ZM67.0241 86.2182L66.9928 86.0716L66.9912 86.072L67.0241 86.2182ZM68.3167 86.0098V85.8599H68.3085L68.3004 85.8608L68.3167 86.0098ZM71.3688 86.0092L71.3873 85.8604L71.209 85.8383L71.2191 86.0177L71.3688 86.0092ZM78.6639 89.5269L78.7507 89.6491L78.8969 89.5452L78.7688 89.4198L78.6639 89.5269ZM71.7308 92.3883L71.8808 92.3863L71.8805 92.3798L71.7308 92.3883ZM72.3451 93.3464L72.281 93.4819L72.2811 93.4819L72.3451 93.3464ZM73.4751 93.2147L73.3881 93.0923L73.3814 93.0977L73.4751 93.2147ZM59.0836 91.9099L58.9776 91.8039L58.8653 91.9161L58.9838 92.0218L59.0836 91.9099ZM57.3046 99.8431L57.1556 99.8594L57.175 100.036L57.346 99.9871L57.3046 99.8431ZM63.4515 98.075L63.4929 98.2191L63.6014 98.1879V98.075H63.4515ZM63.4515 98.0568L63.4117 97.9122L63.3016 97.9426V98.0568H63.4515ZM63.8738 96.212H63.7239V96.2802L63.7754 96.325L63.8738 96.212ZM63.8738 96.1845H64.0237V96.1174L63.9736 96.0727L63.8738 96.1845ZM59.0854 91.908L59.2131 91.9865L58.9794 91.802L59.0854 91.908ZM80.5707 91.909L80.6984 91.8305L80.4366 91.976L80.5707 91.909ZM82.4027 99.8202L82.3612 99.9643L82.5346 100.014L82.5519 99.8346L82.4027 99.8202ZM80.578 91.9236L80.678 92.0353L80.7633 91.9589L80.7121 91.8566L80.578 91.9236ZM75.8243 96.1782L75.9235 96.2905L75.9243 96.2899L75.8243 96.1782ZM75.4842 97.2276L75.3379 97.2602L75.3379 97.2602L75.4842 97.2276ZM76.2466 98.023H76.3965V97.9083L76.2859 97.8783L76.2466 98.023ZM76.2466 98.0467H76.0967V98.1595L76.2051 98.1908L76.2466 98.0467ZM70.8224 96.5161L70.9402 96.4234L70.8952 96.3662H70.8224V96.5161ZM68.8624 96.5161V96.3662H68.7904L68.7454 96.4225L68.8624 96.5161ZM72.02 98.0373L72.1661 98.0708L72.1821 98.0009L72.1378 97.9446L72.02 98.0373ZM71.5848 99.9388L71.6498 100.074L71.7148 100.043L71.7309 99.9722L71.5848 99.9388ZM69.8241 100.785L69.7593 100.92L69.8242 100.952L69.8891 100.92L69.8241 100.785ZM68.0598 99.9388L67.9133 99.9708L67.9289 100.042L67.9949 100.074L68.0598 99.9388ZM67.6447 98.0373L67.5277 97.9436L67.483 97.9994L67.4983 98.0693L67.6447 98.0373ZM75.1406 101.705L75.124 101.556L75.0222 101.567L74.9957 101.666L75.1406 101.705ZM75.3874 101.705L75.4123 101.557L75.4086 101.556L75.3874 101.705ZM75.1333 101.732L75.142 101.882L75.2502 101.876L75.2781 101.771L75.1333 101.732ZM74.2798 102.24L74.4071 102.319L74.4071 102.319L74.2798 102.24ZM74.2026 103.23L74.3412 103.172L74.3407 103.171L74.2026 103.23ZM76.6526 109.161L76.5141 109.218L76.5824 109.384L76.7333 109.287L76.6526 109.161ZM81.7263 102.774L81.8679 102.824L81.926 102.656L81.7512 102.627L81.7263 102.774ZM65.3799 102.222L65.2544 102.304L65.2544 102.304L65.3799 102.222ZM64.495 101.732L64.4973 101.582L64.4156 101.581L64.3703 101.649L64.495 101.732ZM65.4658 103.228L65.328 103.169L65.3159 103.197V103.228H65.4658ZM65.4658 103.251L65.6043 103.309L65.6157 103.281V103.251H65.4658ZM63.0305 109.135L62.9496 109.261L63.1005 109.358L63.169 109.192L63.0305 109.135ZM57.9879 102.815L57.9628 102.667L57.7859 102.697L57.8469 102.865L57.9879 102.815ZM64.2719 101.749L64.2562 101.599L64.2469 101.601L64.2719 101.749ZM64.484 101.749L64.4687 101.898L64.5586 101.907L64.6087 101.832L64.484 101.749ZM69.804 104.292L69.7993 104.142L69.5706 104.149L69.6686 104.356L69.804 104.292ZM70.7859 104.855L70.6542 104.926L70.6967 105.005H70.7859V104.855ZM69.8205 104.326L69.8241 104.476L70.0547 104.471L69.956 104.262L69.8205 104.326ZM68.9063 104.866L68.7762 104.791L68.7753 104.793L68.9063 104.866ZM65.7981 110.455L65.6671 110.382L65.5799 110.539L65.7499 110.597L65.7981 110.455ZM72.6691 110.81L72.7026 110.956L72.7115 110.953L72.6691 110.81ZM73.9069 110.444L73.9493 110.588L74.1286 110.535L74.038 110.371L73.9069 110.444ZM70.8096 104.855L70.9407 104.782L70.8979 104.705H70.8096V104.855ZM68.7963 77.9096C68.764 77.2892 69.234 76.7577 69.8546 76.714L69.8336 76.415C69.05 76.4701 68.4561 77.1415 68.4969 77.9252L68.7963 77.9096ZM68.7965 78.2611V77.9174H68.4967V78.2611H68.7965ZM68.9617 79.3889C68.8859 79.0114 68.8283 78.6314 68.7959 78.2485L68.4972 78.2737C68.5307 78.6697 68.5901 79.0612 68.6678 79.4479L68.9617 79.3889ZM69.0852 81.637C69.1175 80.8877 69.0765 80.137 68.9629 79.3957L68.6666 79.4411C68.7773 80.1632 68.8171 80.8943 68.7857 81.6241L69.0852 81.637ZM68.6362 82.3736C68.8475 82.1866 69.0022 81.9427 69.0796 81.6718L68.7913 81.5894C68.7298 81.8048 68.6065 81.9996 68.4376 82.149L68.6362 82.3736ZM68.6591 82.7848L68.6866 82.2693L68.3872 82.2534L68.3598 82.7689L68.6591 82.7848ZM66.3433 83.2631C67.0604 83.1001 67.7885 82.9878 68.522 82.9263L68.4969 82.6275C67.7496 82.6903 67.0077 82.8047 66.2769 82.9708L66.3433 83.2631ZM58.4591 87.7628C60.5794 85.5085 63.3263 83.944 66.3431 83.2632L66.2771 82.9707C63.2022 83.6647 60.4022 85.2594 58.2407 87.5574L58.4591 87.7628ZM57.8245 87.4716L58.2633 87.7824L58.4366 87.5378L57.9978 87.227L57.8245 87.4716ZM57.118 87.4082C57.3738 87.5457 57.6746 87.5776 57.9546 87.4928L57.8677 87.2059C57.665 87.2673 57.4465 87.2444 57.2599 87.1441L57.118 87.4082ZM55.4382 85.8963C55.9421 86.4492 56.4986 86.9517 57.0998 87.3967L57.2782 87.1557C56.6926 86.7223 56.1506 86.2328 55.6598 85.6944L55.4382 85.8963ZM54.6469 85.0539C54.9252 85.3178 55.188 85.5975 55.4341 85.8915L55.664 85.6991C55.4105 85.3962 55.1398 85.1082 54.8532 84.8364L54.6469 85.0539ZM54.3861 84.8467L54.6566 85.0624L54.8435 84.828L54.573 84.6122L54.3861 84.8467ZM53.626 84.5592C53.9034 84.5724 54.1692 84.6725 54.3857 84.8463L54.5734 84.6126C54.3072 84.3988 53.9806 84.2759 53.6401 84.2598L53.626 84.5592ZM52.7787 84.9354C52.9843 84.6817 53.299 84.5419 53.6251 84.5592L53.641 84.2598C53.2191 84.2374 52.8119 84.4184 52.5458 84.7466L52.7787 84.9354ZM53.0495 86.5164C52.5385 86.1493 52.4193 85.4399 52.7843 84.928L52.5402 84.754C52.0788 85.4011 52.2302 86.297 52.8746 86.7599L53.0495 86.5164ZM53.3078 86.722L53.0555 86.5209L52.8686 86.7554L53.1209 86.9565L53.3078 86.722ZM54.2917 87.2962C53.9494 87.1216 53.6174 86.9273 53.2974 86.7144L53.1313 86.964C53.4609 87.1833 53.8028 87.3834 54.1554 87.5633L54.2917 87.2962ZM56.147 88.5969C55.5717 88.0921 54.9522 87.6637 54.2965 87.2988L54.1507 87.5607C54.7893 87.9161 55.3911 88.3325 55.9493 88.8222L56.147 88.5969ZM56.441 89.4033C56.4255 89.1232 56.3319 88.8531 56.1709 88.6235L55.9254 88.7956C56.0543 88.9794 56.1292 89.1957 56.1416 89.4199L56.441 89.4033ZM56.7912 89.6668L56.3926 89.3011L56.19 89.522L56.5885 89.8877L56.7912 89.6668ZM54.3555 100.736C53.8086 96.9317 54.6833 93.0583 56.8146 89.8604L56.5651 89.6941C54.3928 92.9535 53.5014 96.9014 54.0587 100.779L54.3555 100.736ZM53.7364 101.048L54.2483 100.902L54.1659 100.614L53.654 100.76L53.7364 101.048ZM53.2522 101.557C53.4841 101.411 53.6772 101.214 53.8221 100.984L53.5683 100.824C53.4463 101.018 53.2847 101.183 53.0925 101.304L53.2522 101.557ZM50.9993 101.94C51.7466 101.891 52.4874 101.769 53.211 101.575L53.1336 101.286C52.4289 101.474 51.7074 101.593 50.9795 101.641L50.9993 101.94ZM49.8396 102.031C50.2218 101.978 50.6067 101.948 50.9924 101.94L50.9864 101.641C50.5891 101.649 50.1927 101.68 49.7991 101.734L49.8396 102.031ZM49.5288 102.101L49.8524 102.028L49.7863 101.736L49.4627 101.809L49.5288 102.101ZM49.4592 102.105H49.4957V101.805H49.4592V102.105ZM48.6103 102.821C48.7416 102.437 49.0778 102.159 49.4798 102.104L49.4386 101.807C48.9246 101.878 48.4945 102.233 48.3266 102.724L48.6103 102.821ZM48.8588 103.92C48.5752 103.63 48.4791 103.205 48.6103 102.821L48.3266 102.724C48.1588 103.215 48.2817 103.758 48.6444 104.13L48.8588 103.92ZM49.9555 104.184C49.5691 104.31 49.1444 104.208 48.8581 103.919L48.6452 104.13C49.0114 104.499 49.5545 104.631 50.0487 104.469L49.9555 104.184ZM50.0259 104.176H50.0021V104.476H50.0259V104.176ZM50.3384 104.141L50.0094 104.177L50.0425 104.475L50.3716 104.439L50.3384 104.141ZM51.389 103.754C51.0373 103.905 50.6772 104.038 50.3125 104.146L50.3975 104.434C50.775 104.322 51.1463 104.185 51.5076 104.029L51.389 103.754ZM53.5449 103.122C52.8074 103.261 52.0869 103.474 51.3926 103.752L51.504 104.03C52.1809 103.76 52.8828 103.552 53.6005 103.417L53.5449 103.122ZM54.3582 103.395C54.1307 103.232 53.8622 103.136 53.5814 103.12L53.564 103.419C53.7878 103.432 54.002 103.508 54.184 103.638L54.3582 103.395ZM54.7949 103.277L54.2465 103.369L54.2957 103.664L54.8442 103.573L54.7949 103.277ZM61.9162 112.077C58.6131 110.127 56.1394 107.032 54.9622 103.379L54.6769 103.471C55.8765 107.193 58.3975 110.348 61.7638 112.335L61.9162 112.077ZM61.7522 112.737L61.9752 112.271L61.7048 112.141L61.4818 112.608L61.7522 112.737ZM61.8753 113.379C61.9102 113.114 61.867 112.848 61.7522 112.608L61.4818 112.737C61.5717 112.925 61.6053 113.133 61.5781 113.34L61.8753 113.379ZM60.7478 115.441C61.1848 114.804 61.5588 114.126 61.8643 113.419L61.5891 113.3C61.2912 113.99 60.9266 114.65 60.5006 115.271L60.7478 115.441ZM60.0988 116.407C60.2951 116.075 60.5104 115.754 60.7437 115.447L60.5048 115.266C60.2647 115.582 60.0429 115.912 59.8407 116.254L60.0988 116.407ZM59.9499 116.724L60.1053 116.395L59.8342 116.267L59.6788 116.596L59.9499 116.724ZM59.9739 117.857C59.7539 117.518 59.7424 117.085 59.9442 116.735L59.6845 116.585C59.4264 117.032 59.4411 117.587 59.7225 118.02L59.9739 117.857ZM60.9871 118.341C60.5853 118.383 60.1939 118.196 59.9739 117.857L59.7225 118.02C60.0039 118.454 60.5044 118.693 61.0182 118.639L60.9871 118.341ZM61.8732 117.648C61.7318 118.028 61.3887 118.296 60.9859 118.341L61.0194 118.639C61.5346 118.581 61.9733 118.238 62.1542 117.752L61.8732 117.648ZM62.0308 117.323L61.879 117.634L62.1484 117.766L62.3002 117.455L62.0308 117.323ZM62.3711 116.237C62.2775 116.608 62.1622 116.976 62.0253 117.336L62.3056 117.442C62.4466 117.071 62.5654 116.693 62.6618 116.311L62.3711 116.237ZM62.6432 115.483C62.5594 115.729 62.4752 115.977 62.3775 116.218L62.6554 116.33C62.7568 116.08 62.8436 115.825 62.927 115.58L62.6432 115.483ZM63.3429 113.991C63.0151 114.384 62.8286 114.938 62.6432 115.483L62.927 115.58C63.1179 115.019 63.2882 114.525 63.5731 114.183L63.3429 113.991ZM63.9576 113.683C63.7318 113.719 63.5219 113.822 63.3554 113.978L63.5607 114.197C63.6833 114.081 63.8379 114.006 64.0042 113.98L63.9576 113.683ZM64.1238 113.26L63.8495 113.759L64.1123 113.904L64.3865 113.405L64.1238 113.26ZM75.4384 113.22C71.8513 114.578 67.8894 114.569 64.3089 113.192L64.2014 113.472C67.8506 114.875 71.8886 114.885 75.5446 113.5L75.4384 113.22ZM75.8676 113.757L75.6244 113.29L75.3586 113.429L75.6018 113.895L75.8676 113.757ZM76.4765 114.111C76.3037 113.879 76.0458 113.72 75.7565 113.678L75.7129 113.974C75.9208 114.005 76.109 114.12 76.2361 114.29L76.4765 114.111ZM77.3335 116.205C77.1188 115.489 76.8373 114.794 76.489 114.131L76.2236 114.27C76.5627 114.916 76.837 115.593 77.0464 116.291L77.3335 116.205ZM77.6847 117.312C77.5471 116.952 77.4305 116.585 77.3352 116.211L77.0447 116.285C77.1428 116.67 77.263 117.048 77.4046 117.419L77.6847 117.312ZM77.8311 117.61L77.6793 117.3L77.4099 117.431L77.5617 117.742L77.8311 117.61ZM78.7245 118.312C78.3225 118.268 77.9794 118.002 77.8366 117.623L77.5561 117.729C77.7388 118.213 78.1775 118.553 78.6916 118.61L78.7245 118.312ZM79.7412 117.833C79.5193 118.172 79.1264 118.357 78.7245 118.312L78.6916 118.61C79.2057 118.667 79.7081 118.43 79.9918 117.998L79.7412 117.833ZM79.7663 116.71C79.9702 117.059 79.9603 117.494 79.7406 117.834L79.9924 117.997C80.2734 117.562 80.2861 117.006 80.0253 116.559L79.7663 116.71ZM79.6017 116.37L79.7608 116.699L80.0307 116.569L79.8717 116.24L79.6017 116.37ZM78.9629 115.425C79.1961 115.731 79.4114 116.051 79.6078 116.382L79.8656 116.229C79.6634 115.888 79.4416 115.559 79.2014 115.243L78.9629 115.425ZM77.8493 113.465C78.1669 114.15 78.533 114.805 78.959 115.42L79.2054 115.249C78.7904 114.65 78.4325 114.01 78.1212 113.339L77.8493 113.465ZM77.9833 112.59C77.8227 112.841 77.7707 113.146 77.8394 113.436L78.1311 113.367C78.0812 113.156 78.119 112.934 78.2358 112.751L77.9833 112.59ZM77.7647 112.227C77.8239 112.401 77.8941 112.571 77.9749 112.736L78.2442 112.605C78.169 112.451 78.1037 112.292 78.0485 112.13L77.7647 112.227ZM84.7532 103.321C83.5887 106.979 81.1258 110.085 77.8299 112.05L77.9834 112.307C81.3423 110.305 83.8522 107.14 85.0388 103.412L84.7532 103.321ZM85.4412 103.31L84.922 103.219L84.87 103.514L85.3892 103.606L85.4412 103.31ZM86.1015 103.056C85.8126 103.047 85.5297 103.151 85.3142 103.347L85.5162 103.569C85.6737 103.425 85.8808 103.349 86.0928 103.356L86.1015 103.056ZM88.2739 103.687C87.5824 103.429 86.8625 103.2 86.1254 103.058L86.069 103.353C86.7834 103.49 87.486 103.713 88.1693 103.968L88.2739 103.687ZM89.3599 104.105C88.9943 103.99 88.6347 103.853 88.2844 103.691L88.1588 103.963C88.5215 104.131 88.8932 104.272 89.2698 104.391L89.3599 104.105ZM89.5142 104.138C89.4514 104.126 89.3964 104.115 89.3541 104.103L89.2757 104.392C89.3302 104.407 89.3965 104.42 89.456 104.432L89.5142 104.138ZM89.5136 104.138L89.5134 104.138L89.4568 104.432L89.457 104.432L89.5136 104.138ZM89.6644 104.17C89.6166 104.158 89.5633 104.148 89.5144 104.138L89.4562 104.432C89.5067 104.442 89.5536 104.451 89.5942 104.461L89.6644 104.17ZM89.6531 104.166H89.6293V104.465H89.6531V104.166ZM90.7942 103.905C90.5089 104.194 90.0854 104.298 89.6992 104.173L89.607 104.458C90.1009 104.618 90.6426 104.485 91.0074 104.116L90.7942 103.905ZM91.0486 102.807C91.1778 103.192 91.0794 103.617 90.7942 103.905L91.0074 104.116C91.3722 103.747 91.4981 103.204 91.3327 102.712L91.0486 102.807ZM90.1761 102.093C90.5789 102.147 90.9167 102.424 91.0489 102.808L91.3324 102.711C91.1633 102.219 90.7313 101.865 90.2161 101.796L90.1761 102.093ZM89.8068 102.006L90.1615 102.09L90.2307 101.798L89.876 101.714L89.8068 102.006ZM88.6683 101.919C89.054 101.926 89.4389 101.956 89.8211 102.009L89.8617 101.712C89.468 101.658 89.0716 101.627 88.6744 101.619L88.6683 101.919ZM86.4494 101.553C87.1721 101.748 87.9132 101.87 88.6617 101.918L88.681 101.619C87.9522 101.572 87.2308 101.453 86.5274 101.264L86.4494 101.553ZM85.8312 100.955C85.9689 101.2 86.1716 101.403 86.4153 101.539L86.5615 101.278C86.3665 101.169 86.2035 101.006 86.0925 100.809L85.8312 100.955ZM85.4257 100.879L85.9193 101.026L86.0045 100.738L85.5108 100.592L85.4257 100.879ZM82.8098 89.8626C84.9479 93.0504 85.8411 96.9124 85.3197 100.715L85.6168 100.756C86.1481 96.8804 85.2378 92.9445 83.0588 89.6956L82.8098 89.8626ZM83.2641 89.2704L82.8326 89.669L83.036 89.8892L83.4675 89.4906L83.2641 89.2704ZM83.4781 88.5925C83.2904 88.814 83.1951 89.1012 83.2163 89.3914L83.5153 89.3696C83.4999 89.1588 83.5691 88.9488 83.7068 88.7863L83.4781 88.5925ZM85.3283 87.2867C84.6803 87.6551 84.0635 88.0866 83.4947 88.5758L83.6902 88.8031C84.2439 88.3269 84.8448 87.9065 85.4765 87.5473L85.3283 87.2867ZM86.3286 86.7016C86.0086 86.9145 85.6766 87.1087 85.3343 87.2835L85.4706 87.5505C85.8231 87.3705 86.165 87.1704 86.4946 86.9513L86.3286 86.7016ZM86.5843 86.4941L86.3174 86.7099L86.5058 86.943L86.7728 86.7273L86.5843 86.4941ZM87.1011 85.4517C87.1466 85.8635 86.9515 86.2649 86.5995 86.4834L86.7576 86.7381C87.2078 86.4587 87.4573 85.9454 87.3991 85.4188L87.1011 85.4517ZM86.3861 84.5547C86.7774 84.691 87.0555 85.0399 87.1011 85.4517L87.3991 85.4188C87.3408 84.8921 86.9851 84.4458 86.4847 84.2716L86.3861 84.5547ZM85.2694 84.8131C85.5608 84.5191 85.9952 84.4187 86.3861 84.5547L86.4847 84.2716C85.9847 84.0976 85.4292 84.2261 85.0565 84.602L85.2694 84.8131ZM84.9858 85.0404L85.2564 84.8247L85.0695 84.5903L84.7989 84.806L84.9858 85.0404ZM84.2083 85.8696C84.4545 85.5756 84.7173 85.2959 84.9955 85.032L84.7892 84.8145C84.5027 85.0863 84.232 85.3743 83.9785 85.6772L84.2083 85.8696ZM82.5893 87.3964C83.1763 86.9408 83.7172 86.4315 84.2063 85.872L83.9806 85.6747C83.5043 86.2195 82.9775 86.7157 82.4055 87.1596L82.5893 87.3964ZM81.7334 87.5062C82.0099 87.5536 82.2941 87.5226 82.5539 87.4169L82.4408 87.1392C82.2329 87.2239 82.0054 87.2486 81.7841 87.2107L81.7334 87.5062ZM81.3831 87.8097L81.8456 87.4806L81.6718 87.2363L81.2093 87.5654L81.3831 87.8097ZM71.1634 82.9554C74.9811 83.2995 78.5435 85.0201 81.1878 87.791L81.4046 87.5841C78.7104 84.7606 75.0805 83.0075 71.1903 82.6568L71.1634 82.9554ZM71.0073 82.3918C71.0156 82.5151 71.027 82.6836 71.027 82.8061H71.3268C71.3268 82.6713 71.3145 82.4917 71.3064 82.3716L71.0073 82.3918ZM71.0072 82.3911L71.0072 82.3912L71.3064 82.3722L71.3064 82.3721L71.0072 82.3911ZM71.0073 82.3919L71.0073 82.3922L71.3064 82.3711L71.3063 82.3708L71.0073 82.3919ZM71.0075 82.3941L71.0075 82.3942L71.3062 82.3685L71.3062 82.3684L71.0075 82.3941ZM71.0074 82.3929L71.0074 82.393L71.3062 82.3695L71.3062 82.3695L71.0074 82.3929ZM71.0079 82.3986L71.0079 82.3987L71.3057 82.3637L71.3057 82.3636L71.0079 82.3986ZM70.9997 82.2695C71.0009 82.2972 71.0039 82.3414 71.0072 82.3913L71.3064 82.371C71.3028 82.319 71.3002 82.2797 71.2992 82.2568L70.9997 82.2695ZM70.6037 81.6845C70.6588 81.9707 70.8261 82.2221 71.0643 82.3865L71.2346 82.1398C71.0596 82.019 70.938 81.8352 70.8981 81.6278L70.6037 81.6845ZM70.7419 79.4256C70.6225 80.1645 70.5754 80.9133 70.6011 81.6613L70.9007 81.651C70.8757 80.9224 70.9216 80.1931 71.0378 79.4734L70.7419 79.4256ZM70.9087 78.2789C70.8745 78.663 70.8204 79.0414 70.743 79.4194L71.0367 79.4796C71.1165 79.0898 71.1721 78.7002 71.2073 78.3055L70.9087 78.2789ZM70.9081 77.9266V78.2922H71.2079V77.9266H70.9081ZM69.85 76.7232C70.4723 76.7668 70.9407 77.2982 70.9083 77.9188L71.2077 77.9344C71.2485 77.1508 70.6566 76.4792 69.871 76.4241L69.85 76.7232ZM69.7713 76.6955L69.7877 76.7047L69.9333 76.4426L69.9169 76.4335L69.7713 76.6955ZM68.1044 92.4048L68.47 86.0184L68.1707 86.0012L67.8051 92.3877L68.1044 92.4048ZM67.9273 92.5461H67.9547V92.2463H67.9273V92.5461ZM67.3908 93.45C67.7889 93.2377 68.056 92.8565 68.077 92.4032L67.7775 92.3893C67.762 92.7258 67.5647 93.0174 67.2497 93.1854L67.3908 93.45ZM66.1349 93.3401C66.4933 93.6016 66.9771 93.6706 67.3908 93.45L67.2497 93.1854C66.9504 93.3451 66.5895 93.3007 66.3116 93.0979L66.1349 93.3401ZM60.8984 89.6297L66.1366 93.3413L66.3099 93.0967L61.0717 89.3851L60.8984 89.6297ZM66.9912 86.072C64.6838 86.5905 62.5672 87.7433 60.88 89.4005L61.0901 89.6144C62.7374 87.9963 64.8041 86.8707 67.0569 86.3645L66.9912 86.072ZM68.3004 85.8608C67.862 85.9089 67.4256 85.9792 66.9928 86.0716L67.0554 86.3648C67.4783 86.2745 67.9048 86.2058 68.3331 86.1588L68.3004 85.8608ZM68.3204 85.8599H68.3167V86.1597H68.3204V85.8599ZM71.3503 86.158C74.0694 86.4958 76.6005 87.7171 78.5591 89.6341L78.7688 89.4198C76.7634 87.457 74.1716 86.2064 71.3873 85.8604L71.3503 86.158ZM71.8805 92.3798L71.5185 86.0007L71.2191 86.0177L71.5812 92.3968L71.8805 92.3798ZM72.4092 93.2109C72.0902 93.06 71.8854 92.739 71.8807 92.3863L71.5809 92.3903C71.5872 92.8567 71.8578 93.2817 72.281 93.4819L72.4092 93.2109ZM73.3814 93.0977C73.1063 93.3178 72.7287 93.3619 72.4092 93.2109L72.2811 93.4819C72.7039 93.6818 73.2039 93.6236 73.5687 93.3318L73.3814 93.0977ZM78.5771 89.4048L73.3882 93.0925L73.5619 93.3369L78.7507 89.6491L78.5771 89.4048ZM59.1837 91.7984L59.1833 91.7979L58.9838 92.0218L58.9843 92.0222L59.1837 91.7984ZM57.4536 99.8267C57.1531 97.0913 57.7717 94.3337 59.2118 91.9887L58.9563 91.8318C57.4814 94.2335 56.8479 97.0578 57.1556 99.8594L57.4536 99.8267ZM63.41 97.931L57.2631 99.699L57.346 99.9871L63.4929 98.2191L63.41 97.931ZM63.3016 98.0568V98.075H63.6014V98.0568H63.3016ZM64.0677 97.2282C63.9924 97.5594 63.7376 97.8225 63.4117 97.9122L63.4913 98.2013C63.9223 98.0826 64.2599 97.735 64.3601 97.2947L64.0677 97.2282ZM63.7754 96.325C64.0313 96.548 64.1434 96.8956 64.0677 97.2282L64.3601 97.2947C64.4599 96.8557 64.3124 96.3952 63.9723 96.0989L63.7754 96.325ZM63.7239 96.1845V96.212H64.0237V96.1845H63.7239ZM58.9842 92.0221L63.774 96.2964L63.9736 96.0727L59.1838 91.7984L58.9842 92.0221ZM58.9577 91.8296L58.9563 91.8318L59.2117 91.9887L59.2131 91.9865L58.9577 91.8296ZM59.1896 92.0158L59.1914 92.014L58.9794 91.802L58.9776 91.8039L59.1896 92.0158ZM80.443 91.9875C81.8813 94.3274 82.5173 97.072 82.2535 99.8058L82.5519 99.8346C82.822 97.0358 82.1708 94.226 80.6984 91.8305L80.443 91.9875ZM80.7121 91.8566L80.7048 91.8419L80.4366 91.976L80.4439 91.9906L80.7121 91.8566ZM75.9243 96.2899L80.678 92.0353L80.478 91.8119L75.7243 96.0665L75.9243 96.2899ZM75.6305 97.195C75.5564 96.8621 75.6667 96.5174 75.9235 96.2905L75.725 96.0658C75.3858 96.3655 75.2402 96.8216 75.3379 97.2602L75.6305 97.195ZM76.2859 97.8783C75.9553 97.7886 75.7043 97.5261 75.6305 97.195L75.3379 97.2602C75.436 97.7007 75.7701 98.0489 76.2074 98.1676L76.2859 97.8783ZM76.3965 98.0467V98.023H76.0967V98.0467H76.3965ZM82.4442 99.6762L76.2881 97.9027L76.2051 98.1908L82.3612 99.9643L82.4442 99.6762ZM70.8224 96.3662H68.8624V96.666H70.8224V96.3662ZM72.1378 97.9446L70.9402 96.4234L70.7046 96.6088L71.9022 98.13L72.1378 97.9446ZM71.7309 99.9722L72.1661 98.0708L71.8739 98.0039L71.4387 99.9054L71.7309 99.9722ZM69.8891 100.92L71.6498 100.074L71.5199 99.8037L69.7592 100.65L69.8891 100.92ZM67.9949 100.074L69.7593 100.92L69.889 100.65L68.1246 99.8036L67.9949 100.074ZM67.4983 98.0693L67.9133 99.9708L68.2062 99.9068L67.7912 98.0053L67.4983 98.0693ZM68.7454 96.4225L67.5277 97.9436L67.7618 98.131L68.9794 96.6098L68.7454 96.4225ZM75.1571 101.854C75.2302 101.846 75.3176 101.846 75.3662 101.853L75.4086 101.556C75.3292 101.545 75.2155 101.546 75.124 101.556L75.1571 101.854ZM75.2781 101.771L75.2854 101.743L74.9957 101.666L74.9884 101.694L75.2781 101.771ZM74.4071 102.319C74.5665 102.062 74.8406 101.899 75.142 101.882L75.1245 101.583C74.7258 101.606 74.3633 101.821 74.1525 102.161L74.4071 102.319ZM74.3407 103.171C74.223 102.893 74.2478 102.575 74.4071 102.319L74.1525 102.161C73.9417 102.5 73.9089 102.92 74.0646 103.288L74.3407 103.171ZM76.7912 109.104L74.3412 103.172L74.0641 103.287L76.5141 109.218L76.7912 109.104ZM81.5847 102.725C80.6819 105.325 78.8992 107.547 76.5719 109.035L76.7333 109.287C79.1158 107.765 80.9424 105.489 81.8679 102.824L81.5847 102.725ZM75.3625 101.853L81.7013 102.922L81.7512 102.627L75.4123 101.557L75.3625 101.853ZM65.5055 102.14C65.2829 101.799 64.906 101.589 64.4973 101.582L64.4927 101.882C64.8006 101.887 65.0856 102.045 65.2544 102.304L65.5055 102.14ZM65.6037 103.287C65.7639 102.912 65.7288 102.483 65.5054 102.14L65.2544 102.304C65.4223 102.561 65.4493 102.885 65.328 103.169L65.6037 103.287ZM65.6157 103.251V103.228H65.3159V103.251H65.6157ZM63.169 109.192L65.6043 103.309L65.3273 103.194L62.892 109.078L63.169 109.192ZM57.8469 102.865C58.7997 105.502 60.5906 107.75 62.9496 109.261L63.1114 109.009C60.8081 107.533 59.0593 105.338 58.1289 102.764L57.8469 102.865ZM64.2469 101.601L57.9628 102.667L58.013 102.962L64.297 101.896L64.2469 101.601ZM64.4993 101.599C64.418 101.591 64.3363 101.591 64.2562 101.6L64.2876 101.898C64.3465 101.891 64.4075 101.891 64.4687 101.898L64.4993 101.599ZM64.3703 101.649L64.3593 101.665L64.6087 101.832L64.6197 101.815L64.3703 101.649ZM69.8088 104.441C70.1595 104.43 70.4866 104.618 70.6542 104.926L70.9176 104.783C70.6959 104.375 70.2633 104.127 69.7993 104.142L69.8088 104.441ZM69.956 104.262L69.9395 104.227L69.6686 104.356L69.685 104.391L69.956 104.262ZM69.0364 104.94C69.1979 104.658 69.4965 104.484 69.8241 104.476L69.8169 104.177C69.3875 104.187 68.9914 104.415 68.7762 104.791L69.0364 104.94ZM65.9291 110.528L69.0373 104.939L68.7753 104.793L65.6671 110.382L65.9291 110.528ZM72.6356 110.664C70.3846 111.178 68.0342 111.057 65.8464 110.313L65.7499 110.597C67.9903 111.359 70.3973 111.483 72.7025 110.956L72.6356 110.664ZM73.8644 110.3L72.6266 110.666L72.7115 110.953L73.9493 110.588L73.8644 110.3ZM70.6785 104.927L73.7757 110.517L74.038 110.371L70.9407 104.782L70.6785 104.927ZM70.7859 105.005H70.8096V104.705H70.7859V105.005Z" fill="white"/>
</svg>
