<?xml version="1.0" encoding="UTF-8" standalone="no"?>
<!-- Created with Inkscape (http://www.inkscape.org/) -->

<svg
   version="1.1"
   id="svg2"
   xml:space="preserve"
   width="134.03732"
   height="103.2708"
   viewBox="0 0 134.03732 103.2708"
   sodipodi:docname="inf-lg-cze-cmyk.svg"
   inkscape:version="1.1.1 (3bf5ae0d25, 2021-09-20)"
   xmlns:inkscape="http://www.inkscape.org/namespaces/inkscape"
   xmlns:sodipodi="http://sodipodi.sourceforge.net/DTD/sodipodi-0.dtd"
   xmlns="http://www.w3.org/2000/svg"
   xmlns:svg="http://www.w3.org/2000/svg"><defs
     id="defs6"><clipPath
       clipPathUnits="userSpaceOnUse"
       id="clipPath18"><path
         d="M 0,77.453 H 100.528 V 0 H 0 Z"
         id="path16" /></clipPath></defs><sodipodi:namedview
     id="namedview4"
     pagecolor="#ffffff"
     bordercolor="#666666"
     borderopacity="1.0"
     inkscape:pageshadow="2"
     inkscape:pageopacity="0.0"
     inkscape:pagecheckerboard="0"
     showgrid="false"
     inkscape:zoom="7.7563069"
     inkscape:cx="66.977752"
     inkscape:cy="51.570935"
     inkscape:window-width="1920"
     inkscape:window-height="1011"
     inkscape:window-x="0"
     inkscape:window-y="0"
     inkscape:window-maximized="1"
     inkscape:current-layer="g12" /><g
     id="g8"
     inkscape:groupmode="layer"
     inkscape:label="inf-lg-cze-cmyk"
     transform="matrix(1.3333333,0,0,-1.3333333,0,103.2708)"><path
       d="m 23.153,64.224 h 3.3 V 43.225 h -3.3 z m -1.229,0 h 1.109 l -2.04,-20.999 h -1.109 z m -5.311,0 h 1.111 l 2.04,-20.999 h -1.111 z m -3.389,0 h 3.271 V 43.225 h -3.271 z"
       style="fill:#2350a9;fill-opacity:1;fill-rule:nonzero;stroke:none"
       id="path10" /><g
       id="g12"><g
         id="g20"
         transform="translate(38.8428,64.2236)"><path
           d="m 0,0 v -16.05 c 0,-1.138 1.021,-1.949 1.98,-1.949 0.96,0 1.98,0.811 1.98,1.949 V 0 h 3.3 v -16.169 c 0,-2.82 -2.55,-5.01 -5.28,-5.01 -2.73,0 -5.28,2.19 -5.28,5.01 L -3.3,0 Z"
           style="fill:#2350a9;fill-opacity:1;fill-rule:nonzero;stroke:none"
           id="path22" /></g><path
         d="m 67.373,43.225 h -3.301 v 20.999 h 3.301 z m -6.54,20.999 3.12,-20.999 h -1.14 l -3.12,20.999 z m -1.26,-20.999 h -3.3 v 20.999 h 3.3 z"
         style="fill:#2350a9;fill-opacity:1;fill-rule:nonzero;stroke:none"
         id="path24" /><g
         id="g26"
         transform="translate(81.1426,44.3945)"><path
           d="m 0,0 v 18.659 h -2.819 v 1.17 H 6.15 v -1.17 H 3.3 V 0 H 6.15 V -1.17 H -2.819 V 0 Z"
           style="fill:#2350a9;fill-opacity:1;fill-rule:nonzero;stroke:none"
           id="path28" /></g><g
         id="g30"
         transform="translate(15.3838,34.2236)"><path
           d="M 0,0 H 9.989 V -1.5 H 1.62 v -8.729 h 8.009 v -1.5 H 1.62 v -9.27 H 0 Z"
           style="fill:#2350a9;fill-opacity:1;fill-rule:nonzero;stroke:none"
           id="path32" /></g><g
         id="g34"
         transform="translate(40.0127,14.2744)"><path
           d="m 0,0 v 18.899 h -3.66 v 1.05 h 8.94 v -1.05 H 1.62 V 0 H 5.28 V -1.05 H -3.66 V 0 Z"
           style="fill:#2350a9;fill-opacity:1;fill-rule:nonzero;stroke:none"
           id="path36" /></g></g></g></svg>
