<?xml version="1.0" encoding="UTF-8" standalone="no"?>
<!-- Created with Inkscape (http://www.inkscape.org/) -->

<svg
   xmlns:dc="http://purl.org/dc/elements/1.1/"
   xmlns:cc="http://creativecommons.org/ns#"
   xmlns:rdf="http://www.w3.org/1999/02/22-rdf-syntax-ns#"
   xmlns:svg="http://www.w3.org/2000/svg"
   xmlns="http://www.w3.org/2000/svg"
   xmlns:xlink="http://www.w3.org/1999/xlink"
   xmlns:sodipodi="http://sodipodi.sourceforge.net/DTD/sodipodi-0.dtd"
   xmlns:inkscape="http://www.inkscape.org/namespaces/inkscape"
   version="1.1"
   id="svg2"
   inkscape:version="0.92.0 r"
   width="240"
   height="240"
   viewBox="0 0 240 240"
   sodipodi:docname="devconf-cz-icon.svg"
   inkscape:export-filename="./devconf-cz-icon.png"
   inkscape:export-xdpi="360"
   inkscape:export-ydpi="360">
  <metadata
     id="metadata8">
    <rdf:RDF>
      <cc:Work
         rdf:about="">
        <dc:format>image/svg+xml</dc:format>
        <dc:type
           rdf:resource="http://purl.org/dc/dcmitype/StillImage" />
        <dc:title />
      </cc:Work>
    </rdf:RDF>
  </metadata>
  <defs
     id="defs6">
    <linearGradient
       inkscape:collect="always"
       id="linearGradient8045">
      <stop
         style="stop-color:#8e83e4;stop-opacity:1"
         offset="0"
         id="stop8041" />
      <stop
         id="stop8051"
         offset="0.5"
         style="stop-color:#8e83e4;stop-opacity:1;" />
      <stop
         style="stop-color:#6f64c4;stop-opacity:1"
         offset="1"
         id="stop8043" />
    </linearGradient>
    <radialGradient
       inkscape:collect="always"
       xlink:href="#linearGradient8045"
       id="radialGradient8049"
       gradientUnits="userSpaceOnUse"
       gradientTransform="matrix(1.5421435,0,0,1.438404,-65.051371,-51.057936)"
       cx="119.98921"
       cy="116.4632"
       fx="119.98921"
       fy="116.4632"
       r="97.760139" />
  </defs>
  <sodipodi:namedview
     pagecolor="#a2a2a2"
     bordercolor="#666666"
     borderopacity="1"
     objecttolerance="10"
     gridtolerance="10"
     guidetolerance="10"
     inkscape:pageopacity="0"
     inkscape:pageshadow="2"
     inkscape:window-width="640"
     inkscape:window-height="480"
     inkscape:document-units="px"
     id="namedview4"
     showgrid="false"
     inkscape:pagecheckerboard="false"
     inkscape:zoom="1"
     inkscape:cx="120"
     inkscape:cy="120"
     inkscape:current-layer="layer2" />
  <g
     inkscape:groupmode="layer"
     id="layer2"
     inkscape:label="crystalball">
    <path
       style="color:#000000;clip-rule:nonzero;display:inline;overflow:visible;visibility:visible;opacity:1;isolation:auto;mix-blend-mode:normal;color-interpolation:sRGB;color-interpolation-filters:linearRGB;solid-color:#000000;solid-opacity:1;fill:#000000;fill-opacity:1;fill-rule:nonzero;stroke:none;stroke-width:111.94272614;stroke-linecap:butt;stroke-linejoin:miter;stroke-miterlimit:4;stroke-dasharray:none;stroke-dashoffset:0;stroke-opacity:1;marker:none;marker-start:none;marker-mid:none;marker-end:none;paint-order:normal;color-rendering:auto;image-rendering:auto;shape-rendering:auto;text-rendering:auto;enable-background:accumulate"
       d="m 62.611251,188.5989 c -5.62586,0.33102 -9.99629,11.0597 -9.99432,16.64136 0.002,6.82873 29.71978,24.72739 67.383069,24.72739 37.66329,0 67.38068,-17.89866 67.38307,-24.72739 0.002,-5.76174 -4.65479,-17.00711 -10.5424,-16.63971 -1.09028,0.068 -2.2242,0.5351 -3.3771,1.50821 -7.37862,6.22796 -33.30857,19.28107 -53.46357,19.28109 -20.154989,3e-5 -46.084939,-13.05313 -53.463559,-19.28109 -1.15291,-0.97311 -2.28682,-1.44014 -3.37712,-1.50821 -0.18398,-0.012 -0.36659,-0.0124 -0.54807,-0.002 z"
       id="path7824-4-3-6-6-7-2-1-6-3-31-4-4-6-2-6-53-7-7-3-72-9-4-5-4-6-3-2"
       inkscape:connector-curvature="0"
       sodipodi:nodetypes="cszsscccccc" />
    <path
       inkscape:connector-curvature="0"
       style="color:#000000;clip-rule:nonzero;display:inline;overflow:visible;visibility:visible;opacity:1;isolation:auto;mix-blend-mode:normal;color-interpolation:sRGB;color-interpolation-filters:linearRGB;solid-color:#000000;solid-opacity:1;fill:#000000;fill-opacity:1;fill-rule:nonzero;stroke:none;stroke-width:131.77168274;stroke-linecap:butt;stroke-linejoin:miter;stroke-miterlimit:4;stroke-dasharray:none;stroke-dashoffset:0;stroke-opacity:1;marker:none;marker-start:none;marker-mid:none;marker-end:none;paint-order:normal;color-rendering:auto;image-rendering:auto;shape-rendering:auto;text-rendering:auto;enable-background:accumulate"
       d="M 120,12.218798 A 105.24186,105.18508 0 0 0 14.760116,117.40619 105.24186,105.18508 0 0 0 120,222.58832 105.24186,105.18508 0 0 0 225.23988,117.40619 105.24186,105.18508 0 0 0 120,12.218798 Z m -0.0106,25.25085 A 79.967831,79.924689 0 0 1 199.95767,117.39568 79.967831,79.924689 0 0 1 119.98963,197.3217 79.967831,79.924689 0 0 1 40.021604,117.39568 79.967831,79.924689 0 0 1 119.98963,37.469648 Z"
       id="path7824-4-3-6-6-7-2-1-6-3-31-4-4-6-4-0-6-6-2-6-7-9-7-6" />
    <ellipse
       style="color:#000000;clip-rule:nonzero;display:inline;overflow:visible;visibility:visible;opacity:1;isolation:auto;mix-blend-mode:normal;color-interpolation:sRGB;color-interpolation-filters:linearRGB;solid-color:#000000;solid-opacity:1;fill:url(#radialGradient8049);fill-opacity:1;fill-rule:nonzero;stroke:#c3beef;stroke-width:3;stroke-linecap:butt;stroke-linejoin:miter;stroke-miterlimit:4;stroke-dasharray:none;stroke-dashoffset:0;stroke-opacity:1;marker:none;marker-start:none;marker-mid:none;marker-end:none;paint-order:normal;color-rendering:auto;image-rendering:auto;shape-rendering:auto;text-rendering:auto;enable-background:accumulate"
       id="path7824-2-4-1-1-2-3-56-3-1-4-6-5-4-2-8-6-4-7-3-4-2-2-6-4-9-4-5-0"
       cx="119.98921"
       cy="116.4632"
       rx="97.760139"
       ry="97.712975"
       inkscape:export-filename="./devconf-crystal-us-color.png"
       inkscape:export-xdpi="360"
       inkscape:export-ydpi="360" />
    <path
       style="color:#000000;clip-rule:nonzero;display:inline;overflow:visible;visibility:visible;opacity:0.2;isolation:auto;mix-blend-mode:normal;color-interpolation:sRGB;color-interpolation-filters:linearRGB;solid-color:#000000;solid-opacity:1;fill:#ffffff;fill-opacity:1;fill-rule:nonzero;stroke:none;stroke-width:2.014;stroke-linecap:butt;stroke-linejoin:miter;stroke-miterlimit:4;stroke-dasharray:none;stroke-dashoffset:0;stroke-opacity:1;marker:none;marker-start:none;marker-mid:none;marker-end:none;paint-order:normal;color-rendering:auto;image-rendering:auto;shape-rendering:auto;text-rendering:auto;enable-background:accumulate"
       d="M 119.98633,25.394531 A 91.114996,91.06584 0 0 0 31.990234,93.275391 L 44.845703,96.71875 C 57.364323,59.537374 92.304297,34.091569 132.01172,34.041016 h 0.002 c 16.58448,0.0078 32.49471,4.480049 46.30664,12.519531 A 91.114996,91.06584 0 0 0 119.98633,25.394531 Z"
       id="path8010" />
    <path
       style="color:#000000;clip-rule:nonzero;display:inline;overflow:visible;visibility:visible;opacity:0.2;isolation:auto;mix-blend-mode:normal;color-interpolation:sRGB;color-interpolation-filters:linearRGB;solid-color:#000000;solid-opacity:1;fill:#ffffff;fill-opacity:1;fill-rule:nonzero;stroke:none;stroke-width:2.014;stroke-linecap:butt;stroke-linejoin:miter;stroke-miterlimit:4;stroke-dasharray:none;stroke-dashoffset:0;stroke-opacity:1;marker:none;marker-start:none;marker-mid:none;marker-end:none;paint-order:normal;color-rendering:auto;image-rendering:auto;shape-rendering:auto;text-rendering:auto;enable-background:accumulate"
       d="m 29.400391,106.89258 a 91.114996,91.06584 0 0 0 -0.535157,9.5664 91.114996,91.06584 0 0 0 3.265625,24.10547 l 11.150391,2.98633 -0.09375,-0.34375 c -2.185918,-7.93995 -3.295881,-16.13605 -3.300781,-24.37109 v -0.002 -0.002 c 0.0096,-3.00705 0.172754,-6.01232 0.476562,-9.00391 z"
       id="path8006" />
    <path
       id="path7182-2"
       style="font-style:normal;font-variant:normal;font-weight:normal;font-stretch:normal;font-size:medium;line-height:125%;font-family:Montserrat;-inkscape-font-specification:Montserrat;text-align:start;letter-spacing:0px;word-spacing:0px;text-anchor:start;fill:#ffffff;fill-opacity:1;stroke:none;stroke-width:0.53736132px;stroke-linecap:butt;stroke-linejoin:miter;stroke-opacity:1"
       d="m 113.59577,167.34132 c -6.56851,0 -11.67711,4.85446 -11.67711,11.16913 0,6.37815 5.04611,11.29719 11.55118,11.29719 3.14147,0 6.34586,-1.42798 8.59883,-3.64923 l -2.22082,-2.47584 c -1.6818,1.61834 -3.96682,2.63433 -6.18805,2.63433 -4.44248,0 -7.93344,-3.45891 -7.93344,-7.83792 0,-4.37901 3.49096,-7.80644 7.93344,-7.80644 2.25295,0 4.56972,1.07905 6.18805,2.82431 l 2.18933,-2.72879 c -2.15777,-2.12605 -5.29994,-3.42673 -8.44141,-3.42674 z m 10.95609,0.0944 v 3.36375 h 13.13702 l -13.54949,16.15233 v 2.69626 h 18.75412 v -3.3627 h -13.67648 l 13.518,-16.15233 v -2.6973 z m -27.194473,18.31016 c -1.14234,0 -1.999363,0.85652 -1.999363,2.06235 0,1.23755 0.857023,2.12635 1.999363,2.12635 1.142351,0 1.999364,-0.8888 1.999364,-2.12635 0,-1.20583 -0.857013,-2.06235 -1.999364,-2.06235 z"
       inkscape:connector-curvature="0" />
    <g
       id="g7413"
       transform="matrix(0.57410403,0,0,0.57410403,-101.35201,47.220264)">
      <path
         inkscape:connector-curvature="0"
         id="path8253-6-1-9-2-0-5-7-6-7-5"
         d="M 364.62662,33.862619 V 106.5423 h 54.18945 L 413.04849,92.194652 H 380.84732 V 77.116525 h 26.14063 L 401.42935,63.2884 H 380.84732 V 48.315744 h 40.18359 V 33.862619 Z"
         style="font-style:normal;font-variant:normal;font-weight:bold;font-stretch:normal;font-size:medium;line-height:125%;font-family:Montserrat;-inkscape-font-specification:'Montserrat Bold';text-align:end;letter-spacing:-10.00000095px;word-spacing:0px;text-anchor:end;fill:#ffffff;fill-opacity:1;stroke:none;stroke-width:1px;stroke-linecap:butt;stroke-linejoin:miter;stroke-opacity:1" />
      <path
         inkscape:export-ydpi="360"
         inkscape:export-xdpi="360"
         inkscape:export-filename="./devconf-crystal-us-color.png"
         d="m 442.4844,80.132499 18.507,-46.2692 h 17.572 l -29.217,72.679001 h -13.725 l -29.217,-72.679001 h 17.572 z"
         style="font-style:normal;font-variant:normal;font-weight:bold;font-stretch:normal;font-size:medium;line-height:125%;font-family:Montserrat;-inkscape-font-specification:'Montserrat Bold';text-align:end;letter-spacing:-10.00000095px;word-spacing:0px;text-anchor:end;fill:#ffffff;fill-opacity:1;stroke:none;stroke-width:1px;stroke-linecap:butt;stroke-linejoin:miter;stroke-opacity:1"
         id="path8255-06-5-2-2-8-2-5-0-8-3"
         inkscape:connector-curvature="0" />
      <path
         inkscape:export-ydpi="360"
         inkscape:export-xdpi="360"
         inkscape:export-filename="./devconf-crystal-us-color.png"
         sodipodi:nodetypes="scscsccsscscsccs"
         d="m 320.2964,33.863299 c 12.962,0 22.91,3.1886 29.841,9.5657 6.932,6.3079 10.398,15.1112 10.398,26.4099 0,11.2987 -3.397,20.240603 -10.19,26.825703 -6.724,6.585098 -17.017,9.877698 -30.881,9.877698 h -20.85 V 33.863299 Z m 0.832,58.330303 c 7.417,0 13.101,-1.8716 17.052,-5.6147 4.02,-3.743103 6.031,-9.184403 6.031,-16.324103 0,-7.1397 -2.011,-12.6157 -6.031,-16.4282 -3.951,-3.8817 -10.051,-5.8226 -18.3,-5.8226 h -5.045 v 44.189603 z"
         style="font-style:normal;font-variant:normal;font-weight:bold;font-stretch:normal;font-size:medium;line-height:125%;font-family:Montserrat;-inkscape-font-specification:'Montserrat Bold';text-align:end;letter-spacing:-10.00000095px;word-spacing:0px;text-anchor:end;fill:#ffffff;fill-opacity:1;stroke:none;stroke-width:1px;stroke-linecap:butt;stroke-linejoin:miter;stroke-opacity:1"
         id="path8251-8-5-8-1-8-1-2-0-9-9-2"
         inkscape:connector-curvature="0" />
    </g>
    <g
       id="g7632"
       transform="matrix(1.1365313,0,0,1.1365313,-42.57583,-14.638805)">
      <path
         inkscape:connector-curvature="0"
         d="m 129.99818,120.18784 a 13.51325,13.505959 0 0 1 13.51333,13.50619 13.51325,13.505959 0 0 1 -13.51329,13.50618 13.51325,13.505959 0 0 1 -13.51327,-13.50618 13.51325,13.505959 0 0 1 13.51327,-13.50619 z m 0.002,-6.26026 a 19.778658,19.767985 0 0 0 -19.77829,19.76841 19.778658,19.767985 0 0 0 19.77829,19.76744 19.778658,19.767985 0 0 0 19.77829,-19.76744 19.778658,19.767985 0 0 0 -19.77829,-19.76841 z"
         style="color:#000000;clip-rule:nonzero;display:inline;overflow:visible;visibility:visible;opacity:1;isolation:auto;mix-blend-mode:normal;color-interpolation:sRGB;color-interpolation-filters:linearRGB;solid-color:#000000;solid-opacity:1;fill:#ffffff;fill-opacity:1;fill-rule:nonzero;stroke:none;stroke-width:20.20548058;stroke-linecap:butt;stroke-linejoin:miter;stroke-miterlimit:4;stroke-dasharray:none;stroke-dashoffset:0;stroke-opacity:1;marker:none;marker-start:none;marker-mid:none;marker-end:none;paint-order:normal;color-rendering:auto;image-rendering:auto;shape-rendering:auto;text-rendering:auto;enable-background:accumulate"
         id="path7824-4-3-6-6-7-2-1-6-3-31-4-4-6-4-0-6-6-2-6-7-9-7" />
      <path
         inkscape:export-ydpi="360"
         inkscape:export-xdpi="360"
         inkscape:export-filename="./devconf-crystal-us-color.png"
         style="font-style:normal;font-variant:normal;font-weight:normal;font-stretch:normal;font-size:medium;line-height:125%;font-family:Montserrat;-inkscape-font-specification:Montserrat;text-align:center;letter-spacing:0px;word-spacing:0px;text-anchor:middle;fill:#ffffff;fill-opacity:1;stroke:none;stroke-width:0.50513703px;stroke-linecap:butt;stroke-linejoin:miter;stroke-opacity:1"
         id="path7649-0-2-3-5-3-2-6-20-2-4-1-4-2-9-0-9-7-1-6-9"
         d="m 179.79165,115.44249 h 6.19753 v 36.71275 h -6.72236 l -20.79902,-26.7861 v 26.7861 h -6.19752 v -36.71275 h 6.19752 l 21.32385,27.41641 z"
         inkscape:connector-curvature="0" />
      <path
         inkscape:export-ydpi="360"
         inkscape:export-xdpi="360"
         inkscape:export-filename="./devconf-crystal-us-color.png"
         style="font-style:normal;font-variant:normal;font-weight:normal;font-stretch:normal;font-size:medium;line-height:125%;font-family:Montserrat;-inkscape-font-specification:Montserrat;text-align:center;letter-spacing:0px;word-spacing:0px;text-anchor:middle;fill:#ffffff;fill-opacity:1;stroke:none;stroke-width:0.50513703px;stroke-linecap:butt;stroke-linejoin:miter;stroke-opacity:1"
         d="m 190.41822,115.44295 v 36.71229 h 6.19804 V 137.02877 H 209.128 l 2.30191,-5.72432 h -14.81365 v -10.08496 h 18.86737 l 2.32262,-5.77654 z"
         id="path7646-8-93-0-9-2-70-1-6-0-2-2-33-8-7-6-3-8-7-1-1"
         inkscape:connector-curvature="0" />
      <path
         id="path9486-7"
         d="m 99.018129,114.54913 c -10.467382,-7.9e-4 -19.01465,8.54629 -19.01465,19.01367 0,10.46739 8.547268,19.02372 19.01465,19.01466 0.173866,-1.4e-4 0.344157,-4e-5 0.505139,0 4.636042,7.9e-4 8.893292,-1.67889 12.200242,-4.45645 -1.27356,-1.60722 -2.3432,-3.38188 -3.16203,-5.28914 -2.35622,2.42422 -5.63599,3.94613 -9.290781,4.01347 -7.255049,-0.13386 -13.036871,-5.99378 -13.036871,-13.28254 0,-7.28876 5.781822,-13.14968 13.036871,-13.28352 3.697731,0.0681 7.010821,1.62592 9.372651,4.10029 0.8352,-1.90055 1.91648,-3.66902 3.20447,-5.26645 -3.32436,-2.84085 -7.62962,-4.57273 -12.324552,-4.56399 -0.173913,3.3e-4 -0.344038,2e-5 -0.505139,0 z"
         style="color:#000000;font-style:normal;font-variant:normal;font-weight:normal;font-stretch:normal;font-size:medium;line-height:normal;font-family:sans-serif;text-indent:0;text-align:start;text-decoration:none;text-decoration-line:none;text-decoration-style:solid;text-decoration-color:#000000;letter-spacing:normal;word-spacing:normal;text-transform:none;writing-mode:lr-tb;direction:ltr;baseline-shift:baseline;text-anchor:start;white-space:normal;clip-rule:nonzero;display:inline;overflow:visible;visibility:visible;opacity:1;isolation:auto;mix-blend-mode:normal;color-interpolation:sRGB;color-interpolation-filters:linearRGB;solid-color:#000000;solid-opacity:1;fill:#ffffff;fill-opacity:1;fill-rule:nonzero;stroke:none;stroke-width:5.72471857;stroke-linecap:butt;stroke-linejoin:miter;stroke-miterlimit:4;stroke-dasharray:none;stroke-dashoffset:0;stroke-opacity:1;marker:none;paint-order:normal;color-rendering:auto;image-rendering:auto;shape-rendering:auto;text-rendering:auto;enable-background:accumulate"
         inkscape:connector-curvature="0" />
    </g>
  </g>
</svg>
