<?xml version="1.0" encoding="UTF-8" standalone="no"?>
<!-- Created with Inkscape (http://www.inkscape.org/) -->

<svg
   xmlns:dc="http://purl.org/dc/elements/1.1/"
   xmlns:cc="http://creativecommons.org/ns#"
   xmlns:rdf="http://www.w3.org/1999/02/22-rdf-syntax-ns#"
   xmlns:svg="http://www.w3.org/2000/svg"
   xmlns="http://www.w3.org/2000/svg"
   xmlns:sodipodi="http://sodipodi.sourceforge.net/DTD/sodipodi-0.dtd"
   xmlns:inkscape="http://www.inkscape.org/namespaces/inkscape"
   width="560"
   height="102"
   viewBox="0 0 560.00002 102"
   id="svg8829"
   version="1.1"
   inkscape:version="0.92.4 (unknown)"
   sodipodi:docname="devconf-logo-us-reverse.svg">
  <defs
     id="defs8831" />
  <sodipodi:namedview
     id="base"
     pagecolor="#333333"
     bordercolor="#666666"
     borderopacity="1.0"
     inkscape:pageopacity="0"
     inkscape:pageshadow="2"
     inkscape:zoom="1"
     inkscape:cx="108.5"
     inkscape:cy="81"
     inkscape:document-units="px"
     inkscape:current-layer="layer1"
     showgrid="false"
     fit-margin-top="0"
     fit-margin-left="0"
     fit-margin-right="0"
     fit-margin-bottom="0"
     units="px"
     inkscape:showpageshadow="false"
     inkscape:window-width="1920"
     inkscape:window-height="1010"
     inkscape:window-x="3840"
     inkscape:window-y="0"
     inkscape:window-maximized="1" />
  <metadata
     id="metadata8834">
    <rdf:RDF>
      <cc:Work
         rdf:about="">
        <dc:format>image/svg+xml</dc:format>
        <dc:type
           rdf:resource="http://purl.org/dc/dcmitype/StillImage" />
        <dc:title></dc:title>
      </cc:Work>
    </rdf:RDF>
  </metadata>
  <g
     inkscape:label="Layer 1"
     inkscape:groupmode="layer"
     id="layer1"
     transform="translate(374.78601,-20.576558)">
    <g
       id="g31"
       transform="translate(-42.11083,30.836094)">
      <path
         transform="translate(-374.78601,-47.423442)"
         inkscape:connector-curvature="0"
         id="path7824-4-3-6-6-7-2-1-6-3-31-4-4-6-4-0-6-6-2-6-7-9"
         d="m 314.47461,47.34375 a 39.155037,39.133911 0 0 0 -39.1543,39.134766 39.155037,39.133911 0 0 0 39.1543,39.132814 39.155037,39.133911 0 0 0 39.1543,-39.132814 39.155037,39.133911 0 0 0 -39.1543,-39.134766 z m -0.004,9.394531 A 29.751881,29.73583 0 0 1 344.22266,86.474609 29.751881,29.73583 0 0 1 314.4707,116.21094 29.751881,29.73583 0 0 1 284.71875,86.474609 29.751881,29.73583 0 0 1 314.4707,56.738281 Z"
         style="color:#000000;clip-rule:nonzero;display:inline;overflow:visible;visibility:visible;opacity:1;isolation:auto;mix-blend-mode:normal;color-interpolation:sRGB;color-interpolation-filters:linearRGB;solid-color:#000000;solid-opacity:1;fill:#ffffff;fill-opacity:1;fill-rule:nonzero;stroke:none;stroke-width:40;stroke-linecap:butt;stroke-linejoin:miter;stroke-miterlimit:4;stroke-dasharray:none;stroke-dashoffset:0;stroke-opacity:1;marker:none;marker-start:none;marker-mid:none;marker-end:none;paint-order:normal;color-rendering:auto;image-rendering:auto;shape-rendering:auto;text-rendering:auto;enable-background:accumulate" />
      <path
         inkscape:connector-curvature="0"
         id="path8253-6-1-9-2-0-5-7-6-7"
         d="m -266.66296,2.918441 v 72.679683 h 54.18945 l -5.76758,-14.34765 h -32.20117 V 46.172347 h 26.14063 l -5.5586,-13.828125 h -20.58203 V 17.371566 h 40.18359 V 2.918441 Z"
         style="font-style:normal;font-variant:normal;font-weight:bold;font-stretch:normal;font-size:medium;line-height:125%;font-family:Montserrat;-inkscape-font-specification:'Montserrat Bold';text-align:end;letter-spacing:-10.00000095px;word-spacing:0px;text-anchor:end;fill:#ffffff;fill-opacity:1;stroke:none;stroke-width:1px;stroke-linecap:butt;stroke-linejoin:miter;stroke-opacity:1" />
      <path
         inkscape:export-ydpi="360"
         inkscape:export-xdpi="360"
         inkscape:export-filename="./devconf-crystal-us-color.png"
         d="m -188.80518,49.188321 18.507,-46.2691999 h 17.572 l -29.217,72.6790029 h -13.725 l -29.217,-72.6790029 h 17.572 z"
         style="font-style:normal;font-variant:normal;font-weight:bold;font-stretch:normal;font-size:medium;line-height:125%;font-family:Montserrat;-inkscape-font-specification:'Montserrat Bold';text-align:end;letter-spacing:-10.00000095px;word-spacing:0px;text-anchor:end;fill:#ffffff;fill-opacity:1;stroke:none;stroke-width:1px;stroke-linecap:butt;stroke-linejoin:miter;stroke-opacity:1"
         id="path8255-06-5-2-2-8-2-5-0-8"
         inkscape:connector-curvature="0" />
      <ellipse
         inkscape:export-ydpi="360"
         inkscape:export-xdpi="360"
         inkscape:export-filename="./devconf-crystal-us-color.png"
         ry="22.60779"
         rx="22.619995"
         cy="39.052002"
         cx="-60.314339"
         id="path7824-2-4-1-1-2-3-56-3-1-4-6-5-4-2-8-6-4-7-3-4-2-2-6-4-9-4"
         style="color:#000000;clip-rule:nonzero;display:inline;overflow:visible;visibility:visible;opacity:1;isolation:auto;mix-blend-mode:normal;color-interpolation:sRGB;color-interpolation-filters:linearRGB;solid-color:#000000;solid-opacity:1;fill:#8e83e4;fill-opacity:1;fill-rule:nonzero;stroke:#8e83e4;stroke-width:6.00000095;stroke-linecap:butt;stroke-linejoin:miter;stroke-miterlimit:4;stroke-dasharray:none;stroke-dashoffset:0;stroke-opacity:1;marker:none;marker-start:none;marker-mid:none;marker-end:none;paint-order:normal;color-rendering:auto;image-rendering:auto;shape-rendering:auto;text-rendering:auto;enable-background:accumulate" />
      <path
         transform="translate(-374.78601,-47.423442)"
         inkscape:connector-curvature="0"
         id="path9442"
         d="M 314.4707,63.867188 A 22.61999,22.607786 0 0 0 292.625,80.71875 l 7.0293,1.882812 a 21.568194,21.556558 0 0 1 19.69531,-12.80664 21.568194,21.556558 0 0 1 15.18945,6.269531 22.61999,22.607786 0 0 0 -20.06836,-12.197265 z m -22.48828,20.232421 a 22.61999,22.607786 0 0 0 -0.13281,2.375 22.61999,22.607786 0 0 0 0.81055,5.984375 l 5.29492,1.417969 a 21.568194,21.556558 0 0 1 -0.17578,-2.525391 21.568194,21.556558 0 0 1 0.74414,-5.5 z"
         style="color:#000000;clip-rule:nonzero;display:inline;overflow:visible;visibility:visible;opacity:1;isolation:auto;mix-blend-mode:normal;color-interpolation:sRGB;color-interpolation-filters:linearRGB;solid-color:#000000;solid-opacity:1;fill:#ffffff;fill-opacity:1;fill-rule:nonzero;stroke:#8e83e4;stroke-width:0.5;stroke-linecap:butt;stroke-linejoin:miter;stroke-miterlimit:4;stroke-dasharray:none;stroke-dashoffset:0;stroke-opacity:1;marker:none;marker-start:none;marker-mid:none;marker-end:none;paint-order:normal;color-rendering:auto;image-rendering:auto;shape-rendering:auto;text-rendering:auto;enable-background:accumulate" />
      <path
         inkscape:export-ydpi="360"
         inkscape:export-xdpi="360"
         inkscape:export-filename="./devconf-crystal-us-color.png"
         sodipodi:nodetypes="scscsccsscscsccs"
         d="m -310.99318,2.9191211 c 12.962,0 22.91,3.1886 29.841,9.5656999 6.932,6.3079 10.398,15.1112 10.398,26.4099 0,11.2987 -3.397,20.240603 -10.19,26.825703 -6.724,6.5851 -17.017,9.8777 -30.881,9.8777 h -20.85 V 2.9191211 Z m 0.832,58.3303029 c 7.417,0 13.101,-1.8716 17.052,-5.6147 4.02,-3.743103 6.031,-9.184403 6.031,-16.324103 0,-7.1397 -2.011,-12.6157 -6.031,-16.4282 -3.951,-3.8817 -10.051,-5.8226 -18.3,-5.8226 h -5.045 v 44.189603 z"
         style="font-style:normal;font-variant:normal;font-weight:bold;font-stretch:normal;font-size:medium;line-height:125%;font-family:Montserrat;-inkscape-font-specification:'Montserrat Bold';text-align:end;letter-spacing:-10.00000095px;word-spacing:0px;text-anchor:end;fill:#ffffff;fill-opacity:1;stroke:none;stroke-width:1px;stroke-linecap:butt;stroke-linejoin:miter;stroke-opacity:1"
         id="path8251-8-5-8-1-8-1-2-0-9-9"
         inkscape:connector-curvature="0" />
      <path
         inkscape:export-ydpi="360"
         inkscape:export-xdpi="360"
         inkscape:export-filename="./devconf-crystal-us-color.png"
         style="font-style:normal;font-variant:normal;font-weight:normal;font-stretch:normal;font-size:medium;line-height:125%;font-family:Montserrat;-inkscape-font-specification:Montserrat;text-align:center;letter-spacing:0px;word-spacing:0px;text-anchor:middle;fill:#ffffff;fill-opacity:1;stroke:none;stroke-width:1px;stroke-linecap:butt;stroke-linejoin:miter;stroke-opacity:1"
         id="path7649-0-2-3-5-3-2-6-20-2-4-1-4-2-9-0-9-7-1-6"
         d="m 38.258821,2.9193211 h 12.269 V 75.598124 h -13.308 L -3.9551795,22.570721 V 75.598124 H -16.224179 V 2.9193211 H -3.9551795 L 38.258821,57.194524 Z"
         inkscape:connector-curvature="0" />
      <path
         inkscape:export-ydpi="360"
         inkscape:export-xdpi="360"
         inkscape:export-filename="./devconf-crystal-us-color.png"
         style="font-style:normal;font-variant:normal;font-weight:normal;font-stretch:normal;font-size:medium;line-height:125%;font-family:Montserrat;-inkscape-font-specification:Montserrat;text-align:center;letter-spacing:0px;word-spacing:0px;text-anchor:middle;fill:#ffffff;fill-opacity:1;stroke:none;stroke-width:1px;stroke-linecap:butt;stroke-linejoin:miter;stroke-opacity:1"
         d="M 59.295821,2.9202211 V 75.598124 h 12.27 V 45.652821 h 24.769 l 4.556999,-11.3322 H 71.565821 v -19.9648 h 37.350999 l 4.598,-11.4355999 z"
         id="path7646-8-93-0-9-2-70-1-6-0-2-2-33-8-7-6-3-8-7-1"
         inkscape:connector-curvature="0" />
      <path
         transform="translate(-374.78601,-47.423442)"
         inkscape:connector-curvature="0"
         id="path7182"
         d="m 548.26758,81.388672 c -8.97583,0 -15.0586,4.429444 -15.0586,11.515625 0,14.703823 22.32227,9.565303 22.32227,18.777343 0,3.18878 -2.89411,5.01953 -7.73633,5.01953 -4.42886,0 -9.74438,-2.12604 -13.99609,-6.02344 l -3.00977,6.02344 c 4.2517,3.8974 10.393,6.55469 16.88867,6.55469 9.09393,0 15.58789,-4.5463 15.58789,-11.92774 0.059,-14.880976 -22.26171,-10.03933 -22.26171,-19.074214 0,-2.775421 2.65786,-4.310547 6.73242,-4.310547 3.12973,0 7.61755,1.121522 12.10547,3.837891 l 2.89258,-6.140625 c -3.83835,-2.539215 -9.09311,-4.251953 -14.4668,-4.251953 z m -59.50391,0.294922 v 24.210936 c 0,10.80643 6.84903,17.42188 18.00977,17.42188 11.16073,0 17.95117,-6.61545 17.95117,-17.42188 V 81.683594 h -6.9668 v 24.210936 c 0,7.02713 -4.19391,11.16211 -10.92578,11.16211 -6.79093,0 -11.10156,-4.19403 -11.10156,-11.16211 V 81.683594 Z m -11.08789,34.074216 c -2.12585,0 -3.7207,1.59394 -3.7207,3.83789 0,2.30301 1.59485,3.95703 3.7207,3.95703 2.12586,0 3.7207,-1.65402 3.7207,-3.95703 0,-2.24395 -1.59484,-3.83789 -3.7207,-3.83789 z"
         style="color:#000000;font-style:normal;font-variant:normal;font-weight:normal;font-stretch:normal;font-size:medium;line-height:125%;font-family:Montserrat;-inkscape-font-specification:Montserrat;text-align:start;letter-spacing:0px;word-spacing:0px;text-anchor:start;clip-rule:nonzero;display:inline;overflow:visible;visibility:visible;opacity:1;isolation:auto;mix-blend-mode:normal;color-interpolation:sRGB;color-interpolation-filters:linearRGB;solid-color:#000000;solid-opacity:1;fill:#ffffff;fill-opacity:1;fill-rule:nonzero;stroke:none;stroke-width:1px;stroke-linecap:butt;stroke-linejoin:miter;stroke-miterlimit:4;stroke-dasharray:none;stroke-dashoffset:0;stroke-opacity:1;color-rendering:auto;image-rendering:auto;shape-rendering:auto;text-rendering:auto;enable-background:accumulate" />
      <path
         inkscape:connector-curvature="0"
         id="path9486"
         d="m -121.64539,1.150777 c -20.72186,-0.0025 -37.64257,16.91876 -37.64257,37.640625 0,20.721866 16.92072,37.660496 37.64257,37.642576 0.34421,-3e-4 0.68131,-9e-5 1,0 9.17779,0.002 17.6057,-3.32366 24.15235,-8.82226 -2.52122,-3.18176 -4.63874,-6.69498 -6.25977,-10.47071 -4.66451,4.79913 -11.15733,7.81201 -18.39258,7.94532 -14.36254,-0.265 -25.80859,-11.86566 -25.80859,-26.294926 0,-14.429279 11.44605,-26.031898 25.80859,-26.296875 7.32028,0.134859 13.87904,3.218777 18.55469,8.117187 1.6534,-3.762447 3.79397,-7.263423 6.34375,-10.425781 -6.58111,-5.623926 -15.10406,-9.052475 -24.39844,-9.035156 -0.34427,6.42e-4 -0.68107,3.8e-5 -1,0 z"
         style="color:#000000;font-style:normal;font-variant:normal;font-weight:normal;font-stretch:normal;font-size:medium;line-height:normal;font-family:sans-serif;text-indent:0;text-align:start;text-decoration:none;text-decoration-line:none;text-decoration-style:solid;text-decoration-color:#000000;letter-spacing:normal;word-spacing:normal;text-transform:none;writing-mode:lr-tb;direction:ltr;baseline-shift:baseline;text-anchor:start;white-space:normal;clip-rule:nonzero;display:inline;overflow:visible;visibility:visible;opacity:1;isolation:auto;mix-blend-mode:normal;color-interpolation:sRGB;color-interpolation-filters:linearRGB;solid-color:#000000;solid-opacity:1;fill:#ffffff;fill-opacity:1;fill-rule:nonzero;stroke:none;stroke-width:11.33300209;stroke-linecap:butt;stroke-linejoin:miter;stroke-miterlimit:4;stroke-dasharray:none;stroke-dashoffset:0;stroke-opacity:1;marker:none;paint-order:normal;color-rendering:auto;image-rendering:auto;shape-rendering:auto;text-rendering:auto;enable-background:accumulate" />
      <g
         style="fill:#ffffff;fill-opacity:1"
         transform="translate(0.474605,-97.02246)"
         id="g3666">
        <path
           style="color:#000000;clip-rule:nonzero;display:inline;overflow:visible;visibility:visible;opacity:1;isolation:auto;mix-blend-mode:normal;color-interpolation:sRGB;color-interpolation-filters:linearRGB;solid-color:#000000;solid-opacity:1;fill:#ffffff;fill-opacity:1;fill-rule:nonzero;stroke:none;stroke-width:41.64807892;stroke-linecap:butt;stroke-linejoin:miter;stroke-miterlimit:4;stroke-dasharray:none;stroke-dashoffset:0;stroke-opacity:1;marker:none;marker-start:none;marker-mid:none;marker-end:none;paint-order:normal;color-rendering:auto;image-rendering:auto;shape-rendering:auto;text-rendering:auto;enable-background:accumulate"
           d="m -82.13738,163.19192 c -2.09309,0.12315 -3.7191,4.11474 -3.71837,6.19138 7.4e-4,2.54062 11.05719,9.19978 25.06974,9.19978 14.01256,0 25.06886,-6.65916 25.06975,-9.19978 7.4e-4,-2.14364 -1.73181,-6.32746 -3.92228,-6.19077 -0.40564,0.0253 -0.82751,0.19908 -1.25645,0.56113 -2.7452,2.3171 -12.39239,7.17348 -19.89102,7.17349 -7.49862,10e-6 -17.14581,-4.85639 -19.89101,-7.17349 -0.42894,-0.36205 -0.85081,-0.5358 -1.25645,-0.56113 -0.0684,-0.005 -0.13639,-0.005 -0.20391,-7.4e-4 z"
           id="path7824-4-3-6-6-7-2-1-6-3-31-4-4-6-2-6-53-7-7-3-72-9-4-5-4-6-3-2"
           inkscape:connector-curvature="0"
           sodipodi:nodetypes="cszsscccccc" />
      </g>
    </g>
  </g>
</svg>
