<?xml version="1.0" encoding="UTF-8" standalone="no"?>
<svg
   width="44"
   height="44"
   viewBox="0 0 44 44"
   version="1.1"
   id="svg13"
   sodipodi:docname="fosstodon.svg"
   inkscape:version="1.2.2 (b0a8486541, 2022-12-01)"
   xml:space="preserve"
   xmlns:inkscape="http://www.inkscape.org/namespaces/inkscape"
   xmlns:sodipodi="http://sodipodi.sourceforge.net/DTD/sodipodi-0.dtd"
   xmlns="http://www.w3.org/2000/svg"
   xmlns:svg="http://www.w3.org/2000/svg"
   xmlns:rdf="http://www.w3.org/1999/02/22-rdf-syntax-ns#"
   xmlns:cc="http://creativecommons.org/ns#"
   xmlns:dc="http://purl.org/dc/elements/1.1/"><metadata
     id="metadata19"><rdf:RDF><cc:Work
         rdf:about=""><dc:format>image/svg+xml</dc:format><dc:type
           rdf:resource="http://purl.org/dc/dcmitype/StillImage" /><dc:title>telegram</dc:title></cc:Work></rdf:RDF></metadata><defs
     id="defs17" /><sodipodi:namedview
     pagecolor="#ffffff"
     bordercolor="#666666"
     borderopacity="1"
     objecttolerance="10"
     gridtolerance="10"
     guidetolerance="10"
     inkscape:pageopacity="0"
     inkscape:pageshadow="2"
     inkscape:window-width="1920"
     inkscape:window-height="1011"
     id="namedview15"
     showgrid="false"
     inkscape:zoom="8.6089723"
     inkscape:cx="17.01713"
     inkscape:cy="20.443787"
     inkscape:window-x="0"
     inkscape:window-y="0"
     inkscape:window-maximized="1"
     inkscape:current-layer="svg13"
     inkscape:showpageshadow="2"
     inkscape:pagecheckerboard="true"
     inkscape:deskcolor="#d1d1d1" /><!-- Generator: Sketch 57.1 (83088) - https://sketch.com --><title
     id="title2">telegram</title><desc
     id="desc4">Created with Sketch.</desc><g
     id="Page-1"
     stroke="none"
     stroke-width="1"
     fill="none"
     fill-rule="evenodd"
     style="fill:none"><g
       id="social-copy-3"
       transform="translate(0,-201)"
       style="fill:none"><g
         id="Group-4"
         style="fill:none"><g
           id="telegram"
           transform="translate(0,201)"
           style="fill:none"><rect
             id="Rectangle-Copy-22"
             x="0"
             y="0"
             width="44"
             height="44"
             style="fill:none" /><path
             d="m 10.870936,21.625111 4.83882,1.806 1.87292,6.02329 c 0.11984,0.38577 0.59157,0.52836 0.90468,0.272371 l 2.69724,-2.198841 c 0.28273,-0.23037 0.68544,-0.241849 0.98091,-0.02737 l 4.86486,3.53199 c 0.33495,0.24346 0.80948,0.05992 0.89348,-0.344819 l 3.56377,-17.14237 c 0.0917,-0.442121 -0.34272,-0.81095 -0.7637,-0.64813 l -19.85865,7.660869 c -0.49007,0.189 -0.4858,0.88284 0.0057,1.06701 z m 6.4099,0.844621 9.45686,-5.824491 c 0.16996,-0.104369 0.34482,0.12544 0.19887,0.26082 l -7.80465,7.2548 c -0.27433,0.25536 -0.45129,0.5971 -0.50141,0.968031 l -0.26586,1.970219 c -0.03521,0.26306 -0.40474,0.289171 -0.47733,0.03458 l -1.02249,-3.59275 c -0.11711,-0.40978 0.05355,-0.84749 0.41601,-1.071209 z"
             id="XMLID_497_"
             fill="#ffffff"
             fill-rule="nonzero"
             style="fill:none" /><circle
             id="Oval"
             stroke="#ffffff"
             stroke-width="2"
             cx="22"
             cy="22"
             r="21"
             style="fill:none" /></g></g></g></g><style
     id="style844">.st0{fill:#FFFFFF;}</style><g
     style="fill:#ffffff"
     id="g242"
     transform="matrix(0.3110939,0,0,0.27348337,10.489524,11.174988)"><path
       d="M 73.7014,17.9592 C 72.5616,9.62034 65.1774,3.04876 56.424,1.77536 54.9472,1.56019 49.3517,0.7771 36.3901,0.7771 H 36.2933 C 23.3281,0.7771 20.5465,1.56019 19.0697,1.77536 10.56,3.01348 2.78877,8.91838 0.903306,17.356 -0.00357857,21.5113 -0.100361,26.1181 0.068112,30.3439 0.308275,36.404 0.354874,42.4535 0.91406,48.489 c 0.38658,4.009 1.06096,7.9861 2.01809,11.9015 1.79226,7.2312 9.04735,13.249 16.15545,15.704 7.6103,2.5603 15.7945,2.9854 23.6364,1.2276 0.8626,-0.1976 1.7158,-0.4268 2.5593,-0.6879 1.9034,-0.5961 4.1366,-1.2628 5.7783,-2.4339 0.0225,-0.0164 0.041,-0.0376 0.054,-0.0621 0.013,-0.0244 0.0203,-0.0514 0.0212,-0.079 v -5.8484 c -4e-4,-0.0258 -0.0066,-0.0512 -0.0183,-0.0743 -0.0116,-0.0231 -0.0283,-0.0433 -0.049,-0.0592 -0.0206,-0.0159 -0.0446,-0.027 -0.0701,-0.0326 -0.0256,-0.0056 -0.0521,-0.0055 -0.0776,3e-4 -5.0242,1.181 -10.1727,1.773 -15.3382,1.7637 -8.8896,0 -11.2805,-4.1518 -11.9652,-5.8802 -0.5503,-1.4938 -0.8998,-3.0521 -1.0395,-4.6351 -0.0014,-0.0265 0.0036,-0.0531 0.0145,-0.0774 0.0109,-0.0244 0.0276,-0.0458 0.0485,-0.0627 0.021,-0.0168 0.0457,-0.0285 0.0721,-0.0342 0.0264,-0.0057 0.0538,-0.0052 0.08,0.0015 4.9405,1.173 10.005,1.765 15.0873,1.7637 1.2223,0 2.441,0 3.6634,-0.0317 5.1115,-0.1411 10.499,-0.3986 15.5281,-1.3652 0.1255,-0.0246 0.2509,-0.0458 0.3585,-0.0776 7.9325,-1.4991 15.4815,-6.2047 16.2486,-18.1203 0.0287,-0.4691 0.1004,-4.9137 0.1004,-5.4005 0.0036,-1.6543 0.5413,-11.7357 -0.0789,-17.9298 z M 61.4925,47.6918 H 53.1514 V 27.5855 c 0,-4.2329 -1.7923,-6.3917 -5.4378,-6.3917 -4.0075,0 -6.0148,2.5538 -6.0148,7.5981 v 11.0055 h -8.291 V 28.7919 c 0,-5.0443 -2.0109,-7.5981 -6.0184,-7.5981 -3.624,0 -5.4342,2.1588 -5.4378,6.3917 v 20.1063 h -8.334 V 26.9752 c 0,-4.2329 1.0981,-7.5957 3.2942,-10.0884 2.2654,-2.4868 5.237,-3.7637 8.9255,-3.7637 4.2691,0 7.4952,1.6155 9.6459,4.8431 l 2.0755,3.4287 2.079,-3.4287 c 2.1507,-3.2276 5.3768,-4.8431 9.6388,-4.8431 3.6849,0 6.6564,1.2769 8.929,3.7637 2.1962,2.4904 3.2942,5.8532 3.2942,10.0884 z"
       fill="inherit"
       id="path233" /></g></svg>
