<?xml version="1.0" encoding="UTF-8"?>
<svg width="44px" height="44px" viewBox="0 0 44 44" version="1.1" xmlns="http://www.w3.org/2000/svg" xmlns:xlink="http://www.w3.org/1999/xlink">
    <!-- Generator: Sketch 57.1 (83088) - https://sketch.com -->
    <title>telegram</title>
    <desc>Created with Sketch.</desc>
    <g id="Page-1" stroke="none" stroke-width="1" fill="none" fill-rule="evenodd">
        <g id="social-copy-3" transform="translate(0.000000, -201.000000)">
            <g id="Group-4">
                <g id="telegram" transform="translate(0.000000, 201.000000)">
                    <rect id="Rectangle-Copy-22" x="0" y="0" width="44" height="44"></rect>
                    <path d="M10.8709357,21.6251115 L15.7097557,23.4311115 L17.5826757,29.4544015 C17.7025157,29.8401715 18.1742457,29.9827615 18.4873557,29.7267715 L21.1845957,27.5279315 C21.4673257,27.2975615 21.8700357,27.2860815 22.1655057,27.5005615 L27.0303657,31.0325515 C27.3653157,31.2760115 27.8398457,31.0924715 27.9238457,30.6877315 L31.4876157,13.5453615 C31.5793157,13.1032415 31.1448957,12.7344115 30.7239157,12.8972315 L10.8652657,20.5581015 C10.3751957,20.7471015 10.3794657,21.4409415 10.8709357,21.6251115 Z M17.2808357,22.4697315 L26.7376957,16.6452415 C26.9076557,16.5408715 27.0825157,16.7706815 26.9365657,16.9060615 L19.1319157,24.1608615 C18.8575857,24.4162215 18.6806257,24.7579615 18.6305057,25.1288915 L18.3646457,27.0991115 C18.3294357,27.3621715 17.9599057,27.3882815 17.8873157,27.1336915 L16.8648257,23.5409415 C16.7477157,23.1311615 16.9183757,22.6934515 17.2808357,22.4697315 Z" id="XMLID_497_" fill="#FFFFFF" fill-rule="nonzero"></path>
                    <circle id="Oval" stroke="#FFFFFF" stroke-width="2" cx="22" cy="22" r="21"></circle>
                </g>
            </g>
        </g>
    </g>
</svg>