<?xml version="1.0" encoding="UTF-8"?>
<svg width="49px" height="67px" viewBox="0 0 49 67" version="1.1" xmlns="http://www.w3.org/2000/svg" xmlns:xlink="http://www.w3.org/1999/xlink">
    <!-- Generator: Sketch 57.1 (83088) - https://sketch.com -->
    <title>tram</title>
    <desc>Created with Sketch.</desc>
    <g id="Page-1" stroke="none" stroke-width="1" fill="none" fill-rule="evenodd">
        <g id="landing-page-cz" transform="translate(-307.000000, -3290.000000)" fill="#FFFFFF" fill-rule="nonzero">
            <g id="how-to-get-here" transform="translate(135.000000, 3135.000000)">
                <g id="around-brno" transform="translate(16.000000, 110.000000)">
                    <g id="tram" transform="translate(156.000000, 45.000000)">
                        <path d="M42.875,0 L6.125,0 C2.75625,0 0,2.77113971 0,6.15808824 L0,50.4963235 C0,54.0064338 3.5525,56.6544118 6.7375,56.6544118 L12.31125,56.6544118 L11.08625,59.1176471 L5.5125,59.1176471 C4.83875,59.1176471 4.2875,59.671875 4.2875,60.3492647 C4.2875,61.0266544 4.83875,61.5808824 5.5125,61.5808824 L9.86125,61.5808824 L8.02375,65.2141544 C7.7175,65.8299632 7.9625,66.5689338 8.575,66.8768382 C8.75875,66.9384191 8.9425,67 9.12625,67 C9.555,67 9.98375,66.7536765 10.22875,66.3226103 L12.6175,61.5808824 L36.6275,61.5808824 L39.01625,66.3226103 C39.26125,66.7536765 39.69,67 40.11875,67 C40.3025,67 40.48625,66.9384191 40.67,66.8768382 C41.2825,66.5689338 41.5275,65.8299632 41.22125,65.2141544 L39.38375,61.5808824 L43.4875,61.5808824 C44.16125,61.5808824 44.7125,61.0266544 44.7125,60.3492647 C44.7125,59.671875 44.16125,59.1176471 43.4875,59.1176471 L38.15875,59.1176471 L36.93375,56.6544118 L42.875,56.6544118 C46.24375,56.6544118 49,53.8832721 49,50.4963235 L49,6.15808824 C49,2.77113971 46.24375,0 42.875,0 Z M13.8425,59.1176471 L15.0675,56.6544118 L34.11625,56.6544118 L35.4025,59.1176471 L13.8425,59.1176471 Z M46.55,50.4963235 C46.55,52.5284926 44.89625,54.1911765 42.875,54.1911765 L6.7375,54.1911765 C4.7775,54.1911765 2.45,52.5284926 2.45,50.4963235 L2.45,39.4117647 L46.55,39.4117647 L46.55,50.4963235 Z M46.55,36.9485294 L2.45,36.9485294 L2.45,12.3161765 L34.9125,12.3161765 C35.58625,12.3161765 36.1375,11.7619485 36.1375,11.0845588 C36.1375,10.4071691 35.58625,9.85294118 34.9125,9.85294118 L2.45,9.85294118 L2.45,6.15808824 C2.45,4.12591912 4.10375,2.46323529 6.125,2.46323529 L42.875,2.46323529 C44.89625,2.46323529 46.55,4.12591912 46.55,6.15808824 L46.55,36.9485294 Z" id="Shape"></path>
                        <path d="M42.5714286,10 L40.4285714,10 C39.6428571,10 39,10.45 39,11 C39,11.55 39.6428571,12 40.4285714,12 L42.5714286,12 C43.3571429,12 44,11.55 44,11 C44,10.45 43.3571429,10 42.5714286,10 Z" id="Path"></path>
                        <path d="M12,49 C14.2,49 16,47.2 16,45 C16,42.8 14.2,41 12,41 C9.8,41 8,42.8 8,45 C8,47.2 9.8,49 12,49 Z M12,43.6666667 C12.7333333,43.6666667 13.3333333,44.2666667 13.3333333,45 C13.3333333,45.7333333 12.7333333,46.3333333 12,46.3333333 C11.2666667,46.3333333 10.6666667,45.7333333 10.6666667,45 C10.6666667,44.2666667 11.2666667,43.6666667 12,43.6666667 Z" id="Shape"></path>
                        <path d="M37,49 C39.2,49 41,47.2 41,45 C41,42.8 39.2,41 37,41 C34.8,41 33,42.8 33,45 C33,47.2 34.8,49 37,49 Z M37,43.6666667 C37.7333333,43.6666667 38.3333333,44.2666667 38.3333333,45 C38.3333333,45.7333333 37.7333333,46.3333333 37,46.3333333 C36.2666667,46.3333333 35.6666667,45.7333333 35.6666667,45 C35.6666667,44.2666667 36.2666667,43.6666667 37,43.6666667 Z" id="Shape"></path>
                    </g>
                </g>
            </g>
        </g>
    </g>
</svg>