<?xml version="1.0" encoding="UTF-8"?>
<svg width="105px" height="61px" viewBox="0 0 105 61" version="1.1" xmlns="http://www.w3.org/2000/svg" xmlns:xlink="http://www.w3.org/1999/xlink">
    <!-- Generator: Sketch 57.1 (83088) - https://sketch.com -->
    <title>united-states copy</title>
    <desc>Created with Sketch.</desc>
    <g id="Page-2" stroke="none" stroke-width="1" fill="none" fill-rule="evenodd">
        <g id="united-states-copy" transform="translate(0.500000, 0.000000)" fill-rule="nonzero">
            <path d="M101.798676,60.797277 L1.78602688,60.797277 C0.799746743,60.797277 0,60.0814184 0,59.1985925 L0,1.64866605 C0,0.76584015 0.799746743,0.0499815279 1.78602688,0.0499815279 L101.798879,0.0499815279 C102.785159,0.0499815279 103.584906,0.76584015 103.584906,1.64866605 L103.584906,59.1985925 C103.584906,60.0815995 102.784957,60.797277 101.798676,60.797277 Z" id="Path" fill="#F5F5F5"></path>
            <g id="Group" fill="#B31C30">
                <polygon id="Path" points="0 4.72307329 0 0.0499815279 103.565521 0.0499815279 103.565319 4.72307329"></polygon>
                <rect id="Rectangle" x="0" y="18.7414431" width="103.565319" height="4.67291067"></rect>
                <rect id="Rectangle" x="0" y="9.3952596" width="103.565319" height="4.67291067"></rect>
                <path d="M103.565319,32.7601752 L1.78569265,32.7601752 C0.799597083,32.7601752 0,32.0443165 0,31.1614906 L0,28.0870834 L103.565319,28.0870834 L103.565319,32.7601752 Z" id="Path"></path>
                <rect id="Rectangle" x="0" y="46.7799937" width="103.565319" height="4.67291067"></rect>
                <rect id="Rectangle-Copy-3" x="0" y="56.1265395" width="103.565319" height="4.67291067"></rect>
                <rect id="Rectangle" x="0" y="37.4338102" width="103.565319" height="4.67291067"></rect>
            </g>
            <path d="M0,0.0501626204 L0,32.7600846 C1.27887965,32.7600846 18.5430306,32.7600846 51.7924528,32.7600846 L51.7924528,0.0501626204 L0,0.0501626204 Z" id="Path" fill="#39396F"></path>
            <g id="Group" transform="translate(2.535295, 1.992017)" fill="#F5F5F5">
                <path d="M1.9538069,0.278520253 L2.30766163,1.33972226 L3.42626996,1.34823361 C3.57114395,1.34950125 3.63108557,1.5342156 3.51464309,1.62023453 L2.6147945,2.28484398 L2.9523509,3.35129766 C2.99617529,3.48929014 2.83880591,3.6037406 2.7209147,3.5193515 L1.81092492,2.86904836 L0.90093515,3.51953259 C0.783043937,3.6037406 0.626036746,3.48947124 0.669498944,3.35147876 L1.00705535,2.28502507 L0.107206756,1.62041562 C-0.00923571711,1.5342156 0.0507058979,1.34968235 0.195579892,1.3484147 L1.31418822,1.33990335 L1.66804295,0.278701346 C1.71367826,0.141071052 1.90780941,0.141071052 1.9538069,0.278520253 Z" id="Path"></path>
                <path d="M1.9538069,6.55412712 L2.30766163,7.61532913 L3.42626996,7.62384047 C3.57114395,7.62510812 3.63108557,7.80982246 3.51464309,7.8958414 L2.6147945,8.56045084 L2.9523509,9.62690453 C2.99617529,9.76489701 2.83880591,9.87934747 2.7209147,9.79495836 L1.81092492,9.14465522 L0.90093515,9.79513946 C0.783043937,9.87934747 0.626036746,9.7650781 0.669498944,9.62708562 L1.00705535,8.56063194 L0.107206756,7.89602249 C-0.00923571711,7.80982246 0.0507058979,7.62528921 0.195579892,7.62402157 L1.31418822,7.61551022 L1.66804295,6.55430821 C1.71367826,6.41685901 1.90780941,6.41685901 1.9538069,6.55412712 Z" id="Path"></path>
                <path d="M1.9538069,12.829734 L2.30766163,13.890936 L3.42626996,13.8994473 C3.57114395,13.900715 3.63108557,14.0854293 3.51464309,14.1714483 L2.6147945,14.8360577 L2.9523509,15.9025114 C2.99617529,16.0405039 2.83880591,16.1549543 2.7209147,16.0705652 L1.81092492,15.4202621 L0.90093515,16.0707463 C0.783043937,16.1549543 0.626036746,16.040685 0.669498944,15.9026925 L1.00705535,14.8362388 L0.107206756,14.1716294 C-0.00923571711,14.0854293 0.0507058979,13.9008961 0.195579892,13.8996284 L1.31418822,13.8911171 L1.66804295,12.8299151 C1.71367826,12.6924659 1.90780941,12.6924659 1.9538069,12.829734 Z" id="Path"></path>
                <path d="M1.9538069,19.1054767 L2.30766163,20.1666787 L3.42626996,20.17519 C3.57114395,20.1764577 3.63108557,20.361172 3.51464309,20.4471909 L2.6147945,21.1118004 L2.9523509,22.1782541 C2.99617529,22.3162466 2.83880591,22.430697 2.7209147,22.3463079 L1.81092492,21.6960048 L0.90093515,22.346489 C0.783043937,22.430697 0.626036746,22.3164277 0.669498944,22.1784352 L1.00705535,21.1119815 L0.107206756,20.447372 C-0.00923571711,20.361172 0.0507058979,20.1766388 0.195579892,20.1753711 L1.31418822,20.1668598 L1.66804295,19.1056578 C1.71367826,18.9680275 1.90780941,18.9680275 1.9538069,19.1054767 Z" id="Path"></path>
                <path d="M1.9538069,25.3813552 L2.30766163,26.4425572 L3.42626996,26.4510685 C3.57114395,26.4523362 3.63108557,26.6370505 3.51464309,26.7230695 L2.6147945,27.3876789 L2.9523509,28.4541326 C2.99617529,28.5921251 2.83880591,28.7065755 2.7209147,28.6221864 L1.81092492,27.9718833 L0.90093515,28.6223675 C0.783043937,28.7065755 0.626036746,28.5923062 0.669498944,28.4543137 L1.00705535,27.38786 L0.107206756,26.7232505 C-0.00923571711,26.6370505 0.0507058979,26.4525173 0.195579892,26.4512496 L1.31418822,26.4427383 L1.66804295,25.3815363 C1.71367826,25.2437249 1.90780941,25.2437249 1.9538069,25.3813552 Z" id="Path"></path>
                <path d="M6.26285161,3.36234431 L6.61670634,4.42354631 L7.73531466,4.43205766 C7.88018866,4.43332531 7.94013027,4.61803965 7.8236878,4.70405858 L6.9238392,5.36866803 L7.26139561,6.43512172 C7.30521999,6.5731142 7.14785062,6.68756465 7.0299594,6.60317555 L6.11996963,5.95269132 L5.20997986,6.60317555 C5.09208864,6.68738356 4.93508145,6.5731142 4.97854365,6.43512172 L5.31610006,5.36866803 L4.41625146,4.70405858 C4.29980899,4.61785856 4.3597506,4.43332531 4.5046246,4.43205766 L5.62323292,4.42354631 L5.97708765,3.36234431 C6.02254187,3.2250762 6.21703521,3.2250762 6.26285161,3.36234431 Z" id="Path"></path>
                <path d="M6.26285161,9.63800347 L6.61670634,10.6992055 L7.73531466,10.7077168 C7.88018866,10.7089845 7.94013027,10.8936988 7.8236878,10.9797177 L6.9238392,11.6443272 L7.26139561,12.7107809 C7.30521999,12.8487734 7.14785062,12.9632238 7.0299594,12.8788347 L6.11996963,12.2283505 L5.20997986,12.8788347 C5.09208864,12.9630427 4.93508145,12.8489545 4.97854365,12.7107809 L5.31610006,11.6443272 L4.41625146,10.9797177 C4.29980899,10.8935177 4.3597506,10.7089845 4.5046246,10.7077168 L5.62323292,10.6992055 L5.97708765,9.63800347 C6.02254187,9.50055427 6.21703521,9.50055427 6.26285161,9.63800347 Z" id="Path"></path>
                <path d="M6.26285161,15.9136626 L6.61670634,16.9748646 L7.73531466,16.983376 C7.88018866,16.9846436 7.94013027,17.169358 7.8236878,17.2553769 L6.9238392,17.9199864 L7.26139561,18.98644 C7.30521999,19.1244325 7.14785062,19.238883 7.0299594,19.1544939 L6.11996963,18.5040096 L5.20997986,19.1544939 C5.09208864,19.2387019 4.93508145,19.1244325 4.97854365,18.98644 L5.31610006,17.9199864 L4.41625146,17.2553769 C4.29980899,17.1691769 4.3597506,16.9846436 4.5046246,16.983376 L5.62323292,16.9748646 L5.97708765,15.9136626 C6.02254187,15.7762134 6.21703521,15.7762134 6.26285161,15.9136626 Z" id="Path"></path>
                <path d="M6.26285161,22.189186 L6.61670634,23.250388 L7.73531466,23.2588993 C7.88018866,23.260167 7.94013027,23.4448813 7.8236878,23.5309003 L6.9238392,24.1955097 L7.26139561,25.2619634 C7.30521999,25.3999559 7.14785062,25.5144063 7.0299594,25.4300172 L6.11996963,24.779533 L5.20997986,25.4300172 C5.09208864,25.5142252 4.93508145,25.3999559 4.97854365,25.2619634 L5.31610006,24.1955097 L4.41625146,23.5309003 C4.29980899,23.4447002 4.3597506,23.260167 4.5046246,23.2588993 L5.62323292,23.250388 L5.97708765,22.189186 C6.02254187,22.0519179 6.21703521,22.0519179 6.26285161,22.189186 Z" id="Path"></path>
                <path d="M10.5718963,0.278520253 L10.925751,1.33972226 L12.0443594,1.34823361 C12.1892334,1.34950125 12.249175,1.5342156 12.1327325,1.62023453 L11.2328839,2.28484398 L11.5704403,3.35129766 C11.6142647,3.48929014 11.4568953,3.6037406 11.3390041,3.5193515 L10.4290143,2.86886726 L9.51902456,3.5193515 C9.40113335,3.60355951 9.24412616,3.48929014 9.28758836,3.35129766 L9.62514476,2.28484398 L8.72529617,1.62023453 C8.60885369,1.5340345 8.66879531,1.34950125 8.8136693,1.34823361 L9.93227763,1.33972226 L10.2861324,0.278520253 C10.3317677,0.141071052 10.5260799,0.141071052 10.5718963,0.278520253 Z" id="Path"></path>
                <path d="M10.5718963,6.5540436 L10.925751,7.6152456 L12.0443594,7.62375695 C12.1892334,7.6250246 12.249175,7.80973894 12.1327325,7.89575787 L11.2328839,8.56036732 L11.5704403,9.62682101 C11.6142647,9.76481349 11.4568953,9.87926394 11.3390041,9.79487484 L10.4290143,9.14439061 L9.51902456,9.79487484 C9.40113335,9.87908285 9.24412616,9.76481349 9.28758836,9.62682101 L9.62514476,8.56036732 L8.72529617,7.89575787 C8.60885369,7.80955785 8.66879531,7.6250246 8.8136693,7.62375695 L9.93227763,7.6152456 L10.2861324,6.5540436 C10.3317677,6.41677549 10.5260799,6.41677549 10.5718963,6.5540436 Z" id="Path"></path>
                <path d="M10.5718963,12.8295669 L10.925751,13.8907689 L12.0443594,13.8992803 C12.1892334,13.9005479 12.249175,14.0852623 12.1327325,14.1712812 L11.2328839,14.8358907 L11.5704403,15.9023444 C11.6142647,16.0403368 11.4568953,16.1547873 11.3390041,16.0703982 L10.4290143,15.419914 L9.51902456,16.0703982 C9.40113335,16.1546062 9.24412616,16.0403368 9.28758836,15.9023444 L9.62514476,14.8358907 L8.72529617,14.1712812 C8.60885369,14.0850812 8.66879531,13.9005479 8.8136693,13.8992803 L9.93227763,13.8907689 L10.2861324,12.8295669 C10.3317677,12.6922988 10.5260799,12.6922988 10.5718963,12.8295669 Z" id="Path"></path>
                <path d="M10.5718963,19.1052261 L10.925751,20.1664281 L12.0443594,20.1749395 C12.1892334,20.1762071 12.249175,20.3609214 12.1327325,20.4469404 L11.2328839,21.1115498 L11.5704403,22.1780035 C11.6142647,22.315996 11.4568953,22.4304465 11.3390041,22.3460574 L10.4290143,21.6955731 L9.51902456,22.3460574 C9.40113335,22.4302654 9.24412616,22.315996 9.28758836,22.1780035 L9.62514476,21.1115498 L8.72529617,20.4469404 C8.60885369,20.3607404 8.66879531,20.1762071 8.8136693,20.1749395 L9.93227763,20.1664281 L10.2861324,19.1052261 C10.3317677,18.9677769 10.5260799,18.9677769 10.5718963,19.1052261 Z" id="Path"></path>
                <path d="M10.5718963,25.3810211 L10.925751,26.4422231 L12.0443594,26.4507344 C12.1892334,26.4520021 12.249175,26.6367164 12.1327325,26.7227354 L11.2328839,27.3873448 L11.5704403,28.4537985 C11.6142647,28.591791 11.4568953,28.7062414 11.3390041,28.6218523 L10.4290143,27.9713681 L9.51902456,28.6218523 C9.40113335,28.7060603 9.24412616,28.591791 9.28758836,28.4537985 L9.62514476,27.3873448 L8.72529617,26.7227354 C8.60885369,26.6365353 8.66879531,26.4520021 8.8136693,26.4507344 L9.93227763,26.4422231 L10.2861324,25.3810211 C10.3317677,25.2433908 10.5260799,25.2433908 10.5718963,25.3810211 Z" id="Path"></path>
                <path d="M14.880941,3.36234431 L15.2347957,4.42354631 L16.3534041,4.43205766 C16.4982781,4.43332531 16.5582197,4.61803965 16.4417772,4.70405858 L15.5419286,5.36866803 L15.879485,6.43512172 C15.9233094,6.5731142 15.76594,6.68756465 15.6480488,6.60317555 L14.738059,5.95269132 L13.8280693,6.60317555 C13.7101781,6.68738356 13.5531709,6.5731142 13.5966331,6.43512172 L13.9341895,5.36866803 L13.0343409,4.70405858 C12.9178984,4.61785856 12.97784,4.43332531 13.122714,4.43205766 L14.2413223,4.42354631 L14.5951771,3.36234431 C14.6406313,3.2250762 14.8351246,3.2250762 14.880941,3.36234431 Z" id="Path"></path>
                <path d="M14.880941,9.63800347 L15.2347957,10.6992055 L16.3534041,10.7077168 C16.4982781,10.7089845 16.5582197,10.8936988 16.4417772,10.9797177 L15.5419286,11.6443272 L15.879485,12.7107809 C15.9233094,12.8487734 15.76594,12.9632238 15.6480488,12.8788347 L14.738059,12.2283505 L13.8280693,12.8788347 C13.7101781,12.9630427 13.5531709,12.8489545 13.5966331,12.7107809 L13.9341895,11.6443272 L13.0343409,10.9797177 C12.9178984,10.8935177 12.97784,10.7089845 13.122714,10.7077168 L14.2413223,10.6992055 L14.5951771,9.63800347 C14.6406313,9.50055427 14.8351246,9.50055427 14.880941,9.63800347 Z" id="Path"></path>
                <path d="M14.880941,15.9136626 L15.2347957,16.9748646 L16.3534041,16.983376 C16.4982781,16.9846436 16.5582197,17.169358 16.4417772,17.2553769 L15.5419286,17.9199864 L15.879485,18.98644 C15.9233094,19.1244325 15.76594,19.238883 15.6480488,19.1544939 L14.738059,18.5040096 L13.8280693,19.1544939 C13.7101781,19.2387019 13.5531709,19.1244325 13.5966331,18.98644 L13.9341895,17.9199864 L13.0343409,17.2553769 C12.9178984,17.1691769 12.97784,16.9846436 13.122714,16.983376 L14.2413223,16.9748646 L14.5951771,15.9136626 C14.6406313,15.7762134 14.8351246,15.7762134 14.880941,15.9136626 Z" id="Path"></path>
                <path d="M14.880941,22.189186 L15.2347957,23.250388 L16.3534041,23.2588993 C16.4982781,23.260167 16.5582197,23.4448813 16.4417772,23.5309003 L15.5419286,24.1955097 L15.879485,25.2619634 C15.9233094,25.3999559 15.76594,25.5144063 15.6480488,25.4300172 L14.738059,24.779533 L13.8280693,25.4300172 C13.7101781,25.5142252 13.5531709,25.3999559 13.5966331,25.2619634 L13.9341895,24.1955097 L13.0343409,23.5309003 C12.9178984,23.4447002 12.97784,23.260167 13.122714,23.2588993 L14.2413223,23.250388 L14.5951771,22.189186 C14.6406313,22.0519179 14.8351246,22.0519179 14.880941,22.189186 Z" id="Path"></path>
                <path d="M19.1901668,0.278520253 L19.5440215,1.33972226 L20.6626299,1.34823361 C20.8075039,1.34950125 20.8674455,1.5342156 20.751003,1.62023453 L19.8511544,2.28484398 L20.1887108,3.35129766 C20.2325352,3.48929014 20.0751658,3.6037406 19.9572746,3.5193515 L19.0471037,2.86886726 L18.137114,3.5193515 C18.0192228,3.60355951 17.8622156,3.48929014 17.9056778,3.35129766 L18.2432342,2.28484398 L17.3433856,1.62023453 C17.2269431,1.5340345 17.2868847,1.34950125 17.4317587,1.34823361 L18.550367,1.33972226 L18.9042218,0.278520253 C18.9500382,0.141071052 19.1443504,0.141071052 19.1901668,0.278520253 Z" id="Path"></path>
                <path d="M19.1901668,6.5540436 L19.5440215,7.6152456 L20.6626299,7.62375695 C20.8075039,7.6250246 20.8674455,7.80973894 20.751003,7.89575787 L19.8511544,8.56036732 L20.1887108,9.62682101 C20.2325352,9.76481349 20.0751658,9.87926394 19.9572746,9.79487484 L19.0471037,9.14439061 L18.137114,9.79487484 C18.0192228,9.87908285 17.8622156,9.76481349 17.9056778,9.62682101 L18.2432342,8.56036732 L17.3433856,7.89575787 C17.2269431,7.80955785 17.2868847,7.6250246 17.4317587,7.62375695 L18.550367,7.6152456 L18.9042218,6.5540436 C18.9500382,6.41677549 19.1443504,6.41677549 19.1901668,6.5540436 Z" id="Path"></path>
                <path d="M19.1901668,12.8295669 L19.5440215,13.8907689 L20.6626299,13.8992803 C20.8075039,13.9005479 20.8674455,14.0852623 20.751003,14.1712812 L19.8511544,14.8358907 L20.1887108,15.9023444 C20.2325352,16.0403368 20.0751658,16.1547873 19.9572746,16.0703982 L19.0471037,15.419914 L18.137114,16.0703982 C18.0192228,16.1546062 17.8622156,16.0403368 17.9056778,15.9023444 L18.2432342,14.8358907 L17.3433856,14.1712812 C17.2269431,14.0850812 17.2868847,13.9005479 17.4317587,13.8992803 L18.550367,13.8907689 L18.9042218,12.8295669 C18.9500382,12.6922988 19.1443504,12.6922988 19.1901668,12.8295669 Z" id="Path"></path>
                <path d="M19.1901668,19.1052261 L19.5440215,20.1664281 L20.6626299,20.1749395 C20.8075039,20.1762071 20.8674455,20.3609214 20.751003,20.4469404 L19.8511544,21.1115498 L20.1887108,22.1780035 C20.2325352,22.315996 20.0751658,22.4304465 19.9572746,22.3460574 L19.0471037,21.6955731 L18.137114,22.3460574 C18.0192228,22.4302654 17.8622156,22.315996 17.9056778,22.1780035 L18.2432342,21.1115498 L17.3433856,20.4469404 C17.2269431,20.3607404 17.2868847,20.1762071 17.4317587,20.1749395 L18.550367,20.1664281 L18.9042218,19.1052261 C18.9500382,18.9677769 19.1443504,18.9677769 19.1901668,19.1052261 Z" id="Path"></path>
                <path d="M19.1901668,25.3810211 L19.5440215,26.4422231 L20.6626299,26.4507344 C20.8075039,26.4520021 20.8674455,26.6367164 20.751003,26.7227354 L19.8511544,27.3873448 L20.1887108,28.4537985 C20.2325352,28.591791 20.0751658,28.7062414 19.9572746,28.6218523 L19.0471037,27.9713681 L18.137114,28.6218523 C18.0192228,28.7060603 17.8622156,28.591791 17.9056778,28.4537985 L18.2432342,27.3873448 L17.3433856,26.7227354 C17.2269431,26.6365353 17.2868847,26.4520021 17.4317587,26.4507344 L18.550367,26.4422231 L18.9042218,25.3810211 C18.9500382,25.2433908 19.1443504,25.2433908 19.1901668,25.3810211 Z" id="Path"></path>
                <path d="M23.4992115,3.36234431 L23.8530663,4.42354631 L24.9716746,4.43205766 C25.1165486,4.43332531 25.1764902,4.61803965 25.0600477,4.70405858 L24.1601991,5.36866803 L24.4977555,6.43512172 C24.5415799,6.5731142 24.3842105,6.68756465 24.2663193,6.60317555 L23.3563295,5.95269132 L22.4463398,6.60317555 C22.3284486,6.68738356 22.1714414,6.5731142 22.2149036,6.43512172 L22.55246,5.36866803 L21.6526114,4.70405858 C21.5361689,4.61785856 21.5961105,4.43332531 21.7409845,4.43205766 L22.8595928,4.42354631 L23.2134476,3.36234431 C23.259264,3.2250762 23.4533951,3.2250762 23.4992115,3.36234431 Z" id="Path"></path>
                <path d="M23.4992115,9.63800347 L23.8530663,10.6992055 L24.9716746,10.7077168 C25.1165486,10.7089845 25.1764902,10.8936988 25.0600477,10.9797177 L24.1601991,11.6443272 L24.4977555,12.7107809 C24.5415799,12.8487734 24.3842105,12.9632238 24.2663193,12.8788347 L23.3563295,12.2283505 L22.4463398,12.8788347 C22.3284486,12.9630427 22.1714414,12.8489545 22.2149036,12.7107809 L22.55246,11.6443272 L21.6526114,10.9797177 C21.5361689,10.8935177 21.5961105,10.7089845 21.7409845,10.7077168 L22.8595928,10.6992055 L23.2134476,9.63800347 C23.259264,9.50055427 23.4533951,9.50055427 23.4992115,9.63800347 Z" id="Path"></path>
                <path d="M23.4992115,15.9136626 L23.8530663,16.9748646 L24.9716746,16.983376 C25.1165486,16.9846436 25.1764902,17.169358 25.0600477,17.2553769 L24.1601991,17.9199864 L24.4977555,18.98644 C24.5415799,19.1244325 24.3842105,19.238883 24.2663193,19.1544939 L23.3563295,18.5040096 L22.4463398,19.1544939 C22.3284486,19.2387019 22.1714414,19.1244325 22.2149036,18.98644 L22.55246,17.9199864 L21.6526114,17.2553769 C21.5361689,17.1691769 21.5961105,16.9846436 21.7409845,16.983376 L22.8595928,16.9748646 L23.2134476,15.9136626 C23.259264,15.7762134 23.4533951,15.7762134 23.4992115,15.9136626 Z" id="Path"></path>
                <path d="M23.4992115,22.189186 L23.8530663,23.250388 L24.9716746,23.2588993 C25.1165486,23.260167 25.1764902,23.4448813 25.0600477,23.5309003 L24.1601991,24.1955097 L24.4977555,25.2619634 C24.5415799,25.3999559 24.3842105,25.5144063 24.2663193,25.4300172 L23.3563295,24.779533 L22.4463398,25.4300172 C22.3284486,25.5142252 22.1714414,25.3999559 22.2149036,25.2619634 L22.55246,24.1955097 L21.6526114,23.5309003 C21.5361689,23.4447002 21.5961105,23.260167 21.7409845,23.2588993 L22.8595928,23.250388 L23.2134476,22.189186 C23.259264,22.0519179 23.4533951,22.0519179 23.4992115,22.189186 Z" id="Path"></path>
                <path d="M27.8082562,0.278520253 L28.162111,1.33972226 L29.2807193,1.34823361 C29.4255933,1.34950125 29.4855349,1.5342156 29.3690924,1.62023453 L28.4692438,2.28484398 L28.8068002,3.35129766 C28.8506246,3.48929014 28.6932552,3.6037406 28.575364,3.5193515 L27.6653743,2.86886726 L26.7553845,3.5193515 C26.6374933,3.60355951 26.4804861,3.48929014 26.5239483,3.35129766 L26.8615047,2.28484398 L25.9616561,1.62023453 C25.8452136,1.5340345 25.9051552,1.34950125 26.0500292,1.34823361 L27.1686375,1.33972226 L27.5224923,0.278520253 C27.5679465,0.141071052 27.7624398,0.141071052 27.8082562,0.278520253 Z" id="Path"></path>
                <path d="M27.8082562,6.5540436 L28.162111,7.6152456 L29.2807193,7.62375695 C29.4255933,7.6250246 29.4855349,7.80973894 29.3690924,7.89575787 L28.4692438,8.56036732 L28.8068002,9.62682101 C28.8506246,9.76481349 28.6932552,9.87926394 28.575364,9.79487484 L27.6653743,9.14439061 L26.7553845,9.79487484 C26.6374933,9.87908285 26.4804861,9.76481349 26.5239483,9.62682101 L26.8615047,8.56036732 L25.9616561,7.89575787 C25.8452136,7.80955785 25.9051552,7.6250246 26.0500292,7.62375695 L27.1686375,7.6152456 L27.5224923,6.5540436 C27.5679465,6.41677549 27.7624398,6.41677549 27.8082562,6.5540436 Z" id="Path"></path>
                <path d="M27.8082562,12.8295669 L28.162111,13.8907689 L29.2807193,13.8992803 C29.4255933,13.9005479 29.4855349,14.0852623 29.3690924,14.1712812 L28.4692438,14.8358907 L28.8068002,15.9023444 C28.8506246,16.0403368 28.6932552,16.1547873 28.575364,16.0703982 L27.6653743,15.419914 L26.7553845,16.0703982 C26.6374933,16.1546062 26.4804861,16.0403368 26.5239483,15.9023444 L26.8615047,14.8358907 L25.9616561,14.1712812 C25.8452136,14.0850812 25.9051552,13.9005479 26.0500292,13.8992803 L27.1686375,13.8907689 L27.5224923,12.8295669 C27.5679465,12.6922988 27.7624398,12.6922988 27.8082562,12.8295669 Z" id="Path"></path>
                <path d="M27.8082562,19.1052261 L28.162111,20.1664281 L29.2807193,20.1749395 C29.4255933,20.1762071 29.4855349,20.3609214 29.3690924,20.4469404 L28.4692438,21.1115498 L28.8068002,22.1780035 C28.8506246,22.315996 28.6932552,22.4304465 28.575364,22.3460574 L27.6653743,21.6955731 L26.7553845,22.3460574 C26.6374933,22.4302654 26.4804861,22.315996 26.5239483,22.1780035 L26.8615047,21.1115498 L25.9616561,20.4469404 C25.8452136,20.3607404 25.9051552,20.1762071 26.0500292,20.1749395 L27.1686375,20.1664281 L27.5224923,19.1052261 C27.5679465,18.9677769 27.7624398,18.9677769 27.8082562,19.1052261 Z" id="Path"></path>
                <path d="M27.8082562,25.3810211 L28.162111,26.4422231 L29.2807193,26.4507344 C29.4255933,26.4520021 29.4855349,26.6367164 29.3690924,26.7227354 L28.4692438,27.3873448 L28.8068002,28.4537985 C28.8506246,28.591791 28.6932552,28.7062414 28.575364,28.6218523 L27.6653743,27.9713681 L26.7553845,28.6218523 C26.6374933,28.7060603 26.4804861,28.591791 26.5239483,28.4537985 L26.8615047,27.3873448 L25.9616561,26.7227354 C25.8452136,26.6365353 25.9051552,26.4520021 26.0500292,26.4507344 L27.1686375,26.4422231 L27.5224923,25.3810211 C27.5679465,25.2433908 27.7624398,25.2433908 27.8082562,25.3810211 Z" id="Path"></path>
                <path d="M32.1173009,3.36234431 L32.4711557,4.42354631 L33.589764,4.43205766 C33.734638,4.43332531 33.7945796,4.61803965 33.6781371,4.70405858 L32.7782885,5.36866803 L33.1158449,6.43512172 C33.1596693,6.5731142 33.0022999,6.68756465 32.8844087,6.60317555 L31.974419,5.95269132 L31.0644292,6.60317555 C30.946538,6.68738356 30.7895308,6.5731142 30.832993,6.43512172 L31.1705494,5.36866803 L30.2707008,4.70405858 C30.1542583,4.61785856 30.2141999,4.43332531 30.3590739,4.43205766 L31.4776822,4.42354631 L31.831537,3.36234431 C31.8771723,3.2250762 32.0716656,3.2250762 32.1173009,3.36234431 Z" id="Path"></path>
                <path d="M32.1173009,9.63800347 L32.4711557,10.6992055 L33.589764,10.7077168 C33.734638,10.7089845 33.7945796,10.8936988 33.6781371,10.9797177 L32.7782885,11.6443272 L33.1158449,12.7107809 C33.1596693,12.8487734 33.0022999,12.9632238 32.8844087,12.8788347 L31.974419,12.2283505 L31.0644292,12.8788347 C30.946538,12.9630427 30.7895308,12.8489545 30.832993,12.7107809 L31.1705494,11.6443272 L30.2707008,10.9797177 C30.1542583,10.8935177 30.2141999,10.7089845 30.3590739,10.7077168 L31.4776822,10.6992055 L31.831537,9.63800347 C31.8771723,9.50055427 32.0716656,9.50055427 32.1173009,9.63800347 Z" id="Path"></path>
                <path d="M32.1173009,15.9136626 L32.4711557,16.9748646 L33.589764,16.983376 C33.734638,16.9846436 33.7945796,17.169358 33.6781371,17.2553769 L32.7782885,17.9199864 L33.1158449,18.98644 C33.1596693,19.1244325 33.0022999,19.238883 32.8844087,19.1544939 L31.974419,18.5040096 L31.0644292,19.1544939 C30.946538,19.2387019 30.7895308,19.1244325 30.832993,18.98644 L31.1705494,17.9199864 L30.2707008,17.2553769 C30.1542583,17.1691769 30.2141999,16.9846436 30.3590739,16.983376 L31.4776822,16.9748646 L31.831537,15.9136626 C31.8771723,15.7762134 32.0716656,15.7762134 32.1173009,15.9136626 Z" id="Path"></path>
                <path d="M32.1173009,22.189186 L32.4711557,23.250388 L33.589764,23.2588993 C33.734638,23.260167 33.7945796,23.4448813 33.6781371,23.5309003 L32.7782885,24.1955097 L33.1158449,25.2619634 C33.1596693,25.3999559 33.0022999,25.5144063 32.8844087,25.4300172 L31.974419,24.779533 L31.0644292,25.4300172 C30.946538,25.5142252 30.7895308,25.3999559 30.832993,25.2619634 L31.1705494,24.1955097 L30.2707008,23.5309003 C30.1542583,23.4447002 30.2141999,23.260167 30.3590739,23.2588993 L31.4776822,23.250388 L31.831537,22.189186 C31.8771723,22.0519179 32.0716656,22.0519179 32.1173009,22.189186 Z" id="Path"></path>
                <path d="M36.4263456,0.278520253 L36.7802004,1.33972226 L37.8988087,1.34823361 C38.0436827,1.34950125 38.1036243,1.5342156 37.9871818,1.62023453 L37.0873332,2.28484398 L37.4248896,3.35129766 C37.468714,3.48929014 37.3113446,3.6037406 37.1934534,3.5193515 L36.2834637,2.86886726 L35.3734739,3.5193515 C35.2555827,3.60355951 35.0985755,3.48929014 35.1420377,3.35129766 L35.4795941,2.28484398 L34.5797455,1.62023453 C34.463303,1.5340345 34.5232446,1.34950125 34.6681186,1.34823361 L35.786727,1.33972226 L36.1405817,0.278520253 C36.186217,0.141071052 36.3803481,0.141071052 36.4263456,0.278520253 Z" id="Path"></path>
                <path d="M36.4263456,6.5540436 L36.7802004,7.6152456 L37.8988087,7.62375695 C38.0436827,7.6250246 38.1036243,7.80973894 37.9871818,7.89575787 L37.0873332,8.56036732 L37.4248896,9.62682101 C37.468714,9.76481349 37.3113446,9.87926394 37.1934534,9.79487484 L36.2834637,9.14439061 L35.3734739,9.79487484 C35.2555827,9.87908285 35.0985755,9.76481349 35.1420377,9.62682101 L35.4795941,8.56036732 L34.5797455,7.89575787 C34.463303,7.80955785 34.5232446,7.6250246 34.6681186,7.62375695 L35.786727,7.6152456 L36.1405817,6.5540436 C36.186217,6.41677549 36.3803481,6.41677549 36.4263456,6.5540436 Z" id="Path"></path>
                <path d="M36.4263456,12.8295669 L36.7802004,13.8907689 L37.8988087,13.8992803 C38.0436827,13.9005479 38.1036243,14.0852623 37.9871818,14.1712812 L37.0873332,14.8358907 L37.4248896,15.9023444 C37.468714,16.0403368 37.3113446,16.1547873 37.1934534,16.0703982 L36.2834637,15.419914 L35.3734739,16.0703982 C35.2555827,16.1546062 35.0985755,16.0403368 35.1420377,15.9023444 L35.4795941,14.8358907 L34.5797455,14.1712812 C34.463303,14.0850812 34.5232446,13.9005479 34.6681186,13.8992803 L35.786727,13.8907689 L36.1405817,12.8295669 C36.186217,12.6922988 36.3803481,12.6922988 36.4263456,12.8295669 Z" id="Path"></path>
                <path d="M36.4263456,19.1052261 L36.7802004,20.1664281 L37.8988087,20.1749395 C38.0436827,20.1762071 38.1036243,20.3609214 37.9871818,20.4469404 L37.0873332,21.1115498 L37.4248896,22.1780035 C37.468714,22.315996 37.3113446,22.4304465 37.1934534,22.3460574 L36.2834637,21.6955731 L35.3734739,22.3460574 C35.2555827,22.4302654 35.0985755,22.315996 35.1420377,22.1780035 L35.4795941,21.1115498 L34.5797455,20.4469404 C34.463303,20.3607404 34.5232446,20.1762071 34.6681186,20.1749395 L35.786727,20.1664281 L36.1405817,19.1052261 C36.186217,18.9677769 36.3803481,18.9677769 36.4263456,19.1052261 Z" id="Path"></path>
                <path d="M36.4263456,25.3810211 L36.7802004,26.4422231 L37.8988087,26.4507344 C38.0436827,26.4520021 38.1036243,26.6367164 37.9871818,26.7227354 L37.0873332,27.3873448 L37.4248896,28.4537985 C37.468714,28.591791 37.3113446,28.7062414 37.1934534,28.6218523 L36.2834637,27.9713681 L35.3734739,28.6218523 C35.2555827,28.7060603 35.0985755,28.591791 35.1420377,28.4537985 L35.4795941,27.3873448 L34.5797455,26.7227354 C34.463303,26.6365353 34.5232446,26.4520021 34.6681186,26.4507344 L35.786727,26.4422231 L36.1405817,25.3810211 C36.186217,25.2433908 36.3803481,25.2433908 36.4263456,25.3810211 Z" id="Path"></path>
                <path d="M40.7353903,3.36234431 L41.0892451,4.42354631 L42.2078534,4.43205766 C42.3527274,4.43332531 42.412669,4.61803965 42.2962265,4.70405858 L41.3963779,5.36866803 L41.7339343,6.43512172 C41.7777587,6.5731142 41.6203894,6.68756465 41.5024981,6.60317555 L40.5925084,5.95269132 L39.6825186,6.60317555 C39.5646274,6.68738356 39.4076202,6.5731142 39.4510824,6.43512172 L39.7886388,5.36866803 L38.8887902,4.70405858 C38.7723477,4.61785856 38.8322893,4.43332531 38.9771633,4.43205766 L40.0957717,4.42354631 L40.4496264,3.36234431 C40.4952617,3.2250762 40.689755,3.2250762 40.7353903,3.36234431 Z" id="Path-Copy-9"></path>
                <path d="M40.7353903,9.63800347 L41.0892451,10.6992055 L42.2078534,10.7077168 C42.3527274,10.7089845 42.412669,10.8936988 42.2962265,10.9797177 L41.3963779,11.6443272 L41.7339343,12.7107809 C41.7777587,12.8487734 41.6203894,12.9632238 41.5024981,12.8788347 L40.5925084,12.2283505 L39.6825186,12.8788347 C39.5646274,12.9630427 39.4076202,12.8489545 39.4510824,12.7107809 L39.7886388,11.6443272 L38.8887902,10.9797177 C38.7723477,10.8935177 38.8322893,10.7089845 38.9771633,10.7077168 L40.0957717,10.6992055 L40.4496264,9.63800347 C40.4952617,9.50055427 40.689755,9.50055427 40.7353903,9.63800347 Z" id="Path-Copy-8"></path>
                <path d="M40.7353903,15.9136626 L41.0892451,16.9748646 L42.2078534,16.983376 C42.3527274,16.9846436 42.412669,17.169358 42.2962265,17.2553769 L41.3963779,17.9199864 L41.7339343,18.98644 C41.7777587,19.1244325 41.6203894,19.238883 41.5024981,19.1544939 L40.5925084,18.5040096 L39.6825186,19.1544939 C39.5646274,19.2387019 39.4076202,19.1244325 39.4510824,18.98644 L39.7886388,17.9199864 L38.8887902,17.2553769 C38.7723477,17.1691769 38.8322893,16.9846436 38.9771633,16.983376 L40.0957717,16.9748646 L40.4496264,15.9136626 C40.4952617,15.7762134 40.689755,15.7762134 40.7353903,15.9136626 Z" id="Path-Copy-7"></path>
                <path d="M40.7353903,22.189186 L41.0892451,23.250388 L42.2078534,23.2588993 C42.3527274,23.260167 42.412669,23.4448813 42.2962265,23.5309003 L41.3963779,24.1955097 L41.7339343,25.2619634 C41.7777587,25.3999559 41.6203894,25.5144063 41.5024981,25.4300172 L40.5925084,24.779533 L39.6825186,25.4300172 C39.5646274,25.5142252 39.4076202,25.3999559 39.4510824,25.2619634 L39.7886388,24.1955097 L38.8887902,23.5309003 C38.7723477,23.4447002 38.8322893,23.260167 38.9771633,23.2588993 L40.0957717,23.250388 L40.4496264,22.189186 C40.4952617,22.0519179 40.689755,22.0519179 40.7353903,22.189186 Z" id="Path-Copy-6"></path>
                <path d="M45.044435,0.278520253 L45.3982898,1.33972226 L46.5168981,1.34823361 C46.6617721,1.34950125 46.7217137,1.5342156 46.6052712,1.62023453 L45.7054226,2.28484398 L46.0429791,3.35129766 C46.0868034,3.48929014 45.9294341,3.6037406 45.8115428,3.5193515 L44.9015531,2.86886726 L43.9915633,3.5193515 C43.8736721,3.60355951 43.7166649,3.48929014 43.7601271,3.35129766 L44.0976835,2.28484398 L43.1978349,1.62023453 C43.0813924,1.5340345 43.141334,1.34950125 43.286208,1.34823361 L44.4048164,1.33972226 L44.7586711,0.278520253 C44.8043064,0.141071052 44.9984376,0.141071052 45.044435,0.278520253 Z" id="Path-Copy-5"></path>
                <path d="M45.044435,6.5540436 L45.3982898,7.6152456 L46.5168981,7.62375695 C46.6617721,7.6250246 46.7217137,7.80973894 46.6052712,7.89575787 L45.7054226,8.56036732 L46.0429791,9.62682101 C46.0868034,9.76481349 45.9294341,9.87926394 45.8115428,9.79487484 L44.9015531,9.14439061 L43.9915633,9.79487484 C43.8736721,9.87908285 43.7166649,9.76481349 43.7601271,9.62682101 L44.0976835,8.56036732 L43.1978349,7.89575787 C43.0813924,7.80955785 43.141334,7.6250246 43.286208,7.62375695 L44.4048164,7.6152456 L44.7586711,6.5540436 C44.8043064,6.41677549 44.9984376,6.41677549 45.044435,6.5540436 Z" id="Path-Copy-4"></path>
                <path d="M45.044435,12.8295669 L45.3982898,13.8907689 L46.5168981,13.8992803 C46.6617721,13.9005479 46.7217137,14.0852623 46.6052712,14.1712812 L45.7054226,14.8358907 L46.0429791,15.9023444 C46.0868034,16.0403368 45.9294341,16.1547873 45.8115428,16.0703982 L44.9015531,15.419914 L43.9915633,16.0703982 C43.8736721,16.1546062 43.7166649,16.0403368 43.7601271,15.9023444 L44.0976835,14.8358907 L43.1978349,14.1712812 C43.0813924,14.0850812 43.141334,13.9005479 43.286208,13.8992803 L44.4048164,13.8907689 L44.7586711,12.8295669 C44.8043064,12.6922988 44.9984376,12.6922988 45.044435,12.8295669 Z" id="Path-Copy-3"></path>
                <path d="M45.044435,19.1052261 L45.3982898,20.1664281 L46.5168981,20.1749395 C46.6617721,20.1762071 46.7217137,20.3609214 46.6052712,20.4469404 L45.7054226,21.1115498 L46.0429791,22.1780035 C46.0868034,22.315996 45.9294341,22.4304465 45.8115428,22.3460574 L44.9015531,21.6955731 L43.9915633,22.3460574 C43.8736721,22.4302654 43.7166649,22.315996 43.7601271,22.1780035 L44.0976835,21.1115498 L43.1978349,20.4469404 C43.0813924,20.3607404 43.141334,20.1762071 43.286208,20.1749395 L44.4048164,20.1664281 L44.7586711,19.1052261 C44.8043064,18.9677769 44.9984376,18.9677769 45.044435,19.1052261 Z" id="Path-Copy-2"></path>
                <path d="M45.044435,25.3810211 L45.3982898,26.4422231 L46.5168981,26.4507344 C46.6617721,26.4520021 46.7217137,26.6367164 46.6052712,26.7227354 L45.7054226,27.3873448 L46.0429791,28.4537985 C46.0868034,28.591791 45.9294341,28.7062414 45.8115428,28.6218523 L44.9015531,27.9713681 L43.9915633,28.6218523 C43.8736721,28.7060603 43.7166649,28.591791 43.7601271,28.4537985 L44.0976835,27.3873448 L43.1978349,26.7227354 C43.0813924,26.6365353 43.141334,26.4520021 43.286208,26.4507344 L44.4048164,26.4422231 L44.7586711,25.3810211 C44.8043064,25.2433908 44.9984376,25.2433908 45.044435,25.3810211 Z" id="Path-Copy"></path>
            </g>
        </g>
    </g>
</svg>