<?xml version="1.0" encoding="UTF-8"?>
<svg width="72px" height="72px" viewBox="0 0 72 72" version="1.1" xmlns="http://www.w3.org/2000/svg" xmlns:xlink="http://www.w3.org/1999/xlink">
    <!-- Generator: Sketch 57.1 (83088) - https://sketch.com -->
    <title>destination</title>
    <desc>Created with Sketch.</desc>
    <g id="Page-1" stroke="none" stroke-width="1" fill="none" fill-rule="evenodd">
        <g id="landing-page-cz" transform="translate(-714.000000, -3295.000000)" fill="#FFFFFF" fill-rule="nonzero">
            <g id="how-to-get-here" transform="translate(-1.000000, 3209.000000)">
                <g id="Group-9" transform="translate(570.000000, 52.000000)">
                    <g id="destination" transform="translate(145.000000, 34.000000)">
                        <path d="M13.5,67 C13.8721369,67 14.2244984,66.8341797 14.457009,66.55 C14.9729669,65.9259766 27,51.1697266 27,44.2 C27,36.9097657 20.9559214,31 13.5,31 C6.04407856,31 0,36.9097657 0,44.2 C0,51.1697266 12.0270331,65.9201172 12.542991,66.55 C12.7755016,66.8341797 13.1278631,67 13.5,67 Z M13.5,33.4 C19.5974121,33.4064453 24.5388627,38.2380859 24.5454545,44.2 C24.5454545,48.8558593 17.2908825,59.0365234 13.5,63.8546875 C9.70911747,59.0382813 2.45454545,48.8582032 2.45454545,44.2 C2.46113729,38.2380859 7.40258785,33.4064453 13.5,33.4 Z" id="Shape"></path>
                        <path d="M18,43.5 C18,41.0148926 15.9851074,39 13.5,39 C11.0148926,39 9,41.0148926 9,43.5 C9,45.9851074 11.0148926,48 13.5,48 C15.9851074,48 18,45.9851074 18,43.5 Z M11.25,43.5 C11.25,42.2574462 12.2574462,41.25 13.5,41.25 C14.7425538,41.25 15.75,42.2574462 15.75,43.5 C15.75,44.7425538 14.7425538,45.75 13.5,45.75 C12.2574462,45.75 11.25,44.7425538 11.25,43.5 Z" id="Shape"></path>
                        <path d="M62.5,26 C62.8461609,26 63.174347,25.8428199 63.3999023,25.568964 C64.28125,24.5031622 72,15.0034411 72,9.9047619 C72,4.43429133 67.7469177,0 62.5,0 C57.2530823,0 53,4.43429133 53,9.9047619 C53,15.0034411 60.71875,24.5031622 61.6000977,25.568964 C61.825653,25.8428199 62.1538391,26 62.5,26 Z M62.5,2.47619048 C66.4335938,2.48042229 69.6209411,5.80357143 69.625,9.9047619 C69.625,13.0423178 65.091278,19.5072545 62.5,22.8291946 C59.9075622,19.5072545 55.375,13.0483631 55.375,9.9047619 C55.3790589,5.80357143 58.5664063,2.48042229 62.5,2.47619048 Z" id="Shape"></path>
                        <path d="M67,9 C67,6.79101567 65.2089843,5 63,5 C60.7910157,5 59,6.79101567 59,9 C59,11.2089843 60.7910157,13 63,13 C65.2089843,13 67,11.2089843 67,9 Z M61.6666667,9 C61.6666667,8.26367183 62.2636718,7.66666667 63,7.66666667 C63.7363282,7.66666667 64.3333333,8.26367183 64.3333333,9 C64.3333333,9.73632817 63.7363282,10.3333333 63,10.3333333 C62.2636718,10.3333333 61.6666667,9.73632817 61.6666667,9 Z" id="Shape"></path>
                        <path d="M61.3333333,30 L62.6666667,30 C63.4029948,30 64,29.3283692 64,28.5 C64,27.6716308 63.4029948,27 62.6666667,27 L61.3333333,27 C60.5970052,27 60,27.6716308 60,28.5 C60,29.3283692 60.5970052,30 61.3333333,30 Z" id="Path"></path>
                        <path d="M45.2504795,38 L47.7592474,38 C48.4444482,38 49,37.3283687 49,36.5 C49,35.6716307 48.4444482,35 47.7592474,35 L45.230487,35 C44.9027295,35.0007324 44.5883006,35.1596678 44.357477,35.4409178 C44.1266533,35.7221677 43.9976102,36.1037596 44,36.5 C44.0042744,37.330566 44.5634612,38.0007318 45.2504795,38 L45.2504795,38 Z" id="Path"></path>
                        <path d="M60,36.5 C60,37.3283692 60.5545476,38 61.2385099,38 L63.7614901,38 C64.4454524,38 65,37.3283692 65,36.5 C65,35.6716308 64.4454524,35 63.7614901,35 L61.2385099,35 C60.5545476,35 60,35.6716308 60,36.5 Z" id="Path"></path>
                        <path d="M54.2383601,30 L56.7616399,30 C57.4455193,30 58,29.3283692 58,28.5 C58,27.6716308 57.4455193,27 56.7616399,27 L54.2383601,27 C53.5538759,27 53,27.6716308 53,28.5 C53,29.3283692 53.5538759,30 54.2383601,30 Z" id="Path"></path>
                        <path d="M21.7617896,69 L19.2382104,69 C18.5544137,69 18,69.6716308 18,70.5 C18,71.3283692 18.5544137,72 19.2382104,72 L21.7617896,72 C22.4455865,72 23,71.3283692 23,70.5 C23,69.6716308 22.4455865,69 21.7617896,69 Z" id="Path"></path>
                        <path d="M42.3706544,34 C42.4606757,34 42.5500675,33.9908079 42.6375705,33.9724238 C43.3338187,33.8296409 43.7795183,33.1653632 43.6340993,32.4876038 C43.5975873,32.3160191 43.5793311,32.1419834 43.5787016,31.9667219 C43.5780721,31.569626 43.6743885,31.1786581 43.8594672,30.8244584 C44.1824105,30.2067537 43.9299734,29.4511685 43.2947885,29.136801 C42.6602332,28.8224333 41.8840361,29.0681672 41.5610929,29.6864846 C41.026631,30.7080259 40.8679924,31.8778656 41.1109867,32.9999067 C41.2350019,33.5808431 41.7606504,33.9987743 42.3706544,34 L42.3706544,34 Z" id="Path"></path>
                        <path d="M53.2382104,38 L55.7617896,38 C56.4455865,38 57,37.3283692 57,36.5 C57,35.6716308 56.4455865,35 55.7617896,35 L53.2382104,35 C52.5544135,35 52,35.6716308 52,36.5 C52,37.3283692 52.5544135,38 53.2382104,38 Z" id="Path"></path>
                        <path d="M46.2382104,30 L48.7617896,30 C49.4455863,30 50,29.3283692 50,28.5 C50,27.6716308 49.4455863,27 48.7617896,27 L46.2382104,27 C45.5544137,27 45,27.6716308 45,28.5 C45,29.3283692 45.5544137,30 46.2382104,30 Z" id="Path"></path>
                        <path d="M34.775635,50.96037 C34.8565455,50.9872163 34.9404526,51 35.0238604,51 C35.4933411,50.9987217 35.901889,50.5896369 36.0152636,50.0073301 C36.1476173,49.3342578 36.3968415,48.7078466 36.744457,48.1747581 C36.9901851,47.8180871 37.0651023,47.319515 36.9412394,46.8720785 C36.8173764,46.4240028 36.5132128,46.0973741 36.1471178,46.0181139 C35.7815222,45.9394929 35.4104327,46.1203851 35.1786891,46.4911182 C34.6307952,47.3278245 34.2382295,48.3121849 34.0309588,49.3713312 C33.9645323,49.7081869 34.0059865,50.0654969 34.1458318,50.3633619 C34.2851775,50.6618659 34.5119268,50.8766354 34.775635,50.96037 L34.775635,50.96037 Z" id="Path"></path>
                        <path d="M58.6052996,69.012232 C58.3388236,69.0536694 58.0705306,69.0743879 57.8016321,69.0736736 L56.2403248,69.0736736 C55.5547545,69.0736736 55,69.7288106 55,70.5368368 C55,71.344863 55.5547545,72 56.2403248,72 L57.8016321,72 C58.1746985,72 58.547765,71.9714226 58.9178033,71.9149822 C59.5973171,71.8113891 60.076974,71.0776642 59.9897636,70.276068 C59.9019477,69.4744716 59.2799684,68.908639 58.6004546,69.012232 L58.6052996,69.012232 Z" id="Path"></path>
                        <path d="M60.1152855,55.3980302 C59.2910117,55.1322584 58.4338887,54.9980761 57.5725074,55 L57.2458396,55 C56.5578295,55 56,55.5944418 56,56.3275826 C56,57.0607235 56.5578295,57.6551444 57.2458396,57.6551444 L57.5725074,57.6551444 C58.1881274,57.6551444 58.8007058,57.7517297 59.3901679,57.9416591 C59.5075736,57.9805527 59.6298461,58 59.7527267,58 C60.3701716,58.0006475 60.8951519,57.5190176 60.9863999,56.868201 C61.0770395,56.2167364 60.7065726,55.5931454 60.1152855,55.4025676 L60.1152855,55.3980302 Z" id="Path"></path>
                        <path d="M57.7614901,47 C58.4454524,47 59,46.3283692 59,45.5 C59,44.6716308 58.4454524,44 57.7614901,44 L55.2385099,44 C54.5545476,44 54,44.6716308 54,45.5 C54,46.3283692 54.5545476,47 55.2385099,47 L57.7614901,47 Z" id="Path"></path>
                        <path d="M64.2506712,64.1196634 C63.6120653,63.8131577 62.8606181,64.1157001 62.5723155,64.7960899 C62.2765725,65.4956365 61.8704688,66.1363919 61.3726041,66.6906125 C61.0464809,67.0374132 60.9224797,67.544733 61.048341,68.016382 C61.1742022,68.4886914 61.5300857,68.851346 61.9777298,68.9636433 C62.4259941,69.0766012 62.8965784,68.9220271 63.2072015,68.5600334 C63.905328,67.784521 64.4744934,66.8868026 64.8886574,65.9071733 C65.1751,65.2261228 64.8898973,64.4261692 64.2506712,64.1196634 L64.2506712,64.1196634 Z" id="Path"></path>
                        <path d="M71.0570303,41.0550806 C70.7224967,40.9541989 70.362279,40.9928483 70.0553555,41.1631682 C69.7490742,41.3334881 69.5211289,41.6210667 69.4222457,41.9623616 C69.2289738,42.6200584 68.8758192,43.2174881 68.395529,43.6983144 C67.8760708,44.217135 67.8670813,45.0667692 68.3756239,45.596726 C68.8841665,46.126683 69.7169692,46.135199 70.2364274,45.6170334 C71.0377673,44.8158748 71.6259304,43.8201585 71.9456957,42.7229053 C72.0452211,42.3816105 72.0066952,42.0141126 71.8403914,41.700986 C71.6734456,41.3885145 71.391564,41.1559623 71.0570303,41.0550806 L71.0570303,41.0550806 Z" id="Path"></path>
                        <path d="M69.6407086,39 C70.177215,39.000626 70.6633202,38.7021392 70.8821672,38.2393591 C71.1003508,37.776579 71.0108225,37.2354148 70.6527094,36.8579166 C69.8774611,36.0427214 68.8959661,35.4275625 67.8004054,35.0701306 C67.090811,34.8393677 66.3182153,35.1967995 66.0741679,35.8677679 C65.8301205,36.5387364 66.2081288,37.2692767 66.917723,37.5000397 C67.57559,37.7138716 68.164487,38.0832179 68.6287076,38.5735892 C68.8866817,38.8451119 69.2547422,39 69.6407086,39 Z" id="Path"></path>
                        <path d="M52.7614901,55 L50.2385099,55 C49.5545478,55 49,55.6716308 49,56.5 C49,57.3283692 49.5545478,58 50.2385099,58 L52.7614901,58 C53.4454522,58 54,57.3283692 54,56.5 C54,55.6716308 53.4454522,55 52.7614901,55 Z" id="Path"></path>
                        <path d="M64.7617896,44 L62.2382104,44 C61.5544135,44 61,44.6716308 61,45.5 C61,46.3283692 61.5544135,47 62.2382104,47 L64.7617896,47 C65.4455865,47 66,46.3283692 66,45.5 C66,44.6716308 65.4455865,44 64.7617896,44 Z" id="Path"></path>
                        <path d="M28.7614901,69 L26.2385099,69 C25.5545478,69 25,69.6716308 25,70.5 C25,71.3283692 25.5545478,72 26.2385099,72 L28.7614901,72 C29.4454522,72 30,71.3283692 30,70.5 C30,69.6716308 29.4454522,69 28.7614901,69 Z" id="Path"></path>
                        <path d="M63.9237608,59.5611638 C63.5954949,58.9741194 62.9399906,58.8234342 62.4591505,59.2246336 C61.9788242,59.6258329 61.8555319,60.4269758 62.1837976,61.0146481 C62.5197693,61.6161333 62.7689225,62.2835432 62.9199557,62.9879964 C63.0021506,63.4482143 63.283668,63.816765 63.6540588,63.9486147 C64.0239358,64.0804641 64.4230947,63.9542653 64.6948516,63.6196186 C64.9660947,63.2855998 65.0662698,62.7965007 64.9558203,62.3450729 C64.745196,61.3518063 64.3963814,60.4100238 63.9237608,59.5611638 L63.9237608,59.5611638 Z" id="Path"></path>
                        <path d="M38.3929912,54.6909317 C37.8569846,54.4011451 37.3881855,53.9852863 37.0196465,53.4732303 C36.6373356,52.9390668 35.9283526,52.8428696 35.4364164,53.2575333 C34.9439294,53.6715997 34.8552377,54.4405801 35.2369977,54.9747435 C35.8148713,55.7789762 36.5519491,56.4320418 37.3942451,56.8849454 C37.9500833,57.1663671 38.6116907,56.9142228 38.8832747,56.3173221 C39.1548586,55.7210188 38.93671,54.9980459 38.3929912,54.6909317 L38.3929912,54.6909317 Z" id="Path"></path>
                        <path d="M36.7623882,69 L34.2376118,69 C33.5541455,69 33,69.6716308 33,70.5 C33,71.3283692 33.5541455,72 34.2376118,72 L36.7623882,72 C37.4458545,72 38,71.3283692 38,70.5 C38,69.6716308 37.4458545,69 36.7623882,69 Z" id="Path"></path>
                        <path d="M50.7614901,69 L48.2385099,69 C47.5545476,69 47,69.6716308 47,70.5 C47,71.3283692 47.5545476,72 48.2385099,72 L50.7614901,72 C51.4454524,72 52,71.3283692 52,70.5 C52,69.6716308 51.4454524,69 50.7614901,69 Z" id="Path"></path>
                        <path d="M42.7614901,47 C43.4454522,47 44,46.3283692 44,45.5 C44,44.6716308 43.4454522,44 42.7614901,44 L40.2385099,44 C39.5545476,44 39,44.6716308 39,45.5 C39,46.3283692 39.5545476,47 40.2385099,47 L42.7614901,47 Z" id="Path"></path>
                        <path d="M49.7629862,47 C50.4461221,47 51,46.3283692 51,45.5 C51,44.6716308 50.4461221,44 49.7629862,44 L47.2370138,44 C46.5538777,44 46,44.6716308 46,45.5 C46,46.3283692 46.5538777,47 47.2370138,47 L49.7629862,47 Z" id="Path"></path>
                        <path d="M45.7616399,55 L43.2383601,55 C42.5544806,55 42,55.6716308 42,56.5 C42,57.3283692 42.5544806,58 43.2383601,58 L45.7616399,58 C46.4461241,58 47,57.3283692 47,56.5 C47,55.6716308 46.4461241,55 45.7616399,55 Z" id="Path"></path>
                        <path d="M43.7617896,69 L41.2382104,69 C40.5544137,69 40,69.6716308 40,70.5 C40,71.3283692 40.5544137,72 41.2382104,72 L43.7617896,72 C44.4455863,72 45,71.3283692 45,70.5 C45,69.6716308 44.4455863,69 43.7617896,69 Z" id="Path"></path>
                        <path d="M14.6666667,69 L13.3333333,69 C12.5970052,69 12,69.6716308 12,70.5 C12,71.3283692 12.5970052,72 13.3333333,72 L14.6666667,72 C15.4029948,72 16,71.3283692 16,70.5 C16,69.6716308 15.4029948,69 14.6666667,69 Z" id="Path"></path>
                    </g>
                </g>
            </g>
        </g>
    </g>
</svg>