<?xml version="1.0" encoding="UTF-8"?>
<svg width="44px" height="44px" viewBox="0 0 44 44" version="1.1" xmlns="http://www.w3.org/2000/svg" xmlns:xlink="http://www.w3.org/1999/xlink">
    <!-- Generator: Sketch 57.1 (83088) - https://sketch.com -->
    <title>youtube</title>
    <desc>Created with Sketch.</desc>
    <g id="Page-1" stroke="none" stroke-width="1" fill="none" fill-rule="evenodd">
        <g id="social-copy-3" transform="translate(0.000000, -134.000000)">
            <g id="Group-4">
                <g id="youtube" transform="translate(0.000000, 134.000000)">
                    <rect id="Rectangle-Copy-21" x="0" y="0" width="44" height="44"></rect>
                    <circle id="Oval" stroke="#FFFFFF" stroke-width="2" cx="22" cy="22" r="21"></circle>
                    <path d="M31.6075,16.1725 C31.037875,15.15925 30.4196875,14.972875 29.161,14.902 C27.903625,14.8166875 24.7418125,14.78125 22.002625,14.78125 C19.2581875,14.78125 16.0950625,14.8166875 14.839,14.9006875 C13.5829375,14.972875 12.9634375,15.1579375 12.3885625,16.1725 C11.801875,17.1844375 11.5,18.9274375 11.5,21.9960625 C11.5,21.9986875 11.5,22 11.5,22 C11.5,22.002625 11.5,22.0039375 11.5,22.0039375 L11.5,22.0065625 C11.5,25.0620625 11.801875,26.8181875 12.3885625,27.819625 C12.9634375,28.832875 13.581625,29.016625 14.8376875,29.1019375 C16.0950625,29.1754375 19.2581875,29.21875 22.002625,29.21875 C24.7418125,29.21875 27.903625,29.1754375 29.1623125,29.10325 C30.421,29.0179375 31.0391875,28.8341875 31.6088125,27.8209375 C32.20075,26.8195 32.5,25.063375 32.5,22.007875 C32.5,22.007875 32.5,22.0039375 32.5,22.0013125 C32.5,22.0013125 32.5,21.9986875 32.5,21.997375 C32.5,18.9274375 32.20075,17.1844375 31.6075,16.1725 Z M19.375,25.9375 L19.375,18.0625 L25.9375,22 L19.375,25.9375 Z" id="Shape" fill="#FFFFFF" fill-rule="nonzero"></path>
                </g>
            </g>
        </g>
    </g>
</svg>