<svg xmlns:rdf="http://www.w3.org/1999/02/22-rdf-syntax-ns#" xmlns="http://www.w3.org/2000/svg" height="80.139" width="520.31" version="1.1" xmlns:cc="http://creativecommons.org/ns#" xmlns:dc="http://purl.org/dc/elements/1.1/" viewBox="0 0 520.30519 80.138672">
<g transform="translate(332.68 .079692)">
<path id="path7824-4-3-6-6-7-2-1-6-3-31-4-4-6-2-6-53-7-7-3-72-9-4-5-4" style="color-rendering:auto;color:#000000;isolation:auto;mix-blend-mode:normal;paint-order:normal;shape-rendering:auto;solid-color:#000000;image-rendering:auto" d="m333.41 113.38a29.752 29.736 0 0 1 -18.936 6.8301 29.752 29.736 0 0 1 -18.936 -6.8164 23.954 8.7492 0 0 0 -5.0156 5.3398 23.954 8.7492 0 0 0 23.955 8.748 23.954 8.7492 0 0 0 23.955 -8.748 23.954 8.7492 0 0 0 -5.0234 -5.3535z" transform="translate(-374.79 -47.423)" fill="#333"/>
<path id="path7824-4-3-6-6-7-2-1-6-3-31-4-4-6-4-0-6-6-2-6-7-9" style="color-rendering:auto;color:#000000;isolation:auto;mix-blend-mode:normal;paint-order:normal;shape-rendering:auto;solid-color:#000000;image-rendering:auto" d="m314.47 47.344a39.155 39.134 0 0 0 -39.154 39.135 39.155 39.134 0 0 0 39.154 39.133 39.155 39.134 0 0 0 39.154 -39.133 39.155 39.134 0 0 0 -39.154 -39.135zm-0.004 9.3945a29.752 29.736 0 0 1 29.75 29.737 29.752 29.736 0 0 1 -29.75 29.735 29.752 29.736 0 0 1 -29.75 -29.735 29.752 29.736 0 0 1 29.75 -29.737z" transform="translate(-374.79 -47.423)" fill="#333"/>
<path id="path8253-6-1-9-2-0-5-7-6-7" fill="#333" d="m-266.66 2.9184v72.68h54.189l-5.7676-14.348h-32.201v-15.078h26.141l-5.5586-13.828h-20.582v-14.973h40.184v-14.453h-56.404z"/>
<path id="path8255-06-5-2-2-8-2-5-0-8" d="m-188.81 49.188 18.507-46.269h17.572l-29.217 72.679h-13.725l-29.217-72.679h17.572l18.508 46.269z" fill="#333"/>
<ellipse id="path7824-2-4-1-1-2-3-56-3-1-4-6-5-4-2-8-6-4-7-3-4-2-2-6-4-9-4" stroke="#8e83e4" stroke-width="6" fill="#8e83e4" style="color-rendering:auto;color:#000000;isolation:auto;mix-blend-mode:normal;paint-order:normal;shape-rendering:auto;solid-color:#000000;image-rendering:auto" rx="22.62" ry="22.608" cy="39.052" cx="-60.314"/>
<path id="path9442" stroke="#8e83e4" stroke-width=".5" fill="#fff" style="color-rendering:auto;color:#000000;isolation:auto;mix-blend-mode:normal;paint-order:normal;shape-rendering:auto;solid-color:#000000;image-rendering:auto" transform="translate(-374.79 -47.423)" d="m314.47 63.867a22.62 22.608 0 0 0 -21.85 16.852l7.0293 1.8828a21.568 21.557 0 0 1 19.695 -12.807 21.568 21.557 0 0 1 15.189 6.2695 22.62 22.608 0 0 0 -20.068 -12.197zm-22.488 20.232a22.62 22.608 0 0 0 -0.13281 2.375 22.62 22.608 0 0 0 0.81055 5.9844l5.2949 1.418a21.568 21.557 0 0 1 -0.17578 -2.5254 21.568 21.557 0 0 1 0.74414 -5.5l-6.541-1.752z"/>
<path id="path8251-8-5-8-1-8-1-2-0-9-9" d="m-310.99 2.9191c12.962 0 22.91 3.1886 29.841 9.5657 6.932 6.3079 10.398 15.111 10.398 26.41s-3.397 20.241-10.19 26.826c-6.724 6.5851-17.017 9.8777-30.881 9.8777h-20.85v-72.679zm0.832 58.33c7.417 0 13.101-1.8716 17.052-5.6147 4.02-3.7431 6.031-9.1844 6.031-16.324 0-7.1397-2.011-12.616-6.031-16.428-3.951-3.8817-10.051-5.8226-18.3-5.8226h-5.045v44.19z" fill="#333"/>
<path id="path7649-0-2-3-5-3-2-6-20-2-4-1-4-2-9-0-9-7-1-6" d="m38.259 2.9193h12.269v72.679h-13.308l-41.175-53.027v53.027h-12.269v-72.679h12.269l42.214 54.275v-54.275z" fill="#333"/>
<path id="path7646-8-93-0-9-2-70-1-6-0-2-2-33-8-7-6-3-8-7-1" d="m59.296 2.9202v72.678h12.27v-29.945h24.769l4.557-11.332h-29.326v-19.965h37.351l4.598-11.436h-54.219z" fill="#333"/>
<path id="path7182" d="m507.89 81.508c-12.224 0-21.73 9.0339-21.73 20.785 0 11.869 9.3905 21.023 21.496 21.023 5.8461 0 11.809-2.6574 16.002-6.791l-4.1328-4.6074c-3.1297 3.0116-7.382 4.9023-11.516 4.9023-8.2672 0-14.764-6.4368-14.764-14.586 0-8.1491 6.4965-14.527 14.764-14.527 4.1926 0 8.504 2.008 11.516 5.2559l4.0742-5.0781c-4.0155-3.9565-9.8629-6.377-15.709-6.377zm20.389 0.17578v6.2598h24.447l-25.215 30.059v5.0176h34.9v-6.2578h-25.451l25.156-30.059v-5.0195h-33.838zm-50.607 34.074c-2.1258 0-3.7207 1.5939-3.7207 3.8379 0 2.303 1.5948 3.957 3.7207 3.957s3.7207-1.654 3.7207-3.957c0-2.244-1.5948-3.8379-3.7207-3.8379z" transform="translate(-374.79 -47.423)" fill="#333"/>
<path id="path9486" style="color-rendering:auto;text-decoration-color:#000000;color:#000000;isolation:auto;mix-blend-mode:normal;paint-order:normal;shape-rendering:auto;solid-color:#000000;block-progression:tb;text-decoration-line:none;text-decoration-style:solid;image-rendering:auto;white-space:normal;text-indent:0;text-transform:none" d="m-121.65 1.1508c-20.722-0.0025-37.643 16.919-37.643 37.641s16.921 37.66 37.643 37.643c0.34421-0.0003 0.68131-0.00009 1 0 9.1778 0.002 17.606-3.3237 24.152-8.8223-2.5212-3.1818-4.6387-6.695-6.2598-10.471-4.6645 4.7991-11.157 7.812-18.393 7.9453-14.363-0.265-25.809-11.866-25.809-26.295s11.446-26.032 25.809-26.297c7.3203 0.13486 13.879 3.2188 18.555 8.1172 1.6534-3.7624 3.794-7.2634 6.3438-10.426-6.5811-5.6239-15.104-9.0525-24.398-9.0352-0.34427 0.000642-0.68107 0.000038-1 0z" fill="#333"/>
</g>
</svg>
