<?xml version="1.0" encoding="UTF-8" standalone="no"?>
<!-- Created with Inkscape (http://www.inkscape.org/) -->

<svg
   xmlns:dc="http://purl.org/dc/elements/1.1/"
   xmlns:cc="http://creativecommons.org/ns#"
   xmlns:rdf="http://www.w3.org/1999/02/22-rdf-syntax-ns#"
   xmlns:svg="http://www.w3.org/2000/svg"
   xmlns="http://www.w3.org/2000/svg"
   xmlns:sodipodi="http://sodipodi.sourceforge.net/DTD/sodipodi-0.dtd"
   xmlns:inkscape="http://www.inkscape.org/namespaces/inkscape"
   width="123.1323mm"
   height="126.009mm"
   viewBox="0 0 123.1323 126.009"
   version="1.1"
   id="svg920"
   inkscape:version="0.92+devel unknown"
   sodipodi:docname="crystalball-lowres-reserved.svg">
  <defs
     id="defs914" />
  <sodipodi:namedview
     id="base"
     pagecolor="#ffffff"
     bordercolor="#666666"
     borderopacity="1.0"
     inkscape:pageopacity="0.0"
     inkscape:pageshadow="2"
     inkscape:zoom="0.35"
     inkscape:cx="-373.79363"
     inkscape:cy="195.75585"
     inkscape:document-units="mm"
     inkscape:current-layer="layer1"
     inkscape:document-rotation="0"
     showgrid="false"
     inkscape:window-width="1920"
     inkscape:window-height="1016"
     inkscape:window-x="0"
     inkscape:window-y="0"
     inkscape:window-maximized="1" />
  <metadata
     id="metadata917">
    <rdf:RDF>
      <cc:Work
         rdf:about="">
        <dc:format>image/svg+xml</dc:format>
        <dc:type
           rdf:resource="http://purl.org/dc/dcmitype/StillImage" />
        <dc:title></dc:title>
      </cc:Work>
    </rdf:RDF>
  </metadata>
  <g
     inkscape:label="Layer 1"
     inkscape:groupmode="layer"
     id="layer1"
     transform="translate(-42.959088,-74.618062)">
    <g
       id="g10834"
       transform="matrix(2.1278368,0,0,2.1278368,-1633.1939,-1260.1353)"
       inkscape:export-xdpi="96"
       inkscape:export-ydpi="96">
      <path
         id="path7824-4-3-6-6-7-2-1-6-3-31-4-4-6-2-6-53-7-7-3-72-9-4-5-4-4"
         style="color:#000000;isolation:auto;mix-blend-mode:normal;solid-color:#000000;fill:#ffffff;fill-opacity:1;paint-order:normal;color-rendering:auto;image-rendering:auto;shape-rendering:auto"
         d="m 830.65608,676.08054 a 21.985871,21.974048 0 0 1 -13.99316,5.04724 21.985871,21.974048 0 0 1 -13.99315,-5.03713 17.701316,6.4654069 0 0 0 -3.70639,3.94597 17.701316,6.4654069 0 0 0 17.70206,6.46451 17.701316,6.4654069 0 0 0 17.70205,-6.46451 17.701316,6.4654069 0 0 0 -3.71214,-3.95608 z"
         inkscape:connector-curvature="0" />
      <path
         id="path7824-4-3-6-6-7-2-1-6-3-31-4-4-6-4-0-6-6-2-6-7-9-8"
         style="color:#000000;isolation:auto;mix-blend-mode:normal;solid-color:#000000;fill:#ffffff;fill-opacity:1;paint-order:normal;color-rendering:auto;image-rendering:auto;shape-rendering:auto"
         d="m 816.65998,627.28183 a 28.934419,28.918899 0 0 0 -28.93369,28.91964 28.934419,28.918899 0 0 0 28.93369,28.91816 28.934419,28.918899 0 0 0 28.93367,-28.91816 28.934419,28.918899 0 0 0 -28.93367,-28.91964 z m -0.003,6.94226 a 21.985871,21.974048 0 0 1 21.9844,21.97479 21.985871,21.974048 0 0 1 -21.9844,21.97331 21.985871,21.974048 0 0 1 -21.98439,-21.97331 21.985871,21.974048 0 0 1 21.98439,-21.97479 z"
         inkscape:connector-curvature="0" />
      <ellipse
         id="path7824-2-4-1-1-2-3-56-3-1-4-6-5-4-2-8-6-4-7-3-4-2-2-6-4-9-4-5"
         style="color:#000000;isolation:auto;mix-blend-mode:normal;solid-color:#000000;fill:#8e83e4;stroke:#8e83e4;stroke-width:4.43382692;paint-order:normal;color-rendering:auto;image-rendering:auto;shape-rendering:auto"
         rx="16.71553"
         ry="16.706661"
         cy="656.19849"
         cx="816.66443" />
      <path
         id="path9442-0"
         style="color:#000000;isolation:auto;mix-blend-mode:normal;solid-color:#000000;fill:#ffffff;stroke:#8e83e4;stroke-width:0.36948562;paint-order:normal;color-rendering:auto;image-rendering:auto;shape-rendering:auto"
         d="m 816.65998,639.49185 a 16.71553,16.706662 0 0 0 -16.14653,12.45314 l 5.19446,1.39134 a 15.938131,15.930003 0 0 1 14.55403,-9.464 15.938131,15.930003 0 0 1 11.22423,4.63297 16.71553,16.706662 0 0 0 -14.82968,-9.01323 z m -16.61799,14.95086 a 16.71553,16.706662 0 0 0 -0.0981,1.75506 16.71553,16.706662 0 0 0 0.59897,4.4223 l 3.91279,1.04786 a 15.938131,15.930003 0 0 1 -0.1299,-1.86619 15.938131,15.930003 0 0 1 0.54989,-4.06435 l -4.8336,-1.29468 z"
         inkscape:connector-curvature="0" />
    </g>
  </g>
</svg>
