<?xml version="1.0" encoding="UTF-8" standalone="no"?>
<!-- Created with Inkscape (http://www.inkscape.org/) -->

<svg
   xmlns:dc="http://purl.org/dc/elements/1.1/"
   xmlns:cc="http://creativecommons.org/ns#"
   xmlns:rdf="http://www.w3.org/1999/02/22-rdf-syntax-ns#"
   xmlns:svg="http://www.w3.org/2000/svg"
   xmlns="http://www.w3.org/2000/svg"
   xmlns:sodipodi="http://sodipodi.sourceforge.net/DTD/sodipodi-0.dtd"
   xmlns:inkscape="http://www.inkscape.org/namespaces/inkscape"
   id="svg3476"
   version="1.1"
   inkscape:version="0.91 r13725"
   width="335.91858"
   height="200.61832"
   viewBox="0 0 335.91858 200.61832"
   sodipodi:docname="black.svg">
  <metadata
     id="metadata3482">
    <rdf:RDF>
      <cc:Work
         rdf:about="">
        <dc:format>image/svg+xml</dc:format>
        <dc:type
           rdf:resource="http://purl.org/dc/dcmitype/StillImage" />
        <dc:title></dc:title>
      </cc:Work>
    </rdf:RDF>
  </metadata>
  <defs
     id="defs3480" />
  <sodipodi:namedview
     pagecolor="#ffffff"
     bordercolor="#666666"
     borderopacity="1"
     objecttolerance="10"
     gridtolerance="10"
     guidetolerance="10"
     inkscape:pageopacity="0"
     inkscape:pageshadow="2"
     inkscape:window-width="1916"
     inkscape:window-height="1161"
     id="namedview3478"
     showgrid="false"
     inkscape:zoom="0.71246365"
     inkscape:cx="-185.76308"
     inkscape:cy="-236.91585"
     inkscape:window-x="2"
     inkscape:window-y="37"
     inkscape:window-maximized="0"
     inkscape:current-layer="svg3476"
     fit-margin-top="10"
     fit-margin-left="10"
     fit-margin-right="10"
     fit-margin-bottom="10" />
  <path
     style="fill:#000000"
     d="m 40.827388,187.21779 c -1.80165,-1.91485 -4.11167,-3.48155 -5.13337,-3.48155 -1.07234,0 -2.12508,-0.95117 -2.49026,-2.25 -0.57735,-2.05343 -0.72292,-2.09712 -1.66632,-0.5 -1.85968,3.14831 -2.71101,1.83973 -1.74619,-2.68403 0.74049,-3.4719 0.47807,-6.65441 -1.20935,-14.6667 -1.18528,-5.62797 -2.52014,-11.19293 -2.96636,-12.36658 -0.44622,-1.17366 -0.56632,-3.41552 -0.26688,-4.98193 0.37996,-1.98764 0.19853,-2.63424 -0.60056,-2.14037 -0.62975,0.38921 -1.14499,0.47474 -1.14499,0.19007 0,-0.28466 -2.93648,-11.43177 -6.52551,-24.77135 -3.58903,-13.33958 -6.30868,-24.818809 -6.04367,-25.509419 0.26501,-0.6906 0.0442,-1.52615 -0.49081,-1.85676 -1.2113697,-0.74867 -0.2389,-2.47458 1.36901,-2.42966 3.77892,0.10556 5.65744,3.95473 10.14115,20.779729 2.50241,9.39022 4.54983,17.29245 4.54983,17.56051 0,0.26806 -1.0125,0.66451 -2.25,0.881 -2.1728,0.3801 -2.18138,0.42346 -0.25,1.2636 3.49819,1.52169 4.01267,2.67379 8.25139,18.47801 3.75963,14.01789 4.01742,15.70778 2.70235,17.71482 -0.79956,1.22028 -1.45374,3.16485 -1.45374,4.32126 0,1.68047 0.42133,1.96885 2.09872,1.43647 1.82628,-0.57964 2.0125,-0.36122 1.43449,1.68261 -0.45621,1.61317 -0.36968,1.92382 0.27628,0.99196 0.55622,-0.80239 1.18613,-0.95934 1.54164,-0.38411 0.33063,0.53496 1.68645,0.76518 3.01294,0.5116 1.3265,-0.25357 3.31499,0.0223 4.41887,0.6131 2.415,1.29247 4.05167,-0.24138 4.82847,-4.52516 0.57455,-3.16847 6.16582,-8.38139 8.16632,-7.61372 2.03087,0.77932 0.93216,2.60708 -2.55782,4.25505 -4.72603,2.23163 -3.91663,3.0359 2.77077,2.75322 6.04253,-0.25541 7.43397,-1.61878 2.93518,-2.87596 -2.28344,-0.6381 -2.24973,-0.68562 0.57414,-0.80938 2.70047,-0.11836 2.82691,-0.26293 1.26635,-1.44797 -1.55561,-1.18129 -1.4167,-1.32549 1.35271,-1.40423 3.70726,-0.10541 4.85388,-0.99633 2.86459,-2.22579 -1.11455,-0.68883 -0.93088,-0.86162 0.77896,-0.73282 1.23056,0.0927 2.23739,0.52278 2.23739,0.95573 0,0.43296 0.675,0.7872 1.5,0.7872 0.825,0 1.5,-0.51974 1.5,-1.15499 0,-0.65499 0.86581,-0.37144 2,0.65499 1.1,0.99549 2.00689,1.40273 2.01531,0.90499 0.008,-0.49775 0.42413,-0.25893 0.92379,0.53071 0.70707,1.11742 1.22287,1.17476 2.32669,0.25867 0.78003,-0.64736 1.63458,-0.96067 1.899,-0.69625 0.26442,0.26443 7.19802,-1.33563 15.40799,-3.55567 32.370592,-8.75326 49.016232,-13.13181 50.927222,-13.39612 1.1,-0.15215 3.26679,-0.78731 4.8151,-1.41148 4.13201,-1.66573 4.52489,-1.3413 1.43722,1.18683 -2.36321,1.93496 -2.47843,2.24975 -0.82342,2.24975 1.05834,0 1.75157,-0.27942 1.54051,-0.62093 -0.7162,-1.15883 6.71955,-4.0253 8.76103,-3.37736 1.31934,0.41874 1.78813,0.26593 1.35151,-0.44054 -0.81793,-1.32344 5.99597,-4.44775 12.91805,-5.92317 2.75,-0.58616 10.175,-2.48196 16.5,-4.2129 40.40336,-11.05702 41.22505,-11.25043 42.05984,-9.89971 0.41531,0.672 0.52361,1.82512 0.24065,2.5625 -0.32982,0.85949 0.24176,1.34068 1.59252,1.34068 1.20621,0 2.10699,-0.64128 2.10699,-1.5 0,-0.825 -0.45,-1.5 -1,-1.5 -0.55,0 -1,-0.72314 -1,-1.60699 0,-0.95444 0.55962,-1.39224 1.37814,-1.07814 0.75798,0.29086 1.93923,0.002 2.625,-0.64301 0.92814,-0.87231 1.35497,-0.87947 1.66981,-0.028 0.55246,1.49411 4.32705,0.50067 4.32705,-1.13883 0,-1.81678 8.2043,-3.78173 9.20658,-2.205 0.97319,1.53097 0.95879,1.89025 -0.14568,3.63569 -0.61422,0.97068 -1.35329,1.13263 -2.28181,0.5 -0.75534,-0.51464 -0.50089,-0.13695 0.56544,0.8393 1.06634,0.97626 1.68908,2.02472 1.38387,2.32993 -0.30521,0.30521 -3.85645,1.40047 -7.89166,2.43391 -7.263,1.86011 -11.29127,2.03435 -13.62904,0.58952 -1.63692,-1.01167 -3.32349,0.16755 -2.98422,2.08653 0.20207,1.14298 -1.45765,2.05833 -6.16481,3.39992 -3.54273,1.00973 -6.65133,1.62586 -6.90799,1.3692 -0.25666,-0.25666 -1.04017,0.009 -1.74112,0.59105 -0.70095,0.58174 -2.99235,1.14033 -5.09201,1.24132 -2.09965,0.10099 -4.08922,0.55366 -4.42126,1.00594 -0.33204,0.45227 -2.13204,1.20344 -4,1.66925 -1.86796,0.46582 -8.34629,2.27253 -14.39629,4.0149 -6.05,1.74238 -16.625,4.70617 -23.5,6.58621 -49.05656,13.41498 -46.60025,12.94259 -43.77504,8.41871 0.96457,-1.54452 0.96536,-2.22107 0.004,-3.18268 -0.96162,-0.96162 -1.53683,-0.8075 -2.70596,0.72504 -1.12401,1.47339 -1.68656,1.64151 -2.31542,0.69196 -0.57465,-0.86771 -1.25968,-0.16091 -2.22263,2.29328 -1.05176,2.68054 -2.50309,4.04508 -5.93833,5.58319 -5.43127,2.43183 -26.039852,8.00594 -26.061682,7.04904 -0.008,-0.36917 -0.34592,-0.17179 -0.75,0.43863 -0.40408,0.61042 -7.25969,2.75364 -15.23469,4.76272 -7.975,2.00907 -14.65,4.09714 -14.83333,4.64014 -0.18334,0.54301 -1.02332,0.98729 -1.86663,0.98729 -1.04072,0 -1.36536,0.6422 -1.01055,1.999 0.28751,1.09946 0.0455,2.29399 -0.53788,2.65451 -0.65555,0.40516 -0.76302,0.17396 -0.28138,-0.60534 0.59841,-0.96825 -0.17796,-1.12697 -3.34549,-0.68392 -3.28671,0.45972 -4.12474,0.26616 -4.12474,-0.95267 0,-0.84129 -0.45815,-1.24646 -1.0181,-0.90039 -0.62634,0.3871 -0.21534,1.7566 1.06809,3.55902 2.85492,4.00935 1.17028,3.65841 -2.82571,-0.58866 z m 8.77572,-4.45017 c 0,-0.53273 -0.675,-0.70959 -1.5,-0.39301 -0.825,0.31659 -1.5,0.75246 -1.5,0.96862 0,0.21615 0.675,0.39301 1.5,0.39301 0.825,0 1.5,-0.43588 1.5,-0.96862 z m 40.78776,-16.16809 c -0.24965,-0.74895 -0.70294,-0.29565 -1.05655,1.05655 -0.43497,1.66335 -0.30483,2.05378 0.43724,1.31171 0.5811,-0.5811 0.85979,-1.64682 0.61931,-2.36826 z m -5.78776,0.63671 c 0,-0.825 -0.43588,-1.5 -0.96862,-1.5 -0.53273,0 -0.70959,0.675 -0.39301,1.5 0.31659,0.825 0.75246,1.5 0.96862,1.5 0.21615,0 0.39301,-0.675 0.39301,-1.5 z m 11,-2.88337 c 0,-0.21085 -0.90062,-0.61888 -2.00138,-0.90674 -1.10076,-0.28785 -1.7492,-0.11534 -1.44098,0.38337 0.53825,0.87091 3.44236,1.31244 3.44236,0.52337 z m 21.000002,-6.73466 c 0,-0.55 -0.45,-0.72189 -1,-0.38197 -0.55,0.33992 -1,1.06803 -1,1.61803 0,0.55 0.45,0.72189 1,0.38197 0.55,-0.33992 1,-1.06803 1,-1.61803 z M 27.603108,134.73624 c 0,-0.55 -0.45,-1 -1,-1 -0.55,0 -1,0.45 -1,1 0,0.55 0.45,1 1,1 0.55,0 1,-0.45 1,-1 z m 208.000002,-7.5 c 0.69443,-0.83674 0.80272,-1.5 0.24489,-1.5 -0.55,0 -1.5602,0.675 -2.24489,1.5 -0.69443,0.83674 -0.80272,1.5 -0.24489,1.5 0.55,0 1.5602,-0.675 2.24489,-1.5 z M 14.984668,97.184301 c 0.34149,-0.88992 0.17385,-1.29132 -0.39301,-0.94098 -0.5437,0.33602 -0.98855,1.0344 -0.98855,1.55194 0,1.43843 0.71677,1.12146 1.38156,-0.61096 z m 52.18273,84.258809 c 0.37553,-0.98622 0.93469,-1.54122 1.24258,-1.23333 0.30789,0.30789 6.4e-4,1.11479 -0.68278,1.79313 -0.98762,0.98026 -1.10248,0.8654 -0.5598,-0.5598 z m 4.43571,-0.70687 c 0,-0.55 0.47656,-1 1.05902,-1 0.58246,0 0.7809,0.45 0.44098,1 -0.33992,0.55 -0.81648,1 -1.05902,1 -0.24254,0 -0.44098,-0.45 -0.44098,-1 z m -13,-21.37143 c 0,-2.56099 0.12369,-2.64774 1.62894,-1.14249 0.89592,0.89592 2.26929,1.38322 3.05194,1.08288 0.83827,-0.32167 1.15463,-0.11183 0.76991,0.51067 -0.3592,0.58119 -1.22774,0.8362 -1.93009,0.56669 -0.70234,-0.26952 -1.78182,0.0148 -2.39884,0.63182 -0.82915,0.82915 -1.12186,0.39874 -1.12186,-1.64957 z m 14,-3.62857 c 0,-0.55 0.47656,-1 1.05902,-1 0.58246,0 0.7809,0.45 0.44098,1 -0.33992,0.55 -0.81648,1 -1.05902,1 -0.24254,0 -0.44098,-0.45 -0.44098,-1 z m -33.37488,-6.75 c -0.84459,-2.6125 -2.48531,-8.575 -3.64604,-13.25 -1.16073,-4.675 -3.25672,-12.20547 -4.65774,-16.73437 -1.40102,-4.52891 -2.31243,-8.84646 -2.02536,-9.59455 0.74949,-1.95314 9.06997,-4.03566 13.34941,-3.3412 4.98511,0.80897 8.12965,4.08846 9.96116,10.38866 1.43768,4.94542 1.41831,5.56832 -0.28128,9.04629 -1.54766,3.16708 -5.19393,6.01366 -9.59378,7.48969 -0.42268,0.1418 -0.0648,2.62752 0.79532,5.52381 0.86011,2.89629 1.29188,5.70602 0.95949,6.24383 -0.33238,0.53781 -0.12778,0.97784 0.45468,0.97784 0.58246,0 1.05902,0.48032 1.05902,1.06739 0,0.61231 -0.85269,0.79675 -2,0.43261 -2.89335,-0.91832 -2.46272,0.37357 0.5,1.5 2.81221,1.0692 3.31472,3.47338 0.91821,4.39301 -3.24021,1.24339 -4.29579,0.48847 -5.79309,-4.14301 z m 5.37488,-24.25 c 4.6646,-4.6646 -0.11103,-14.36909 -6.13088,-12.45846 -1.76277,0.55948 -1.95786,1.17232 -1.37056,4.3054 0.9443,5.03762 3.18656,10.15306 4.45041,10.15306 0.57807,0 1.95103,-0.9 3.05103,-2 z m 22.13746,20.25 c -0.51309,-0.9625 -1.09143,-2.875 -1.28518,-4.25 -0.29443,-2.08947 0.0993,-2.55196 2.39772,-2.81642 2.48091,-0.28546 2.75,-0.0106 2.75,2.80901 0,1.82899 0.41481,2.86908 1,2.50741 0.55,-0.33992 1,0.0354 1,0.83399 0,1.35053 -1.9967,2.66601 -4.0466,2.66601 -0.48567,0 -1.30284,-0.7875 -1.81594,-1.75 z m 14.98261,-4.62219 c -2.08184,-2.21601 -2.10977,-2.41824 -0.42432,-3.07142 1.71337,-0.66401 1.70648,-0.77119 -0.13688,-2.12781 -1.06762,-0.78572 -2.6581,-1.42858 -3.53439,-1.42858 -0.8763,0 -2.33143,-1.24961 -3.23363,-2.77692 -0.90221,-1.52731 -2.62834,-3.66481 -3.83585,-4.75 l -2.19548,-1.97308 0.69492,6.04751 0.69493,6.04751 -2.82232,-0.0475 c -2.78458,-0.0469 -2.87948,-0.25476 -7.09722,-15.54751 -2.35119,-8.525 -4.15225,-16.39963 -4.00236,-17.49918 0.35384,-2.59562 6.91285,-4.832179 12.17915,-4.152969 6.06554,0.78229 9.80273,5.131439 10.37882,12.078359 0.26872,3.24042 -0.0574,6.81607 -0.7809,8.56284 -1.0279,2.48155 -0.9872,3.38847 0.23583,5.25505 0.81297,1.24074 1.42896,2.58473 1.36888,2.98664 -0.0601,0.40191 0.87545,1.42045 2.07897,2.26343 1.20351,0.84298 3.55988,3.56511 5.23636,6.04919 l 3.04816,4.51651 -2.55147,0.97006 c -3.21829,1.2236 -2.70756,1.35868 -5.3012,-1.40213 z m -11.34258,-22.18451 c 4.8536,-3.3996 1.23004,-13.4433 -4.85007,-13.4433 -3.38275,0 -3.40012,0.0876 -1.47902,7.46322 2.15692,8.28094 2.53463,8.63782 6.32909,5.98008 z m 24.16425,18.08519 c -3.18329,-1.73139 -4.22437,-4.00455 -8.20714,-17.91986 -3.36456,-11.75537 -3.93628,-19.455759 -1.64914,-22.211609 2.08224,-2.50894 9.41457,-5.33802 12.08038,-4.66105 5.208242,1.32261 10.934432,7.67474 9.300992,10.317689 -1.01747,1.64631 -5.39658,0.49165 -7.041382,-1.856629 -2.17649,-3.10738 -6.88659,-2.94907 -9.01747,0.303069 -1.4894,2.27311 -1.50011,2.93133 -0.11796,7.25 0.83609,2.61244 2.31418,8.07602 3.28464,12.14127 2.1608,9.05161 4.8998,12.70833 8.787972,11.73246 5.86631,-1.47235 5.91166,-10.00663 0.0536,-10.08488 -2.411362,-0.0322 -2.970082,-0.50551 -3.227342,-2.73395 -0.27706,-2.40003 0.14162,-2.81691 3.825312,-3.80882 6.73615,-1.81386 7.09843,-1.47657 9.88699,9.20496 1.39263,5.33443 2.19578,10.03523 1.78478,10.44623 -0.41099,0.411 -2.29075,0.70352 -4.17724,0.65004 -1.88648,-0.0535 -3.95279,0.53273 -4.59179,1.30268 -1.47817,1.78109 -7.642832,1.74087 -10.975192,-0.0716 z m 29.019342,-7.93248 c -3.78187,-2.14302 -5.51599,-6.59543 -10.55779,-27.10757 -1.63388,-6.647269 -1.63316,-7.201779 0.0139,-10.672729 2.89294,-6.09641 10.46881,-8.47737 16.70793,-5.251 2.87601,1.48724 6.22913,7.05306 5.22647,8.67538 -1.05749,1.71106 -5.1965,0.64558 -6.75965,-1.74009 -2.35778,-3.59842 -8.28024,-3.59017 -9.18453,0.0128 -0.78678,3.13478 -0.39398,5.48449 3.00597,17.981649 2.82595,10.38725 4.61341,13.50555 7.74161,13.50555 2.76847,0 5.84501,-3.62309 5.84501,-6.88337 0,-2.1191 0.57612,-3.03403 2.17354,-3.45176 3.19545,-0.83563 3.82646,-0.0311 3.82646,4.87837 0,6.49573 -3.88157,10.57698 -10.55939,11.10259 -3.11717,0.24535 -5.87766,-0.1421 -7.47953,-1.04982 z m 137.03892,-4.65503 c 0,-0.58246 0.45,-0.7809 1,-0.44098 0.55,0.33992 1,0.81648 1,1.05902 0,0.24254 -0.45,0.44098 -1,0.44098 -0.55,0 -1,-0.47656 -1,-1.05902 z m -108.20995,-3.49197 c -2.14155,-1.1624 -3.26037,-3.19904 -5.3341,-9.70997 -5.21225,-16.364969 -6.56149,-22.889219 -5.43774,-26.294219 1.55011,-4.69689 5.19999,-7.60955 10.16952,-8.11545 6.09633,-0.6206 10.06751,2.07765 12.25977,8.32998 3.31554,9.45591 6.82771,23.891719 6.64516,27.313079 -0.27473,5.14908 -4.97861,9.37543 -6.43038,5.77757 -0.45579,-1.12957 -1.07404,1.64216 -0.7807,3.5 0.21016,1.331 -8.29528,0.71677 -11.09153,-0.80099 z m 11.24151,-6.50798 c 1.19622,-2.23516 -0.25538,-10.3813 -4.11279,-23.080379 -2.4666,-8.12031 -4.45061,-10.28539 -7.84777,-8.56396 -4.36307,2.21087 -4.62344,3.80922 -2.17629,13.3595 1.24638,4.864089 2.69531,10.589599 3.21986,12.723349 1.57141,6.39218 2.60062,7.62046 6.38543,7.62046 2.43892,0 3.74794,-0.59477 4.53156,-2.05897 z m 107.46844,7.12707 c -1.1,-0.43523 -2.5625,-0.58046 -3.25,-0.32273 -0.6875,0.25774 -1.25,0.0126 -1.25,-0.54476 0,-0.55735 -0.84921,-0.7913 -1.88714,-0.51987 -2.85692,0.7471 -3.48591,-1.39563 -0.89473,-3.048 2.8837,-1.8389 21.66098,-6.82549 22.87545,-6.07491 0.49853,0.30811 0.90642,0.0837 0.90642,-0.49881 0,-0.58246 0.9,-1.05902 2,-1.05902 1.11111,0 2,0.66667 2,1.5 0,0.825 -0.35694,1.5 -0.7932,1.5 -0.43627,0 -1.22377,1.4625 -1.75,3.25 -0.8905,3.02478 -1.26864,3.25553 -5.4568,3.32981 -2.475,0.0439 -5.02244,-0.31545 -5.66097,-0.79855 -1.3508,-1.02199 -2.77784,0.69971 -1.83903,2.21874 0.85991,1.39136 -0.0811,1.25262 -3.79966,-0.56019 l -3.20034,-1.5602 2.5,2.03796 c 2.6909,2.19358 2.60951,2.38085 -0.5,1.15053 z m -92.48242,-6.52186 c -0.5131,-1.34957 -2.5843,-8.43707 -4.60265,-15.749999 -2.01836,-7.31293 -4.48047,-16.20339 -5.47136,-19.75658 -0.99088,-3.55319 -1.58199,-6.81569 -1.31357,-7.25 0.26842,-0.43431 1.55802,-0.78966 2.86578,-0.78966 1.82378,0 4.02158,2.15507 9.4334,9.25 9.60182,12.58803 9.37431,12.33952 9.88733,10.80047 0.42039,-1.26118 -0.097,-3.29104 -4.04984,-15.88936 -2.09982,-6.69245 -1.78689,-7.91924 2.1382,-8.38237 2.1986,-0.25942 2.56219,0.44908 5.24546,10.22126 1.58571,5.775 3.81725,13.875 4.95897,18 3.87197,13.989329 4.05043,16.405959 1.24111,16.806389 -1.66021,0.23664 -3.64526,-1.58469 -8.71913,-8 -6.48681,-8.201809 -10.79282,-12.978179 -11.26996,-12.501039 -0.13477,0.13476 1.11358,5.33105 2.77409,11.547289 1.66052,6.21625 2.77348,11.94241 2.47324,12.72481 -0.90332,2.35401 -4.56046,1.67949 -5.59107,-1.03121 z m 0.98242,-10.98722 c 0,-0.24254 -0.45,-0.7191 -1,-1.05902 -0.55,-0.33992 -1,-0.14148 -1,0.44098 0,0.58246 0.45,1.05902 1,1.05902 0.55,0 1,-0.19844 1,-0.44098 z m 113.26797,10.34828 c -0.11248,-1.49319 0.30173,-1.86126 1.62272,-1.44199 2.01759,0.64036 5.35395,-2.46821 4.90103,-4.56641 -0.16661,-0.77183 0.73137,-1.50626 2.0938,-1.71247 l 2.38556,-0.36105 -2.14804,3.47553 c -1.93801,3.13578 -1.98615,3.53764 -0.49239,4.11085 2.48793,0.95469 0.95274,1.81442 -3.88684,2.17673 -3.73063,0.2793 -4.34556,0.0483 -4.47584,-1.68119 z m 10.23431,-0.90363 c -0.7881,-1.27522 0.2512,-3.00345 1.8067,-3.00438 0.6551,-3.8e-4 1.2577,-1.1546 1.3393,-2.56492 0.176,-3.04358 0.1116,-2.97546 3.6017,-3.81275 1.6326,-0.39164 2.75,-0.24563 2.75,0.35933 0,0.56048 0.8192,0.23155 1.8204,-0.73095 1.3576,-1.30509 1.6296,-2.44914 1.0698,-4.499999 -0.4128,-1.5125 -0.5094,-2.75 -0.2147,-2.75 1.2199,0 6.75614,5.333039 6.95704,6.701679 0.1196,0.81487 0.4604,1.72452 0.7573,2.02143 1.206,1.20603 -1.6121,4.27689 -3.925,4.27689 -1.35564,0 -2.46484,0.40186 -2.46484,0.89301 0,1.81577 -2.6813,1.84691 -3.8071,0.0442 -0.9902,-1.58561 -0.9051,-1.77308 0.5718,-1.25825 1.5495,0.54019 1.5747,0.43686 0.2353,-0.96495 -1.9765,-2.06868 -7.6547,-1.20786 -5.9088,0.89579 0.6245,0.75249 1.4835,1.15308 1.9088,0.89019 0.4254,-0.26289 1.2981,0.15422 1.9394,0.92691 0.9206,1.10926 0.7866,1.50825 -0.6367,1.89605 -5.1683,1.40814 -7.2391,1.58886 -7.8004,0.68072 z m -8.74856,-2.90383 c -1.62405,-0.57977 -1.61252,-0.70693 0.16473,-1.81684 1.50909,-0.94244 2.14461,-0.91195 3.0218,0.145 1.35928,1.63784 -0.51992,2.62377 -3.18653,1.67184 z m 29.9938,-1.83353 c -0.2149,-0.42147 -0.465,-2.11631 -0.5558,-3.76631 -0.1207,-2.19473 -1.4751,-4.20791 -5.0456,-7.499999 -4.41474,-4.07044 -5.09194,-5.30329 -7.09414,-12.91504 -1.9901,-7.56572 -2.0541,-8.50426 -0.634,-9.29901 1.3656,-0.76421 1.2432,-1.18217 -0.9033,-3.08496 -2.0298,-1.79939 -3.5656,-6.30645 -8.41669,-24.70099 -3.2636,-12.375 -6.11542,-23.625 -6.33738,-25 l -0.40356,-2.5 -1.15378,2.75 c -0.63457,1.5125 -1.83991,2.75 -2.67852,2.75 -0.83861,0 -1.41225,0.5625 -1.27475,1.25 0.1375,0.6875 -0.3125,1.1375 -1,1 -0.6875,-0.1375 -1.25,0.23064 -1.25,0.81809 0,0.58746 -1.2375,0.191 -2.75,-0.88101 -3.1565,-2.23722 -8.42457,-2.64976 -8.01513,-0.62766 0.14582,0.72019 -0.10402,1.22644 -0.55521,1.125 -0.45119,-0.10143 -1.26105,0.60308 -1.79969,1.56558 -1.33897,2.3926 -2.0075,2.2318 -5.69013,-1.36866 -1.75441,-1.71526 -3.18984,-2.64182 -3.18984,-2.05901 0,0.5828 0.45,1.33775 1,1.67767 1.44423,0.89258 1.2329,3.7443 -0.24107,3.25298 -0.68259,-0.22753 -1.83973,0.18497 -2.57143,0.91666 -1.68333,1.68333 -3.55292,1.74214 -2.55456,0.0804 0.59207,-0.9855 0.43485,-0.99436 -0.74302,-0.0418 -0.82169,0.66448 -2.48976,0.94775 -3.70682,0.62948 -1.75169,-0.45808 -2.08233,-0.2386 -1.58662,1.05319 0.48676,1.26849 0.21173,1.47631 -1.23514,0.93329 -1.60413,-0.60204 -1.6819,-0.47772 -0.56278,0.89963 0.87295,1.07439 0.95489,1.8106 0.25,2.24625 -0.57671,0.35642 -1.04856,0.119 -1.04856,-0.5276 0,-0.67651 -0.83462,-0.95739 -1.96581,-0.66158 -1.0812,0.28274 -1.8687,0.15522 -1.75,-0.28337 0.11869,-0.43859 -0.12169,-0.84244 -0.53419,-0.89744 -2.74431,-0.36591 -3.75,0.14364 -3.75,1.9 0,1.1 -0.43588,2 -0.96862,2 -0.53273,0 -0.70132,-0.69656 -0.37462,-1.54791 0.48515,-1.26428 -0.1619,-1.5033 -3.53139,-1.30449 -2.26895,0.13379 -4.12537,0.60535 -4.12537,1.04782 0,0.44247 -0.675,0.80449 -1.5,0.80449 -0.825,0 -1.5,-0.52707 -1.5,-1.17126 0,-0.64419 -0.69586,-1.94017 -1.54635,-2.87996 -1.41541,-1.564 -1.33073,-1.76282 1,-2.34779 1.40049,-0.3515 2.54635,-1.25443 2.54635,-2.0065 0,-0.85399 1.68961,-1.62077 4.5,-2.04222 3.2807,-0.49197 4.50415,-1.13238 4.51531,-2.36354 0.0108,-1.19116 0.24484,-1.32744 0.7943,-0.46254 0.97583,1.53603 8.28434,-0.23303 9.46684,-2.2915 0.42704,-0.74339 1.41799,-1.10544 2.20211,-0.80454 0.78412,0.30089 1.94654,0.22516 2.58316,-0.1683 0.63662,-0.39345 2.89134,-0.79945 5.01048,-0.90223 2.76417,-0.13405 4.57129,-0.96191 6.39481,-2.92952 1.398,-1.50847 3.04821,-2.42971 3.66714,-2.04719 0.66862,0.41323 0.94584,0.15706 0.68308,-0.63121 -0.24323,-0.72969 0.42983,-2.19876 1.49568,-3.26461 1.82928,-1.8292804 2.12707,-1.8477004 5.3125,-0.32868 1.85602,0.88508 3.37459,2.0869 3.37459,2.67072 0,1.22351 5.34933,0.43055 11.43063,-1.69441 5.02995,-1.75759 6.02678,-0.74713 4.57644,4.63902 -0.62619,2.32548 -0.90584,4.46082 -0.62146,4.7452 0.28438,0.28438 0.80154,-0.77354 1.14924,-2.35094 1.26283,-5.72874 1.38113,-5.88064 3.17923,-4.08248 1.3612,1.36117 1.4385,2.08421 0.4539,4.24511 -1.0102,2.21726 -0.597,4.78758 2.7793,17.28694 2.1813,8.07534 4.6265,17.38243 5.4338,20.68243 0.8073,3.3 3.031,11.625 4.9415,18.5 1.91054,6.875 4.23174,15.875 5.15824,20 0.9265,4.125 2.0803,8.496429 2.5641,9.714289 0.8108,2.04078 -0.3719,4.36716 -1.2974,2.55202 z M 239.60311,33.771421 c 0,-1.7967 -3.41465,-2.91448 -4.68989,-1.53523 -0.65444,0.70781 -0.91694,1.55989 -0.58333,1.89349 0.98391,0.98392 5.27322,0.69251 5.27322,-0.35826 z m 2.5,-1.03518 c 0.33992,-0.55 0.14148,-1 -0.44098,-1 -0.58246,0 -1.05902,0.45 -1.05902,1 0,0.55 0.19844,1 0.44098,1 0.24254,0 0.7191,-0.45 1.05902,-1 z m -27.31082,71.300889 c -1.12233,-2.86915 -2.72633,-8.850109 -3.56709,-13.300889 -0.25974,-1.375 -0.93488,-3.85 -1.50031,-5.5 -0.56543,-1.65 -1.25127,-4.35 -1.52409,-6 -0.27282,-1.65 -1.15542,-4.8 -1.96134,-7 -1.2259,-3.34648 -1.84688,-3.93437 -3.80083,-3.59828 -5.68093,0.97716 -6.33552,0.72901 -6.33552,-2.40172 0,-2.44776 0.4602,-3.05907 2.5,-3.32088 1.375,-0.17649 5.3599,-1.18899 8.85534,-2.25 7.76065,-2.3557 10.7371,-2.43358 11.55492,-0.30237 0.83936,2.18733 -0.91919,4.10648 -4.47936,4.88843 -1.61199,0.35405 -2.92803,1.17048 -2.92452,1.81428 0.004,0.64379 1.41822,6.34554 3.14382,12.67054 1.7256,6.325 3.17017,12.625 3.21017,14 0.04,1.375 0.4958,2.79515 1.01291,3.15589 0.51711,0.36073 0.98216,2.61073 1.03346,4.999999 0.0793,3.69213 -0.22306,4.38927 -2.01434,4.645 -1.52445,0.21764 -2.41075,-0.47408 -3.20322,-2.5 z M 199.60311,67.295261 c 0,-0.24254 -0.45,-0.7191 -1,-1.05902 -0.55,-0.33992 -1,-0.14148 -1,0.44098 0,0.58246 0.45,1.05902 1,1.05902 0.55,0 1,-0.19844 1,-0.44098 z m 37.01057,32.953709 c -1.91583,-2.308429 -0.45005,-4.697329 2.65663,-4.329699 3.2629,0.38612 3.97182,2.0351 1.80601,4.200899 -2.00175,2.00175 -2.88703,2.02731 -4.46264,0.1288 z m 15.48943,-5.458089 c -3.96562,-1.62309 -5.79493,-5.18794 -9.11639,-17.76544 -4.23722,-16.04519 -4.29084,-18.97909 -0.42773,-23.40369 2.69059,-3.08167 3.4514,-3.38551 8.47727,-3.38551 4.57748,0 5.93511,0.42739 7.94141,2.5 3.54624,3.66345 4.20628,6.68087 1.63959,7.49551 -1.52856,0.48515 -2.82049,-0.14719 -4.943,-2.41935 -3.45461,-3.69816 -4.1612,-3.76293 -7.71383,-0.70709 -3.08416,2.65288 -3.23396,0.85382 1.63455,19.63093 3.31869,12.79969 5.51787,15.13298 10.78562,11.4433 1.53932,-1.07818 2.22251,-2.57931 2.22251,-4.88337 0,-2.60513 0.48801,-3.45703 2.25,-3.92769 5.88938,-1.57319 6.10236,7.75983 0.29935,13.11776 -3.63866,3.35958 -8.41213,4.20262 -13.04935,2.30464 z M 22.093028,92.719931 c -0.34546,-0.55897 -1.04702,-0.75742 -1.55902,-0.44098 -0.51199,0.31643 -0.9309,0.12532 -0.9309,-0.42468 0,-1.82177 2.28503,-2.44852 3.4017,-0.93303 0.60407,0.8198 1.7733,1.30429 2.5983,1.07664 1.33333,-0.36791 1.33333,-0.29603 0,0.64692 -1.89273,1.33855 -2.71832,1.35623 -3.51008,0.0751 z m 5.58905,-2.24843 c -3.16181,-1.61322 -3.83996,-3.73526 -1.19369,-3.73526 1.53069,0 1.88983,-0.44456 1.41377,-1.75 -0.55821,-1.53071 -0.33715,-1.49939 1.76415,0.25 1.56512,1.303 1.95579,1.42115 1.12101,0.33903 -0.743,-0.96315 -0.88942,-1.90319 -0.34851,-2.23749 1.06911,-0.66074 16.65612,-4.68977 19.6643,-5.08294 1.1,-0.14378 2.675,-0.50465 3.5,-0.80193 8.40028,-3.02703 11.51111,-3.43606 7.97251,-1.04826 -1.35988,0.91762 -2.64914,1.80674 -2.86501,1.97583 -0.21588,0.16909 0.17672,0.9933 0.87244,1.83159 1.04013,1.25328 0.9914,1.52417 -0.27416,1.52417 -0.84651,0 -1.71724,0.53437 -1.93495,1.1875 -0.25476,0.76429 -1.17544,0.40789 -2.58333,-1 -1.20313,-1.20313 -2.1875,-1.8275 -2.1875,-1.3875 0,0.44 0.50079,1.30079 1.11287,1.91287 1.39504,1.39504 0.1457,3.60033 -1.64941,2.91148 -0.73384,-0.2816 -1.4826,-0.0669 -1.66393,0.47705 -0.25427,0.76281 -17.39191,5.83828 -19.79953,5.86381 -0.275,0.003 -1.58946,-0.55056 -2.92103,-1.22995 z m 250.276852,-2.25038 c -0.37751,-0.98379 0.11529,-9.7787 1.09512,-19.54423 0.97983,-9.76554 1.44586,-18.29861 1.03564,-18.96237 -0.50553,-0.81796 -2.07358,-0.98688 -4.86623,-0.52423 -7.98849,1.32343 -8.12035,1.29348 -8.12035,-1.84449 0,-2.72071 0.37759,-2.98496 6.43024,-4.5 5.97901,-1.49661 9.4674,-4.10956 5.48643,-4.10956 -2.43113,0 -1.20231,-0.98998 1.93497,-1.55888 1.88153,-0.34118 2.4557,-0.10263 2.08406,0.86586 -0.29634,0.77223 0.55914,1.82527 2.02566,2.49346 1.39625,0.63618 2.54379,1.95383 2.55009,2.92812 0.0278,4.29497 -2.35536,26.8395 -2.90383,27.47065 -0.33419,0.38457 -0.45169,2.97207 -0.26111,5.75 0.38859,5.66405 1.14375,6.01414 8.54182,3.96001 4.14733,-1.15153 5.56399,-0.31566 5.59636,3.30204 0.0171,1.90961 -7.08539,4.46565 -15.21358,5.47506 -3.95126,0.49069 -4.84177,0.29312 -5.41529,-1.20144 z m 17.00817,-5.70495 c -0.37296,-0.60346 -0.95147,-0.46084 -1.47368,0.36331 -1.36676,2.15703 -1.02722,3.21528 0.59868,1.8659 0.81894,-0.67967 1.21269,-1.68281 0.875,-2.22921 z M 75.603108,78.795261 c 0,-0.51754 0.4892,-1.24333 1.08712,-1.61286 0.59791,-0.36953 0.87807,-1.47128 0.62257,-2.44832 -0.25551,-0.97704 -0.15854,-2.27159 0.21548,-2.87676 0.92989,-1.5046 18.86004,-6.71538 22.574832,-6.56059 1.65,0.0688 3.54279,-0.29298 4.2062,-0.80384 0.6634,-0.51086 1.62875,-0.66767 2.14521,-0.34848 0.51646,0.31919 1.17547,-0.0358 1.46445,-0.78891 0.72491,-1.88908 5.68414,-1.78949 5.68414,0.11415 0,1.06398 -0.67451,1.31412 -2.38558,0.88466 -3.05956,-0.7679 -5.62258,1.81429 -3.64704,3.67431 1.00313,0.94448 1.38249,0.93524 1.74095,-0.0424 0.25209,-0.6875 1.09965,-1.25 1.88348,-1.25 1.17849,0 1.20734,0.34947 0.16666,2.0193 -0.69216,1.11062 -1.93347,1.90935 -2.75847,1.77496 -0.825,-0.13439 -1.9735,0.0535 -2.55222,0.41748 -3.25708,2.04864 -9.394532,3.44713 -10.532732,2.40002 -0.89577,-0.82409 -1.03332,-0.8004 -0.53158,0.0916 0.45046,0.80082 -0.75484,1.56996 -3.6033,2.29937 -2.35409,0.60283 -4.81975,1.27591 -5.47924,1.49574 -0.70699,0.23567 -0.97031,-0.19644 -0.64164,-1.05294 0.37932,-0.98851 -0.83511,-0.65657 -3.80093,1.03888 -4.74582,2.71302 -5.85836,3.01205 -5.85836,1.57463 z m 41.473012,-11.10269 c -0.32508,-0.52598 0.33551,-0.95633 1.46797,-0.95633 2.41457,0 2.65816,0.55611 0.59105,1.34934 -0.80739,0.30982 -1.73395,0.13297 -2.05902,-0.39301 z m 5.52699,-2.26827 c 0,-0.84986 0.70714,-2.25235 1.57143,-3.11663 0.86428,-0.86429 1.28214,-1.57143 0.92857,-1.57143 -0.35357,0 0.10342,-0.74628 1.01554,-1.6584 0.91212,-0.91212 4.61388,-2.47793 8.22612,-3.47957 6.21946,-1.7246 6.64051,-1.72946 7.94029,-0.0916 1.2844,1.61848 1.35475,1.6063 1.0953,-0.18966 -0.224,-1.55064 0.85831,-2.26042 5.63553,-3.69574 3.25202,-0.97708 6.17702,-1.72949 6.5,-1.67201 0.32297,0.0575 1.26222,-0.17812 2.08722,-0.52354 5.55567,-2.3261 31.51233,-8.65249 31.81199,-7.75351 0.19507,0.58522 0.75305,1.06403 1.23996,1.06403 0.4869,0 0.65921,-0.58914 0.3829,-1.3092 -0.59196,-1.5426 13.76013,-5.30636 15.68889,-4.11432 0.74534,0.46064 0.92044,0.30402 0.47175,-0.42197 -0.42511,-0.68785 -0.0706,-1.15451 0.87704,-1.15451 0.87481,0 4.16387,-0.8528 7.30902,-1.8951 8.29644,-2.74946 12.61769,-3.5599 11.78338,-2.20996 -0.39889,0.64543 0.40146,1.52198 1.91514,2.09748 2.23392,0.84934 2.44673,1.27583 1.51,3.02614 -1.25653,2.34785 -3.21564,1.73284 -2.27646,-0.71463 0.42832,-1.11617 0.24362,-1.39553 -0.58435,-0.88382 -0.66584,0.41151 -0.96022,1.53714 -0.65418,2.50139 0.45717,1.4404 -0.42492,1.97281 -4.94423,2.98418 -3.02537,0.67705 -6.027,0.90572 -6.67027,0.50815 -0.68415,-0.42282 -0.90277,-0.29112 -0.52674,0.31731 0.36217,0.58601 -0.49786,1.25822 -1.96976,1.53959 -3.16109,0.60428 -9.36408,-0.97013 -9.36408,-2.37675 0,-0.55661 -0.38965,-0.7712 -0.86589,-0.47686 -0.47624,0.29433 -0.65382,1.64453 -0.39462,3.00044 0.43247,2.2623 -0.0109,2.59954 -5.38411,4.09552 -3.22046,0.89662 -9.82509,2.76577 -14.67695,4.15366 -4.85187,1.38789 -9.08547,2.25956 -9.408,1.93703 -0.32252,-0.32253 -1.11612,-0.1468 -1.76354,0.39051 -1.99554,1.65615 -20.63144,6.10096 -22.75449,5.42713 -1.4036,-0.44548 -1.78217,-0.2786 -1.26528,0.55774 0.50711,0.82053 -5.6e-4,1.09799 -1.62477,0.88799 -1.29929,-0.16799 -3.01079,0.0979 -3.80333,0.59077 -0.92948,0.57807 -1.58026,0.47838 -1.83334,-0.28086 -0.21579,-0.64738 -1.36735,-1.14152 -2.55901,-1.0981 -1.19167,0.0434 -1.60417,0.30592 -0.91667,0.58333 3.14555,1.26926 -0.51549,3.91222 -6.75,4.87293 -1.375,0.21188 -3.5125,0.68062 -4.75,1.04165 -1.64579,0.48013 -2.25,0.24146 -2.25,-0.8888 z m 12.12756,-6.35178 c 1.24448,-1.5086 1.16266,-1.55194 -0.87756,-0.46482 -2.32696,1.23991 -2.89993,2.12854 -1.37244,2.12854 0.48265,0 1.49515,-0.74867 2.25,-1.66372 z m 11.87244,-4.33628 c 0,-0.55 -0.19844,-1 -0.44098,-1 -0.24254,0 -0.7191,0.45 -1.05902,1 -0.33992,0.55 -0.14148,1 0.44098,1 0.58246,0 1.05902,-0.45 1.05902,-1 z m 78.18333,-19.21667 c -0.71756,-0.71756 -1.18333,-0.7766 -1.18333,-0.15 0,1.33478 1.18261,2.51739 1.85,1.85 0.28417,-0.28416 -0.0158,-1.04916 -0.66667,-1.7 z m 14.81667,2.21667 c 0,-0.55 0.45,-1 1,-1 0.55,0 1,0.45 1,1 0,0.55 -0.45,1 -1,1 -0.55,0 -1,-0.45 -1,-1 z m 38.32143,-8.02396 c 0.42788,-2.80373 1.92529,-3.51212 4.39089,-2.07722 1.26626,0.73692 1.37314,1.04923 0.36642,1.07077 -0.78169,0.0167 -2.25327,0.78337 -3.27016,1.70364 -1.75243,1.58593 -1.83003,1.54956 -1.48715,-0.69719 z"
     id="path3530"
     inkscape:connector-curvature="0"
     sodipodi:nodetypes="cssssssssssscssssssssssssscsssssssssssssscsscssssscssssssssssscsssssssssssscsssssscsssscsscsscsssssccsssssssssssssssssssssssssssssssssssssssssssssssscccsssssssssssssssscsssssssssssssssssssssssssccccsssscscsscsssssscsssssssssssssscsccsssssssssssssssssssssssssssssssssssscssssssssssssscssssssssssssssscsssssssssssscssssccccsscscsssscccccscssssscssccsscssssssscssssssscsssscsscsssscsssssssssscssssssssssscccsssscssscssssssssssssssssscsscsssssssssssssssssssssssssscsssssccssssssssscsssssssccssssssssscsssssssssssssssscsscssscssscssssssscsscsssssssscssssssssssssssscssscssscsssscscssssssssssssscsccssssssscss" />
</svg>
