<?xml version="1.0" encoding="UTF-8" standalone="no"?>
<!-- Created with Inkscape (http://www.inkscape.org/) -->

<svg
   width="600"
   height="170"
   viewBox="0 0 600.00002 170"
   id="svg8829"
   version="1.1"
   inkscape:version="1.4.2 (ebf0e940d0, 2025-05-08)"
   sodipodi:docname="devconf-us-mono-black.svg"
   xml:space="preserve"
   xmlns:inkscape="http://www.inkscape.org/namespaces/inkscape"
   xmlns:sodipodi="http://sodipodi.sourceforge.net/DTD/sodipodi-0.dtd"
   xmlns="http://www.w3.org/2000/svg"
   xmlns:svg="http://www.w3.org/2000/svg"
   xmlns:rdf="http://www.w3.org/1999/02/22-rdf-syntax-ns#"
   xmlns:cc="http://creativecommons.org/ns#"
   xmlns:dc="http://purl.org/dc/elements/1.1/"><defs
     id="defs8831"><style
       id="style1">
      .cls-1 {
        fill: #333;
      }
    </style></defs><sodipodi:namedview
     id="base"
     pagecolor="#ffffff"
     bordercolor="#666666"
     borderopacity="1.0"
     inkscape:pageopacity="0.0"
     inkscape:pageshadow="2"
     inkscape:zoom="1.4142136"
     inkscape:cx="348.9572"
     inkscape:cy="62.932504"
     inkscape:document-units="px"
     inkscape:current-layer="layer1"
     showgrid="false"
     fit-margin-top="0"
     fit-margin-left="0"
     fit-margin-right="0"
     fit-margin-bottom="0"
     units="px"
     inkscape:showpageshadow="false"
     inkscape:pagecheckerboard="0"
     inkscape:deskcolor="#d1d1d1"
     inkscape:window-width="1920"
     inkscape:window-height="975"
     inkscape:window-x="26"
     inkscape:window-y="23"
     inkscape:window-maximized="0" /><metadata
     id="metadata8834"><rdf:RDF><cc:Work
         rdf:about=""><dc:format>image/svg+xml</dc:format><dc:type
           rdf:resource="http://purl.org/dc/dcmitype/StillImage" /><dc:title /></cc:Work></rdf:RDF></metadata><g
     inkscape:label="Layer 1"
     inkscape:groupmode="layer"
     id="layer1"
     transform="translate(374.78601,47.423442)"><g
       id="g2"
       transform="translate(-2.6478684,-2.21273)"><path
         id="path8253-6-1-9-2-0-5-7-6-7-7"
         class="cls-1"
         d="m -266.74601,3.449288 v 72.68 h 54.19 l -5.77,-14.35 h -32.2 v -15.08 h 26.14 l -5.56,-13.83 h -20.58 v -14.97 h 40.18 v -14.45 z" /><path
         id="path8255-06-5-2-2-8-2-5-0-8-5"
         class="cls-1"
         d="m -188.88601,49.719288 18.51,-46.27 h 17.57 l -29.22,72.68 h -13.73 l -29.22,-72.68 h 17.57 l 18.51,46.27 v 0 z" /><path
         id="path8251-8-5-8-1-8-1-2-0-9-9-3"
         class="cls-1"
         d="m -311.07601,3.439288 c 12.96,0 22.91,3.19 29.84,9.57 6.93,6.31 10.4,15.11 10.4,26.41 0,11.3 -3.4,20.24 -10.19,26.83 -6.72,6.59 -17.02,9.88 -30.88,9.88 h -20.85 v -72.69 z m 0.83,58.33 c 7.42,0 13.1,-1.87 17.05,-5.61 4.02,-3.74 6.03,-9.18 6.03,-16.32 0,-7.14 -2.01,-12.62 -6.03,-16.43 -3.95,-3.88 -10.05,-5.82 -18.3,-5.82 h -5.05 v 44.19 h 6.29 z" /><path
         id="path7649-0-2-3-5-3-2-6-20-2-4-1-4-2-9-0-9-7-1-6-5"
         class="cls-1"
         d="m 38.17399,3.449288 h 12.27 v 72.68 h -13.31 l -41.17,-53.03 v 53.03 h -12.27 v -72.68 h 12.27 l 42.21,54.28 c 0,0 0,-54.28 0,-54.28 z" /><path
         id="path7646-8-93-0-9-2-70-1-6-0-2-2-33-8-7-6-3-8-7-1-6"
         class="cls-1"
         d="m 59.21399,3.449288 v 72.68 h 12.27 v -29.95 h 24.77 l 4.56,-11.33 h -29.33 v -19.96 h 37.35 l 4.6,-11.44 c 0,0 -54.22,0 -54.22,0 z" /><path
         id="path9486-2"
         class="cls-1"
         d="m -121.72601,0.84927031 c -20.72,0 -37.64,16.91999969 -37.64,37.63999969 0,20.72 16.92,37.66 37.64,37.64 0.34,0 0.68,0 1,0 9.18,0 17.61,-3.32 24.15,-8.82 -2.52,-3.18 -4.64,-6.69 -6.26,-10.47 -4.66,4.8 -11.16,7.81 -18.39,7.95 -14.36,-0.26 -25.81,-11.87 -25.81,-26.29 0,-14.42 11.45,-26.03 25.81,-26.3 7.32,0.13 13.88,3.22 18.55,8.12 1.65,-3.76 3.79,-7.26 6.34,-10.4299997 -6.58,-5.62 -15.1,-9.04999999 -24.4,-9.03999999 -0.34,0 -0.68,0 -1,0 z" /><g
         id="g1"
         transform="translate(0,-1.03727)"><path
           class="cls-1"
           d="m -60.39601,13.526558 c -14.13,0 -25.62,11.49 -25.62,25.61 0,14.12 11.49,25.61 25.62,25.61 14.13,0 25.62,-11.49 25.62,-25.61 0,-14.12 -11.49,-25.61 -25.62,-25.61 z m -21.23,19.5 c 2.71,-9.43 11.37,-15.99 21.23,-16 7.23,0 13.87,3.48 17.98,9.25 -3.77,-2.8 -8.32,-4.31 -13.11,-4.32 -8.56,0 -16.36,4.98 -19.97,12.71 z m 4.04,10.99 c 0,0.61 0.04,1.23 0.1,1.85 l -4.31,-1.15 c -0.48,-1.82 -0.72,-3.69 -0.72,-5.57 0,-0.58 0.03,-1.16 0.07,-1.74 l 5.49,1.47 c -0.41,1.68 -0.63,3.41 -0.64,5.15 z"
           id="path1" /><path
           class="cls-1"
           d="m -21.23601,39.136558 c 0,-21.61 -17.53,-39.13 -39.15,-39.13 v 0 c -21.62,0 -39.15,17.52 -39.15,39.13 v 0 c 0,12.36 5.74,23.37 14.68,30.54 -0.38,0.99 -0.6,2.01 -0.6,2.77 0,2.54 11.06,9.2 25.07,9.2 14.01,0 25.07,-6.66 25.07,-9.2 0,-0.76 -0.22,-1.78 -0.6,-2.77 8.95,-7.17 14.68,-18.18 14.68,-30.54 z m -68.91,0 v 0 c 0,-16.42 13.32,-29.74 29.75,-29.74 v 0 c 16.43,0 29.75,13.31 29.75,29.74 v 0 c 0,16.42 -13.32,29.74 -29.75,29.74 v 0 c -16.43,0 -29.75,-13.31 -29.75,-29.74 z"
           id="path2" /></g><path
         style="color:#000000;font-style:normal;font-variant:normal;font-weight:normal;font-stretch:normal;font-size:medium;line-height:125%;font-family:Montserrat;-inkscape-font-specification:Montserrat;text-align:start;letter-spacing:0px;word-spacing:0px;text-anchor:start;clip-rule:nonzero;display:inline;overflow:visible;visibility:visible;opacity:1;isolation:auto;mix-blend-mode:normal;color-interpolation:sRGB;color-interpolation-filters:linearRGB;solid-color:#000000;solid-opacity:1;fill:#333333;fill-opacity:1;fill-rule:nonzero;stroke:none;stroke-width:1px;stroke-linecap:butt;stroke-linejoin:miter;stroke-miterlimit:4;stroke-dasharray:none;stroke-dashoffset:0;stroke-opacity:1;color-rendering:auto;image-rendering:auto;shape-rendering:auto;text-rendering:auto;enable-background:accumulate"
         d="m 548.26758,81.388672 c -8.97583,0 -15.0586,4.429444 -15.0586,11.515625 0,14.703823 22.32227,9.565303 22.32227,18.777343 0,3.18878 -2.89411,5.01953 -7.73633,5.01953 -4.42886,0 -9.74438,-2.12604 -13.99609,-6.02344 l -3.00977,6.02344 c 4.2517,3.8974 10.393,6.55469 16.88867,6.55469 9.09393,0 15.58789,-4.5463 15.58789,-11.92774 0.059,-14.880976 -22.26171,-10.03933 -22.26171,-19.074214 0,-2.775421 2.65786,-4.310547 6.73242,-4.310547 3.12973,0 7.61755,1.121522 12.10547,3.837891 l 2.89258,-6.140625 c -3.83835,-2.539215 -9.09311,-4.251953 -14.4668,-4.251953 z m -59.50391,0.294922 v 24.210936 c 0,10.80643 6.84903,17.42188 18.00977,17.42188 11.16073,0 17.95117,-6.61545 17.95117,-17.42188 V 81.683594 h -6.9668 v 24.210936 c 0,7.02713 -4.19391,11.16211 -10.92578,11.16211 -6.79093,0 -11.10156,-4.19403 -11.10156,-11.16211 V 81.683594 Z m -11.08789,34.074216 c -2.12585,0 -3.7207,1.59394 -3.7207,3.83789 0,2.30301 1.59485,3.95703 3.7207,3.95703 2.12586,0 3.7207,-1.65402 3.7207,-3.95703 0,-2.24395 -1.59484,-3.83789 -3.7207,-3.83789 z"
         transform="translate(-374.78601,-47.423442)"
         id="path7183" /></g></g></svg>
