<?xml version="1.0" encoding="UTF-8" standalone="no"?>
<svg
   xmlns:dc="http://purl.org/dc/elements/1.1/"
   xmlns:cc="http://creativecommons.org/ns#"
   xmlns:rdf="http://www.w3.org/1999/02/22-rdf-syntax-ns#"
   xmlns:svg="http://www.w3.org/2000/svg"
   xmlns="http://www.w3.org/2000/svg"
   xmlns:xlink="http://www.w3.org/1999/xlink"
   viewBox="0 0 240 240"
   height="240"
   width="240"
   id="svg2"
   version="1.1">
  <metadata
     id="metadata8">
    <rdf:RDF>
      <cc:Work
         rdf:about="">
        <dc:format>image/svg+xml</dc:format>
        <dc:type
           rdf:resource="http://purl.org/dc/dcmitype/StillImage" />
        <dc:title></dc:title>
      </cc:Work>
    </rdf:RDF>
  </metadata>
  <defs
     id="defs6">
    <linearGradient
       id="linearGradient8045">
      <stop
         id="stop8041"
         offset="0"
         style="stop-color:#8e83e4;stop-opacity:1" />
      <stop
         style="stop-color:#8e83e4;stop-opacity:1;"
         offset="0.5"
         id="stop8051" />
      <stop
         id="stop8043"
         offset="1"
         style="stop-color:#6f64c4;stop-opacity:1" />
    </linearGradient>
    <radialGradient
       r="97.760139"
       fy="116.4632"
       fx="119.98921"
       cy="116.4632"
       cx="119.98921"
       gradientTransform="matrix(1.5421435,0,0,1.438404,-65.051371,-51.057936)"
       gradientUnits="userSpaceOnUse"
       id="radialGradient8049"
       xlink:href="#linearGradient8045" />
  </defs>
  <g
     id="layer2">
    <path
       id="path7824-4-3-6-6-7-2-1-6-3-31-4-4-6-2-6-53-7-7-3-72-9-4-5-4-6-3-2"
       d="m 62.611251,188.5989 c -5.62586,0.33102 -9.99629,11.0597 -9.99432,16.64136 0.002,6.82873 29.71978,24.72739 67.383069,24.72739 37.66329,0 67.38068,-17.89866 67.38307,-24.72739 0.002,-5.76174 -4.65479,-17.00711 -10.5424,-16.63971 -1.09028,0.068 -2.2242,0.5351 -3.3771,1.50821 -7.37862,6.22796 -33.30857,19.28107 -53.46357,19.28109 -20.154989,3e-5 -46.084939,-13.05313 -53.463559,-19.28109 -1.15291,-0.97311 -2.28682,-1.44014 -3.37712,-1.50821 -0.18398,-0.012 -0.36659,-0.0124 -0.54807,-0.002 z"
       style="color:#000000;clip-rule:nonzero;display:inline;overflow:visible;visibility:visible;opacity:1;isolation:auto;mix-blend-mode:normal;color-interpolation:sRGB;color-interpolation-filters:linearRGB;solid-color:#000000;solid-opacity:1;fill:#000000;fill-opacity:1;fill-rule:nonzero;stroke:none;stroke-width:111.94272614;stroke-linecap:butt;stroke-linejoin:miter;stroke-miterlimit:4;stroke-dasharray:none;stroke-dashoffset:0;stroke-opacity:1;marker:none;marker-start:none;marker-mid:none;marker-end:none;paint-order:normal;color-rendering:auto;image-rendering:auto;shape-rendering:auto;text-rendering:auto;enable-background:accumulate" />
    <path
       id="path7824-4-3-6-6-7-2-1-6-3-31-4-4-6-4-0-6-6-2-6-7-9-7-6"
       d="M 120,12.218798 A 105.24186,105.18508 0 0 0 14.760116,117.40619 105.24186,105.18508 0 0 0 120,222.58832 105.24186,105.18508 0 0 0 225.23988,117.40619 105.24186,105.18508 0 0 0 120,12.218798 Z m -0.0106,25.25085 A 79.967831,79.924689 0 0 1 199.95767,117.39568 79.967831,79.924689 0 0 1 119.98963,197.3217 79.967831,79.924689 0 0 1 40.021604,117.39568 79.967831,79.924689 0 0 1 119.98963,37.469648 Z"
       style="color:#000000;clip-rule:nonzero;display:inline;overflow:visible;visibility:visible;opacity:1;isolation:auto;mix-blend-mode:normal;color-interpolation:sRGB;color-interpolation-filters:linearRGB;solid-color:#000000;solid-opacity:1;fill:#000000;fill-opacity:1;fill-rule:nonzero;stroke:none;stroke-width:131.77168274;stroke-linecap:butt;stroke-linejoin:miter;stroke-miterlimit:4;stroke-dasharray:none;stroke-dashoffset:0;stroke-opacity:1;marker:none;marker-start:none;marker-mid:none;marker-end:none;paint-order:normal;color-rendering:auto;image-rendering:auto;shape-rendering:auto;text-rendering:auto;enable-background:accumulate" />
    <ellipse
       ry="97.712975"
       rx="97.760139"
       cy="116.4632"
       cx="119.98921"
       id="path7824-2-4-1-1-2-3-56-3-1-4-6-5-4-2-8-6-4-7-3-4-2-2-6-4-9-4-5-0"
       style="color:#000000;clip-rule:nonzero;display:inline;overflow:visible;visibility:visible;opacity:1;isolation:auto;mix-blend-mode:normal;color-interpolation:sRGB;color-interpolation-filters:linearRGB;solid-color:#000000;solid-opacity:1;fill:url(#radialGradient8049);fill-opacity:1;fill-rule:nonzero;stroke:#c3beef;stroke-width:3;stroke-linecap:butt;stroke-linejoin:miter;stroke-miterlimit:4;stroke-dasharray:none;stroke-dashoffset:0;stroke-opacity:1;marker:none;marker-start:none;marker-mid:none;marker-end:none;paint-order:normal;color-rendering:auto;image-rendering:auto;shape-rendering:auto;text-rendering:auto;enable-background:accumulate" />
    <path
       id="path8010"
       d="M 119.98633,25.394531 A 91.114996,91.06584 0 0 0 31.990234,93.275391 L 44.845703,96.71875 C 57.364323,59.537374 92.304297,34.091569 132.01172,34.041016 h 0.002 c 16.58448,0.0078 32.49471,4.480049 46.30664,12.519531 A 91.114996,91.06584 0 0 0 119.98633,25.394531 Z"
       style="color:#000000;clip-rule:nonzero;display:inline;overflow:visible;visibility:visible;opacity:0.2;isolation:auto;mix-blend-mode:normal;color-interpolation:sRGB;color-interpolation-filters:linearRGB;solid-color:#000000;solid-opacity:1;fill:#ffffff;fill-opacity:1;fill-rule:nonzero;stroke:none;stroke-width:2.014;stroke-linecap:butt;stroke-linejoin:miter;stroke-miterlimit:4;stroke-dasharray:none;stroke-dashoffset:0;stroke-opacity:1;marker:none;marker-start:none;marker-mid:none;marker-end:none;paint-order:normal;color-rendering:auto;image-rendering:auto;shape-rendering:auto;text-rendering:auto;enable-background:accumulate" />
    <path
       id="path8006"
       d="m 29.400391,106.89258 a 91.114996,91.06584 0 0 0 -0.535157,9.5664 91.114996,91.06584 0 0 0 3.265625,24.10547 l 11.150391,2.98633 -0.09375,-0.34375 c -2.185918,-7.93995 -3.295881,-16.13605 -3.300781,-24.37109 v -0.002 -0.002 c 0.0096,-3.00705 0.172754,-6.01232 0.476562,-9.00391 z"
       style="color:#000000;clip-rule:nonzero;display:inline;overflow:visible;visibility:visible;opacity:0.2;isolation:auto;mix-blend-mode:normal;color-interpolation:sRGB;color-interpolation-filters:linearRGB;solid-color:#000000;solid-opacity:1;fill:#ffffff;fill-opacity:1;fill-rule:nonzero;stroke:none;stroke-width:2.014;stroke-linecap:butt;stroke-linejoin:miter;stroke-miterlimit:4;stroke-dasharray:none;stroke-dashoffset:0;stroke-opacity:1;marker:none;marker-start:none;marker-mid:none;marker-end:none;paint-order:normal;color-rendering:auto;image-rendering:auto;shape-rendering:auto;text-rendering:auto;enable-background:accumulate" />
  </g>
</svg>
