<svg id="Layer_1" data-name="Layer 1" xmlns="http://www.w3.org/2000/svg" xmlns:xlink="http://www.w3.org/1999/xlink" viewBox="0 0 53.87 43.61"><defs><style>.cls-1{fill:url(#linear-gradient);}.cls-2,.cls-3,.cls-5,.cls-6,.cls-7{fill-rule:evenodd;}.cls-2{fill:url(#linear-gradient-2);}.cls-3{fill:#020c14;}.cls-4{fill:#b3b3b3;}.cls-5{fill:#65251e;}.cls-6{fill:#020b13;stroke:#000;}.cls-7{fill:#181818;}.cls-8{fill:#fff;}.cls-9{fill:#acaad1;}.cls-10{fill:#7572b2;}</style><linearGradient id="linear-gradient" x1="6.19" y1="16.88" x2="6.67" y2="55.28" gradientTransform="matrix(0.96, 0, 0, -0.97, 20.61, 49.95)" gradientUnits="userSpaceOnUse"><stop offset="0" stop-color="#c35781"/><stop offset="1" stop-color="#25458b"/></linearGradient><linearGradient id="linear-gradient-2" x1="24.42" y1="55.25" x2="22.68" y2="42.47" gradientTransform="matrix(1, 0, 0, -1, 0, 73.64)" gradientUnits="userSpaceOnUse"><stop offset="0" stop-color="#dca11f"/><stop offset="1" stop-color="#eab3b3"/></linearGradient></defs><ellipse id="path4164" class="cls-1" cx="26.72" cy="21.28" rx="20.35" ry="20.6"/><path id="path3342" class="cls-2" d="M18.86,16.13c-3.31-.28-9.5,4.29-12.28,8.69A20,20,0,0,0,26.3,42.24a19.72,19.72,0,0,0,12.45-4.43c-.38-3-1.7-5.75-5-9.57C29.68,23.51,23.45,16.9,18.86,16.13Z"/><path id="path3481" class="cls-3" d="M25.49,8.55a16.42,16.42,0,0,0-2,.16c-5.16.76-8.47,2.8-12.7,7.91a46.08,46.08,0,0,0-4.33,6.5,19.07,19.07,0,0,0,.23,2.12c3-4.12,11.24-10.2,13.1-7.52,2.13,3.07-4,7.34-3.18,8.5s4.75-.73,8.34-1c4-.29,6.14.95,8.82,3a15.36,15.36,0,0,1-1.37-3.11c-.54-1.9.89-3.66,1.42-4.7.84-1.65,1.56-3.95,2.81-5.19,2.2-2.17,6-3.29,9.44-4.42a28.82,28.82,0,0,1,3.11-.52,7.18,7.18,0,0,0-3.36-.8c-5.59-.09-9,.76-11.25.51C31.67,9.7,29,8.51,25.49,8.55Z"/><ellipse id="path3485" class="cls-4" cx="26.46" cy="14.62" rx="1.46" ry="1.48" transform="translate(6.91 37.67) rotate(-78.62)"/><ellipse id="ellipse3487" cx="26.67" cy="14.68" rx="1.33" ry="1.34" transform="translate(7.02 37.94) rotate(-78.62)"/><path id="path4068" class="cls-5" d="M31.62,15.3a14.58,14.58,0,0,1,4.52-1.81c2.69-.68,6-2.3,8.72-2.93-4.6.56-10.15,1.72-13.24,4.74Z"/><path id="path4152" class="cls-6" d="M12.19,28C11.24,28,9,29,7.8,29.54A20.07,20.07,0,0,0,10,33.67c.67-2.83,3-4.79,2.55-5.53C12.52,28,12.38,28,12.19,28Z"/><path id="path4179" class="cls-7" d="M37.4,13.12c2.4-.67,6.55-2.3,9.58-2.68a8.86,8.86,0,0,0-2.12.12,32.14,32.14,0,0,0-7.46,2.56Z"/><circle id="path4181" class="cls-8" cx="21.27" cy="5.82" r="0.28"/><circle id="circle4187" class="cls-9" cx="22.89" cy="4.81" r="0.2"/><circle id="circle4213" class="cls-10" cx="35.1" cy="7.56" r="0.2"/></svg>