<?xml version="1.0" encoding="UTF-8"?>
<svg id="svg8829" xmlns="http://www.w3.org/2000/svg" viewBox="0 0 525 170">
  <defs>
    <style>
      .cls-1 {
        fill: #333;
      }
    </style>
  </defs>
  <g id="layer1">
    <path id="path8253-6-1-9-2-0-5-7-6-7" class="cls-1" d="M108.12,50.34v72.68h54.19l-5.77-14.35h-32.2v-15.08h26.14l-5.56-13.83h-20.58v-14.97h40.18v-14.45s-56.4,0-56.4,0Z"/>
    <path id="path8255-06-5-2-2-8-2-5-0-8" class="cls-1" d="M185.98,96.61l18.51-46.27h17.57l-29.22,72.68h-13.73l-29.22-72.68h17.57l18.51,46.27h0Z"/>
    <path class="cls-1" d="M314.47,60.87c-14.13,0-25.62,11.49-25.62,25.61s11.49,25.61,25.62,25.61,25.62-11.49,25.62-25.61-11.49-25.61-25.62-25.61ZM293.24,80.37c2.71-9.43,11.37-15.99,21.23-16,7.23,0,13.87,3.48,17.98,9.25-3.77-2.8-8.32-4.31-13.11-4.32-8.56,0-16.36,4.98-19.97,12.71l-6.13-1.64ZM297.28,91.36c0,.61.04,1.23.1,1.85l-4.31-1.15c-.48-1.82-.72-3.69-.72-5.57,0-.58.03-1.16.07-1.74l5.49,1.47c-.41,1.68-.63,3.41-.64,5.15Z"/>
    <path id="path8251-8-5-8-1-8-1-2-0-9-9" class="cls-1" d="M63.79,50.34c12.96,0,22.91,3.19,29.84,9.57,6.93,6.31,10.4,15.11,10.4,26.41s-3.4,20.24-10.19,26.83c-6.72,6.59-17.02,9.88-30.88,9.88h-20.85V50.34h21.68ZM64.62,108.67c7.42,0,13.1-1.87,17.05-5.61,4.02-3.74,6.03-9.18,6.03-16.32s-2.01-12.62-6.03-16.43c-3.95-3.88-10.05-5.82-18.3-5.82h-5.05v44.19h6.29Z"/>
    <path id="path7649-0-2-3-5-3-2-6-20-2-4-1-4-2-9-0-9-7-1-6" class="cls-1" d="M413.04,50.34h12.27v72.68h-13.31l-41.17-53.03v53.03h-12.27V50.34h12.27l42.21,54.28s0-54.28,0-54.28Z"/>
    <path id="path7646-8-93-0-9-2-70-1-6-0-2-2-33-8-7-6-3-8-7-1" class="cls-1" d="M434.08,50.34v72.68h12.27v-29.95h24.77l4.56-11.33h-29.33v-19.96h37.35l4.6-11.44s-54.22,0-54.22,0Z"/>
    <path id="path9486" class="cls-1" d="M253.14,48.57c-20.72,0-37.64,16.92-37.64,37.64s16.92,37.66,37.64,37.64c.34,0,.68,0,1,0,9.18,0,17.61-3.32,24.15-8.82-2.52-3.18-4.64-6.69-6.26-10.47-4.66,4.8-11.16,7.81-18.39,7.95-14.36-.26-25.81-11.87-25.81-26.29s11.45-26.03,25.81-26.3c7.32.13,13.88,3.22,18.55,8.12,1.65-3.76,3.79-7.26,6.34-10.43-6.58-5.62-15.1-9.05-24.4-9.04-.34,0-.68,0-1,0Z"/>
    <path class="cls-1" d="M353.63,86.48c0-21.61-17.53-39.13-39.15-39.13h0c-21.62,0-39.15,17.52-39.15,39.13h0c0,12.36,5.74,23.37,14.68,30.54-.38.99-.6,2.01-.6,2.77,0,2.54,11.06,9.2,25.07,9.2s25.07-6.66,25.07-9.2c0-.76-.22-1.78-.6-2.77,8.95-7.17,14.68-18.18,14.68-30.54ZM284.72,86.48h0c0-16.42,13.32-29.74,29.75-29.74h0c16.43,0,29.75,13.31,29.75,29.74h0c0,16.42-13.32,29.74-29.75,29.74h0c-16.43,0-29.75-13.31-29.75-29.74Z"/>
  </g>
</svg>