<?xml version="1.0" encoding="UTF-8" standalone="no"?>
<!-- Created with Inkscape (http://www.inkscape.org/) -->

<svg
   width="600"
   height="170"
   viewBox="0 0 600.00002 170"
   id="svg8829"
   version="1.1"
   inkscape:version="1.4.2 (ebf0e940d0, 2025-05-08)"
   sodipodi:docname="devconf-cz-mono-black.svg"
   inkscape:export-filename="./devconf-cz.png"
   inkscape:export-xdpi="360"
   inkscape:export-ydpi="360"
   xml:space="preserve"
   xmlns:inkscape="http://www.inkscape.org/namespaces/inkscape"
   xmlns:sodipodi="http://sodipodi.sourceforge.net/DTD/sodipodi-0.dtd"
   xmlns="http://www.w3.org/2000/svg"
   xmlns:svg="http://www.w3.org/2000/svg"
   xmlns:rdf="http://www.w3.org/1999/02/22-rdf-syntax-ns#"
   xmlns:cc="http://creativecommons.org/ns#"
   xmlns:dc="http://purl.org/dc/elements/1.1/"><defs
     id="defs8831"><style
       id="style1">
      .cls-1 {
        fill: #333;
      }
    </style></defs><sodipodi:namedview
     id="base"
     pagecolor="#ffffff"
     bordercolor="#666666"
     borderopacity="1.0"
     inkscape:pageopacity="0.0"
     inkscape:pageshadow="2"
     inkscape:zoom="0.70710678"
     inkscape:cx="152.73507"
     inkscape:cy="57.982756"
     inkscape:document-units="px"
     inkscape:current-layer="layer1"
     showgrid="false"
     fit-margin-top="0"
     fit-margin-left="0"
     fit-margin-right="0"
     fit-margin-bottom="0"
     units="px"
     inkscape:showpageshadow="false"
     inkscape:pagecheckerboard="0"
     inkscape:deskcolor="#d1d1d1"
     inkscape:window-width="1920"
     inkscape:window-height="1007"
     inkscape:window-x="0"
     inkscape:window-y="0"
     inkscape:window-maximized="1" /><metadata
     id="metadata8834"><rdf:RDF><cc:Work
         rdf:about=""><dc:format>image/svg+xml</dc:format><dc:type
           rdf:resource="http://purl.org/dc/dcmitype/StillImage" /><dc:title /></cc:Work></rdf:RDF></metadata><g
     inkscape:label="Layer 1"
     inkscape:groupmode="layer"
     id="layer1"
     transform="translate(374.78601,47.423442)"><g
       id="g2"
       transform="translate(42.21449,10.53727)"><path
         id="path8253-6-1-9-2-0-5-7-6-7-7"
         class="cls-1"
         d="m -311.12101,-9.300712 v 72.68 h 54.19 l -5.77,-14.35 h -32.2 v -15.08 h 26.14 l -5.56,-13.83 h -20.58 v -14.97 h 40.18 v -14.45 z" /><path
         id="path8255-06-5-2-2-8-2-5-0-8-5"
         class="cls-1"
         d="m -233.26101,36.969288 18.51,-46.27 h 17.57 l -29.22,72.68 h -13.73 l -29.22,-72.68 h 17.57 l 18.51,46.27 v 0 z" /><path
         id="path8251-8-5-8-1-8-1-2-0-9-9-3"
         class="cls-1"
         d="m -355.45101,-9.310712 c 12.96,0 22.91,3.19 29.84,9.57 6.93,6.31 10.4,15.11 10.4,26.41 0,11.3 -3.4,20.24 -10.19,26.83 -6.72,6.59 -17.02,9.88 -30.88,9.88 h -20.85 v -72.69 z m 0.83,58.33 c 7.42,0 13.1,-1.87 17.05,-5.61 4.02,-3.74 6.03,-9.18 6.03,-16.32 0,-7.14 -2.01,-12.62 -6.03,-16.43 -3.95,-3.88 -10.05,-5.82 -18.3,-5.82 h -5.05 v 44.19 h 6.29 z" /><path
         id="path7649-0-2-3-5-3-2-6-20-2-4-1-4-2-9-0-9-7-1-6-5"
         class="cls-1"
         d="m -6.20101,-9.300712 h 12.27 v 72.68 h -13.31 l -41.17,-53.03 v 53.03 h -12.27 v -72.68 h 12.27 l 42.21,54.28 c 0,0 0,-54.28 0,-54.28 z" /><path
         id="path7646-8-93-0-9-2-70-1-6-0-2-2-33-8-7-6-3-8-7-1-6"
         class="cls-1"
         d="m 14.83899,-9.300712 v 72.68 h 12.27 v -29.95 h 24.77 l 4.56,-11.33 h -29.33 v -19.96 h 37.35 l 4.6,-11.44 c 0,0 -54.22,0 -54.22,0 z" /><path
         id="path9486-2"
         class="cls-1"
         d="m -166.10101,-11.90073 c -20.72,0 -37.64,16.9200003 -37.64,37.64 0,20.72 16.92,37.66 37.64,37.64 0.34,0 0.68,0 1,0 9.18,0 17.61,-3.32 24.15,-8.82 -2.52,-3.18 -4.64,-6.69 -6.26,-10.47 -4.66,4.8 -11.16,7.81 -18.39,7.95 -14.36,-0.26 -25.81,-11.87 -25.81,-26.29 0,-14.42 11.45,-26.02999969 25.81,-26.29999969 7.32,0.13 13.88,3.21999999 18.55,8.11999999 1.65,-3.76 3.79,-7.25999999 6.34,-10.43 -6.58,-5.62 -15.1,-9.0500003 -24.4,-9.0400003 -0.34,0 -0.68,0 -1,0 z" /><g
         id="g1"
         transform="translate(0,-1.28727)"><path
           class="cls-1"
           d="m -104.77101,1.026558 c -14.13,0 -25.62,11.49 -25.62,25.61 0,14.12 11.49,25.61 25.62,25.61 14.13,0 25.62,-11.49 25.62,-25.61 0,-14.12 -11.49,-25.61 -25.62,-25.61 z m -21.23,19.5 c 2.71,-9.43 11.37,-15.99 21.23,-16 7.23,0 13.87,3.48 17.98,9.25 -3.77,-2.8 -8.32,-4.31 -13.11,-4.32 -8.56,0 -16.36,4.98 -19.97,12.71 z m 4.04,10.99 c 0,0.61 0.04,1.23 0.1,1.85 l -4.31,-1.15 c -0.48,-1.82 -0.72,-3.69 -0.72,-5.57 0,-0.58 0.03,-1.16 0.07,-1.74 l 5.49,1.47 c -0.41,1.68 -0.63,3.41 -0.64,5.15 z"
           id="path1" /><path
           class="cls-1"
           d="m -65.61101,26.636558 c 0,-21.61 -17.53,-39.13 -39.15,-39.13 v 0 c -21.62,0 -39.15,17.52 -39.15,39.13 v 0 c 0,12.36 5.74,23.37 14.68,30.54 -0.38,0.99 -0.6,2.01 -0.6,2.77 0,2.54 11.06,9.2 25.07,9.2 14.01,0 25.07,-6.66 25.07,-9.2 0,-0.76 -0.22,-1.78 -0.6,-2.77 8.95,-7.17 14.68,-18.18 14.68,-30.54 z m -68.91,0 v 0 c 0,-16.42 13.32,-29.74 29.75,-29.74 v 0 c 16.43,0 29.75,13.31 29.75,29.74 v 0 c 0,16.42 -13.32,29.74 -29.75,29.74 v 0 c -16.43,0 -29.75,-13.31 -29.75,-29.74 z"
           id="path2" /></g><path
         style="font-style:normal;font-variant:normal;font-weight:normal;font-stretch:normal;font-size:medium;line-height:125%;font-family:Montserrat;-inkscape-font-specification:Montserrat;text-align:start;letter-spacing:0px;word-spacing:0px;text-anchor:start;fill:#333333;fill-opacity:1;stroke:none;stroke-width:1px;stroke-linecap:butt;stroke-linejoin:miter;stroke-opacity:1"
         d="m 88.60852,21.33437 c -12.22366,0 -21.73047,9.033906 -21.73047,20.785158 0,11.86935 9.39054,21.02344 21.4961,21.02344 5.8461,0 11.80929,-2.65741 16.00195,-6.79102 l -4.13281,-4.60742 c -3.12973,3.01163 -7.38203,4.90234 -11.51563,4.90234 -8.26721,0 -14.76367,-6.43683 -14.76367,-14.58593 0,-8.149113 6.49646,-14.527349 14.76367,-14.527349 4.19265,0 8.504,2.008027 11.51563,5.25586 l 4.07422,-5.078125 C 100.302,23.754873 94.45462,21.334371 88.60852,21.33437 Z m 20.38867,0.175782 v 6.259765 h 24.44727 l -25.21485,30.058591 v 5.01758 h 34.9004 v -6.25781 H 117.67883 L 142.83508,26.529683 V 21.510152 Z M 58.38977,55.584368 c -2.12585,0 -3.7207,1.59394 -3.7207,3.83789 0,2.30301 1.59485,3.95703 3.7207,3.95703 2.12586,0 3.7207,-1.65402 3.7207,-3.95703 0,-2.24395 -1.59484,-3.83789 -3.7207,-3.83789 z"
         id="path7182" /></g></g></svg>
