<?xml version="1.0" encoding="UTF-8" standalone="no"?>
<!-- Created with Inkscape (http://www.inkscape.org/) -->

<svg
   xmlns:dc="http://purl.org/dc/elements/1.1/"
   xmlns:cc="http://creativecommons.org/ns#"
   xmlns:rdf="http://www.w3.org/1999/02/22-rdf-syntax-ns#"
   xmlns:svg="http://www.w3.org/2000/svg"
   xmlns="http://www.w3.org/2000/svg"
   xmlns:sodipodi="http://sodipodi.sourceforge.net/DTD/sodipodi-0.dtd"
   xmlns:inkscape="http://www.inkscape.org/namespaces/inkscape"
   width="600"
   height="170"
   viewBox="0 0 600.00002 170"
   id="svg8829"
   version="1.1"
   inkscape:version="0.92pre2 r"
   sodipodi:docname="devconf-cz.svg"
   inkscape:export-filename="./devconf-cz.png"
   inkscape:export-xdpi="360"
   inkscape:export-ydpi="360">
  <defs
     id="defs8831" />
  <sodipodi:namedview
     id="base"
     pagecolor="#ffffff"
     bordercolor="#666666"
     borderopacity="1.0"
     inkscape:pageopacity="0.0"
     inkscape:pageshadow="2"
     inkscape:zoom="5.6568542"
     inkscape:cx="315.02599"
     inkscape:cy="45.267244"
     inkscape:document-units="px"
     inkscape:current-layer="layer1"
     showgrid="false"
     fit-margin-top="0"
     fit-margin-left="0"
     fit-margin-right="0"
     fit-margin-bottom="0"
     units="px"
     inkscape:showpageshadow="false" />
  <metadata
     id="metadata8834">
    <rdf:RDF>
      <cc:Work
         rdf:about="">
        <dc:format>image/svg+xml</dc:format>
        <dc:type
           rdf:resource="http://purl.org/dc/dcmitype/StillImage" />
        <dc:title />
      </cc:Work>
    </rdf:RDF>
  </metadata>
  <g
     inkscape:label="Layer 1"
     inkscape:groupmode="layer"
     id="layer1"
     transform="translate(374.78601,47.423442)">
    <path
       style="color:#000000;clip-rule:nonzero;display:inline;overflow:visible;visibility:visible;opacity:1;isolation:auto;mix-blend-mode:normal;color-interpolation:sRGB;color-interpolation-filters:linearRGB;solid-color:#000000;solid-opacity:1;fill:#333333;fill-opacity:1;fill-rule:nonzero;stroke:none;stroke-width:40;stroke-linecap:butt;stroke-linejoin:miter;stroke-miterlimit:4;stroke-dasharray:none;stroke-dashoffset:0;stroke-opacity:1;marker:none;marker-start:none;marker-mid:none;marker-end:none;paint-order:normal;color-rendering:auto;image-rendering:auto;shape-rendering:auto;text-rendering:auto;enable-background:accumulate"
       d="M 314.47461 47.34375 A 39.155037 39.133911 0 0 0 275.32031 86.478516 A 39.155037 39.133911 0 0 0 314.47461 125.61133 A 39.155037 39.133911 0 0 0 353.62891 86.478516 A 39.155037 39.133911 0 0 0 314.47461 47.34375 z M 314.4707 56.738281 A 29.751881 29.73583 0 0 1 344.22266 86.474609 A 29.751881 29.73583 0 0 1 314.4707 116.21094 A 29.751881 29.73583 0 0 1 284.71875 86.474609 A 29.751881 29.73583 0 0 1 314.4707 56.738281 z "
       transform="translate(-374.78601,-47.423442)"
       id="path7824-4-3-6-6-7-2-1-6-3-31-4-4-6-4-0-6-6-2-6-7-9" />
    <path
       style="font-style:normal;font-variant:normal;font-weight:bold;font-stretch:normal;font-size:medium;line-height:125%;font-family:Montserrat;-inkscape-font-specification:'Montserrat Bold';text-align:end;letter-spacing:-10.00000095px;word-spacing:0px;text-anchor:end;fill:#333333;fill-opacity:1;stroke:none;stroke-width:1px;stroke-linecap:butt;stroke-linejoin:miter;stroke-opacity:1"
       d="m -266.66296,2.918441 0,72.679683 54.18945,0 -5.76758,-14.34765 -32.20117,0 0,-15.078127 26.14063,0 -5.5586,-13.828125 -20.58203,0 0,-14.972656 40.18359,0 0,-14.453125 -56.40429,0 z"
       id="path8253-6-1-9-2-0-5-7-6-7"
       inkscape:connector-curvature="0" />
    <path
       inkscape:connector-curvature="0"
       id="path8255-06-5-2-2-8-2-5-0-8"
       style="font-style:normal;font-variant:normal;font-weight:bold;font-stretch:normal;font-size:medium;line-height:125%;font-family:Montserrat;-inkscape-font-specification:'Montserrat Bold';text-align:end;letter-spacing:-10.00000095px;word-spacing:0px;text-anchor:end;fill:#333333;fill-opacity:1;stroke:none;stroke-width:1px;stroke-linecap:butt;stroke-linejoin:miter;stroke-opacity:1"
       d="m -188.80518,49.188321 18.507,-46.2691999 17.572,0 -29.217,72.6790029 -13.725,0 -29.217,-72.6790029 17.572,0 18.508,46.2691999 z"
       inkscape:export-filename="./devconf-crystal-us-color.png"
       inkscape:export-xdpi="360"
       inkscape:export-ydpi="360" />
    <ellipse
       style="color:#000000;clip-rule:nonzero;display:inline;overflow:visible;visibility:visible;opacity:1;isolation:auto;mix-blend-mode:normal;color-interpolation:sRGB;color-interpolation-filters:linearRGB;solid-color:#000000;solid-opacity:1;fill:#8e83e4;fill-opacity:1;fill-rule:nonzero;stroke:#8e83e4;stroke-width:6.00000095;stroke-linecap:butt;stroke-linejoin:miter;stroke-miterlimit:4;stroke-dasharray:none;stroke-dashoffset:0;stroke-opacity:1;marker:none;marker-start:none;marker-mid:none;marker-end:none;paint-order:normal;color-rendering:auto;image-rendering:auto;shape-rendering:auto;text-rendering:auto;enable-background:accumulate"
       id="path7824-2-4-1-1-2-3-56-3-1-4-6-5-4-2-8-6-4-7-3-4-2-2-6-4-9-4"
       cx="-60.314339"
       cy="39.052002"
       rx="22.619995"
       ry="22.60779"
       inkscape:export-filename="./devconf-crystal-us-color.png"
       inkscape:export-xdpi="360"
       inkscape:export-ydpi="360" />
    <path
       style="color:#000000;clip-rule:nonzero;display:inline;overflow:visible;visibility:visible;opacity:1;isolation:auto;mix-blend-mode:normal;color-interpolation:sRGB;color-interpolation-filters:linearRGB;solid-color:#000000;solid-opacity:1;fill:#ffffff;fill-opacity:1;fill-rule:nonzero;stroke:#8e83e4;stroke-width:0.5;stroke-linecap:butt;stroke-linejoin:miter;stroke-miterlimit:4;stroke-dasharray:none;stroke-dashoffset:0;stroke-opacity:1;marker:none;marker-start:none;marker-mid:none;marker-end:none;paint-order:normal;color-rendering:auto;image-rendering:auto;shape-rendering:auto;text-rendering:auto;enable-background:accumulate"
       d="M 314.4707 63.867188 A 22.61999 22.607786 0 0 0 292.625 80.71875 L 299.6543 82.601562 A 21.568194 21.556558 0 0 1 319.34961 69.794922 A 21.568194 21.556558 0 0 1 334.53906 76.064453 A 22.61999 22.607786 0 0 0 314.4707 63.867188 z M 291.98242 84.099609 A 22.61999 22.607786 0 0 0 291.84961 86.474609 A 22.61999 22.607786 0 0 0 292.66016 92.458984 L 297.95508 93.876953 A 21.568194 21.556558 0 0 1 297.7793 91.351562 A 21.568194 21.556558 0 0 1 298.52344 85.851562 L 291.98242 84.099609 z "
       transform="translate(-374.78601,-47.423442)"
       id="path9442" />
    <path
       inkscape:connector-curvature="0"
       id="path8251-8-5-8-1-8-1-2-0-9-9"
       style="font-style:normal;font-variant:normal;font-weight:bold;font-stretch:normal;font-size:medium;line-height:125%;font-family:Montserrat;-inkscape-font-specification:'Montserrat Bold';text-align:end;letter-spacing:-10.00000095px;word-spacing:0px;text-anchor:end;fill:#333333;fill-opacity:1;stroke:none;stroke-width:1px;stroke-linecap:butt;stroke-linejoin:miter;stroke-opacity:1"
       d="m -310.99318,2.9191211 c 12.962,0 22.91,3.1886 29.841,9.5656999 6.932,6.3079 10.398,15.1112 10.398,26.4099 0,11.2987 -3.397,20.240603 -10.19,26.825703 -6.724,6.5851 -17.017,9.8777 -30.881,9.8777 l -20.85,0 0,-72.6790029 z m 0.832,58.3303029 c 7.417,0 13.101,-1.8716 17.052,-5.6147 4.02,-3.743103 6.031,-9.184403 6.031,-16.324103 0,-7.1397 -2.011,-12.6157 -6.031,-16.4282 -3.951,-3.8817 -10.051,-5.8226 -18.3,-5.8226 l -5.045,0 0,44.189603 z"
       sodipodi:nodetypes="scscsccsscscsccs"
       inkscape:export-filename="./devconf-crystal-us-color.png"
       inkscape:export-xdpi="360"
       inkscape:export-ydpi="360" />
    <path
       inkscape:connector-curvature="0"
       d="m 38.258821,2.9193211 12.269,0 0,72.6788029 -13.308,0 -41.1750005,-53.027403 0,53.027403 -12.2689995,0 0,-72.6788029 12.2689995,0 42.2140005,54.2752029 0,-54.2752029 z"
       id="path7649-0-2-3-5-3-2-6-20-2-4-1-4-2-9-0-9-7-1-6"
       style="font-style:normal;font-variant:normal;font-weight:normal;font-stretch:normal;font-size:medium;line-height:125%;font-family:Montserrat;-inkscape-font-specification:Montserrat;text-align:center;letter-spacing:0px;word-spacing:0px;text-anchor:middle;fill:#333333;fill-opacity:1;stroke:none;stroke-width:1px;stroke-linecap:butt;stroke-linejoin:miter;stroke-opacity:1"
       inkscape:export-filename="./devconf-crystal-us-color.png"
       inkscape:export-xdpi="360"
       inkscape:export-ydpi="360" />
    <path
       inkscape:connector-curvature="0"
       id="path7646-8-93-0-9-2-70-1-6-0-2-2-33-8-7-6-3-8-7-1"
       d="m 59.295821,2.9202211 0,72.6779029 12.27,0 0,-29.945303 24.769,0 4.556999,-11.3322 -29.325999,0 0,-19.9648 37.350999,0 4.598,-11.4355999 -54.218999,0 z"
       style="font-style:normal;font-variant:normal;font-weight:normal;font-stretch:normal;font-size:medium;line-height:125%;font-family:Montserrat;-inkscape-font-specification:Montserrat;text-align:center;letter-spacing:0px;word-spacing:0px;text-anchor:middle;fill:#333333;fill-opacity:1;stroke:none;stroke-width:1px;stroke-linecap:butt;stroke-linejoin:miter;stroke-opacity:1"
       inkscape:export-filename="./devconf-crystal-us-color.png"
       inkscape:export-xdpi="360"
       inkscape:export-ydpi="360" />
    <path
       style="font-style:normal;font-variant:normal;font-weight:normal;font-stretch:normal;font-size:medium;line-height:125%;font-family:Montserrat;-inkscape-font-specification:Montserrat;text-align:start;letter-spacing:0px;word-spacing:0px;text-anchor:start;fill:#333333;fill-opacity:1;stroke:none;stroke-width:1px;stroke-linecap:butt;stroke-linejoin:miter;stroke-opacity:1"
       d="M 507.89453 81.507812 C 495.67087 81.507812 486.16406 90.541718 486.16406 102.29297 C 486.16406 114.16232 495.5546 123.31641 507.66016 123.31641 C 513.50626 123.31641 519.46945 120.659 523.66211 116.52539 L 519.5293 111.91797 C 516.39957 114.9296 512.14727 116.82031 508.01367 116.82031 C 499.74646 116.82031 493.25 110.38348 493.25 102.23438 C 493.25 94.085267 499.74646 87.707031 508.01367 87.707031 C 512.20632 87.707031 516.51767 89.715058 519.5293 92.962891 L 523.60352 87.884766 C 519.58801 83.928315 513.74063 81.507813 507.89453 81.507812 z M 528.2832 81.683594 L 528.2832 87.943359 L 552.73047 87.943359 L 527.51562 118.00195 L 527.51562 123.01953 L 562.41602 123.01953 L 562.41602 116.76172 L 536.96484 116.76172 L 562.12109 86.703125 L 562.12109 81.683594 L 528.2832 81.683594 z M 477.67578 115.75781 C 475.54993 115.75781 473.95508 117.35175 473.95508 119.5957 C 473.95508 121.89871 475.54993 123.55273 477.67578 123.55273 C 479.80164 123.55273 481.39648 121.89871 481.39648 119.5957 C 481.39648 117.35175 479.80164 115.75781 477.67578 115.75781 z "
       transform="translate(-374.78601,-47.423442)"
       id="path7182" />
    <path
       style="color:#000000;font-style:normal;font-variant:normal;font-weight:normal;font-stretch:normal;font-size:medium;line-height:normal;font-family:sans-serif;text-indent:0;text-align:start;text-decoration:none;text-decoration-line:none;text-decoration-style:solid;text-decoration-color:#000000;letter-spacing:normal;word-spacing:normal;text-transform:none;direction:ltr;block-progression:tb;writing-mode:lr-tb;baseline-shift:baseline;text-anchor:start;white-space:normal;clip-rule:nonzero;display:inline;overflow:visible;visibility:visible;opacity:1;isolation:auto;mix-blend-mode:normal;color-interpolation:sRGB;color-interpolation-filters:linearRGB;solid-color:#000000;solid-opacity:1;fill:#333333;fill-opacity:1;fill-rule:nonzero;stroke:none;stroke-width:11.33300209;stroke-linecap:butt;stroke-linejoin:miter;stroke-miterlimit:4;stroke-dasharray:none;stroke-dashoffset:0;stroke-opacity:1;marker:none;paint-order:normal;color-rendering:auto;image-rendering:auto;shape-rendering:auto;text-rendering:auto;enable-background:accumulate"
       d="m -121.64539,1.150777 c -20.72186,-0.0025 -37.64257,16.91876 -37.64257,37.640625 0,20.721866 16.92072,37.660496 37.64257,37.642576 0.34421,-3e-4 0.68131,-9e-5 1,0 9.17779,0.002 17.6057,-3.32366 24.15235,-8.82226 -2.52122,-3.18176 -4.63874,-6.69498 -6.25977,-10.47071 -4.66451,4.79913 -11.15733,7.81201 -18.39258,7.94532 -14.36254,-0.265 -25.80859,-11.86566 -25.80859,-26.294926 0,-14.429279 11.44605,-26.031898 25.80859,-26.296875 7.32028,0.134859 13.87904,3.218777 18.55469,8.117187 1.6534,-3.762447 3.79397,-7.263423 6.34375,-10.425781 -6.58111,-5.623926 -15.10406,-9.052475 -24.39844,-9.035156 -0.34427,6.42e-4 -0.68107,3.8e-5 -1,0 z"
       id="path9486" />
    <g
       id="g3666"
       transform="translate(0.474605,-97.02246)"
       style="fill:#333333;fill-opacity:1">
      <path
         sodipodi:nodetypes="cszsscccccc"
         inkscape:connector-curvature="0"
         id="path7824-4-3-6-6-7-2-1-6-3-31-4-4-6-2-6-53-7-7-3-72-9-4-5-4-6-3-2"
         d="m -82.13738,163.19192 c -2.09309,0.12315 -3.7191,4.11474 -3.71837,6.19138 7.4e-4,2.54062 11.05719,9.19978 25.06974,9.19978 14.01256,0 25.06886,-6.65916 25.06975,-9.19978 7.4e-4,-2.14364 -1.73181,-6.32746 -3.92228,-6.19077 -0.40564,0.0253 -0.82751,0.19908 -1.25645,0.56113 -2.7452,2.3171 -12.39239,7.17348 -19.89102,7.17349 -7.49862,10e-6 -17.14581,-4.85639 -19.89101,-7.17349 -0.42894,-0.36205 -0.85081,-0.5358 -1.25645,-0.56113 -0.0684,-0.005 -0.13639,-0.005 -0.20391,-7.4e-4 z"
         style="color:#000000;clip-rule:nonzero;display:inline;overflow:visible;visibility:visible;opacity:1;isolation:auto;mix-blend-mode:normal;color-interpolation:sRGB;color-interpolation-filters:linearRGB;solid-color:#000000;solid-opacity:1;fill:#333333;fill-opacity:1;fill-rule:nonzero;stroke:none;stroke-width:41.64807892;stroke-linecap:butt;stroke-linejoin:miter;stroke-miterlimit:4;stroke-dasharray:none;stroke-dashoffset:0;stroke-opacity:1;marker:none;marker-start:none;marker-mid:none;marker-end:none;paint-order:normal;color-rendering:auto;image-rendering:auto;shape-rendering:auto;text-rendering:auto;enable-background:accumulate" />
    </g>
  </g>
</svg>
