<svg width="372" height="135" viewBox="0 0 372 135" fill="none" xmlns="http://www.w3.org/2000/svg">
<path d="M161 0H372V134.958H161V0Z" fill="#1E1E1E"/>
<path d="M188.618 43.7002V56.9324H201.854V43.7002H188.618ZM188.618 98.2084H174.619V29.7055H209.044V36.5123H215.853V64.1203H209.044V70.9271H188.618V98.2084ZM209.044 29.7055H215.853V36.5123H209.044V29.7055ZM209.044 64.1203H215.853V70.7637H209.044V64.1203Z" fill="white"/>
<path d="M229.089 98.2084V91.3472H222.28V29.7055H236.279V84.1593H249.516V29.7055H263.515V91.3472H256.706V98.2084H229.089ZM222.28 91.3472H229.089V98.2084H222.28V91.3472ZM256.706 91.3472H263.515V97.9906H256.706V91.3472Z" fill="white"/>
<path d="M283.941 98.2084H269.942V29.7055H311.176V98.2084H297.178V43.7002H283.941V98.2084Z" fill="white"/>
<path d="M352.029 98.2084H317.604V29.7055H352.029V43.7002H331.603V56.9324H352.029V70.9271H331.603V84.1593H352.029V98.2084Z" fill="white"/>
<path d="M38.5206 69.166H30.6411V30.6305H50.0181V38.503H38.5206V45.9467H50.0181V53.8192H38.5206V69.166Z" fill="#1E1E1E"/>
<path d="M61.516 61.2627H68.9663V38.5029H61.516V61.2627ZM57.4689 69.1659V65.3062H53.6364V34.4594H57.4689V30.6304H73.0134V34.4594H76.8459V65.3062H73.0134V69.1659H57.4689ZM53.851 30.7529H57.4689V34.4594H53.851V30.7529ZM73.0134 30.6304L76.8459 30.6303V34.4594H73.0134V30.6304ZM73.0134 65.3062H76.8459V69.0433H73.0134V65.3062ZM53.6364 65.3062H57.4689V69.1659L53.6364 69.1658V65.3062Z" fill="#1E1E1E"/>
<path d="M99.8408 69.1659H80.4638V61.2628H95.7937V53.8191H84.2962V49.9901H80.4638V34.4595H84.2962V30.6304H103.673V38.5029H88.3433V45.9466H99.8408V49.7757H103.673V65.3063H99.8408V69.1659ZM80.6784 30.753H84.2962V34.4595H80.6784V30.753ZM80.4638 49.9901H84.2962V53.8191H80.4638L80.4638 49.9901ZM99.8408 45.9466H103.673L103.673 49.7757H99.8408V45.9466ZM99.8408 65.3063H103.673L103.673 69.0434H99.8408L99.8408 65.3063Z" fill="#1E1E1E"/>
<path d="M126.668 69.1659H107.291V61.2628H122.621V53.8191H111.124V49.9901H107.291V34.4595H111.124V30.6304H130.501V38.5029H115.171V45.9466H126.668V49.7757H130.501V65.3063H126.668V69.1659ZM107.506 30.753H111.124V34.4595H107.506V30.753ZM107.291 49.9901H111.124V53.8191H107.291L107.291 49.9901ZM126.668 45.9466H130.501L130.501 49.7757H126.668V45.9466ZM126.668 65.3063H130.501L130.501 69.0434H126.668L126.668 65.3063Z" fill="#1E1E1E"/>
<path d="M33.4094 104.37V101.576H30.6397V76.4751H36.3341V98.649H41.7183V76.4751H47.4127V101.576H44.6431V104.37H33.4094ZM30.6397 101.576H33.4094V104.37H30.6397V101.576ZM44.6431 101.576H47.4127V104.281H44.6431V101.576Z" fill="#1E1E1E"/>
<path d="M55.7217 104.37H50.0273V76.4752H66.8003V104.37H61.1059V82.1739H55.7217V104.37Z" fill="#1E1E1E"/>
<path d="M75.1093 104.37H69.4149V76.4752H75.1093V104.37Z" fill="#1E1E1E"/>
<path d="M88.9576 104.37H83.2632V82.1739H77.7239V76.4752H94.4969V82.1739H88.9576V104.37Z" fill="#1E1E1E"/>
<path d="M111.115 104.37H97.1115V76.4752H111.115V82.1739H102.806V87.5621H111.115V93.2608H102.806V98.649H111.115V104.37Z" fill="#1E1E1E"/>
<path d="M119.424 98.649H124.808V82.1739H119.424V98.649ZM113.729 104.37V76.4752H127.733V79.2469H130.502V101.576H127.733V104.37H113.729Z" fill="#1E1E1E"/>
<path fill-rule="evenodd" clip-rule="evenodd" d="M0 0V135H161.142V0H0ZM147.525 121.387V13.6134H13.6176V121.387H147.525Z" fill="#1E1E1E"/>
</svg>
