<?xml version="1.0" encoding="UTF-8"?>
<svg width="92px" height="61px" viewBox="0 0 92 61" version="1.1" xmlns="http://www.w3.org/2000/svg" xmlns:xlink="http://www.w3.org/1999/xlink">
    <!-- Generator: sketchtool 57.1 (101010) - https://sketch.com -->
    <title>DA8BAB4F-F318-40E8-9D7A-D3C35D13B7D1</title>
    <desc>Created with sketchtool.</desc>
    <defs>
        <rect id="path-1" x="0" y="0" width="1440" height="816"></rect>
        <linearGradient x1="0%" y1="4.85897624%" x2="75.2643039%" y2="72.1429535%" id="linearGradient-3">
            <stop stop-color="#34495E" offset="0%"></stop>
            <stop stop-color="#A551FF" offset="100%"></stop>
        </linearGradient>
        <path d="M655,1321 C1024.06857,1853.85293 2005.46542,907.592749 1324.05145,662.025723 C642.637476,416.458698 1027.65243,5.68434189e-13 662.025723,5.68434189e-13 C296.399012,5.68434189e-13 0,296.399012 0,662.025723 C0,1027.65243 285.93143,788.147071 655,1321 Z" id="path-4"></path>
    </defs>
    <g id="Page-2" stroke="none" stroke-width="1" fill="none" fill-rule="evenodd">
        <g id="landing-page-info" transform="translate(-674.000000, -657.000000)">
            <rect fill="#FFFFFF" x="0" y="0" width="1440" height="940"></rect>
            <g id="Group-3">
                <mask id="mask-2" fill="white">
                    <use xlink:href="#path-1"></use>
                </mask>
                <use id="Rectangle" fill="#8E83E4" xlink:href="#path-1"></use>
                <g id="Group-2" mask="url(#mask-2)">
                    <g transform="translate(352.000000, -297.000000)">
                        <mask id="mask-5" fill="white">
                            <use xlink:href="#path-4"></use>
                        </mask>
                        <use id="Oval" stroke="none" fill="url(#linearGradient-3)" fill-rule="evenodd" xlink:href="#path-4"></use>
                        <text id="D" stroke="none" fill="none" opacity="0.329822359" mask="url(#mask-5)" font-family="Montserrat-Bold, Montserrat" font-size="1300" font-weight="bold" letter-spacing="0.17330625">
                            <tspan x="0" y="1114" fill="#34495E">D</tspan>
                        </text>
                    </g>
                </g>
            </g>
            <g id="czech-republic" transform="translate(674.500000, 657.000000)" fill-rule="nonzero">
                <rect id="Rectangle" fill="#0052B4" x="0" y="0.0598964844" width="91" height="60.6653633"></rect>
                <polygon id="Path" fill="#D80027" points="91 30.3925781 91 60.7252598 0 60.7252598 38.2457715 30.3925781"></polygon>
                <polygon id="Path" fill="#F0F0F0" points="91 0.0598964844 91 30.3925781 38.2457715 30.3925781 0 0.0598964844"></polygon>
            </g>
        </g>
    </g>
</svg>