<?xml version="1.0" encoding="UTF-8"?>
<svg width="44px" height="44px" viewBox="0 0 44 44" version="1.1" xmlns="http://www.w3.org/2000/svg" xmlns:xlink="http://www.w3.org/1999/xlink">
    <!-- Generator: Sketch 57.1 (83088) - https://sketch.com -->
    <title>github</title>
    <desc>Created with Sketch.</desc>
    <g id="Page-1" stroke="none" stroke-width="1" fill="none" fill-rule="evenodd">
        <g id="social-copy-3" transform="translate(0.000000, -268.000000)">
            <g id="Group-4">
                <g id="github" transform="translate(0.000000, 268.000000)">
                    <rect id="Rectangle-Copy-23" x="0" y="0" width="44" height="44"></rect>
                    <circle id="Oval" stroke="#FFFFFF" stroke-width="2" cx="22" cy="22" r="21"></circle>
                    <path d="M31.0289529,15.0132327 C31.7013949,16.7025057 31.7613194,18.2271631 31.2079409,19.5872835 C32.3888377,20.8580277 32.9796788,22.3979215 32.9796788,24.2066507 C32.9796788,25.4772378 32.8259014,26.6018229 32.5199961,27.5811127 C32.213698,28.5605596 31.8177882,29.3448397 31.3321094,29.9356022 C30.8458809,30.5262862 30.2403532,31.0233529 29.5154479,31.4267239 C28.7903854,31.830409 28.0874707,32.1217849 27.407489,32.3013226 C26.7271932,32.4808604 25.9612125,32.6157886 25.1092327,32.705479 C25.8862873,33.377921 26.2748931,34.4393615 26.2748931,35.8893293 L26.2748931,40.6202204 C26.2748931,40.8889773 26.3683533,41.1133603 26.5554307,41.2926625 C26.6154167,41.350127 26.6865581,41.3945744 26.7688677,41.4259577 C25.2545691,41.8683092 23.6510672,42.105951 21.9920611,42.105951 C20.3342846,42.105951 18.7319301,41.8686614 17.2171098,41.4261943 C17.3030542,41.3958668 17.3768388,41.3511851 17.4396867,41.2932908 C17.6340682,41.1140671 17.7311411,40.8896056 17.7311411,40.6208487 L17.7308215,40.5685403 C17.729758,40.4315461 17.7260492,40.0454666 17.7198316,39.410029 C17.7121349,38.647504 17.7085222,37.9822874 17.7085222,37.4146936 L17.1927634,37.5039127 C16.8639249,37.5641513 16.4490874,37.5896762 15.9482509,37.5824507 C15.4476499,37.5754608 14.9279642,37.5229974 14.3899007,37.4254533 C13.8516015,37.3287731 13.350922,37.1045472 12.8874695,36.7532469 C12.4242526,36.4019466 12.0954142,35.9421068 11.9010327,35.3744345 L11.6768068,34.8584401 C11.5273491,34.514915 11.2920494,34.1332991 10.9705935,33.7150059 C10.6491376,33.29632 10.324069,33.0124839 9.99523057,32.8630261 L9.83823319,32.7506383 C9.73362063,32.6759487 9.63654771,32.5858657 9.54677882,32.4813316 C9.45708847,32.3767976 9.38993851,32.272185 9.34509334,32.1674154 C9.30016963,32.0625672 9.33739662,31.9765682 9.45716701,31.9091041 C9.5769374,31.84164 9.79338801,31.8088896 10.1074613,31.8088896 L10.555756,31.8758825 C10.85475,31.935807 11.2245853,32.114795 11.665733,32.4139461 C12.1066451,32.7128615 12.4690978,33.1014674 12.7531696,33.5796065 C13.0971658,34.1926738 13.5116107,34.6598176 13.9976821,34.9812734 C14.4833608,35.3027293 14.973045,35.4631824 15.4662634,35.4631824 C15.9594818,35.4631824 16.3854717,35.4257983 16.7443902,35.3514229 C17.102916,35.2766547 17.439294,35.1642669 17.7533673,35.0148877 C17.8879029,34.0129004 18.2542039,33.2431498 18.8519563,32.7050863 C17.9999765,32.615553 17.2339958,32.4807033 16.5536215,32.3014012 C15.8736398,32.1218634 15.1709607,31.8304876 14.4460553,31.4264883 C13.7207572,31.0230388 13.1190779,30.5220451 12.6408603,29.9243713 C12.1625641,29.3263832 11.7700314,28.5413178 11.4638119,27.5698818 C11.1574353,26.598053 11.0042077,25.4770022 11.0042077,24.2064151 C11.0042077,22.3972932 11.5948132,20.8577921 12.7757885,19.5870479 C12.2225671,18.2269275 12.2747949,16.7021915 12.9326288,15.0129971 C13.3661584,14.8783045 14.0090701,14.9793828 14.8610499,15.3156038 C15.7131868,15.6519819 16.3370923,15.9401377 16.7333949,16.1790502 C17.1296974,16.4178841 17.4472264,16.6202764 17.686453,16.7844208 C19.0769676,16.3958935 20.5119347,16.2015906 21.9917469,16.2015906 C23.4715591,16.2015906 24.9068404,16.3958935 26.2974335,16.7844208 L27.1494918,16.2465143 C27.7321649,15.8875958 28.420236,15.5586788 29.2120557,15.2596848 C30.0043467,14.9608479 30.6101885,14.8785401 31.0289529,15.0132327 Z" id="Combined-Shape" fill="#FFFFFF"></path>
                </g>
            </g>
        </g>
    </g>
</svg>