<?xml version="1.0" encoding="UTF-8"?>
<svg width="91px" height="61px" viewBox="0 0 91 61" version="1.1" xmlns="http://www.w3.org/2000/svg" xmlns:xlink="http://www.w3.org/1999/xlink">
    <!-- Generator: sketchtool 57.1 (101010) - https://sketch.com -->
    <title>003CD850-8AAA-4948-90C8-B879D54F1CD6</title>
    <desc>Created with sketchtool.</desc>
    <defs>
        <rect id="path-1" x="0" y="0" width="1440" height="816"></rect>
        <linearGradient x1="0%" y1="4.85897624%" x2="75.2643039%" y2="72.1429535%" id="linearGradient-3">
            <stop stop-color="#34495E" offset="0%"></stop>
            <stop stop-color="#A551FF" offset="100%"></stop>
        </linearGradient>
        <path d="M655,1321 C1024.06857,1853.85293 2005.46542,907.592749 1324.05145,662.025723 C642.637476,416.458698 1027.65243,5.68434189e-13 662.025723,5.68434189e-13 C296.399012,5.68434189e-13 0,296.399012 0,662.025723 C0,1027.65243 285.93143,788.147071 655,1321 Z" id="path-4"></path>
    </defs>
    <g id="Page-2" stroke="none" stroke-width="1" fill="none" fill-rule="evenodd">
        <g id="landing-page-info" transform="translate(-938.000000, -657.000000)">
            <rect fill="#FFFFFF" x="0" y="0" width="1440" height="940"></rect>
            <g id="Group-3">
                <mask id="mask-2" fill="white">
                    <use xlink:href="#path-1"></use>
                </mask>
                <use id="Rectangle" fill="#8E83E4" xlink:href="#path-1"></use>
                <g id="Group-2" mask="url(#mask-2)">
                    <g transform="translate(352.000000, -297.000000)">
                        <mask id="mask-5" fill="white">
                            <use xlink:href="#path-4"></use>
                        </mask>
                        <use id="Oval" stroke="none" fill="url(#linearGradient-3)" fill-rule="evenodd" xlink:href="#path-4"></use>
                        <text id="D" stroke="none" fill="none" opacity="0.329822359" mask="url(#mask-5)" font-family="Montserrat-Bold, Montserrat" font-size="1300" font-weight="bold" letter-spacing="0.17330625">
                            <tspan x="0" y="1114" fill="#34495E">D</tspan>
                        </text>
                    </g>
                </g>
            </g>
            <g id="india" transform="translate(938.000000, 657.500000)" fill-rule="nonzero">
                <path d="M0,19.8839435 L0,0.0489590643 C60.5485263,0.0489590643 90.8227895,0.0489590643 90.8227895,0.0489590643 L90.8227895,19.8839435 L0,19.8839435 Z" id="Path" fill="#FAB446"></path>
                <path d="M0,59.5535575 L0,39.7187505 L90.8226121,39.7187505 L90.8226121,59.5535575 C87.4236847,59.5535575 2.24213127,59.5535575 0,59.5535575 Z" id="Path" fill="#73AF00"></path>
                <rect id="Rectangle" fill="#F5F5F5" x="0" y="19.8835887" width="90.8226121" height="19.8337427"></rect>
                <g id="Group" transform="translate(36.896686, 21.286550)" fill="#41479B">
                    <path d="M8.51461988,16.931499 C3.8734425,16.931499 0.0979181287,13.1559747 0.0979181287,8.51479727 C0.0979181287,3.87361988 3.8734425,0.0980955166 8.51461988,0.0980955166 C13.1557973,0.0980955166 16.9313216,3.87361988 16.9313216,8.51479727 C16.9313216,13.1559747 13.1557973,16.931499 8.51461988,16.931499 Z M8.51461988,1.66389864 C4.73661209,1.66389864 1.66372125,4.73678947 1.66372125,8.51479727 C1.66372125,12.2928051 4.73661209,15.3656959 8.51461988,15.3656959 C12.2926277,15.3656959 15.3655185,12.2928051 15.3655185,8.51479727 C15.3655185,4.73678947 12.2926277,1.66389864 8.51461988,1.66389864 Z" id="Shape"></path>
                    <circle id="Oval" cx="8.51461988" cy="8.51479727" r="1"></circle>
                    <polygon id="Path" points="8.51461988 8.65794932 6.0897271 8.90274464 0.880908382 8.65794932 0.880908382 8.37164522 6.0897271 8.1268499 8.51461988 8.37164522"></polygon>
                    <polygon id="Path" points="8.51461988 8.65794932 10.9395127 8.90274464 16.1483314 8.65794932 16.1483314 8.37164522 10.9395127 8.1268499 8.51461988 8.37164522"></polygon>
                    <polygon id="Path" points="8.37146784 8.51479727 8.12667251 6.08990448 8.37146784 0.88108577 8.65777193 0.88108577 8.90256725 6.08990448 8.65777193 8.51479727"></polygon>
                    <polygon id="Path" points="8.37146784 8.51479727 8.12667251 10.9396901 8.37146784 16.1485088 8.65777193 16.1485088 8.90256725 10.9396901 8.65777193 8.51479727"></polygon>
                    <polygon id="Path" points="8.41350877 8.61590838 6.52574659 7.0745848 3.01559454 3.21817154 3.21799415 3.01577193 7.07440741 6.52592398 8.61573099 8.41368616"></polygon>
                    <polygon id="Path" points="8.41350877 8.61590838 9.95483236 10.5036706 13.8112456 14.0138226 14.0136452 13.811423 10.5034932 9.95500975 8.61573099 8.41368616"></polygon>
                    <polygon id="Path" points="8.41350877 8.41368616 9.95483236 6.52592398 13.8112456 3.01577193 14.0136452 3.21817154 10.5034932 7.0745848 8.61573099 8.61590838"></polygon>
                    <polygon id="Path" points="8.41350877 8.41368616 6.52574659 9.95500975 3.01559454 13.811423 3.21799415 14.0138226 7.07440741 10.5036706 8.61573099 8.61590838"></polygon>
                    <polygon id="Path" points="8.56943275 8.64712865 6.42268421 9.80121442 1.51684405 11.5683528 1.40721832 11.3038674 6.12591423 9.08438986 8.45980702 8.38246589"></polygon>
                    <polygon id="Path" points="8.56943275 8.64712865 10.9033255 7.94520468 15.6220214 5.7257271 15.5123957 5.46124172 10.6065556 7.22838012 8.45980702 8.38246589"></polygon>
                    <polygon id="Path" points="8.3822885 8.56961014 7.22820273 6.4228616 5.46106433 1.51702144 5.72554971 1.40739571 7.94502729 6.12609162 8.64695127 8.45998441"></polygon>
                    <polygon id="Path" points="8.3822885 8.56961014 9.08421248 10.9035029 11.3036901 15.6221988 11.5681754 15.5125731 9.80103704 10.6067329 8.64695127 8.45998441"></polygon>
                    <polygon id="Path" points="8.45980702 8.64712865 6.12591423 7.94520468 1.40721832 5.7257271 1.51684405 5.46124172 6.42268421 7.22838012 8.56943275 8.38246589"></polygon>
                    <polygon id="Path" points="8.45980702 8.64712865 10.6065556 9.80121442 15.5123957 11.5683528 15.6220214 11.3038674 10.9033255 9.08438986 8.56943275 8.38246589"></polygon>
                    <polygon id="Path" points="8.3822885 8.45998441 9.08421248 6.12609162 11.3036901 1.40739571 11.5681754 1.51702144 9.80103704 6.4228616 8.64695127 8.56961014"></polygon>
                    <polygon id="Path" points="8.3822885 8.45998441 7.22820273 10.6067329 5.46106433 15.5125731 5.72554971 15.6221988 7.94502729 10.9035029 8.64695127 8.56961014"></polygon>
                </g>
                <circle id="Oval" fill="#F5F5F5" cx="45.411306" cy="29.801347" r="1.28712671"></circle>
                <circle id="Oval" fill="#41479B" cx="45.411306" cy="29.801347" r="1"></circle>
            </g>
        </g>
    </g>
</svg>