<?xml version="1.0" encoding="UTF-8"?>
<svg width="2559px" height="1336px" viewBox="0 0 2559 1336" version="1.1" xmlns="http://www.w3.org/2000/svg" xmlns:xlink="http://www.w3.org/1999/xlink">
    <title>MISC</title>
    <defs>
        <rect id="path-1" x="0" y="0" width="2558" height="1450"></rect>
        <linearGradient x1="0%" y1="4.82990592%" x2="75.2643039%" y2="72.1572133%" id="linearGradient-3">
            <stop stop-color="#34495E" offset="0%"></stop>
            <stop stop-color="#A551FF" offset="100%"></stop>
        </linearGradient>
        <path d="M1163.53472,2347.3652 C1819.14403,3294.22396 3562.48649,1612.75672 2352.03028,1176.39375 C1141.57407,740.030775 1825.51036,1.01008526e-12 1176.01514,1.01008526e-12 C526.519912,1.01008526e-12 0,526.689421 0,1176.39375 C0,1826.09807 507.925415,1400.50644 1163.53472,2347.3652 Z" id="path-4"></path>
    </defs>
    <g id="MISC." stroke="none" stroke-width="1" fill="none" fill-rule="evenodd">
        <g id="background-copy">
            <rect id="Rectangle" fill="#FFFFFF" fill-rule="nonzero" x="0" y="0" width="2558" height="1450"></rect>
            <g id="Group-3">
                <g id="Rectangle" fill="#8E83E4" fill-rule="nonzero">
                    <rect id="path-1" x="0" y="0" width="2558" height="1450"></rect>
                </g>
                <g id="Group-2-Clipped">
                    <mask id="mask-2" fill="white">
                        <use xlink:href="#path-1"></use>
                    </mask>
                    <g id="path-1"></g>
                    <g id="Group-2" mask="url(#mask-2)">
                        <g transform="translate(625.288889, -527.757353)" id="Group">
                            <g id="Oval" fill="url(#linearGradient-3)">
                                <path d="M1163.53472,2347.3652 C1819.14403,3294.22396 3562.48649,1612.75672 2352.03028,1176.39375 C1141.57407,740.030775 1825.51036,1.01008526e-12 1176.01514,1.01008526e-12 C526.519912,1.01008526e-12 0,526.689421 0,1176.39375 C0,1826.09807 507.925415,1400.50644 1163.53472,2347.3652 Z" id="path-4"></path>
                            </g>
                            <g id="D-Clipped">
                                <mask id="mask-5" fill="white">
                                    <use xlink:href="#path-4"></use>
                                </mask>
                                <g id="path-4"></g>
                                <path d="M926.031528,362.5 C1101.53963,362.5 1256.64643,395.995375 1391.3566,462.987132 C1526.06676,529.978888 1630.75423,624.304947 1705.42215,745.968137 C1780.09007,867.631327 1817.42347,1009.31292 1817.42347,1171.01716 C1817.42347,1332.7214 1780.09007,1474.40299 1705.42215,1596.06618 C1630.75423,1717.72937 1526.06676,1812.05542 1391.3566,1879.04718 C1256.64643,1946.03894 1101.53963,1979.53431 926.031528,1979.53431 L191.672361,1979.53431 L191.672361,362.5 L926.031528,362.5 Z M907.557083,669.73652 L565.779861,669.73652 L565.779861,1672.29779 L907.557083,1672.29779 C1069.20928,1672.29779 1198.14422,1627.25229 1294.36576,1537.15993 C1390.58731,1447.06757 1438.69736,1325.02119 1438.69736,1171.01716 C1438.69736,1017.01312 1390.58731,894.966749 1294.36576,804.874387 C1198.14422,714.782026 1069.20928,669.73652 907.557083,669.73652 L907.557083,669.73652 Z" id="D" fill="#34495E" fill-rule="nonzero" opacity="0.329822359" mask="url(#mask-5)"></path>
                            </g>
                        </g>
                    </g>
                </g>
            </g>
        </g>
        <g id="Group-4" transform="translate(288.000000, 209.000000)">
            <g id="Group-3" transform="translate(0.000000, 485.000000)" fill-rule="nonzero">
                <g id="OG-logo">
                    <path d="M693,0 C666.743021,0 641.561661,10.4313687 622.995551,28.9979419 C604.429441,47.564515 594,72.7459035 594,99.0024691 C594,153.677017 638.324592,198 693,198 C747.675408,198 792,153.677017 792,99.0024691 C792,72.7459035 781.570559,47.564515 763.004449,28.9979419 C744.438339,10.4313687 719.256979,0 693,0 L693,0 Z M692.989886,23.7661256 C712.941455,23.7661256 732.075879,31.6916246 746.183691,45.7993708 C760.291502,59.9071171 768.216693,79.0413295 768.216693,98.9925852 C768.216693,118.943803 760.291536,138.077983 746.183774,152.185724 C732.076011,166.293465 712.941644,174.219052 692.990114,174.219052 C673.038588,174.219052 653.904227,166.293456 639.79647,152.185715 C625.688713,138.077974 617.76356,118.943798 617.76356,98.9925852 C617.76356,79.0413733 625.688716,59.9071993 639.796473,45.7994602 C653.904229,31.6917212 673.038589,23.7661256 692.990114,23.7661256 L692.989886,23.7661256 Z" id="path7824-4-3-6-6-7-2-1-6-3-31-4-4-6-4-0-6-6-2-6-7-9" fill="#FFFFFF"></path>
                    <polygon id="path8253-6-1-9-2-0-5-7-6-7" fill="#FFFFFF" points="169 8 169 194 307.345519 194 292.620903 157.281858 210.411403 157.281858 210.411403 118.694298 277.148361 118.694298 262.95727 83.3057119 210.411403 83.3057119 210.411403 44.9880707 313 44.9880707 313 8"></polygon>
                    <polygon id="path8255-06-5-2-2-8-2-5-0-8" fill="#FFFFFF" points="366.001275 126.41207 413.192727 8 458 8 383.498857 194 348.501143 194 274 8 318.807273 8"></polygon>
                    <ellipse id="path7824-2-4-1-1-2-3-56-3-1-4-6-5-4-2-8-6-4-7-3-4-2-2-6-4-9-4" stroke="#8E83E4" stroke-width="6.00000095" fill="#8E83E4" cx="694" cy="99" rx="58" ry="57"></ellipse>
                    <path d="M692.229075,42 C666.262621,42.0330905 643.573025,59.5536815 636.961658,84.6767325 L654.745078,89.4449708 C663.493876,69.7369257 683.018416,57.0282301 704.572225,57.0120397 C718.973854,57.023518 732.786956,62.7308355 743,72.8896834 C733.16438,53.9203755 713.588393,42.0100936 692.229075,42 L692.229075,42 Z M635.335996,93.2387883 C635.118579,95.2364031 635.006426,97.2440843 635,99.2534972 C635.003039,104.374342 635.692727,109.471633 637.05061,114.408981 L650.446223,118 C650.172892,115.878698 650.024401,113.743158 650.001517,111.604425 C650.02653,106.899727 650.659307,102.218 651.884116,97.6756251 L635.335996,93.2387883 Z" id="path9442" stroke="#8E83E4" stroke-width="0.5" fill="#FFFFFF"></path>
                    <path d="M55.3246233,8 C88.39896,8 113.782659,16.1602605 131.468064,32.4805255 C149.156021,48.6236941 158,71.1530868 158,100.068704 C158,128.984321 149.332084,151.868426 131.998805,168.721004 C114.841588,185.573583 88.5775747,194 53.2016602,194 L0,194 L0,8 L55.3246233,8 Z M57.4475864,157.278828 C76.3730883,157.278828 90.8766008,152.489031 100.958124,142.909695 C111.21571,133.330352 116.347055,119.404984 116.347055,101.133074 C116.347055,82.8611644 111.21571,68.846993 100.958124,59.0900485 C90.8766008,49.1560074 75.3116067,44.1888589 54.2631417,44.1888589 L41.3901261,44.1888589 L41.3901261,157.278828 L57.4475864,157.278828 Z" id="path8251-8-5-8-1-8-1-2-0-9-9" fill="#FFFFFF"></path>
                    <polygon id="path7649-0-2-3-5-3-2-6-20-2-4-1-4-2-9-0-9-7-1-6" fill="#FFFFFF" points="944.937845 8 976 8 976 194 942.307347 194 838.062154 58.2919728 838.062154 194 807 194 807 8 838.062154 8 944.937845 146.901404"></polygon>
                    <polygon id="path7646-8-93-0-9-2-70-1-6-0-2-2-33-8-7-6-3-8-7-1" fill="#FFFFFF" points="997 8 997 194 1028.00371 194 1028.00371 117.362864 1090.58976 117.362864 1102.10434 88.3610747 1028.00371 88.3610747 1028.00371 37.2664138 1122.38182 37.2664138 1134 8"></polygon>
                    <path d="M1287.71116,86 C1264.79691,86 1249.2683,97.345681 1249.2683,115.49639 C1249.2683,153.159105 1306.25446,139.99718 1306.25446,163.593114 C1306.25446,171.760929 1298.86613,176.450255 1286.50451,176.450255 C1275.19815,176.450255 1261.62824,171.004566 1250.77412,161.021675 L1243.09053,176.450255 C1253.94463,186.433146 1269.62265,193.23959 1286.20534,193.23959 C1309.42108,193.23959 1325.9997,181.594592 1325.9997,162.687599 C1326.15003,124.571121 1269.16785,136.972626 1269.16785,113.830463 C1269.16785,106.721435 1275.95306,102.789328 1286.35494,102.789328 C1294.34477,102.789328 1305.80165,105.66202 1317.25879,112.619791 L1324.64321,96.8910514 C1314.84435,90.387047 1301.42956,86 1287.71116,86 L1287.71116,86 Z M1135.80461,86.7554201 L1135.80461,148.769875 C1135.80461,176.449717 1153.28938,193.394684 1181.78145,193.394684 C1210.27349,193.394684 1227.6087,176.449717 1227.6087,148.769875 L1227.6087,86.7554201 L1209.82327,86.7554201 L1209.82327,148.769875 C1209.82327,166.76933 1199.1167,177.360764 1181.93102,177.360764 C1164.59457,177.360764 1153.59003,166.618078 1153.59003,148.769875 L1153.59003,86.7554201 L1135.80461,86.7554201 Z M1107.49851,174.03391 C1102.07147,174.03391 1098,178.116665 1098,183.864371 C1098,189.763355 1102.07147,194 1107.49851,194 C1112.92559,194 1116.99703,189.763355 1116.99703,183.864371 C1116.99703,178.116665 1112.92559,174.03391 1107.49851,174.03391 Z" id="path7182" fill="#FFFFFF"></path>
                    <path d="M537.537987,4 C484.945276,3.99379063 442,47.149215 442,99.9975773 C442,152.845942 484.945302,196.045666 537.537987,196 C538.411603,196 539.267173,196 540.076018,196 C563.369528,196.005065 584.759819,187.523411 601.375416,173.499962 C594.976483,165.385306 589.602153,156.425306 585.48793,146.795808 C573.649261,159.035351 557.170287,166.719301 538.807002,167.059291 C502.354439,166.383444 473.304016,136.797502 473.304016,99.9975773 C473.304016,63.1976192 502.354439,33.6066817 538.807002,32.9308931 C557.386095,33.274833 574.032428,41.139956 585.89937,53.6326995 C590.095749,44.0370786 595.528581,35.1083047 602,27.0431309 C585.296943,12.7000552 563.665437,3.95599674 540.076018,4 C539.20225,4 538.347441,4 537.537987,4 L537.537987,4 Z" id="path9486" fill="#FFFFFF"></path>
                    <g id="g3666" transform="translate(629.000000, 169.000000)" fill="#FFFFFF">
                        <path d="M9.77015647,0.4798 C4.47587,0.787675 0.363021176,10.76665 0.364867026,15.95825 C0.366739412,22.3098 28.3330541,38.9577 63.7765629,38.9577 C99.2200971,38.9577 127.186032,22.3098 127.188284,15.95825 C127.190155,10.59915 122.807823,0.1396 117.267222,0.481325 C116.241192,0.544575 115.174109,0.979025 114.089143,1.88415 C107.145402,7.6769 82.7436859,19.81785 63.7765629,19.817875 C44.8094653,19.8179 20.4077494,7.6769 13.4640082,1.88415 C12.3790424,0.979025 11.3119594,0.54465 10.2859288,0.481325 C10.1129171,0.468825 9.94094235,0.468825 9.77015647,0.479475 L9.77015647,0.4798 Z" id="path7824-4-3-6-6-7-2-1-6-3-31-4-4-6-2-6-53-7-7-3-72-9-4-5-4-6-3-2"></path>
                    </g>
                </g>
                <path d="M17.5327103,296 C20.847352,296 23.834891,295.247664 26.4953271,293.742991 C29.1557632,292.238318 31.2383178,290.155763 32.7429907,287.495327 C34.2476636,284.834891 35,281.825545 35,278.46729 C35,275.109034 34.2476636,272.099688 32.7429907,269.439252 C31.2383178,266.778816 29.1557632,264.707165 26.4953271,263.224299 C23.834891,261.741433 20.847352,261 17.5327103,261 C14.2180685,261 11.2305296,261.741433 8.57009346,263.224299 C5.90965732,264.707165 3.81619938,266.778816 2.28971963,269.439252 C0.763239875,272.099688 0,275.109034 0,278.46729 C0,281.825545 0.763239875,284.834891 2.28971963,287.495327 C3.81619938,290.155763 5.90965732,292.238318 8.57009346,293.742991 C11.2305296,295.247664 14.2180685,296 17.5327103,296 Z M17.5319693,292 C15.1449275,292 13.0029838,291.460976 11.1061381,290.382927 C9.20929241,289.304878 7.7173913,287.772358 6.63043478,285.785366 C5.54347826,283.798374 5,281.536585 5,279 C5,276.463415 5.54347826,274.201626 6.63043478,272.214634 C7.7173913,270.227642 9.20929241,268.695122 11.1061381,267.617073 C13.0029838,266.539024 15.1449275,266 17.5319693,266 C19.9190111,266 22.0609548,266.539024 23.9578005,267.617073 C25.8546462,268.695122 27.3358909,270.227642 28.4015345,272.214634 C29.4671782,274.201626 30,276.463415 30,279 C30,281.536585 29.4671782,283.798374 28.4015345,285.785366 C27.3358909,287.772358 25.8546462,289.304878 23.9578005,290.382927 C22.0609548,291.460976 19.9190111,292 17.5319693,292 Z M49.6622889,308 L49.6622889,288.979282 C51.1069418,291.186464 52.9565353,292.86349 55.2110694,294.010359 C57.4656035,295.157228 59.9937461,295.730663 62.7954972,295.730663 C66.0787992,295.730663 69.0228268,295.005755 71.6275797,293.555939 C74.2323327,292.106123 76.2789243,290.061234 77.7673546,287.421271 C79.2557849,284.781308 80,281.751842 80,278.332873 C80,274.957182 79.2557849,271.949355 77.7673546,269.309392 C76.2789243,266.669429 74.2213884,264.62454 71.5947467,263.174724 C68.9681051,261.724908 66.0350219,261 62.7954972,261 C59.9061914,261 57.3123827,261.605893 55.0140713,262.81768 C52.7157598,264.029466 50.8661664,265.760589 49.4652908,268.01105 L49.4652908,268.01105 L49.4652908,261.259669 L45,261.259669 L45,308 L49.6622889,308 Z M61.5,292 C59.1190476,292 56.982568,291.460976 55.0905612,290.382927 C53.1985544,289.304878 51.7104592,287.772358 50.6262755,285.785366 C49.5420918,283.798374 49,281.536585 49,279 C49,276.463415 49.5420918,274.212195 50.6262755,272.246341 C51.7104592,270.280488 53.1985544,268.747967 55.0905612,267.64878 C56.982568,266.549593 59.1190476,266 61.5,266 C63.8384354,266 65.9642857,266.549593 67.877551,267.64878 C69.7908163,268.747967 71.2895408,270.280488 72.3737245,272.246341 C73.4579082,274.212195 74,276.463415 74,279 C74,281.536585 73.4579082,283.798374 72.3737245,285.785366 C71.2895408,287.772358 69.7908163,289.304878 67.877551,290.382927 C65.9642857,291.460976 63.8384354,292 61.5,292 Z M101.789063,296 C104.496094,296 106.977539,295.520249 109.233398,294.560748 C111.489258,293.601246 113.369141,292.205607 114.873047,290.373832 L114.873047,290.373832 L112.294922,287.364486 C111.005859,288.847352 109.480469,289.970405 107.71875,290.733645 C105.957031,291.496885 104.023438,291.878505 101.917969,291.878505 C98.1796875,291.878505 95.0859375,290.777259 92.6367187,288.574766 C90.1875,286.372274 88.8339844,283.482866 88.5761719,279.906542 L88.5761719,279.906542 L116.935547,279.906542 L117,278.46729 C117,275.065421 116.291016,272.045171 114.873047,269.406542 C113.455078,266.767913 111.5,264.707165 109.007813,263.224299 C106.515625,261.741433 103.701172,261 100.564453,261 C97.4277344,261 94.6025391,261.741433 92.0888672,263.224299 C89.5751953,264.707165 87.5986328,266.778816 86.1591797,269.439252 C84.7197266,272.099688 84,275.109034 84,278.46729 C84,281.825545 84.7519531,284.834891 86.2558594,287.495327 C87.7597656,290.155763 89.8544922,292.238318 92.5400391,293.742991 C95.2255859,295.247664 98.3085937,296 101.789063,296 Z M114,276 L90,276 C90.3002681,272.731429 91.5549598,270.080952 93.7640751,268.048571 C95.9731903,266.01619 98.7077748,265 101.967828,265 C105.270777,265 108.02681,266.01619 110.235925,268.048571 C112.44504,270.080952 113.699732,272.731429 114,276 L114,276 Z M131.694215,296 L131.694215,277.773585 C131.694215,273.855346 132.785124,270.784591 134.966942,268.561321 C137.14876,266.33805 140.112948,265.226415 143.859504,265.226415 C147.209366,265.226415 149.787879,266.172956 151.595041,268.066038 C153.402204,269.959119 154.305785,272.710692 154.305785,276.320755 L154.305785,276.320755 L154.305785,296 L159,296 L159,275.858491 C159,271.015723 157.710744,267.328616 155.132231,264.79717 C152.553719,262.265723 149.082645,261 144.719008,261 C141.721763,261 139.088154,261.583333 136.818182,262.75 C134.548209,263.916667 132.774105,265.556604 131.495868,267.669811 L131.495868,267.669811 L131.495868,261.264151 L127,261.264151 L127,296 L131.694215,296 Z M196.406032,296 C200.665893,296 203.99652,295.116822 206.397912,293.350467 C208.799304,291.584112 210,289.196262 210,286.186916 C210,283.962617 209.436195,282.218069 208.308585,280.953271 C207.180974,279.688474 205.823666,278.794393 204.236659,278.271028 C202.649652,277.747664 200.540603,277.224299 197.909513,276.700935 C195.779582,276.308411 194.109049,275.926791 192.897912,275.556075 C191.686775,275.185358 190.674014,274.607477 189.859629,273.82243 C189.045244,273.037383 188.638051,271.990654 188.638051,270.682243 C188.638051,268.981308 189.358469,267.607477 190.799304,266.560748 C192.240139,265.514019 194.38051,264.990654 197.220418,264.990654 C200.979118,264.990654 204.215777,265.971963 206.930394,267.934579 L206.930394,267.934579 L208.87239,264.205607 C207.4942,263.246106 205.740139,262.471963 203.610209,261.883178 C201.480278,261.294393 199.350348,261 197.220418,261 C193.12761,261 189.932715,261.915888 187.635731,263.747664 C185.338747,265.579439 184.190255,267.934579 184.190255,270.813084 C184.190255,273.124611 184.764501,274.934579 185.912993,276.242991 C187.061485,277.551402 188.450116,278.478193 190.078886,279.023364 C191.707657,279.568536 193.858469,280.102804 196.531323,280.626168 C198.535963,280.975078 200.143852,281.334891 201.354988,281.705607 C202.566125,282.076324 203.568445,282.621495 204.361949,283.341121 C205.155452,284.060748 205.552204,285.05296 205.552204,286.317757 C205.552204,288.105919 204.831787,289.490654 203.390951,290.471963 C201.950116,291.453271 199.726218,291.943925 196.719258,291.943925 C194.464037,291.943925 192.292343,291.584112 190.204176,290.864486 C188.116009,290.14486 186.382831,289.218069 185.00464,288.084112 L185.00464,288.084112 L183,291.747664 C184.37819,292.968847 186.288863,293.982866 188.732019,294.78972 C191.175174,295.596573 193.733179,296 196.406032,296 Z M232.53271,296 C235.847352,296 238.834891,295.247664 241.495327,293.742991 C244.155763,292.238318 246.238318,290.155763 247.742991,287.495327 C249.247664,284.834891 250,281.825545 250,278.46729 C250,275.109034 249.247664,272.099688 247.742991,269.439252 C246.238318,266.778816 244.155763,264.707165 241.495327,263.224299 C238.834891,261.741433 235.847352,261 232.53271,261 C229.218069,261 226.23053,261.741433 223.570093,263.224299 C220.909657,264.707165 218.816199,266.778816 217.28972,269.439252 C215.76324,272.099688 215,275.109034 215,278.46729 C215,281.825545 215.76324,284.834891 217.28972,287.495327 C218.816199,290.155763 220.909657,292.238318 223.570093,293.742991 C226.23053,295.247664 229.218069,296 232.53271,296 Z M233.531969,292 C231.144928,292 229.002984,291.460976 227.106138,290.382927 C225.209292,289.304878 223.717391,287.772358 222.630435,285.785366 C221.543478,283.798374 221,281.536585 221,279 C221,276.463415 221.543478,274.201626 222.630435,272.214634 C223.717391,270.227642 225.209292,268.695122 227.106138,267.617073 C229.002984,266.539024 231.144928,266 233.531969,266 C235.919011,266 238.060955,266.539024 239.957801,267.617073 C241.854646,268.695122 243.335891,270.227642 244.401535,272.214634 C245.467178,274.201626 246,276.463415 246,279 C246,281.536585 245.467178,283.798374 244.401535,285.785366 C243.335891,287.772358 241.854646,289.304878 239.957801,290.382927 C238.060955,291.460976 235.919011,292 233.531969,292 Z M272.903967,296 C275.534447,296 277.872651,295.417765 279.91858,294.253296 C281.964509,293.088826 283.572025,291.451977 284.741127,289.34275 L284.741127,289.34275 L284.741127,295.670433 L289,295.670433 L289,261 L284.553236,261 L284.553236,279.19209 C284.553236,283.146893 283.551148,286.233836 281.546973,288.452919 C279.542797,290.672003 276.807933,291.781544 273.34238,291.781544 C270.169102,291.781544 267.726514,290.836786 266.014614,288.947269 C264.302714,287.057753 263.446764,284.289391 263.446764,280.642185 L263.446764,280.642185 L263.446764,261 L259,261 L259,281.103578 C259,285.981168 260.242171,289.683302 262.726514,292.209981 C265.210856,294.73666 268.60334,296 272.903967,296 Z M307.554717,296 L307.554717,278.301887 C307.554717,274.251572 308.559748,271.103774 310.569811,268.858491 C312.579874,266.613208 315.359748,265.490566 318.909434,265.490566 L318.909434,265.490566 L320,265.556604 L320,261 C316.877987,261 314.258491,261.59434 312.141509,262.783019 C310.024528,263.971698 308.431447,265.732704 307.362264,268.066038 L307.362264,268.066038 L307.362264,261.264151 L303,261.264151 L303,296 L307.554717,296 Z M343.044025,296 C345.853249,296 348.389937,295.422118 350.654088,294.266355 C352.918239,293.110592 354.70021,291.420561 356,289.196262 L356,289.196262 L352.666667,286.841121 C351.57652,288.542056 350.192872,289.806854 348.515723,290.635514 C346.838574,291.464174 345.014675,291.878505 343.044025,291.878505 C340.654088,291.878505 338.505241,291.32243 336.597484,290.21028 C334.689727,289.098131 333.201258,287.528037 332.132075,285.5 C331.062893,283.471963 330.528302,281.127726 330.528302,278.46729 C330.528302,275.850467 331.062893,273.517134 332.132075,271.46729 C333.201258,269.417445 334.689727,267.836449 336.597484,266.724299 C338.505241,265.61215 340.654088,265.056075 343.044025,265.056075 C345.014675,265.056075 346.838574,265.481308 348.515723,266.331776 C350.192872,267.182243 351.57652,268.457944 352.666667,270.158879 L352.666667,270.158879 L356,267.803738 C354.70021,265.579439 352.928721,263.889408 350.685535,262.733645 C348.442348,261.577882 345.895178,261 343.044025,261 C339.773585,261 336.849057,261.741433 334.27044,263.224299 C331.691824,264.707165 329.668763,266.778816 328.201258,269.439252 C326.733753,272.099688 326,275.109034 326,278.46729 C326,281.825545 326.733753,284.845794 328.201258,287.528037 C329.668763,290.21028 331.691824,292.292835 334.27044,293.775701 C336.849057,295.258567 339.773585,296 343.044025,296 Z M379.789063,296 C382.496094,296 384.977539,295.520249 387.233398,294.560748 C389.489258,293.601246 391.369141,292.205607 392.873047,290.373832 L392.873047,290.373832 L390.294922,287.364486 C389.005859,288.847352 387.480469,289.970405 385.71875,290.733645 C383.957031,291.496885 382.023438,291.878505 379.917969,291.878505 C376.179688,291.878505 373.085938,290.777259 370.636719,288.574766 C368.1875,286.372274 366.833984,283.482866 366.576172,279.906542 L366.576172,279.906542 L394.935547,279.906542 L395,278.46729 C395,275.065421 394.291016,272.045171 392.873047,269.406542 C391.455078,266.767913 389.5,264.707165 387.007813,263.224299 C384.515625,261.741433 381.701172,261 378.564453,261 C375.427734,261 372.602539,261.741433 370.088867,263.224299 C367.575195,264.707165 365.598633,266.778816 364.15918,269.439252 C362.719727,272.099688 362,275.109034 362,278.46729 C362,281.825545 362.751953,284.834891 364.255859,287.495327 C365.759766,290.155763 367.854492,292.238318 370.540039,293.742991 C373.225586,295.247664 376.308594,296 379.789063,296 Z M390,276 L366,276 C366.300268,272.731429 367.55496,270.080952 369.764075,268.048571 C371.97319,266.01619 374.707775,265 377.967828,265 C381.270777,265 384.02681,266.01619 386.235925,268.048571 C388.44504,270.080952 389.699732,272.731429 390,276 L390,276 Z M435.044025,296 C437.853249,296 440.389937,295.422118 442.654088,294.266355 C444.918239,293.110592 446.70021,291.420561 448,289.196262 L448,289.196262 L444.666667,286.841121 C443.57652,288.542056 442.192872,289.806854 440.515723,290.635514 C438.838574,291.464174 437.014675,291.878505 435.044025,291.878505 C432.654088,291.878505 430.505241,291.32243 428.597484,290.21028 C426.689727,289.098131 425.201258,287.528037 424.132075,285.5 C423.062893,283.471963 422.528302,281.127726 422.528302,278.46729 C422.528302,275.850467 423.062893,273.517134 424.132075,271.46729 C425.201258,269.417445 426.689727,267.836449 428.597484,266.724299 C430.505241,265.61215 432.654088,265.056075 435.044025,265.056075 C437.014675,265.056075 438.838574,265.481308 440.515723,266.331776 C442.192872,267.182243 443.57652,268.457944 444.666667,270.158879 L444.666667,270.158879 L448,267.803738 C446.70021,265.579439 444.928721,263.889408 442.685535,262.733645 C440.442348,261.577882 437.895178,261 435.044025,261 C431.773585,261 428.849057,261.741433 426.27044,263.224299 C423.691824,264.707165 421.668763,266.778816 420.201258,269.439252 C418.733753,272.099688 418,275.109034 418,278.46729 C418,281.825545 418.733753,284.845794 420.201258,287.528037 C421.668763,290.21028 423.691824,292.292835 426.27044,293.775701 C428.849057,295.258567 431.773585,296 435.044025,296 Z M470.53271,296 C473.847352,296 476.834891,295.247664 479.495327,293.742991 C482.155763,292.238318 484.238318,290.155763 485.742991,287.495327 C487.247664,284.834891 488,281.825545 488,278.46729 C488,275.109034 487.247664,272.099688 485.742991,269.439252 C484.238318,266.778816 482.155763,264.707165 479.495327,263.224299 C476.834891,261.741433 473.847352,261 470.53271,261 C467.218069,261 464.23053,261.741433 461.570093,263.224299 C458.909657,264.707165 456.816199,266.778816 455.28972,269.439252 C453.76324,272.099688 453,275.109034 453,278.46729 C453,281.825545 453.76324,284.834891 455.28972,287.495327 C456.816199,290.155763 458.909657,292.238318 461.570093,293.742991 C464.23053,295.247664 467.218069,296 470.53271,296 Z M471.531969,292 C469.144928,292 467.002984,291.460976 465.106138,290.382927 C463.209292,289.304878 461.717391,287.772358 460.630435,285.785366 C459.543478,283.798374 459,281.536585 459,279 C459,276.463415 459.543478,274.201626 460.630435,272.214634 C461.717391,270.227642 463.209292,268.695122 465.106138,267.617073 C467.002984,266.539024 469.144928,266 471.531969,266 C473.919011,266 476.060955,266.539024 477.957801,267.617073 C479.854646,268.695122 481.335891,270.227642 482.401535,272.214634 C483.467178,274.201626 484,276.463415 484,279 C484,281.536585 483.467178,283.798374 482.401535,285.785366 C481.335891,287.772358 479.854646,289.304878 477.957801,290.382927 C476.060955,291.460976 473.919011,292 471.531969,292 Z M502.580645,296 L502.580645,277.773585 C502.580645,273.855346 503.602151,270.784591 505.645161,268.561321 C507.688172,266.33805 510.451613,265.226415 513.935484,265.226415 C517.075269,265.226415 519.494624,266.172956 521.193548,268.066038 C522.892473,269.959119 523.741935,272.710692 523.741935,276.320755 L523.741935,276.320755 L523.741935,296 L528.322581,296 L528.322581,277.773585 C528.322581,273.855346 529.333333,270.784591 531.354839,268.561321 C533.376344,266.33805 536.150538,265.226415 539.677419,265.226415 C542.774194,265.226415 545.172043,266.172956 546.870968,268.066038 C548.569892,269.959119 549.419355,272.710692 549.419355,276.320755 L549.419355,276.320755 L549.419355,296 L554,296 L554,275.858491 C554,270.971698 552.784946,267.273585 550.354839,264.764151 C547.924731,262.254717 544.580645,261 540.322581,261 C537.311828,261 534.634409,261.649371 532.290323,262.948113 C529.946237,264.246855 528.150538,266.040881 526.903226,268.330189 C525.870968,265.908805 524.311828,264.081761 522.225806,262.849057 C520.139785,261.616352 517.677419,261 514.83871,261 C512.043011,261 509.569892,261.572327 507.419355,262.716981 C505.268817,263.861635 503.591398,265.490566 502.387097,267.603774 L502.387097,267.603774 L502.387097,261.264151 L498,261.264151 L498,296 L502.580645,296 Z M570.580645,296 L570.580645,277.773585 C570.580645,273.855346 571.602151,270.784591 573.645161,268.561321 C575.688172,266.33805 578.451613,265.226415 581.935484,265.226415 C585.075269,265.226415 587.494624,266.172956 589.193548,268.066038 C590.892473,269.959119 591.741935,272.710692 591.741935,276.320755 L591.741935,276.320755 L591.741935,296 L596.322581,296 L596.322581,277.773585 C596.322581,273.855346 597.333333,270.784591 599.354839,268.561321 C601.376344,266.33805 604.150538,265.226415 607.677419,265.226415 C610.774194,265.226415 613.172043,266.172956 614.870968,268.066038 C616.569892,269.959119 617.419355,272.710692 617.419355,276.320755 L617.419355,276.320755 L617.419355,296 L622,296 L622,275.858491 C622,270.971698 620.784946,267.273585 618.354839,264.764151 C615.924731,262.254717 612.580645,261 608.322581,261 C605.311828,261 602.634409,261.649371 600.290323,262.948113 C597.946237,264.246855 596.150538,266.040881 594.903226,268.330189 C593.870968,265.908805 592.311828,264.081761 590.225806,262.849057 C588.139785,261.616352 585.677419,261 582.83871,261 C580.043011,261 577.569892,261.572327 575.419355,262.716981 C573.268817,263.861635 571.591398,265.490566 570.387097,267.603774 L570.387097,267.603774 L570.387097,261.264151 L566,261.264151 L566,296 L570.580645,296 Z M648.903967,296 C651.534447,296 653.872651,295.417765 655.91858,294.253296 C657.964509,293.088826 659.572025,291.451977 660.741127,289.34275 L660.741127,289.34275 L660.741127,295.670433 L665,295.670433 L665,261 L660.553236,261 L660.553236,279.19209 C660.553236,283.146893 659.551148,286.233836 657.546973,288.452919 C655.542797,290.672003 652.807933,291.781544 649.34238,291.781544 C646.169102,291.781544 643.726514,290.836786 642.014614,288.947269 C640.302714,287.057753 639.446764,284.289391 639.446764,280.642185 L639.446764,280.642185 L639.446764,261 L635,261 L635,281.103578 C635,285.981168 636.242171,289.683302 638.726514,292.209981 C641.210856,294.73666 644.60334,296 648.903967,296 Z M682.694215,296 L682.694215,277.773585 C682.694215,273.855346 683.785124,270.784591 685.966942,268.561321 C688.14876,266.33805 691.112948,265.226415 694.859504,265.226415 C698.209366,265.226415 700.787879,266.172956 702.595041,268.066038 C704.402204,269.959119 705.305785,272.710692 705.305785,276.320755 L705.305785,276.320755 L705.305785,296 L710,296 L710,275.858491 C710,271.015723 708.710744,267.328616 706.132231,264.79717 C703.553719,262.265723 700.082645,261 695.719008,261 C692.721763,261 690.088154,261.583333 687.818182,262.75 C685.548209,263.916667 683.774105,265.556604 682.495868,267.669811 L682.495868,267.669811 L682.495868,261.264151 L678,261.264151 L678,296 L682.694215,296 Z M724.5,254 C725.487179,254 726.317308,253.70297 726.990385,253.108911 C727.663462,252.514851 728,251.782178 728,250.910891 C728,250.118812 727.663462,249.435644 726.990385,248.861386 C726.317308,248.287129 725.487179,248 724.5,248 C723.512821,248 722.682692,248.29703 722.009615,248.891089 C721.336538,249.485149 721,250.178218 721,250.970297 C721,251.80198 721.336538,252.514851 722.009615,253.108911 C722.682692,253.70297 723.512821,254 724.5,254 Z M727,295 L727,261 L722,261 L722,295 L727,295 Z M749.888579,296 C751.255339,296 752.568709,295.794118 753.828691,295.382353 C755.088672,294.970588 756.145775,294.374613 757,293.594427 L757,293.594427 L755.398329,290.278638 C754.75766,290.842105 753.999536,291.275542 753.123955,291.578947 C752.248375,291.882353 751.340761,292.034056 750.401114,292.034056 C748.52182,292.034056 747.080316,291.503096 746.076602,290.441176 C745.072888,289.379257 744.571031,287.829721 744.571031,285.79257 L744.571031,285.79257 L744.571031,265.377709 L754.821727,265.377709 L754.821727,261.47678 L744.571031,261.47678 L744.571031,254 L740.022284,254 L740.022284,261.47678 L734,261.47678 L734,265.377709 L740.022284,265.377709 L740.022284,286.052632 C740.022284,289.216718 740.876509,291.665635 742.584958,293.399381 C744.293408,295.133127 746.727948,296 749.888579,296 Z M765.367491,308 C767.938751,308 770.139576,307.330115 771.969965,305.990345 C773.800353,304.650575 775.412839,302.381609 776.80742,299.183448 L776.80742,299.183448 L794,261 L789.424028,261 L776.480565,289.977931 L763.537102,261 L758.699647,261 L774.061837,295.034483 L772.558304,298.34069 C771.599529,300.415172 770.564488,301.884598 769.45318,302.748966 C768.341873,303.613333 767.001767,304.045517 765.432862,304.045517 C762.992344,304.045517 760.900471,303.181149 759.157244,301.452414 L759.157244,301.452414 L757,304.888276 C758.045936,305.925517 759.287986,306.703448 760.726148,307.222069 C762.164311,307.74069 763.711425,308 765.367491,308 Z M830.044025,296 C832.853249,296 835.389937,295.422118 837.654088,294.266355 C839.918239,293.110592 841.70021,291.420561 843,289.196262 L843,289.196262 L839.666667,286.841121 C838.57652,288.542056 837.192872,289.806854 835.515723,290.635514 C833.838574,291.464174 832.014675,291.878505 830.044025,291.878505 C827.654088,291.878505 825.505241,291.32243 823.597484,290.21028 C821.689727,289.098131 820.201258,287.528037 819.132075,285.5 C818.062893,283.471963 817.528302,281.127726 817.528302,278.46729 C817.528302,275.850467 818.062893,273.517134 819.132075,271.46729 C820.201258,269.417445 821.689727,267.836449 823.597484,266.724299 C825.505241,265.61215 827.654088,265.056075 830.044025,265.056075 C832.014675,265.056075 833.838574,265.481308 835.515723,266.331776 C837.192872,267.182243 838.57652,268.457944 839.666667,270.158879 L839.666667,270.158879 L843,267.803738 C841.70021,265.579439 839.928721,263.889408 837.685535,262.733645 C835.442348,261.577882 832.895178,261 830.044025,261 C826.773585,261 823.849057,261.741433 821.27044,263.224299 C818.691824,264.707165 816.668763,266.778816 815.201258,269.439252 C813.733753,272.099688 813,275.109034 813,278.46729 C813,281.825545 813.733753,284.845794 815.201258,287.528037 C816.668763,290.21028 818.691824,292.292835 821.27044,293.775701 C823.849057,295.258567 826.773585,296 830.044025,296 Z M867.53271,296 C870.847352,296 873.834891,295.247664 876.495327,293.742991 C879.155763,292.238318 881.238318,290.155763 882.742991,287.495327 C884.247664,284.834891 885,281.825545 885,278.46729 C885,275.109034 884.247664,272.099688 882.742991,269.439252 C881.238318,266.778816 879.155763,264.707165 876.495327,263.224299 C873.834891,261.741433 870.847352,261 867.53271,261 C864.218069,261 861.23053,261.741433 858.570093,263.224299 C855.909657,264.707165 853.816199,266.778816 852.28972,269.439252 C850.76324,272.099688 850,275.109034 850,278.46729 C850,281.825545 850.76324,284.834891 852.28972,287.495327 C853.816199,290.155763 855.909657,292.238318 858.570093,293.742991 C861.23053,295.247664 864.218069,296 867.53271,296 Z M866.531969,292 C864.144928,292 862.002984,291.460976 860.106138,290.382927 C858.209292,289.304878 856.717391,287.772358 855.630435,285.785366 C854.543478,283.798374 854,281.536585 854,279 C854,276.463415 854.543478,274.201626 855.630435,272.214634 C856.717391,270.227642 858.209292,268.695122 860.106138,267.617073 C862.002984,266.539024 864.144928,266 866.531969,266 C868.919011,266 871.060955,266.539024 872.957801,267.617073 C874.854646,268.695122 876.335891,270.227642 877.401535,272.214634 C878.467178,274.201626 879,276.463415 879,279 C879,281.536585 878.467178,283.798374 877.401535,285.785366 C876.335891,287.772358 874.854646,289.304878 872.957801,290.382927 C871.060955,291.460976 868.919011,292 866.531969,292 Z M897.694215,296 L897.694215,277.773585 C897.694215,273.855346 898.785124,270.784591 900.966942,268.561321 C903.14876,266.33805 906.112948,265.226415 909.859504,265.226415 C913.209366,265.226415 915.787879,266.172956 917.595041,268.066038 C919.402204,269.959119 920.305785,272.710692 920.305785,276.320755 L920.305785,276.320755 L920.305785,296 L925,296 L925,275.858491 C925,271.015723 923.710744,267.328616 921.132231,264.79717 C918.553719,262.265723 915.082645,261 910.719008,261 C907.721763,261 905.088154,261.583333 902.818182,262.75 C900.548209,263.916667 898.774105,265.556604 897.495868,267.669811 L897.495868,267.669811 L897.495868,261.264151 L893,261.264151 L893,296 L897.694215,296 Z M942.600559,295 L942.600559,265.056225 L952.879888,265.056225 L952.879888,261.200803 L942.472067,261.200803 L942.472067,257.216867 C942.472067,255.117805 942.975326,253.532798 943.981844,252.461847 C944.988361,251.390897 946.476723,250.855422 948.446927,250.855422 C950.459963,250.855422 952.130354,251.412316 953.458101,252.526104 L953.458101,252.526104 L955,249.120482 C954.18622,248.435074 953.179702,247.910308 951.980447,247.546185 C950.781192,247.182062 949.539106,247 948.25419,247 C944.999069,247 942.482775,247.899598 940.705307,249.698795 C938.92784,251.497992 938.039106,253.939759 938.039106,257.024096 L938.039106,257.024096 L938.039106,261.200803 L932,261.200803 L932,265.056225 L938.039106,265.056225 L938.039106,295 L942.600559,295 Z M972.789063,296 C975.496094,296 977.977539,295.520249 980.233398,294.560748 C982.489258,293.601246 984.369141,292.205607 985.873047,290.373832 L985.873047,290.373832 L983.294922,287.364486 C982.005859,288.847352 980.480469,289.970405 978.71875,290.733645 C976.957031,291.496885 975.023438,291.878505 972.917969,291.878505 C969.179688,291.878505 966.085938,290.777259 963.636719,288.574766 C961.1875,286.372274 959.833984,283.482866 959.576172,279.906542 L959.576172,279.906542 L987.935547,279.906542 L988,278.46729 C988,275.065421 987.291016,272.045171 985.873047,269.406542 C984.455078,266.767913 982.5,264.707165 980.007813,263.224299 C977.515625,261.741433 974.701172,261 971.564453,261 C968.427734,261 965.602539,261.741433 963.088867,263.224299 C960.575195,264.707165 958.598633,266.778816 957.15918,269.439252 C955.719727,272.099688 955,275.109034 955,278.46729 C955,281.825545 955.751953,284.834891 957.255859,287.495327 C958.759766,290.155763 960.854492,292.238318 963.540039,293.742991 C966.225586,295.247664 969.308594,296 972.789063,296 Z M985,276 L961,276 C961.300268,272.731429 962.55496,270.080952 964.764075,268.048571 C966.97319,266.01619 969.707775,265 972.967828,265 C976.270777,265 979.02681,266.01619 981.235925,268.048571 C983.44504,270.080952 984.699732,272.731429 985,276 L985,276 Z M1002.55472,296 L1002.55472,278.301887 C1002.55472,274.251572 1003.55975,271.103774 1005.56981,268.858491 C1007.57987,266.613208 1010.35975,265.490566 1013.90943,265.490566 L1013.90943,265.490566 L1015,265.556604 L1015,261 C1011.87799,261 1009.25849,261.59434 1007.14151,262.783019 C1005.02453,263.971698 1003.43145,265.732704 1002.36226,268.066038 L1002.36226,268.066038 L1002.36226,261.264151 L998,261.264151 L998,296 L1002.55472,296 Z M1037.78906,296 C1040.49609,296 1042.97754,295.520249 1045.2334,294.560748 C1047.48926,293.601246 1049.36914,292.205607 1050.87305,290.373832 L1050.87305,290.373832 L1048.29492,287.364486 C1047.00586,288.847352 1045.48047,289.970405 1043.71875,290.733645 C1041.95703,291.496885 1040.02344,291.878505 1037.91797,291.878505 C1034.17969,291.878505 1031.08594,290.777259 1028.63672,288.574766 C1026.1875,286.372274 1024.83398,283.482866 1024.57617,279.906542 L1024.57617,279.906542 L1052.93555,279.906542 L1053,278.46729 C1053,275.065421 1052.29102,272.045171 1050.87305,269.406542 C1049.45508,266.767913 1047.5,264.707165 1045.00781,263.224299 C1042.51562,261.741433 1039.70117,261 1036.56445,261 C1033.42773,261 1030.60254,261.741433 1028.08887,263.224299 C1025.5752,264.707165 1023.59863,266.778816 1022.15918,269.439252 C1020.71973,272.099688 1020,275.109034 1020,278.46729 C1020,281.825545 1020.75195,284.834891 1022.25586,287.495327 C1023.75977,290.155763 1025.85449,292.238318 1028.54004,293.742991 C1031.22559,295.247664 1034.30859,296 1037.78906,296 Z M1049,276 L1025,276 C1025.30027,272.731429 1026.55496,270.080952 1028.76408,268.048571 C1030.97319,266.01619 1033.70777,265 1036.96783,265 C1040.27078,265 1043.02681,266.01619 1045.23592,268.048571 C1047.44504,270.080952 1048.69973,272.731429 1049,276 L1049,276 Z M1067.69421,296 L1067.69421,277.773585 C1067.69421,273.855346 1068.78512,270.784591 1070.96694,268.561321 C1073.14876,266.33805 1076.11295,265.226415 1079.8595,265.226415 C1083.20937,265.226415 1085.78788,266.172956 1087.59504,268.066038 C1089.4022,269.959119 1090.30579,272.710692 1090.30579,276.320755 L1090.30579,276.320755 L1090.30579,296 L1095,296 L1095,275.858491 C1095,271.015723 1093.71074,267.328616 1091.13223,264.79717 C1088.55372,262.265723 1085.08264,261 1080.71901,261 C1077.72176,261 1075.08815,261.583333 1072.81818,262.75 C1070.54821,263.916667 1068.7741,265.556604 1067.49587,267.669811 L1067.49587,267.669811 L1067.49587,261.264151 L1063,261.264151 L1063,296 L1067.69421,296 Z M1120.04403,296 C1122.85325,296 1125.38994,295.422118 1127.65409,294.266355 C1129.91824,293.110592 1131.70021,291.420561 1133,289.196262 L1133,289.196262 L1129.66667,286.841121 C1128.57652,288.542056 1127.19287,289.806854 1125.51572,290.635514 C1123.83857,291.464174 1122.01468,291.878505 1120.04403,291.878505 C1117.65409,291.878505 1115.50524,291.32243 1113.59748,290.21028 C1111.68973,289.098131 1110.20126,287.528037 1109.13208,285.5 C1108.06289,283.471963 1107.5283,281.127726 1107.5283,278.46729 C1107.5283,275.850467 1108.06289,273.517134 1109.13208,271.46729 C1110.20126,269.417445 1111.68973,267.836449 1113.59748,266.724299 C1115.50524,265.61215 1117.65409,265.056075 1120.04403,265.056075 C1122.01468,265.056075 1123.83857,265.481308 1125.51572,266.331776 C1127.19287,267.182243 1128.57652,268.457944 1129.66667,270.158879 L1129.66667,270.158879 L1133,267.803738 C1131.70021,265.579439 1129.92872,263.889408 1127.68553,262.733645 C1125.44235,261.577882 1122.89518,261 1120.04403,261 C1116.77358,261 1113.84906,261.741433 1111.27044,263.224299 C1108.69182,264.707165 1106.66876,266.778816 1105.20126,269.439252 C1103.73375,272.099688 1103,275.109034 1103,278.46729 C1103,281.825545 1103.73375,284.845794 1105.20126,287.528037 C1106.66876,290.21028 1108.69182,292.292835 1111.27044,293.775701 C1113.84906,295.258567 1116.77358,296 1120.04403,296 Z M1156.78906,296 C1159.49609,296 1161.97754,295.520249 1164.2334,294.560748 C1166.48926,293.601246 1168.36914,292.205607 1169.87305,290.373832 L1169.87305,290.373832 L1167.29492,287.364486 C1166.00586,288.847352 1164.48047,289.970405 1162.71875,290.733645 C1160.95703,291.496885 1159.02344,291.878505 1156.91797,291.878505 C1153.17969,291.878505 1150.08594,290.777259 1147.63672,288.574766 C1145.1875,286.372274 1143.83398,283.482866 1143.57617,279.906542 L1143.57617,279.906542 L1171.93555,279.906542 L1172,278.46729 C1172,275.065421 1171.29102,272.045171 1169.87305,269.406542 C1168.45508,266.767913 1166.5,264.707165 1164.00781,263.224299 C1161.51562,261.741433 1158.70117,261 1155.56445,261 C1152.42773,261 1149.60254,261.741433 1147.08887,263.224299 C1144.5752,264.707165 1142.59863,266.778816 1141.15918,269.439252 C1139.71973,272.099688 1139,275.109034 1139,278.46729 C1139,281.825545 1139.75195,284.834891 1141.25586,287.495327 C1142.75977,290.155763 1144.85449,292.238318 1147.54004,293.742991 C1150.22559,295.247664 1153.30859,296 1156.78906,296 Z M1168,276 L1144,276 C1144.30027,272.731429 1145.55496,270.080952 1147.76408,268.048571 C1149.97319,266.01619 1152.70777,265 1155.96783,265 C1159.27078,265 1162.02681,266.01619 1164.23592,268.048571 C1166.44504,270.080952 1167.69973,272.731429 1168,276 L1168,276 Z" id="opensourcecommunityconference" fill="#FFFFFF"></path>
            </g>
            <g id="logo" transform="translate(1388.000000, 0.000000)">
                <g id="Group-3">
                    <rect id="Rectangle" stroke="#FFFFFF" stroke-width="3" x="1.28787879" y="1.28787879" width="142.029449" height="152.806586"></rect>
                    <g id="Oval" opacity="0.487699963" transform="translate(30.909091, 20.606061)" fill="#E0DCFF" fill-rule="nonzero">
                        <ellipse id="path-1" cx="204.935492" cy="202.186283" rx="203.575544" ry="201.439121"></ellipse>
                    </g>
                </g>
                <g id="Group-5-Copy-13" transform="translate(121.060606, 105.606061)" fill="#FFFFFF" fill-rule="nonzero">
                    <path d="M0,70.0122027 L0,0 L38.1408482,0 C57.2825465,0 72.799959,15.6727654 72.799959,35.0061012 C72.799959,54.3394372 57.2825465,70.0122027 38.1408482,70.0122027 L38.1408482,70.0122027 L0,70.0122027 Z" id="Combined-Shape"></path>
                    <path d="M0,150.915192 L0,80.9029897 L38.1408482,80.9029897 C57.2825465,80.9029897 72.799959,96.5757551 72.799959,115.909091 C72.799959,135.242427 57.2825465,150.915192 38.1408482,150.915192 L38.1408482,150.915192 L0,150.915192 Z" id="Combined-Shape"></path>
                    <rect id="Rectangle-Copy-14" x="82.0935708" y="0" width="69.7020884" height="70.0122027"></rect>
                    <rect id="Rectangle-Copy-15" x="82.0935708" y="80.9029897" width="69.7020884" height="70.0122027"></rect>
                    <polygon id="Triangle-Copy-4" transform="translate(194.391382, 35.006101) rotate(180.000000) translate(-194.391382, -35.006101) " points="194.391382 -2.57575756e-07 229.242426 70.0122024 159.540338 70.0122024"></polygon>
                    <polygon id="Triangle-Copy-5" transform="translate(194.391382, 115.909091) rotate(180.000000) translate(-194.391382, -115.909091) " points="194.391382 80.9029897 229.242426 150.915192 159.540338 150.915192"></polygon>
                    <path d="M0,231.818182 L0,161.805979 L38.1408482,161.805979 C57.2825465,161.805979 72.799959,177.478745 72.799959,196.812081 C72.799959,216.145416 57.2825465,231.818182 38.1408482,231.818182 L38.1408482,231.818182 L0,231.818182 Z" id="Combined-Shape"></path>
                    <rect id="Rectangle-Copy-18" x="82.0935708" y="161.805979" width="69.7020884" height="70.0122027"></rect>
                    <polygon id="Triangle-Copy-6" transform="translate(194.391382, 196.812081) rotate(180.000000) translate(-194.391382, -196.812081) " points="194.391382 161.805979 229.242426 231.818182 159.540338 231.818182"></polygon>
                </g>
                <polygon id="Triangle" stroke="#FFFFFF" stroke-width="3" points="405.681818 226.666667 502.272727 417.272727 309.090909 417.272727"></polygon>
            </g>
        </g>
    </g>
</svg>