<?xml version="1.0" encoding="UTF-8"?>
<svg width="53px" height="54px" viewBox="0 0 53 54" version="1.1" xmlns="http://www.w3.org/2000/svg" xmlns:xlink="http://www.w3.org/1999/xlink">
    <!-- Generator: Sketch 57.1 (83088) - https://sketch.com -->
    <title>hotel</title>
    <desc>Created with Sketch.</desc>
    <g id="Page-1" stroke="none" stroke-width="1" fill="none" fill-rule="evenodd">
        <g id="landing-page-cz" transform="translate(-1106.000000, -3317.000000)" fill="#FFFFFF" fill-rule="nonzero">
            <g id="how-to-get-here" transform="translate(-1.000000, 3209.000000)">
                <g id="Group-9" transform="translate(958.000000, 52.000000)">
                    <g id="hotel" transform="translate(149.000000, 56.000000)">
                        <path d="M14.8142481,24.46875 L8.37325191,24.46875 C7.86508993,24.46875 7.453125,24.8779957 7.453125,25.3828036 L7.453125,34.5234464 C7.453125,35.0282543 7.86508993,35.4375 8.37325191,35.4375 L14.8142481,35.4375 C15.3224101,35.4375 15.734375,35.0282543 15.734375,34.5234464 L15.734375,25.3828036 C15.734375,24.8779957 15.3224101,24.46875 14.8142481,24.46875 Z M13.8941212,33.6093929 L9.29337881,33.6093929 L9.29337881,26.2968571 L13.8941212,26.2968571 L13.8941212,33.6093929 Z" id="Shape"></path>
                        <path d="M29.7204981,24.46875 L23.2795019,24.46875 C22.7713399,24.46875 22.359375,24.8779957 22.359375,25.3828036 L22.359375,34.5234464 C22.359375,35.0282543 22.7713399,35.4375 23.2795019,35.4375 L29.7204981,35.4375 C30.2286601,35.4375 30.640625,35.0282543 30.640625,34.5234464 L30.640625,25.3828036 C30.640625,24.8779957 30.2286601,24.46875 29.7204981,24.46875 Z M28.8003712,33.6093929 L24.1997367,33.6093929 L24.1997367,26.2968571 L28.8003712,26.2968571 L28.8003712,33.6093929 Z" id="Shape"></path>
                        <path d="M29.7204981,38.8125 L23.2795019,38.8125 C22.7713399,38.8125 22.359375,39.2217457 22.359375,39.7265536 L22.359375,48.8671964 C22.359375,49.3720043 22.7713399,49.78125 23.2795019,49.78125 L29.7204981,49.78125 C30.2286601,49.78125 30.640625,49.3720043 30.640625,48.8671964 L30.640625,39.7265536 C30.640625,39.2218529 30.2286601,38.8125 29.7204981,38.8125 Z M28.8003712,47.9531429 L24.1997367,47.9531429 L24.1997367,40.6406071 L28.8003712,40.6406071 L28.8003712,47.9531429 Z" id="Shape"></path>
                        <path d="M44.6267481,24.46875 L38.1857519,24.46875 C37.6775899,24.46875 37.265625,24.8779957 37.265625,25.3828036 L37.265625,34.5234464 C37.265625,35.0282543 37.6775899,35.4375 38.1857519,35.4375 L44.6267481,35.4375 C45.1349101,35.4375 45.546875,35.0282543 45.546875,34.5234464 L45.546875,25.3828036 C45.546875,24.8779957 45.1349101,24.46875 44.6267481,24.46875 Z M43.7066212,33.6093929 L39.1059867,33.6093929 L39.1059867,26.2968571 L43.7066212,26.2968571 L43.7066212,33.6093929 Z" id="Shape"></path>
                        <path d="M14.8142481,38.8125 L8.37325191,38.8125 C7.86508993,38.8125 7.453125,39.2217457 7.453125,39.7265536 L7.453125,48.8671964 C7.453125,49.3720043 7.86508993,49.78125 8.37325191,49.78125 L14.8142481,49.78125 C15.3224101,49.78125 15.734375,49.3720043 15.734375,48.8671964 L15.734375,39.7265536 C15.734375,39.2218529 15.3224101,38.8125 14.8142481,38.8125 Z M13.8941212,47.9531429 L9.29337881,47.9531429 L9.29337881,40.6406071 L13.8941212,40.6406071 L13.8941212,47.9531429 Z" id="Shape"></path>
                        <path d="M44.6267481,38.8125 L38.1857519,38.8125 C37.6775899,38.8125 37.265625,39.2217457 37.265625,39.7265536 L37.265625,48.8671964 C37.265625,49.3720043 37.6775899,49.78125 38.1857519,49.78125 L44.6267481,49.78125 C45.1349101,49.78125 45.546875,49.3720043 45.546875,48.8671964 L45.546875,39.7265536 C45.546875,39.2218529 45.1349101,38.8125 44.6267481,38.8125 Z M43.7066212,47.9531429 L39.1059867,47.9531429 L39.1059867,40.6406071 L43.7066212,40.6406071 L43.7066212,47.9531429 Z" id="Shape"></path>
                        <path d="M49.4595586,52.200225 L49.4595586,21.6000422 L50.3427539,21.6000422 C50.8305195,21.6000422 51.2259492,21.1970918 51.2259492,20.7000492 L51.2259492,16.2000844 C51.2259492,15.7030419 50.8305195,15.3000914 50.3427539,15.3000914 L49.4595586,15.3000914 L49.4595586,11.7001195 C49.4595586,11.203077 49.0641289,10.8001266 48.5763633,10.8001266 L46.8099727,10.8001266 L46.8099727,0.899992968 C46.8099727,0.402950438 46.414543,0 45.9267773,0 L7.06566602,0 C6.57790039,0 6.1824707,0.402950438 6.1824707,0.899992968 L6.1824707,10.8000211 L4.41608008,10.8000211 C3.92831445,10.8000211 3.53288477,11.2029715 3.53288477,11.7000141 L3.53288477,15.2999859 L2.64968945,15.2999859 C2.16192383,15.2999859 1.76649414,15.7029364 1.76649414,16.1999789 L1.76649414,20.6999437 C1.76649414,21.1969863 2.16192383,21.5999367 2.64968945,21.5999367 L3.53288477,21.5999367 L3.53288477,52.2000141 L0,52.2000141 L0,54 L4.41608008,54 L48.5763633,54 L53,54 L53,52.2000141 L49.4595586,52.2000141 L49.4595586,52.200225 Z M7.94886133,1.79998594 L45.0434785,1.79998594 L45.0434785,10.8000211 L7.94886133,10.8000211 L7.94886133,1.79998594 Z M5.29927539,12.600007 L7.06566602,12.600007 L45.9266738,12.600007 L47.6930645,12.600007 L47.6930645,15.2999859 L5.29927539,15.2999859 L5.29927539,12.600007 Z M47.693168,52.200225 L5.29927539,52.200225 L5.29927539,21.6000422 L47.693168,21.6000422 L47.693168,52.200225 L47.693168,52.200225 Z M4.41608008,19.8000563 L3.53288477,19.8000563 L3.53288477,17.1000774 L4.41608008,17.1000774 L48.5763633,17.1000774 L49.4595586,17.1000774 L49.4595586,19.8000563 L48.5763633,19.8000563 L4.41608008,19.8000563 Z" id="Shape"></path>
                        <path d="M25.4622911,5.15120467 C25.3225341,4.79026023 25.1262359,4.47854495 24.8730873,4.2161629 C24.6200418,3.95378086 24.3155014,3.74791347 23.9596722,3.5987689 C23.60374,3.44962433 23.2097016,3.375 22.7773511,3.375 C22.3450006,3.375 21.9502413,3.44889578 21.5930732,3.59679141 C21.2359051,3.74468704 20.9301289,3.95045035 20.6757445,4.21418541 C20.4213601,4.47792048 20.2243409,4.79026023 20.0845839,5.15130875 C19.944827,5.51225319 19.875,5.90452527 19.875,6.328125 C19.875,6.75172473 19.944827,7.14399681 20.0845839,7.50494125 C20.2243409,7.86588569 20.4213601,8.17822544 20.6757445,8.44206459 C20.9301289,8.70579965 21.2359051,8.91156296 21.5930732,9.05945859 C21.9502413,9.20735422 22.3450006,9.28125 22.7773511,9.28125 C23.2097016,9.28125 23.60374,9.20735422 23.9596722,9.05945859 C24.3156044,8.91166704 24.6200418,8.70579965 24.8730873,8.44206459 C25.1261329,8.17832952 25.3225341,7.86598977 25.4622911,7.50494125 C25.602048,7.14399681 25.671875,6.75172473 25.671875,6.328125 C25.671875,5.90442119 25.601945,5.51214911 25.4622911,5.15120467 Z M24.4558763,7.18115286 C24.3728666,7.43291889 24.2535016,7.64607178 24.0979873,7.82050744 C23.9424729,7.99504718 23.753281,8.12889221 23.5305144,8.2221466 C23.3077478,8.31540098 23.056659,8.36202818 22.7772481,8.36202818 C22.4978372,8.36202818 22.2460275,8.31540098 22.0220251,8.2221466 C21.7979196,8.12889221 21.6074918,7.99504718 21.4506385,7.82050744 C21.2937853,7.6459677 21.1731844,7.43291889 21.0888359,7.18115286 C21.0044874,6.92938683 20.9622617,6.64504421 20.9622617,6.32802092 C20.9622617,6.01099763 21.0044874,5.72665501 21.0888359,5.47488898 C21.1731844,5.22312295 21.2937853,5.00934559 21.4506385,4.83355691 C21.6074918,4.65776823 21.7979196,4.52319465 22.0220251,4.42994026 C22.2461305,4.33668587 22.4978372,4.29005868 22.7772481,4.29005868 C23.056659,4.29005868 23.3077478,4.33668587 23.5305144,4.42994026 C23.753281,4.52319465 23.9423699,4.65776823 24.0979873,4.83355691 C24.2535016,5.00934559 24.3727637,5.22312295 24.4558763,5.47488898 C24.5388859,5.72665501 24.5803908,6.01099763 24.5803908,6.32802092 C24.5803908,6.64504421 24.5389889,6.92938683 24.4558763,7.18115286 Z" id="Shape"></path>
                        <polygon id="Path" points="17.9431444 3.375 17.9431444 5.91556624 15.1818556 5.91556624 15.1818556 3.375 14.078125 3.375 14.078125 9.28125 15.1818556 9.28125 15.1818556 6.69983215 17.9431444 6.69983215 17.9431444 9.28125 19.046875 9.28125 19.046875 3.375"></polygon>
                        <polygon id="Path" points="35.8321058 8.37442924 35.8321058 3.375 34.78125 3.375 34.78125 9.28125 38.09375 9.28125 38.09375 8.37442924"></polygon>
                        <polygon id="Path" points="25.671875 3.375 25.671875 4.27767177 27.574967 4.27767177 27.574967 9.28125 28.7463798 9.28125 28.7463798 4.27767177 30.640625 4.27767177 30.640625 3.375"></polygon>
                        <polygon id="Path" points="33.953125 4.24905436 33.953125 3.375 30.640625 3.375 30.640625 9.28125 33.953125 9.28125 33.953125 8.40304665 31.624934 8.40304665 31.624934 6.73249216 33.4591258 6.73249216 33.4591258 5.88694883 31.624934 5.88694883 31.624934 4.24905436"></polygon>
                    </g>
                </g>
            </g>
        </g>
    </g>
</svg>