<?xml version="1.0" encoding="UTF-8" standalone="no"?>
<svg
   width="44"
   height="44"
   viewBox="0 0 44 44"
   version="1.1"
   id="svg13"
   sodipodi:docname="fosstodon.svg"
   inkscape:version="1.2.2 (b0a8486541, 2022-12-01)"
   xml:space="preserve"
   xmlns:inkscape="http://www.inkscape.org/namespaces/inkscape"
   xmlns:sodipodi="http://sodipodi.sourceforge.net/DTD/sodipodi-0.dtd"
   xmlns="http://www.w3.org/2000/svg"
   xmlns:svg="http://www.w3.org/2000/svg"
   xmlns:rdf="http://www.w3.org/1999/02/22-rdf-syntax-ns#"
   xmlns:cc="http://creativecommons.org/ns#"
   xmlns:dc="http://purl.org/dc/elements/1.1/"><metadata
     id="metadata19"><rdf:RDF><cc:Work
         rdf:about=""><dc:format>image/svg+xml</dc:format><dc:type
           rdf:resource="http://purl.org/dc/dcmitype/StillImage" /><dc:title>instagram</dc:title></cc:Work></rdf:RDF></metadata><sodipodi:namedview
     pagecolor="#ffffff"
     bordercolor="#666666"
     borderopacity="1"
     objecttolerance="10"
     gridtolerance="10"
     guidetolerance="10"
     inkscape:pageopacity="0"
     inkscape:pageshadow="2"
     inkscape:window-width="1920"
     inkscape:window-height="1011"
     id="namedview15"
     showgrid="false"
     inkscape:zoom="8.6089723"
     inkscape:cx="17.01713"
     inkscape:cy="20.443787"
     inkscape:window-x="0"
     inkscape:window-y="0"
     inkscape:window-maximized="1"
     inkscape:current-layer="svg13"
     inkscape:showpageshadow="2"
     inkscape:pagecheckerboard="true"
     inkscape:deskcolor="#d1d1d1"><inkscape:page
       x="0"
       y="0"
       width="44"
       height="44"
       id="page2"
       margin="0"
       bleed="0" /></sodipodi:namedview><!-- Generator: Sketch 57.1 (83088) - https://sketch.com --><title
     id="title2">instagram</title><desc
     id="desc4">Created with Sketch.</desc><g
     id="Page-1"
     stroke="none"
     stroke-width="1"
     fill="none"
     fill-rule="evenodd"
     style="fill:none"><g
       id="social-copy-3"
       transform="translate(0,-201)"
       style="fill:none"><g
         id="Group-4"
         style="fill:none"><g
           id="instagram"
           transform="translate(0,201)"
           style="fill:none"><rect
             id="Rectangle-Copy-22"
             x="0"
             y="0"
             width="44"
             height="44"
             style="fill:none" /><path
             clip-rule="evenodd"
             d="m 29.629169,15.771112 c 0,0.773438 -0.627027,1.400283 -1.400282,1.400283 -0.773255,0 -1.400283,-0.626845 -1.400283,-1.400283 0,-0.773437 0.627028,-1.400282 1.400283,-1.400282 0.773437,0 1.400282,0.626845 1.400282,1.400282 z m -7.62917,10.1185 c -2.148193,0 -3.889613,-1.741419 -3.889613,-3.889613 0,-2.148193 1.74142,-3.889613 3.889613,-3.889613 2.148194,0 3.889613,1.74142 3.889613,3.889613 0,2.148194 -1.741419,3.889613 -3.889613,3.889613 z m 0,-9.881837 c -3.309443,0 -5.992224,2.682781 -5.992224,5.992224 0,3.309444 2.682781,5.992225 5.992224,5.992225 3.309444,0 5.992225,-2.682781 5.992225,-5.992225 0,-3.309443 -2.682781,-5.992224 -5.992225,-5.992224 z m 0,-3.574185 c 3.115811,0 3.484844,0.01185 4.715197,0.06801 1.137729,0.05196 1.75564,0.24195 2.166791,0.401852 0.544615,0.211684 0.93334,0.464573 1.341755,0.872989 0.408416,0.408233 0.661306,0.796958 0.872989,1.341755 0.15972,0.411151 0.349888,1.029062 0.401852,2.166791 0.05616,1.230535 0.06801,1.599568 0.06801,4.715379 0,3.115811 -0.01185,3.484844 -0.06801,4.715196 -0.05196,1.13773 -0.24195,1.755641 -0.401852,2.166792 -0.211683,0.544615 -0.464573,0.933339 -0.872989,1.341755 -0.408233,0.408416 -0.796957,0.661305 -1.341755,0.872989 -0.411151,0.159719 -1.029062,0.349888 -2.166791,0.401852 -1.230353,0.05616 -1.599386,0.06801 -4.715197,0.06801 -3.115993,0 -3.485026,-0.01185 -4.715378,-0.06801 -1.13773,-0.05196 -1.755641,-0.24195 -2.166792,-0.401852 -0.544615,-0.211684 -0.933339,-0.464573 -1.341755,-0.872989 -0.408233,-0.408233 -0.661305,-0.796958 -0.872988,-1.341755 -0.15972,-0.411151 -0.349889,-1.029062 -0.401852,-2.166792 -0.05616,-1.230534 -0.06801,-1.599567 -0.06801,-4.715196 0,-3.115811 0.01185,-3.484844 0.06801,-4.715379 0.05196,-1.137729 0.24195,-1.75564 0.401852,-2.166791 0.211683,-0.544615 0.464573,-0.933339 0.872988,-1.341755 0.408234,-0.408416 0.796958,-0.661305 1.341755,-0.872989 0.411151,-0.159719 1.029062,-0.349888 2.166792,-0.401852 1.230535,-0.05616 1.599567,-0.06801 4.715378,-0.06801 z m 0,-2.102612 c -3.169051,0 -3.566527,0.01349 -4.811101,0.0702 -1.242021,0.05671 -2.090395,0.253984 -2.832472,0.542428 -0.767421,0.298107 -1.418151,0.697224 -2.066876,1.345948 -0.648724,0.648725 -1.047841,1.299455 -1.345948,2.066876 -0.288444,0.742259 -0.485723,1.590451 -0.542428,2.832472 -0.0567,1.244574 -0.0702,1.64205 -0.0702,4.811101 0,3.169051 0.01349,3.566527 0.0702,4.811102 0.05671,1.242021 0.253984,2.090213 0.542428,2.832472 0.298107,0.767421 0.697224,1.418151 1.345948,2.066876 0.648725,0.648724 1.299455,1.047659 2.066876,1.345948 0.742259,0.288444 1.590451,0.485723 2.832472,0.542427 1.244574,0.05671 1.64205,0.0702 4.811101,0.0702 3.169051,0 3.566527,-0.01349 4.811102,-0.0702 1.242021,-0.0567 2.090213,-0.253983 2.832472,-0.542427 0.767421,-0.298289 1.418151,-0.697224 2.066876,-1.345948 0.648724,-0.648725 1.047659,-1.299455 1.345948,-2.066876 0.288444,-0.742259 0.485723,-1.590451 0.542427,-2.832472 0.05671,-1.244575 0.0702,-1.642051 0.0702,-4.811102 0,-3.169051 -0.01349,-3.566527 -0.0702,-4.811101 -0.0567,-1.242021 -0.253983,-2.090213 -0.542427,-2.832472 -0.298289,-0.767421 -0.697224,-1.418151 -1.345948,-2.066876 -0.648725,-0.648724 -1.299455,-1.047659 -2.066876,-1.345948 -0.742259,-0.288444 -1.590451,-0.485723 -2.832472,-0.542428 -1.244575,-0.0567 -1.642051,-0.0702 -4.811102,-0.0702 z"
             fill="#FFFFFF"
             fill-rule="evenodd"
             id="Instagram"
              /><circle
             id="Oval"
             stroke="#ffffff"
             stroke-width="2"
             cx="22"
             cy="22"
             r="21"
             style="fill:none" /></g></g></g></g><style
     id="style844">.st0{fill:#FFFFFF;}</style><rect
     clip-rule="evenodd"
     fill="none"
     fill-rule="evenodd"
     height="23.338043"
     width="23.338043"
     id="rect1"
     x="10.330978"
     y="10.330978"
     style="stroke-width:0.182328" /></svg>
