<?xml version="1.0" encoding="UTF-8" standalone="no"?>
<svg
   width="44px"
   height="44px"
   viewBox="0 0 44 44"
   version="1.1"
   id="svg13"
   sodipodi:docname="linkedin.svg"
   inkscape:version="1.3 (0e150ed6c4, 2023-07-21)"
   xmlns:inkscape="http://www.inkscape.org/namespaces/inkscape"
   xmlns:sodipodi="http://sodipodi.sourceforge.net/DTD/sodipodi-0.dtd"
   xmlns="http://www.w3.org/2000/svg"
   xmlns:svg="http://www.w3.org/2000/svg"
   xmlns:rdf="http://www.w3.org/1999/02/22-rdf-syntax-ns#"
   xmlns:cc="http://creativecommons.org/ns#"
   xmlns:dc="http://purl.org/dc/elements/1.1/">
  <metadata
     id="metadata19">
    <rdf:RDF>
      <cc:Work
         rdf:about="">
        <dc:format>image/svg+xml</dc:format>
        <dc:type
           rdf:resource="http://purl.org/dc/dcmitype/StillImage" />
        <dc:title>telegram</dc:title>
      </cc:Work>
    </rdf:RDF>
  </metadata>
  <defs
     id="defs17" />
  <sodipodi:namedview
     pagecolor="#ffffff"
     bordercolor="#666666"
     borderopacity="1"
     objecttolerance="10"
     gridtolerance="10"
     guidetolerance="10"
     inkscape:pageopacity="0"
     inkscape:pageshadow="2"
     inkscape:window-width="1717"
     inkscape:window-height="885"
     id="namedview15"
     showgrid="false"
     inkscape:zoom="14.588295"
     inkscape:cx="29.235768"
     inkscape:cy="26.014007"
     inkscape:window-x="1728"
     inkscape:window-y="32"
     inkscape:window-maximized="0"
     inkscape:current-layer="svg13"
     inkscape:showpageshadow="2"
     inkscape:pagecheckerboard="0"
     inkscape:deskcolor="#d1d1d1" />
  <!-- Generator: Sketch 57.1 (83088) - https://sketch.com -->
  <title
     id="title2">telegram</title>
  <desc
     id="desc4">Created with Sketch.</desc>
  <g
     id="Page-1"
     stroke="none"
     stroke-width="1"
     fill="none"
     fill-rule="evenodd"
     style="fill:none">
    <g
       id="social-copy-3"
       transform="translate(0,-201)"
       style="fill:none">
      <g
         id="Group-4"
         style="fill:none">
        <g
           id="telegram"
           transform="translate(0,201)"
           style="fill:none">
          <rect
             id="Rectangle-Copy-22"
             x="0"
             y="0"
             width="44"
             height="44"
             style="fill:none" />
          <path
             d="m 10.870936,21.625111 4.83882,1.806 1.87292,6.02329 c 0.11984,0.38577 0.59157,0.52836 0.90468,0.272371 l 2.69724,-2.198841 c 0.28273,-0.23037 0.68544,-0.241849 0.98091,-0.02737 l 4.86486,3.53199 c 0.33495,0.24346 0.80948,0.05992 0.89348,-0.344819 l 3.56377,-17.14237 c 0.0917,-0.442121 -0.34272,-0.81095 -0.7637,-0.64813 l -19.85865,7.660869 c -0.49007,0.189 -0.4858,0.88284 0.0057,1.06701 z m 6.4099,0.844621 9.45686,-5.824491 c 0.16996,-0.104369 0.34482,0.12544 0.19887,0.26082 l -7.80465,7.2548 c -0.27433,0.25536 -0.45129,0.5971 -0.50141,0.968031 l -0.26586,1.970219 c -0.03521,0.26306 -0.40474,0.289171 -0.47733,0.03458 l -1.02249,-3.59275 c -0.11711,-0.40978 0.05355,-0.84749 0.41601,-1.071209 z"
             id="XMLID_497_"
             fill="#ffffff"
             fill-rule="nonzero"
             style="fill:none" />
          <circle
             id="Oval"
             stroke="#ffffff"
             stroke-width="2"
             cx="22"
             cy="22"
             r="21"
             style="fill:none" />
        </g>
      </g>
    </g>
  </g>
  <style
     id="style844">.st0{fill:#FFFFFF;}</style>
  <path
     d="m 33.819774,24.55543 v 8.739543 h -5.065955 v -8.15564 c 0,-2.04719 -0.732818,-3.444284 -2.567248,-3.444284 -1.399473,0 -2.233935,0.94085 -2.600352,1.853339 -0.132447,0.326221 -0.167838,0.780102 -0.167838,1.233983 v 8.512602 h -5.068318 c 0,0 0.0686,-13.810224 0,-15.240407 h 5.068318 v 2.158289 l -0.03315,0.04957 h 0.03315 v -0.04727 c 0.673715,-1.040147 1.87461,-2.519979 4.567153,-2.519979 3.333169,0 5.83424,2.179561 5.83424,6.860191 z M 13.047714,10.705027 c -1.732785,0 -2.867487,1.139429 -2.867487,2.633441 0,1.46565 1.101613,2.635819 2.801294,2.635819 h 0.03315 c 1.768239,0 2.867487,-1.172532 2.867487,-2.635819 -0.03315,-1.494012 -1.099249,-2.633441 -2.834383,-2.633441 z m -2.567263,22.589946 h 5.068318 V 18.054566 h -5.068318 z"
     id="path1"
     style="stroke-width:2.36396;fill:#ffffff" />
</svg>
