<?xml version="1.0" encoding="UTF-8" standalone="no"?>
<svg
   width="44"
   height="44"
   viewBox="0 0 44 44"
   version="1.1"
   id="svg13"
   sodipodi:docname="matrix.svg"
   inkscape:version="1.2.2 (b0a8486541, 2022-12-01)"
   xml:space="preserve"
   xmlns:inkscape="http://www.inkscape.org/namespaces/inkscape"
   xmlns:sodipodi="http://sodipodi.sourceforge.net/DTD/sodipodi-0.dtd"
   xmlns="http://www.w3.org/2000/svg"
   xmlns:svg="http://www.w3.org/2000/svg"
   xmlns:rdf="http://www.w3.org/1999/02/22-rdf-syntax-ns#"
   xmlns:cc="http://creativecommons.org/ns#"
   xmlns:dc="http://purl.org/dc/elements/1.1/"><metadata
     id="metadata19"><rdf:RDF><cc:Work
         rdf:about=""><dc:format>image/svg+xml</dc:format><dc:type
           rdf:resource="http://purl.org/dc/dcmitype/StillImage" /><dc:title>telegram</dc:title></cc:Work></rdf:RDF></metadata><defs
     id="defs17" /><sodipodi:namedview
     pagecolor="#ffffff"
     bordercolor="#666666"
     borderopacity="1"
     objecttolerance="10"
     gridtolerance="10"
     guidetolerance="10"
     inkscape:pageopacity="0"
     inkscape:pageshadow="2"
     inkscape:window-width="1920"
     inkscape:window-height="1011"
     id="namedview15"
     showgrid="false"
     inkscape:zoom="8.6089723"
     inkscape:cx="-6.5048415"
     inkscape:cy="20.443787"
     inkscape:window-x="0"
     inkscape:window-y="0"
     inkscape:window-maximized="1"
     inkscape:current-layer="svg13"
     inkscape:showpageshadow="2"
     inkscape:pagecheckerboard="true"
     inkscape:deskcolor="#d1d1d1" /><!-- Generator: Sketch 57.1 (83088) - https://sketch.com --><title
     id="title2">telegram</title><desc
     id="desc4">Created with Sketch.</desc><g
     id="Page-1"
     stroke="none"
     stroke-width="1"
     fill="none"
     fill-rule="evenodd"
     style="fill:none"><g
       id="social-copy-3"
       transform="translate(0,-201)"
       style="fill:none"><g
         id="Group-4"
         style="fill:none"><g
           id="telegram"
           transform="translate(0,201)"
           style="fill:none"><rect
             id="Rectangle-Copy-22"
             x="0"
             y="0"
             width="44"
             height="44"
             style="fill:none" /><path
             d="m 10.870936,21.625111 4.83882,1.806 1.87292,6.02329 c 0.11984,0.38577 0.59157,0.52836 0.90468,0.272371 l 2.69724,-2.198841 c 0.28273,-0.23037 0.68544,-0.241849 0.98091,-0.02737 l 4.86486,3.53199 c 0.33495,0.24346 0.80948,0.05992 0.89348,-0.344819 l 3.56377,-17.14237 c 0.0917,-0.442121 -0.34272,-0.81095 -0.7637,-0.64813 l -19.85865,7.660869 c -0.49007,0.189 -0.4858,0.88284 0.0057,1.06701 z m 6.4099,0.844621 9.45686,-5.824491 c 0.16996,-0.104369 0.34482,0.12544 0.19887,0.26082 l -7.80465,7.2548 c -0.27433,0.25536 -0.45129,0.5971 -0.50141,0.968031 l -0.26586,1.970219 c -0.03521,0.26306 -0.40474,0.289171 -0.47733,0.03458 l -1.02249,-3.59275 c -0.11711,-0.40978 0.05355,-0.84749 0.41601,-1.071209 z"
             id="XMLID_497_"
             fill="#ffffff"
             fill-rule="nonzero"
             style="fill:none" /><circle
             id="Oval"
             stroke="#ffffff"
             stroke-width="2"
             cx="22"
             cy="22"
             r="21"
             style="fill:none" /></g></g></g></g><style
     id="style844">.st0{fill:#FFFFFF;}</style><g
     transform="matrix(2.5587031,0,0,2.5587031,-6.4916651,-83.683158)"
     fill="#040404"
     id="g10"><g
       id="g892"
       transform="matrix(0.28142391,0,0,0.28142391,7.1901974,36.810194)"><path
         d="M 27.1,31.2 V 0.7 h -2.19 v -0.732 h 3.04 v 32 h -3.04 v -0.732 z"
         id="path4"
         style="fill:#ffffff" /><path
         d="m 8.23,10.4 v 1.54 h 0.044 c 0.385,-0.564 0.893,-1.03 1.49,-1.37 0.58,-0.323 1.25,-0.485 1.99,-0.485 0.72,0 1.38,0.14 1.97,0.42 0.595,0.279 1.05,0.771 1.36,1.48 0.338,-0.5 0.796,-0.941 1.38,-1.32 0.58,-0.383 1.27,-0.574 2.06,-0.574 0.602,0 1.16,0.074 1.67,0.22 0.514,0.148 0.954,0.383 1.32,0.707 0.366,0.323 0.653,0.746 0.859,1.27 0.205,0.522 0.308,1.15 0.308,1.89 v 7.63 h -3.13 v -6.46 c 0,-0.383 -0.015,-0.743 -0.044,-1.08 -0.0209,-0.307 -0.103,-0.607 -0.242,-0.882 -0.133,-0.251 -0.336,-0.458 -0.584,-0.596 -0.257,-0.146 -0.606,-0.22 -1.05,-0.22 -0.44,0 -0.796,0.085 -1.07,0.253 -0.272,0.17 -0.485,0.39 -0.639,0.662 -0.159,0.287 -0.264,0.602 -0.308,0.927 -0.052,0.347 -0.078,0.697 -0.078,1.05 v 6.35 h -3.13 v -6.4 c 0,-0.338 -0.007,-0.673 -0.021,-1 -0.0114,-0.314 -0.0749,-0.623 -0.188,-0.916 -0.108,-0.277 -0.3,-0.512 -0.55,-0.673 -0.258,-0.168 -0.636,-0.253 -1.14,-0.253 -0.198,0.0083 -0.394,0.042 -0.584,0.1 -0.258,0.0745 -0.498,0.202 -0.705,0.374 -0.228,0.184 -0.422,0.449 -0.584,0.794 -0.161,0.346 -0.242,0.798 -0.242,1.36 v 6.62 h -3.13 v -11.4 z"
         id="path6"
         style="fill:#ffffff" /><path
         d="m 0.936,0.732 v 30.5 h 2.19 v 0.732 h -3.04 v -32 h 3.03 v 0.732 z"
         id="path8"
         style="fill:#ffffff" /></g></g></svg>
