<?xml version="1.0" encoding="UTF-8" standalone="no"?>
<svg
   width="44px"
   height="44px"
   viewBox="0 0 44 44"
   version="1.1"
   id="svg13"
   sodipodi:docname="twitter.svg"
   inkscape:version="1.3 (0e150ed6c4, 2023-07-21)"
   xmlns:inkscape="http://www.inkscape.org/namespaces/inkscape"
   xmlns:sodipodi="http://sodipodi.sourceforge.net/DTD/sodipodi-0.dtd"
   xmlns="http://www.w3.org/2000/svg"
   xmlns:svg="http://www.w3.org/2000/svg"
   xmlns:rdf="http://www.w3.org/1999/02/22-rdf-syntax-ns#"
   xmlns:cc="http://creativecommons.org/ns#"
   xmlns:dc="http://purl.org/dc/elements/1.1/">
  <metadata
     id="metadata19">
    <rdf:RDF>
      <cc:Work
         rdf:about="">
        <dc:format>image/svg+xml</dc:format>
        <dc:type
           rdf:resource="http://purl.org/dc/dcmitype/StillImage" />
        <dc:title>telegram</dc:title>
      </cc:Work>
    </rdf:RDF>
  </metadata>
  <defs
     id="defs17" />
  <sodipodi:namedview
     pagecolor="#ffffff"
     bordercolor="#666666"
     borderopacity="1"
     objecttolerance="10"
     gridtolerance="10"
     guidetolerance="10"
     inkscape:pageopacity="0"
     inkscape:pageshadow="2"
     inkscape:window-width="1717"
     inkscape:window-height="885"
     id="namedview15"
     showgrid="false"
     inkscape:zoom="10.315482"
     inkscape:cx="17.691853"
     inkscape:cy="30.197328"
     inkscape:window-x="1728"
     inkscape:window-y="32"
     inkscape:window-maximized="0"
     inkscape:current-layer="svg13"
     inkscape:showpageshadow="2"
     inkscape:pagecheckerboard="0"
     inkscape:deskcolor="#d1d1d1" />
  <!-- Generator: Sketch 57.1 (83088) - https://sketch.com -->
  <title
     id="title2">telegram</title>
  <desc
     id="desc4">Created with Sketch.</desc>
  <g
     id="Page-1"
     stroke="none"
     stroke-width="1"
     fill="none"
     fill-rule="evenodd"
     style="fill:none">
    <g
       id="social-copy-3"
       transform="translate(0,-201)"
       style="fill:none">
      <g
         id="Group-4"
         style="fill:none">
        <g
           id="telegram"
           transform="translate(0,201)"
           style="fill:none">
          <rect
             id="Rectangle-Copy-22"
             x="0"
             y="0"
             width="44"
             height="44"
             style="fill:none" />
          <path
             d="m 10.870936,21.625111 4.83882,1.806 1.87292,6.02329 c 0.11984,0.38577 0.59157,0.52836 0.90468,0.272371 l 2.69724,-2.198841 c 0.28273,-0.23037 0.68544,-0.241849 0.98091,-0.02737 l 4.86486,3.53199 c 0.33495,0.24346 0.80948,0.05992 0.89348,-0.344819 l 3.56377,-17.14237 c 0.0917,-0.442121 -0.34272,-0.81095 -0.7637,-0.64813 l -19.85865,7.660869 c -0.49007,0.189 -0.4858,0.88284 0.0057,1.06701 z m 6.4099,0.844621 9.45686,-5.824491 c 0.16996,-0.104369 0.34482,0.12544 0.19887,0.26082 l -7.80465,7.2548 c -0.27433,0.25536 -0.45129,0.5971 -0.50141,0.968031 l -0.26586,1.970219 c -0.03521,0.26306 -0.40474,0.289171 -0.47733,0.03458 l -1.02249,-3.59275 c -0.11711,-0.40978 0.05355,-0.84749 0.41601,-1.071209 z"
             id="XMLID_497_"
             fill="#ffffff"
             fill-rule="nonzero"
             style="fill:none" />
          <circle
             id="Oval"
             stroke="#ffffff"
             stroke-width="2"
             cx="22"
             cy="22"
             r="21"
             style="fill:none" />
        </g>
      </g>
    </g>
  </g>
  <g
     id="layer1"
     transform="matrix(0.04017388,0,0,0.04017388,-9.411555,-3.5367277)"
     style="fill:#ffffff">&#10;	<path
   id="path1009"
   class="st0"
   d="M 485.39,356.79 715.46,664.41 483.94,914.52 h 52.11 l 202.7,-218.98 163.77,218.98 h 177.32 L 836.82,589.6 1052.32,356.79 h -52.11 L 813.54,558.46 662.71,356.79 Z m 76.63,38.38 h 81.46 l 359.72,480.97 h -81.46 z"
   style="fill:#ffffff" />
&#10;</g>
  <style
     id="style844">.st0{fill:#FFFFFF;}</style>
</svg>
