<?xml version="1.0" standalone="no"?>
<!DOCTYPE svg PUBLIC "-//W3C//DTD SVG 20010904//EN"
 "http://www.w3.org/TR/2001/REC-SVG-20010904/DTD/svg10.dtd">
<svg version="1.0" xmlns="http://www.w3.org/2000/svg"
 width="817.000000pt" height="817.000000pt" viewBox="0 0 817.000000 817.000000"
 preserveAspectRatio="xMidYMid meet">
<metadata>
Created by potrace 1.11, written by Peter Selinger 2001-2013
</metadata>
<g transform="translate(0.000000,817.000000) scale(0.100000,-0.100000)"
fill="#000000" stroke="none">
<path d="M3790 8163 c-263 -25 -463 -58 -660 -108 -1111 -279 -2049 -1025
-2559 -2034 -223 -441 -351 -866 -413 -1371 -21 -166 -17 -720 5 -895 113
-883 488 -1663 1098 -2289 81 -83 189 -187 241 -230 l94 -79 -18 -66 c-9 -36
-17 -98 -17 -137 -1 -60 3 -76 27 -115 42 -65 146 -158 274 -242 465 -309
1166 -528 1873 -587 177 -14 555 -12 750 5 721 63 1491 323 1915 645 85 65
170 151 194 198 21 41 20 147 -2 233 l-18 66 94 79 c52 43 160 147 241 230
649 665 1030 1504 1112 2444 15 174 6 633 -16 790 -70 510 -193 907 -419 1345
-185 361 -413 673 -711 971 -303 303 -617 531 -1005 728 -450 228 -912 363
-1409 411 -138 13 -566 19 -671 8z m1115 -2045 c6 -4 98 -225 205 -492 106
-267 197 -486 200 -486 3 0 94 219 200 486 107 268 199 488 205 490 6 3 90 3
187 2 l177 -3 -308 -766 c-169 -421 -311 -770 -315 -777 -10 -16 -282 -17
-292 -1 -4 7 -118 289 -255 628 l-248 616 -340 3 -341 2 0 -165 0 -165 223 0
224 0 52 -132 c29 -73 55 -139 58 -145 4 -10 -55 -13 -276 -13 l-281 0 0 -165
0 -165 348 0 347 0 58 -148 c32 -81 57 -150 57 -154 0 -5 -259 -8 -575 -8
l-575 0 0 780 0 780 448 3 c593 4 805 3 817 -5z m-1994 -13 c341 -59 551 -253
615 -565 21 -104 15 -342 -11 -435 -31 -114 -89 -217 -169 -301 -84 -90 -153
-135 -268 -176 -138 -49 -226 -59 -555 -65 l-303 -6 0 782 0 781 304 0 c222 0
326 -4 387 -15z m828 -1816 c452 -113 726 -593 596 -1043 -82 -281 -286 -487
-575 -578 -66 -20 -95 -23 -235 -23 -154 0 -163 2 -255 33 -227 79 -389 219
-490 427 -60 123 -79 192 -86 320 -27 441 287 824 727 885 86 12 226 3 318
-21z m-1304 -24 c81 -22 232 -96 278 -137 l38 -33 -36 -50 c-20 -27 -50 -76
-66 -107 l-29 -58 -54 44 c-95 77 -228 126 -347 126 -76 0 -199 -33 -268 -72
-31 -17 -86 -61 -122 -97 -255 -254 -210 -674 94 -876 103 -69 250 -103 362
-85 118 19 177 43 272 113 l61 46 13 -31 c7 -17 34 -64 61 -105 26 -40 48 -77
48 -82 0 -12 -114 -85 -181 -115 -106 -49 -203 -68 -339 -68 -152 0 -243 21
-375 87 -200 99 -357 292 -417 512 -33 120 -30 307 6 428 92 306 346 528 661
579 59 9 280 -3 340 -19z m2760 -596 l450 -580 3 581 2 580 130 0 130 0 0
-780 0 -781 -142 3 -141 3 -441 568 -441 569 -3 -571 -2 -571 -130 0 -130 0 0
780 0 780 133 0 132 -1 450 -580z m2065 572 c0 -5 -21 -59 -46 -120 l-47 -111
-403 0 -404 0 0 -215 0 -215 315 0 c173 0 315 -4 315 -8 0 -4 -20 -57 -44
-117 l-44 -110 -269 -5 -268 -5 -3 -322 -2 -323 -125 0 -125 0 0 780 0 780
575 0 c327 0 575 -4 575 -9z"/>
<path d="M2568 5824 c-5 -4 -8 -220 -8 -481 l0 -473 118 0 c219 0 354 57 442
185 89 130 103 366 30 522 -54 117 -156 196 -291 227 -75 17 -281 31 -291 20z"/>
<path d="M3460 4049 c-186 -20 -361 -143 -446 -314 -156 -317 -1 -691 334
-807 96 -33 268 -33 364 0 244 84 415 341 393 590 -28 331 -313 566 -645 531z"/>
</g>
</svg>
