<?xml version="1.0" encoding="utf-8"?>
<!-- Generator: Adobe Illustrator 15.1.0, SVG Export Plug-In  -->
<!DOCTYPE svg PUBLIC "-//W3C//DTD SVG 1.0//EN" "http://www.w3.org/TR/2001/REC-SVG-20010904/DTD/svg10.dtd" [
	<!ENTITY ns_flows "http://ns.adobe.com/Flows/1.0/">
]>
<svg version="1.0"
	 xmlns="http://www.w3.org/2000/svg" xmlns:xlink="http://www.w3.org/1999/xlink" xmlns:a="http://ns.adobe.com/AdobeSVGViewerExtensions/3.0/"
	 x="0px" y="0px" width="305px" height="97px" viewBox="0 0 305 97" enable-background="new 0 0 305 97" xml:space="preserve">
<defs>
</defs>
<text transform="matrix(1 0 0 1 101.2085 91.1211)" fill="#FFFFFF" font-family="'VafleVUT-Regular'" font-size="27.0343"> </text>
<text transform="matrix(1 0 0 1 109.0503 91.1211)" fill="#FFFFFF" font-family="'VafleVUT-Regular'" font-size="27.0343"> </text>
<polygon fill="#E4002B" points="252.247,64.833 252.247,32.415 181.398,32.415 181.398,0 101.204,0 101.204,97.25 304.513,97.25 
	304.513,64.833 252.247,64.833 "/>
<polygon fill="#E4002B" points="0,97.25 97.251,97.25 97.251,0 0,0 0,97.25 "/>
<path fill="#FFFFFF" d="M129.829,11.054h4.386c0.832,0,1.386,0.555,1.386,1.386v2.355c0,0.832-0.554,1.385-1.386,1.385h-4.386
	V11.054L129.829,11.054z M129.829,18.581h2.703l3.253,6.232h3.049l-3.325-6.348c1.73-0.415,2.864-1.845,2.864-3.808v-2.08
	c0-2.332-1.593-3.925-3.925-3.925h-7.388v16.161h2.77V18.581L129.829,18.581z"/>
<polygon fill="#FFFFFF" points="145.068,13.756 145.158,13.756 151.53,24.813 154.3,24.813 154.3,8.653 151.53,8.653 151.53,19.713 
	151.439,19.713 145.068,8.653 142.296,8.653 142.296,24.813 145.068,24.813 145.068,13.756 "/>
<path fill="#FFFFFF" d="M161.459,12.439c0-0.831,0.554-1.386,1.384-1.386h3.696c0.829,0,1.383,0.555,1.383,1.386v8.588
	c0,0.833-0.554,1.386-1.383,1.386h-3.696c-0.83,0-1.384-0.552-1.384-1.386V12.439L161.459,12.439z M162.613,24.813h4.154
	c2.332,0,3.926-1.592,3.926-3.924v-8.312c0-2.332-1.594-3.925-3.926-3.925h-4.154c-2.334,0-3.928,1.594-3.928,3.925v8.312
	C158.686,23.221,160.279,24.813,162.613,24.813L162.613,24.813z"/>
<path fill="#FFFFFF" d="M114.361,22.413v-4.525h4.755c0.739,0,1.246,0.508,1.246,1.247v1.893c0,0.833-0.553,1.386-1.385,1.386
	H114.361L114.361,22.413z M114.361,11.054h4.27c0.833,0,1.386,0.555,1.386,1.386v1.8c0,0.739-0.509,1.249-1.246,1.249h-4.409V11.054
	L114.361,11.054z M123.135,20.89v-1.015c0-1.548-0.787-2.702-2.056-3.234v-0.092c1.061-0.577,1.708-1.663,1.708-3.071v-0.9
	c0-2.332-1.593-3.925-3.925-3.925h-7.271v16.161h7.617C121.541,24.813,123.135,23.221,123.135,20.89L123.135,20.89z"/>
<polygon fill="#FFFFFF" points="224.162,57.23 224.162,43.471 228.781,43.471 228.781,41.07 216.775,41.07 216.775,43.471 
	221.394,43.471 221.394,57.23 224.162,57.23 "/>
<path fill="#FFFFFF" d="M120.824,53.444c0,0.833-0.552,1.387-1.384,1.387h-3.693c-0.833,0-1.386-0.554-1.386-1.387V41.07h-2.77
	V53.31c0,2.329,1.592,3.921,3.922,3.921h4.157c2.332,0,3.924-1.592,3.924-3.921V41.07h-2.771V53.444L120.824,53.444z"/>
<path fill="#FFFFFF" d="M206.849,51.829c0-2.332-1.592-3.924-3.927-3.924h-3.23c-0.831,0-1.386-0.555-1.386-1.386v-1.664
	c0-0.828,0.555-1.384,1.386-1.384h2.887c0.831,0,1.384,0.556,1.384,1.384v1.132h2.77v-0.993c0-2.333-1.593-3.924-3.924-3.924h-3.347
	c-2.332,0-3.926,1.592-3.926,3.924v1.385c0,2.332,1.594,3.925,3.926,3.925h3.23c0.832,0,1.387,0.555,1.387,1.386v1.754
	c0,0.833-0.555,1.387-1.387,1.387h-3.23c-0.833,0-1.386-0.554-1.386-1.387v-1.131h-2.771v0.996c0,2.329,1.594,3.921,3.926,3.921
	h3.692c2.335,0,3.927-1.592,3.927-3.921V51.829L206.849,51.829z"/>
<polygon fill="#FFFFFF" points="176.374,43.471 176.374,41.07 166.444,41.07 166.444,57.23 176.603,57.23 176.603,54.831 
	169.217,54.831 169.217,50.305 175.911,50.305 175.911,47.905 169.217,47.905 169.217,43.471 176.374,43.471 "/>
<polygon fill="#FFFFFF" points="240.786,41.07 237.022,47.695 236.93,47.695 233.353,41.07 230.166,41.07 235.405,50.373 
	235.405,57.23 238.179,57.23 238.179,50.373 243.671,41.07 240.786,41.07 "/>
<polygon fill="#FFFFFF" points="213.772,41.07 211.004,41.07 211.004,57.23 213.772,57.23 213.772,41.07 "/>
<path fill="#FFFFFF" d="M187.455,48.597h-4.387v-5.125h4.387c0.83,0,1.386,0.556,1.386,1.384v2.357
	C188.841,48.043,188.285,48.597,187.455,48.597L187.455,48.597z M188.747,50.883c1.733-0.415,2.862-1.848,2.862-3.811v-2.078
	c0-2.333-1.594-3.924-3.925-3.924h-7.389v16.16h2.772v-6.233h2.701l3.254,6.233h3.048L188.747,50.883L188.747,50.883z"/>
<polygon fill="#FFFFFF" points="137.217,52.129 137.123,52.129 130.752,41.07 127.981,41.07 127.981,57.23 130.752,57.23 
	130.752,46.173 130.845,46.173 137.217,57.23 139.987,57.23 139.987,41.07 137.217,41.07 137.217,52.129 "/>
<polygon fill="#FFFFFF" points="160.813,41.07 156.956,53.398 156.864,53.398 153.031,41.07 150.146,41.07 155.365,57.23 
	158.224,57.23 163.445,41.07 160.813,41.07 "/>
<polygon fill="#FFFFFF" points="147.144,41.07 144.375,41.07 144.375,57.23 147.144,57.23 147.144,41.07 "/>
<path fill="#FFFFFF" d="M276.432,73.487h-3.692c-2.333,0-3.925,1.592-3.925,3.925v8.311c0,2.332,1.592,3.926,3.925,3.926h3.692
	c2.333,0,3.926-1.594,3.926-3.926v-4.246h-6.002v2.401h3.231v1.983c0,0.833-0.554,1.386-1.386,1.386h-3.232
	c-0.831,0-1.384-0.553-1.384-1.386v-8.587c0-0.831,0.553-1.387,1.384-1.387h3.232c0.832,0,1.386,0.556,1.386,1.387v1.133h2.771
	v-0.995C280.357,75.079,278.765,73.487,276.432,73.487L276.432,73.487z"/>
<polygon fill="#FFFFFF" points="293.058,73.487 289.291,80.115 289.201,80.115 285.623,73.487 282.438,73.487 287.678,82.791 
	287.678,89.648 290.446,89.648 290.446,82.791 295.941,73.487 293.058,73.487 "/>
<polygon fill="#FFFFFF" points="163.883,82.721 170.578,82.721 170.578,80.323 163.883,80.323 163.883,75.888 171.039,75.888 
	171.039,73.487 161.112,73.487 161.112,89.648 171.271,89.648 171.271,87.247 163.883,87.247 163.883,82.721 "/>
<polygon fill="#FFFFFF" points="242.379,73.487 239.607,73.487 239.607,89.648 249.073,89.648 249.073,87.247 242.379,87.247 
	242.379,73.487 "/>
<path fill="#FFFFFF" d="M182.581,73.487h-3.692c-2.331,0-3.925,1.592-3.925,3.925v8.311c0,2.332,1.594,3.926,3.925,3.926h3.692
	c2.333,0,3.926-1.594,3.926-3.926v-0.991h-2.771v1.13c0,0.833-0.553,1.386-1.383,1.386h-3.232c-0.83,0-1.386-0.553-1.386-1.386
	v-8.587c0-0.831,0.556-1.387,1.386-1.387h3.232c0.83,0,1.383,0.556,1.383,1.387v1.133h2.771v-0.995
	C186.507,75.079,184.914,73.487,182.581,73.487L182.581,73.487z"/>
<polygon fill="#FFFFFF" points="127.981,89.648 130.752,89.648 130.752,82.721 136.987,82.721 136.987,80.323 130.752,80.323 
	130.752,75.888 137.449,75.888 137.449,73.487 127.981,73.487 127.981,89.648 "/>
<path fill="#FFFFFF" d="M232.452,85.861c0,0.833-0.555,1.386-1.386,1.386h-3.694c-0.83,0-1.387-0.553-1.387-1.386v-8.587
	c0-0.831,0.557-1.387,1.387-1.387h3.694c0.831,0,1.386,0.556,1.386,1.387V85.861L232.452,85.861z M231.298,73.487h-4.157
	c-2.331,0-3.925,1.592-3.925,3.925v8.311c0,2.332,1.594,3.926,3.925,3.926h4.157c2.331,0,3.924-1.594,3.924-3.926v-8.311
	C235.222,75.079,233.629,73.487,231.298,73.487L231.298,73.487z"/>
<polygon fill="#FFFFFF" points="146.104,75.888 150.721,75.888 150.721,89.648 153.492,89.648 153.492,75.888 158.11,75.888 
	158.11,73.487 146.104,73.487 146.104,75.888 "/>
<polygon fill="#FFFFFF" points="199.667,80.323 193.203,80.323 193.203,73.487 190.433,73.487 190.433,89.648 193.203,89.648 
	193.203,82.721 199.667,82.721 199.667,89.648 202.438,89.648 202.438,73.487 199.667,73.487 199.667,80.323 "/>
<polygon fill="#FFFFFF" points="216.059,84.545 215.968,84.545 209.594,73.487 206.826,73.487 206.826,89.648 209.594,89.648 
	209.594,78.589 209.687,78.589 216.059,89.648 218.83,89.648 218.83,73.487 216.059,73.487 216.059,84.545 "/>
<path fill="#FFFFFF" d="M120.824,85.861c0,0.833-0.554,1.386-1.386,1.386h-3.691c-0.833,0-1.386-0.553-1.386-1.386v-8.587
	c0-0.831,0.553-1.387,1.386-1.387h3.691c0.832,0,1.386,0.556,1.386,1.387V85.861L120.824,85.861z M119.671,73.487h-4.157
	c-2.33,0-3.922,1.592-3.922,3.925v8.311c0,2.332,1.592,3.926,3.922,3.926h4.157c2.332,0,3.924-1.594,3.924-3.926v-8.311
	C123.595,75.079,122.002,73.487,119.671,73.487L119.671,73.487z"/>
<path fill="#FFFFFF" d="M261.656,85.861c0,0.833-0.553,1.386-1.384,1.386h-3.694c-0.832,0-1.385-0.553-1.385-1.386v-8.587
	c0-0.831,0.553-1.387,1.385-1.387h3.694c0.831,0,1.384,0.556,1.384,1.387V85.861L261.656,85.861z M260.504,73.487h-4.156
	c-2.333,0-3.925,1.592-3.925,3.925v8.311c0,2.332,1.592,3.926,3.925,3.926h4.156c2.33,0,3.925-1.594,3.925-3.926v-8.311
	C264.429,75.079,262.834,73.487,260.504,73.487L260.504,73.487z"/>
<polygon fill="#FFFFFF" points="15.632,14.875 15.632,25.835 45.692,25.835 45.692,14.875 15.632,14.875 "/>
<path fill="#FFFFFF" d="M45.692,81.037h11.306V42.882c0-3.879,3.366-7.022,7.513-7.022h16.86V25.835H45.692V81.037L45.692,81.037z"
	/>
</svg>
