<svg width="285" height="107" viewBox="0 0 285 107" fill="none" xmlns="http://www.w3.org/2000/svg">
<g clip-path="url(#clip0_1311_2)">
<path d="M45.3737 9.78955L48.5258 15.1499H60.8348L63.903 9.92799L90.2585 22.4657C91.9018 23.2491 93.1259 24.7074 93.6081 26.4566L93.6719 26.7084L101.823 62.0872C102.261 63.8535 101.875 65.7113 100.801 67.1639L100.635 67.3787L77.7921 95.7504C76.6444 97.1415 74.9421 98.0167 73.1262 98.0945L72.853 98.1001H36.1959C34.3754 98.1084 32.6438 97.3375 31.4394 95.9844L31.2628 95.7771L8.40769 67.4113C8.28302 67.2513 8.1643 67.0854 8.0515 66.9135C7.14359 65.5751 6.81411 63.9558 7.10019 62.3866L7.16105 62.0931L15.2583 26.744C15.6887 24.8833 16.9442 23.322 18.6717 22.5013C18.6717 22.5013 45.3491 9.80021 45.3737 9.78955Z" fill="#326CE5"/>
<path d="M54.195 6.10527H54.1653C55.1196 6.06678 56.0689 6.24362 56.943 6.62094L57.2315 6.75412L63.903 9.9281L60.8348 15.15H48.5258L45.374 9.7881L51.7522 6.75116C52.4196 6.42177 53.139 6.21244 53.8775 6.13188L54.195 6.10527Z" fill="white"/>
<path opacity="0.28497" d="M46.5828 83.4506L58.9442 94.8131C59.3604 95.1957 60.0002 95.1957 60.4164 94.8131L72.7777 83.4506C73.2046 83.0582 73.4167 82.4846 73.3477 81.909L60.8347 19.1672H58.5257L46.0128 81.909C45.9439 82.4846 46.156 83.0583 46.5828 83.4506Z" fill="white"/>
<path d="M41.5828 83.4506L53.9442 94.8131C54.3604 95.1957 55.0002 95.1957 55.4164 94.8131L67.7777 83.4506C68.2046 83.0582 68.4167 82.4846 68.3477 81.909L60.8347 19.1672H48.5257L41.0128 81.909C40.9439 82.4846 41.156 83.0583 41.5828 83.4506Z" fill="white"/>
<path d="M128.433 40.0016C129.525 38.8112 130.641 37.5712 131.781 36.2816C132.972 34.992 134.113 33.7272 135.204 32.4872C136.295 31.1976 137.312 29.9824 138.254 28.8416C139.246 27.7008 140.089 26.7088 140.784 25.8656H153.953C151.324 28.8912 148.745 31.7928 146.215 34.5704C143.735 37.2984 141.007 40.1256 138.031 43.052C139.519 44.3912 141.057 46.0032 142.644 47.888C144.231 49.7232 145.769 51.6328 147.257 53.6168C148.745 55.6008 150.109 57.5848 151.349 59.5688C152.589 61.5528 153.63 63.3632 154.473 65H141.751C140.957 63.7104 140.04 62.2968 138.998 60.7592C138.006 59.172 136.94 57.6096 135.799 56.072C134.658 54.4848 133.443 52.972 132.153 51.5336C130.913 50.0952 129.673 48.88 128.433 47.888V65H117.348V9.0512L128.433 7.2656V40.0016ZM189.512 63.6608C187.627 64.2064 185.197 64.7024 182.221 65.1488C179.245 65.6448 176.12 65.8928 172.846 65.8928C169.523 65.8928 166.746 65.4464 164.514 64.5536C162.331 63.6608 160.595 62.4208 159.306 60.8336C158.016 59.1968 157.098 57.2624 156.553 55.0304C156.007 52.7984 155.734 50.3432 155.734 47.6648V25.8656H166.82V46.3256C166.82 49.8968 167.291 52.476 168.234 54.0632C169.176 55.6504 170.937 56.444 173.516 56.444C174.31 56.444 175.153 56.4192 176.046 56.3696C176.938 56.2704 177.732 56.1712 178.426 56.072V25.8656H189.512V63.6608ZM221.391 45.1352C221.391 37.9928 218.762 34.4216 213.505 34.4216C212.364 34.4216 211.223 34.5704 210.082 34.868C208.991 35.1656 208.098 35.5376 207.404 35.984V56.1464C207.949 56.2456 208.644 56.3448 209.487 56.444C210.33 56.4936 211.248 56.5184 212.24 56.5184C215.265 56.5184 217.547 55.4768 219.085 53.3936C220.622 51.3104 221.391 48.5576 221.391 45.1352ZM232.7 45.4328C232.7 48.5576 232.229 51.3848 231.286 53.9144C230.393 56.444 229.079 58.6016 227.343 60.3872C225.607 62.1728 223.474 63.5616 220.945 64.5536C218.415 65.496 215.538 65.9672 212.314 65.9672C210.975 65.9672 209.561 65.8928 208.073 65.744C206.635 65.6448 205.197 65.496 203.758 65.2976C202.369 65.0992 201.03 64.876 199.741 64.628C198.451 64.3304 197.31 64.0328 196.318 63.7352V9.0512L207.404 7.2656V26.7584C208.644 26.2128 209.933 25.7912 211.273 25.4936C212.612 25.196 214.05 25.0472 215.588 25.0472C218.365 25.0472 220.821 25.5432 222.953 26.5352C225.086 27.4776 226.872 28.8416 228.31 30.6272C229.749 32.4128 230.84 34.5704 231.584 37.1C232.328 39.58 232.7 42.3576 232.7 45.4328ZM235.76 45.7304C235.76 42.2584 236.281 39.2328 237.322 36.6536C238.413 34.0248 239.827 31.8424 241.563 30.1064C243.299 28.3704 245.283 27.056 247.515 26.1632C249.797 25.2704 252.128 24.824 254.509 24.824C260.064 24.824 264.453 26.5352 267.677 29.9576C270.901 33.3304 272.513 38.3152 272.513 44.912C272.513 45.5568 272.489 46.276 272.439 47.0696C272.389 47.8136 272.34 48.4832 272.29 49.0784H247.143C247.391 51.36 248.457 53.1704 250.342 54.5096C252.227 55.8488 254.757 56.5184 257.931 56.5184C259.965 56.5184 261.949 56.3448 263.883 55.9976C265.867 55.6008 267.479 55.1296 268.719 54.584L270.207 63.5864C269.612 63.884 268.818 64.1816 267.826 64.4792C266.834 64.7768 265.718 65.0248 264.478 65.2232C263.288 65.4712 261.998 65.6696 260.609 65.8184C259.221 65.9672 257.832 66.0416 256.443 66.0416C252.921 66.0416 249.846 65.5208 247.217 64.4792C244.638 63.4376 242.481 62.024 240.745 60.2384C239.058 58.4032 237.793 56.2456 236.95 53.7656C236.157 51.2856 235.76 48.6072 235.76 45.7304ZM261.8 41.4896C261.75 40.5472 261.577 39.6296 261.279 38.7368C261.031 37.844 260.609 37.0504 260.014 36.356C259.469 35.6616 258.749 35.0912 257.857 34.6448C257.013 34.1984 255.947 33.9752 254.657 33.9752C253.417 33.9752 252.351 34.1984 251.458 34.6448C250.565 35.0416 249.821 35.5872 249.226 36.2816C248.631 36.976 248.16 37.7944 247.813 38.7368C247.515 39.6296 247.292 40.5472 247.143 41.4896H261.8Z" fill="#326CE5"/>
<path d="M141.409 82.5024C140.741 76.9595 136.545 73.772 130.991 73.772C124.651 73.772 119.811 78.2485 119.811 86.1001C119.811 93.9282 124.569 98.4282 130.991 98.4282C137.143 98.4282 140.858 94.3384 141.409 89.9204L136.276 89.897C135.795 92.4634 133.78 93.9399 131.073 93.9399C127.428 93.9399 124.955 91.2329 124.955 86.1001C124.955 81.1079 127.393 78.2603 131.108 78.2603C133.885 78.2603 135.889 79.8657 136.276 82.5024H141.409ZM149.351 98.1001L151.132 92.6274H159.792L161.574 98.1001H167.011L158.738 74.1001H152.199L143.913 98.1001H149.351ZM152.421 88.6665L155.374 79.5845H155.562L158.515 88.6665H152.421ZM170.518 98.1001H175.592V89.5923H179.295L183.842 98.1001H189.444L184.346 88.772C187.076 87.6001 188.588 85.2212 188.588 81.9399C188.588 77.1704 185.436 74.1001 179.987 74.1001H170.518V98.1001ZM175.592 85.5142V78.2485H179.014C181.944 78.2485 183.362 79.5493 183.362 81.9399C183.362 84.3188 181.944 85.5142 179.037 85.5142H175.592ZM192.792 98.1001H209.011V93.9165H197.866V88.186H208.132V84.0024H197.866V78.2837H208.964V74.1001H192.792V98.1001ZM213.616 98.1001H229.835V93.9165H218.691V88.186H228.956V84.0024H218.691V78.2837H229.788V74.1001H213.616V98.1001ZM234.441 98.1001H239.515V89.5923H243.218L247.765 98.1001H253.366L248.269 88.772C250.999 87.6001 252.511 85.2212 252.511 81.9399C252.511 77.1704 249.359 74.1001 243.909 74.1001H234.441V98.1001ZM239.515 85.5142V78.2485H242.937C245.866 78.2485 247.284 79.5493 247.284 81.9399C247.284 84.3188 245.866 85.5142 242.96 85.5142H239.515ZM269.734 81.0024H274.598C274.527 76.7251 271.012 73.772 265.668 73.772C260.406 73.772 256.551 76.6782 256.574 81.0376C256.563 84.5767 259.059 86.604 263.113 87.5767L265.727 88.2329C268.34 88.8657 269.793 89.6157 269.805 91.2329C269.793 92.9907 268.129 94.186 265.551 94.186C262.914 94.186 261.016 92.9673 260.852 90.5649H255.942C256.07 95.7563 259.785 98.4399 265.609 98.4399C271.469 98.4399 274.914 95.6392 274.926 91.2446C274.914 87.2485 271.902 85.1274 267.731 84.1899L265.574 83.6743C263.488 83.1938 261.742 82.4204 261.777 80.6978C261.777 79.1509 263.149 78.0142 265.633 78.0142C268.059 78.0142 269.547 79.1157 269.734 81.0024Z" fill="#001A51"/>
</g>
<defs>
<clipPath id="clip0_1311_2">
<rect width="285" height="107" fill="white"/>
</clipPath>
</defs>
</svg>
