<?xml version="1.0" encoding="UTF-8" standalone="no"?>
<svg xmlns:rdf="http://www.w3.org/1999/02/22-rdf-syntax-ns#" xmlns="http://www.w3.org/2000/svg" xml:space="preserve" height="45.986" viewBox="0 0 101.41 45.986252" width="101.41" version="1.1" xmlns:cc="http://creativecommons.org/ns#" xmlns:dc="http://purl.org/dc/elements/1.1/"><g transform="matrix(1.25 0 0 -1.25 -332.66 118.16)"><g transform="translate(.38088 .38088)"><path d="m266.13 57.736h80.328v35.989h-80.328v-35.989z" fill="#c00"/><path d="m1.6504 1.6484v41.688h97.111v-41.688h-97.111zm0.68555 0.68555h95.738v40.311h-95.738v-40.311zm26.859 6.3164c-4.1137 0.0075-7.0726 2.7313-7.0801 6.5801 0.0012 3.6238 3.1981 6.0523 6.9844 6.0586 3.75-0.0075 6.8792-2.7475 6.8867-6.6562-0.0012-3.4875-3.1385-5.9762-6.791-5.9824zm12.904 0c-1.9775 0.00375-3.4616 1.2063-3.4629 2.8301 0.02 3.41 6.2001 4.263 6.1738 6.9805-0.0025 1.4912-1.3402 2.2292-2.6152 2.2305-1.4838-0.0012-2.8109-0.98539-3.2109-2.6816l-0.0078-0.03125h-0.03125-0.36523-0.04687l0.41602 3.0039h0.36133 0.02148l0.01172-0.01758c0.07125-0.10625 0.19406-0.19531 0.35156-0.19531 0.24625-0.0025 1.6088 0.51953 2.6738 0.51953 2.2662-0.0025 3.9629-1.4149 3.9629-3.3262-0.0175-3.5838-6.2013-4.3245-6.1738-7.002 0.0012-1.0525 0.85898-1.7651 2.1152-1.7676 1.3075 0 2.5248 0.87289 3.0586 2.2441l0.0098 0.02344h0.35352 0.04688l-0.33789-2.5215h-0.34375-0.01953l-0.01172 0.015625c-0.115 0.15-0.16695 0.17523-0.31445 0.17773-0.6475 0.00375-0.99274-0.48242-2.6152-0.48242zm6.5215 0-0.31445 3.1953h0.38867 0.03516l0.0039-0.0332c0.29375-1.6938 0.62148-2.0991 1.3652-2.1016h3.3086v9.4629c-0.01125 1.0288-0.31492 1.3533-1.4824 1.3633h-0.75v0.40625 0.03906h6.1387v-0.4043-0.04102h-0.75195c-1.1675-0.01-1.4705-0.33453-1.4805-1.3633v-9.4629h3.3066c0.745 0.0025 1.0715 0.40781 1.3652 2.1016l0.0059 0.0332h0.38086 0.04297l-0.31445-3.1953h-0.40234-0.03516l-0.0059 0.035156c-0.02625 0.1925-0.28719 0.25516-0.55469 0.25391h-9.252c-0.13 0.00125-0.26109-0.019141-0.37109-0.056641-0.106-0.0368-0.168-0.0979-0.186-0.1979l-0.0059-0.035156h-0.39844-0.03711zm19.996 0c-4.1162 0.0075-7.0713 2.7313-7.0801 6.5801 0.0025 3.6238 3.1981 6.0523 6.9844 6.0586 3.75-0.0075 6.8792-2.7475 6.8867-6.6562-0.0012-3.4875-3.1398-5.9762-6.791-5.9824zm-54.784 0.1152c-0.36625 0-1.828 0.019844-2.8867 0.058594-0.55875 0.01875-1.8844 0.095234-2.4219 0.11523l-0.039063 0.00195v0.4043 0.039063h0.71289c1.33 0.01125 1.4302 0.53602 1.4414 1.6348v7.9805c-0.0125 1.2038-0.27195 1.5246-1.8457 1.5371h-0.48242v0.40625 0.03906h7.0801c3.1175-0.0038 4.1903-2.1571 4.1953-3.6934 0-1.5-1.0478-2.6778-2.8203-3.2266 1.2625-0.26125 2.1465-1.2748 2.1465-2.3711 0.0012-0.935-0.39516-1.6055-1.1914-2.168-0.70875-0.51-2.1924-0.75656-3.8887-0.75781zm63.514 0.17383v0.40625 0.037109l0.03906 0.00195c0.65875 0.01875 1.1449 0.16719 1.5762 0.46094v9.4434c-0.0062 0.87-0.34891 1.2393-1.5352 1.248h-0.07617-0.04102v0.40625 0.03906h4.541v-0.4043-0.04102h-0.03906c-1.634-0.014-1.891-0.255-1.905-1.633v-8.1523l9.9062 10.365h0.01953 0.53711v-10.771c0.0075-0.72875 0.26594-0.94969 1.7109-0.96094h0.03906v-0.40625-0.039063h-4.5801v0.40625 0.037109l0.03906 0.00195c1.5425 0.05125 1.8357 0.22352 1.8457 1.3848v7.5547l-9.002-9.3848h-3.0762zm-63.379 0.2735c2.3512 0.00375 3.1298 1.2064 3.1348 2.5352-0.005 1.48-0.89297 2.1864-2.7305 2.1914h-2.0566v-4.6719c0.48375-0.01875 1.2423-0.054687 1.6523-0.054687zm14.729 0c3.15 0.00125 5.4018 2.4954 5.4043 6.0566-0.0038 2.7188-1.4914 5.4559-4.5977 5.4609-3.0738-0.0012-5.4988-2.5189-5.5-6.0977 0.0012-2.2962 1.3384-5.4149 4.6934-5.4199zm39.422 0c3.15 0.00125 5.4011 2.4954 5.4023 6.0566-0.0012 2.7188-1.4882 5.4559-4.5957 5.4609-3.0738-0.0012-5.4968-2.5189-5.498-6.0977 0.0025-2.2962 1.3364-5.4149 4.6914-5.4199zm-55.803 5.1719h2.0371c2.2312 0.0012 3.3432 1.5009 3.3457 2.9609-0.0062 1.4888-0.71172 3.0334-3.2305 3.0371-1.6088-0.0088-2.1436-0.4907-2.1523-1.9395v-4.0586zm52.684 13.217c-1.3112 0.0012-2.3008 0.80156-2.3008 1.8828 0.01875 2.2688 4.1044 2.8365 4.0781 4.6152-0.0012 0.97375-0.87414 1.4558-1.7129 1.457-0.97375 0-1.8456-0.64602-2.1094-1.7598l-0.0078-0.03125h-0.03125-0.24023-0.04687l0.27734 2.0117h0.25195 0.01953l0.01367-0.01758c0.045-0.0675 0.12195-0.12305 0.2207-0.12305 0.15625-0.0025 1.0581 0.34375 1.7656 0.34375 1.5025-0.0025 2.6328-0.94039 2.6328-2.2129-0.01875-2.3812-4.1056-2.877-4.0781-4.627 0.0012-0.6875 0.55781-1.153 1.3828-1.1543 0.85875 0 1.6585 0.57336 2.0098 1.4746l0.0078 0.02344h0.24414 0.04687l-0.22852-1.6934h-0.23633-0.02148l-0.01172 0.01563c-0.07625 0.0975-0.10226 0.10953-0.19727 0.11328-0.41875 0.0025-0.65352-0.31836-1.7285-0.31836zm10.016 0-0.21289 2.1387h0.27344 0.03516l0.0039-0.0332c0.19625-1.1212 0.40617-1.3757 0.88867-1.377h2.1719v6.2383c-0.01 0.67625-0.19539 0.87672-0.96289 0.88672l-0.51172 0.002v0.28125 0.03906h4.084v-0.2832-0.03711h-0.50976c-0.76875-0.01125-0.95484-0.21242-0.96484-0.88867v-6.2402l2.1719 0.002c0.4825 0.0012 0.69242 0.2557 0.88867 1.377l0.0039 0.0332h0.26367 0.04492l-0.21094-2.1387h-0.27734-0.03516l-0.0059 0.0332c-0.0125 0.115-0.17602 0.15625-0.35352 0.15625h-6.1152c-0.085 0-0.16898-0.01141-0.24024-0.03516-0.06625-0.02375-0.10328-0.06109-0.11328-0.12109l-0.0059-0.0332h-0.27344-0.03711zm-18.734 0.109c-0.8225-0.0012-1.0782 0.01211-1.5957 0.03711-0.52 0.02625-1.2938 0.07617-1.5938 0.07617h-0.04102v0.28125 0.03906h0.31836c0.725 0.01 0.89891 0.19516 0.91016 0.97266v5.3281c-0.01 0.83875-0.23391 1.0005-0.97266 1.0117h-0.21484-0.04102v0.27734 0.04102h3.6621v-0.2793-0.03906h-0.33203c-0.7025-0.01125-0.96266-0.16516-0.97266-0.91016l0.0059-2.0977c0.185 0.01125 0.35398 0.02539 0.61524 0.02539 0.34375 0 0.68117-0.02867 0.95117-0.07617l0.0039-0.02148v0.01953c0.11875-0.02125 0.57383 0.63562 1.0488 1.2344l0.74414 0.91602c1.0075 1.1462 1.3125 1.3683 3.0312 1.3633h0.04883 0.03906v-0.26758-0.0332l-0.0332-0.0059c-0.775-0.1325-1.0515-0.28774-1.6152-0.95898 0.0012 0.0012-1.6123-2.0553-1.8711-2.3828-0.08125-0.09625-0.13805-0.16117-0.18555-0.20117 0.93875-0.3525 1.5215-1.0691 1.5215-2.0566-0.0037-1.3175-1.0829-2.2905-3.4316-2.293zm-47.908 0.08008v0.2832 0.03711l0.039063 0.002c0.865 0.02375 1.0402 0.10836 1.0527 0.91211v3.7129c0.00375 1.8375 1.2704 3.2384 3.7129 3.2422 2.7775-0.0037 3.799-1.7141 3.8027-3.3066v-3.4316c0.0087-0.80375 0.27719-1.1102 1.1172-1.1289h0.03906v-0.28125-0.04102h-0.04102-3.0254v0.2832 0.03516l0.03711 0.0039c1.05 0.0625 1.1945 0.22727 1.207 1.4473v2.9629c-0.0025 2.1362-1.4287 2.7098-2.8574 2.7148-1.8788-0.0038-2.8537-1.0063-2.8574-2.7051v-3.5312c0.0088-0.7225 0.27109-0.87992 0.96484-0.88867h0.11328 0.03906v-0.28125-0.04102h-3.3437zm11.012 0v0.2832 0.03711l0.04102 0.002c0.43 0.0125 0.74609 0.10883 1.0273 0.29883v6.2324c-0.0075 0.57125-0.2207 0.80375-1.002 0.8125h-0.05078-0.04102v0.28125 0.03906h3.0273v-0.2832-0.03711h-0.03711c-1.08-0.015-1.2316-0.15766-1.2441-1.0664v-5.3535l6.5254 6.8301h0.01758 0.33008 0.04102v-7.1328c0.0087-0.47375 0.15969-0.61109 1.1172-0.62109h0.03906v-0.28125-0.04102h-3.0527v0.2832 0.03711l0.03906 0.002c1.02 0.03875 1.1938 0.13789 1.2051 0.90039v4.959l-5.9277-6.1816h-2.0547zm11.523 0v0.2832 0.03516l0.03711 0.0039c0.7075 0.0475 0.90602 0.19875 0.91602 0.875v5.4141c-0.0125 0.84875-0.13602 1.0047-0.91602 1.0547h-0.03711v0.28125 0.03906h3.166v-0.03906-0.24219-0.03906h-0.03711c-0.87-0.0125-1.0298-0.22359-1.041-0.96484v-5.3906c0.01125-0.8425 0.24476-0.97703 1.041-0.98828h0.03711v-0.28125-0.04102h-3.166zm4.3438 0v0.2832 0.03906h0.03906c0.7675 0.0075 0.88273 0.16555 1.209 0.9668l2.7676 6.9004h0.02734 0.66211l2.6289-6.7988c0.3075-0.78375 0.62648-1.0646 1.2715-1.0684h0.04102v-0.28125-0.04102h-3.0293v0.2832 0.03906h0.03906c0.86875 0.0038 1.1426 0.14789 1.1426 0.49414 0.0012 0.16625-0.07289 0.41969-0.21289 0.77344l-1.9707 5.1543-2.25-5.5996c-0.05125-0.12375-0.07813-0.22961-0.07813-0.31836-0.005-0.31375 0.32805-0.48266 1.248-0.50391h0.03906v-0.28125-0.04102h-3.5742zm9.5 0v0.2832 0.03906h0.32031c0.84125 0.01125 0.96726 0.26906 0.97852 0.97656v5.3633c-0.0125 0.75625-0.145 0.99141-1.1562 1.0039h-0.35547-0.04102v0.28125 0.03906h6.8262l0.21094-1.9727h-0.27344-0.0293l-0.0078 0.02734c-0.325 1.0912-0.5618 1.402-1.4355 1.4082h-1.957c-0.46625-0.01125-0.63844-0.08641-0.64844-0.66016v-2.668h2.1094c0.51375 0.01 0.71297 0.07195 0.82422 0.9707l0.002 0.03516h0.2793 0.03906v-0.04102-2.4551h-0.28125-0.03711l-0.002 0.03711c-0.07 0.735-0.25852 0.91172-0.69727 0.91797h-2.2363v-3.0488h2.6426c0.43625 0.0038 0.72914 0.19859 0.90039 1.2773l0.0059 0.0332h0.26367 0.04102l-0.10547-1.8477h-6.1797zm25.281 0v0.2832 0.03711l0.03711 0.002c0.70625 0.0475 0.90477 0.2 0.91602 0.875l-0.002 5.4141c-0.01125 0.84875-0.13406 1.0047-0.91406 1.0547h-0.03711v0.28125 0.03906h3.168v-0.03906-0.24219-0.03906h-0.03906c-0.87125-0.0125-1.0317-0.22359-1.043-0.96484v-5.3906c0.01125-0.8425 0.24547-0.97703 1.043-0.98828h0.03906v-0.28125-0.04102h-3.168zm13.254 0v0.2832 0.03711l0.03711 0.002c0.81875 0.03 1.0815 0.18656 1.709 1.1641l2.2559 3.5234v1.7793c-0.0088 0.61375-0.19781 0.86695-0.97656 0.87695h-0.24023-0.04102v0.28125 0.03906h3.5742v-0.28125-0.03906h-0.20508c-0.76625-0.01-0.96781-0.23859-0.97656-0.90234v-1.9062l2.1055-3.5508c0.355-0.5925 0.70164-0.91812 1.5566-0.98438l0.03711-0.0039v-0.27734-0.04102h-2.9512v0.2832 0.03906h0.03906c0.555 0.0025 0.79953 0.1 0.80078 0.34375 0.0012 0.12-0.06 0.28977-0.1875 0.50977l-1.7598 2.9961-2-3.0859c-0.13625-0.2075-0.21023-0.36977-0.20898-0.47852 0-0.18125 0.21156-0.28516 0.85156-0.28516h0.03906v-0.28125-0.04102h-3.459zm-27.285 0.24219c1.9362 0.0063 2.4352 0.88312 2.4414 2.0469-0.005 1.4988-0.89531 2.0673-2.2891 2.0723-0.12 0-0.21961 0.002-0.31836 0.002-0.135 0-0.26524-0.0027-0.42774-0.02148v-4.0801c0.20875-0.02 0.365-0.01953 0.59375-0.01953z" transform="matrix(.8 0 0 -.8 266.13 93.725)" fill="#fff"/></g></g></svg>
