<svg xmlns="http://www.w3.org/2000/svg" id="icon-logo-fit-en--sm" viewBox="0 0 285 90"><path fill="#E4002B" d="M0 90h90V0H0z"/><path fill="#FFF" d="M75 25H43V15H14v10h29v50h10V41.4c0-3.5 2.8-7.4 6.6-7.4H75v-9z"/><path fill="#00ADE9" d="M198.7 30.001L199 0H94v90h154V60.002h37V30.001z"/><path fill="#FFF" d="M193.32 52.548h.001l-2.994-5.723h-2.484v5.722h-2.547V37.71h6.793c2.145 0 3.61 1.462 3.61 3.604v1.908c0 1.801-1.041 3.116-2.632 3.496l3.056 5.83h-2.803zm-5.477-12.635v4.706h4.034c.764 0 1.274-.508 1.274-1.271v-2.162c0-.763-.51-1.273-1.274-1.273h-4.034zm-68.998 12.635h2.547v-6.359h5.733v-2.205h-5.733v-4.071h6.157V37.71h-8.704zm113.54 0h2.548V39.913h4.247V37.71h-11.041v2.203h4.246zm-26.219-5.406h-.085l-4.119-9.432h-2.654v14.838h2.547v-9.136h.107l3.99 9.136h.129l4.012-9.136h.106v9.136h2.526V37.71h-2.442zm-28.514 5.406h-3.821c-2.145 0-3.61-1.462-3.61-3.604v-7.63c0-2.142 1.465-3.604 3.61-3.604h3.82c2.145 0 3.61 1.462 3.61 3.604v7.63c0 2.142-1.465 3.604-3.609 3.604zm-4.883-3.476c0 .762.51 1.272 1.273 1.272h3.399c.764 0 1.272-.51 1.272-1.272v-7.886c0-.763-.508-1.273-1.272-1.273h-3.399c-.764 0-1.273.51-1.273 1.273v7.886zM255.95 37.71h-.001c2.145 0 3.61 1.462 3.61 3.604v7.63c0 2.142-1.465 3.604-3.609 3.604h-3.822c-2.145 0-3.61-1.462-3.61-3.604v-7.63c0-2.142 1.465-3.604 3.61-3.604h3.822zm1.062 11.362v-7.886c0-.763-.509-1.273-1.275-1.273h-3.397c-.764 0-1.272.51-1.272 1.273v7.886c0 .762.508 1.272 1.272 1.272h3.397c.766 0 1.275-.51 1.275-1.272zm15.074-11.362v10.154h-.084l-5.861-10.154h-2.547v14.838h2.547V42.395h.085l5.86 10.153h2.548V37.71zm-52.927 11.085l-1.252 3.752h-2.423l5.118-14.837h2.632l5.118 14.838h-2.654l-1.252-3.753h-5.287zm2.61-7.82l.001-.001-1.89 5.618h3.844l-1.87-5.617h-.085zm20.169-3.265h2.547v14.837h-2.547zm-105.154 0h2.547v14.837h-2.547zm-25.582 0h-.001c2.144 0 3.609 1.462 3.61 3.604v7.63c0 2.142-1.465 3.604-3.609 3.604h-3.822c-2.144 0-3.61-1.462-3.61-3.604v-7.63c0-2.142 1.466-3.604 3.61-3.604h3.822zm1.06 11.362h.001v-7.886c0-.763-.511-1.273-1.275-1.273h-3.397c-.764 0-1.273.51-1.273 1.273v7.886c0 .762.509 1.272 1.273 1.272h3.397c.764 0 1.274-.51 1.274-1.272zm39.595-1.208h-.085l-5.86-10.154h-2.546v14.838h2.546V42.395h.085l5.86 10.153h2.547V37.71h-2.547zm15.286-7.951V37.71h-8.704v14.838h2.547v-6.359h5.732v-2.205h-5.732v-4.071zm16.517-17.129h2.548v-6.295l5.052-8.543h-2.653l-3.461 6.084h-.085l-3.29-6.084h-2.93l4.819 8.543zm-61.696-3.753h-5.286l-1.253 3.752h-2.42l5.117-14.838h2.632l5.117 14.839h-2.655l-1.252-3.753zm-2.674-7.82v-.001l-1.889 5.618h3.842l-1.868-5.617h-.085zm47.345 9.369h-6.158V7.946h-2.548v14.838h8.706zm-20.17 2.204h3.822c2.144 0 3.609-1.463 3.609-3.604V7.946h-2.547v11.362c0 .763-.51 1.272-1.275 1.272h-3.397c-.765 0-1.273-.51-1.273-1.272V7.946h-2.549v11.235c0 2.14 1.466 3.602 3.61 3.602v.001zm-14.225 0h3.397c2.144 0 3.61-1.463 3.61-3.604v-.912h-2.55v1.039c0 .763-.508 1.272-1.273 1.272h-2.972c-.764 0-1.273-.509-1.273-1.272v-7.885c0-.763.509-1.272 1.273-1.272h2.972c.765 0 1.274.509 1.274 1.272v1.04h2.548v-.913c0-2.141-1.465-3.604-3.609-3.604h-3.397c-2.145 0-3.61 1.463-3.61 3.604v7.63c0 2.142 1.465 3.605 3.61 3.605zm-25.921-6.359h5.731v-2.204h-5.731v-4.07h6.156V7.946h-8.706v14.838h2.55zm64.454 6.359h2.549V10.151h4.246V7.946h-11.041v2.205h4.246zm10.064 44.69c2.145 0 3.61 1.463 3.61 3.603v7.632c0 2.142-1.465 3.604-3.61 3.604h-3.82c-2.145 0-3.61-1.462-3.61-3.604v-7.632c0-2.141 1.465-3.603 3.61-3.603h3.82zm1.062 11.361v.001-7.885c0-.765-.509-1.273-1.274-1.273h-3.397c-.765 0-1.274.509-1.274 1.273v7.884c0 .763.509 1.273 1.274 1.273h3.397c.764 0 1.274-.509 1.274-1.273zm9.13-11.361h-2.549v14.838h8.705v-2.204h-6.156zm-24.203 10.154h-.086l-5.86-10.154h-2.546v14.838h2.546V72.158h.087l5.859 10.154h2.548V67.474h-2.548zm55.517-10.154h-3.398c-2.144 0-3.61 1.462-3.61 3.603v7.632c0 2.142 1.466 3.604 3.61 3.604h3.398c2.145 0 3.61-1.462 3.61-3.604v-3.901h-5.52v2.205h2.972v1.822c0 .764-.508 1.273-1.274 1.273h-2.972c-.765 0-1.273-.51-1.273-1.273v-7.884c0-.764.508-1.273 1.273-1.273h2.972c.766 0 1.274.508 1.274 1.273v1.037h2.548v-.911c0-2.14-1.465-3.603-3.61-3.603zm-14.65 0c2.145 0 3.61 1.463 3.61 3.603v7.632c0 2.142-1.465 3.604-3.609 3.604h-3.82c-2.145 0-3.61-1.462-3.61-3.604v-7.632c0-2.141 1.465-3.603 3.609-3.603h3.82zm1.063 11.361v.001-7.885c0-.765-.509-1.273-1.273-1.273h-3.398c-.765 0-1.273.509-1.273 1.273v7.884c0 .763.508 1.273 1.273 1.273h3.398c.764 0 1.273-.509 1.273-1.273zm25.413-5.279h-.087l-3.288-6.082h-2.931l4.82 8.543v6.295h2.548v-6.295l5.052-8.543h-2.653zm-98.129-6.082h-3.397c-2.144 0-3.609 1.462-3.609 3.603v7.632c0 2.142 1.465 3.604 3.61 3.604h3.397c2.144 0 3.609-1.462 3.609-3.604v-.913h-2.548v1.04c0 .763-.51 1.272-1.274 1.272h-2.972c-.764 0-1.274-.51-1.274-1.273v-7.884c0-.764.51-1.273 1.274-1.273h2.972c.764 0 1.274.508 1.274 1.273v1.037h2.548v-.911c0-2.14-1.465-3.603-3.61-3.603zm15.711 6.274h-5.944v-6.274h-2.549v14.838h2.549v-6.359h5.944v6.359h2.548V67.474h-2.548zm-32.907 2.205H125v-2.205h-6.156v-4.07h6.581v-2.204h-9.129v14.838h9.342v-2.204h-6.794zm-16.348-6.275h4.246v12.634h2.548V69.678h4.246v-2.204h-11.04z"/></svg>
